<?xml version="1.0" encoding="utf-8" standalone="no"?>
<!DOCTYPE svg PUBLIC "-//W3C//DTD SVG 1.1//EN"
  "http://www.w3.org/Graphics/SVG/1.1/DTD/svg11.dtd">
<!-- Created with matplotlib (https://matplotlib.org/) -->
<svg height="432pt" version="1.1" viewBox="0 0 1440 432" width="1440pt" xmlns="http://www.w3.org/2000/svg" xmlns:xlink="http://www.w3.org/1999/xlink">
 <defs>
  <style type="text/css">
*{stroke-linecap:butt;stroke-linejoin:round;}
  </style>
 </defs>
 <g id="figure_1">
  <g id="patch_1">
   <path d="M 0 432 
L 1440 432 
L 1440 0 
L 0 0 
z
" style="fill:#ffffff;"/>
  </g>
  <g id="axes_1">
   <g id="patch_2">
    <path d="M 180 384.48 
L 1296 384.48 
L 1296 51.84 
L 180 51.84 
z
" style="fill:#ffffff;"/>
   </g>
   <g id="matplotlib.axis_1">
    <g id="xtick_1">
     <g id="line2d_1">
      <defs>
       <path d="M 0 0 
L 0 3.5 
" id="m3aa09096aa" style="stroke:#000000;stroke-width:0.8;"/>
      </defs>
      <g>
       <use style="stroke:#000000;stroke-width:0.8;" x="230.727273" xlink:href="#m3aa09096aa" y="384.48"/>
      </g>
     </g>
     <g id="text_1">
      <!-- 0 -->
      <defs>
       <path d="M 31.78125 66.40625 
Q 24.171875 66.40625 20.328125 58.90625 
Q 16.5 51.421875 16.5 36.375 
Q 16.5 21.390625 20.328125 13.890625 
Q 24.171875 6.390625 31.78125 6.390625 
Q 39.453125 6.390625 43.28125 13.890625 
Q 47.125 21.390625 47.125 36.375 
Q 47.125 51.421875 43.28125 58.90625 
Q 39.453125 66.40625 31.78125 66.40625 
z
M 31.78125 74.21875 
Q 44.046875 74.21875 50.515625 64.515625 
Q 56.984375 54.828125 56.984375 36.375 
Q 56.984375 17.96875 50.515625 8.265625 
Q 44.046875 -1.421875 31.78125 -1.421875 
Q 19.53125 -1.421875 13.0625 8.265625 
Q 6.59375 17.96875 6.59375 36.375 
Q 6.59375 54.828125 13.0625 64.515625 
Q 19.53125 74.21875 31.78125 74.21875 
z
" id="DejaVuSans-48"/>
      </defs>
      <g transform="translate(227.546023 399.078438)scale(0.1 -0.1)">
       <use xlink:href="#DejaVuSans-48"/>
      </g>
     </g>
    </g>
    <g id="xtick_2">
     <g id="line2d_2">
      <g>
       <use style="stroke:#000000;stroke-width:0.8;" x="400.525675" xlink:href="#m3aa09096aa" y="384.48"/>
      </g>
     </g>
     <g id="text_2">
      <!-- 200 -->
      <defs>
       <path d="M 19.1875 8.296875 
L 53.609375 8.296875 
L 53.609375 0 
L 7.328125 0 
L 7.328125 8.296875 
Q 12.9375 14.109375 22.625 23.890625 
Q 32.328125 33.6875 34.8125 36.53125 
Q 39.546875 41.84375 41.421875 45.53125 
Q 43.3125 49.21875 43.3125 52.78125 
Q 43.3125 58.59375 39.234375 62.25 
Q 35.15625 65.921875 28.609375 65.921875 
Q 23.96875 65.921875 18.8125 64.3125 
Q 13.671875 62.703125 7.8125 59.421875 
L 7.8125 69.390625 
Q 13.765625 71.78125 18.9375 73 
Q 24.125 74.21875 28.421875 74.21875 
Q 39.75 74.21875 46.484375 68.546875 
Q 53.21875 62.890625 53.21875 53.421875 
Q 53.21875 48.921875 51.53125 44.890625 
Q 49.859375 40.875 45.40625 35.40625 
Q 44.1875 33.984375 37.640625 27.21875 
Q 31.109375 20.453125 19.1875 8.296875 
z
" id="DejaVuSans-50"/>
      </defs>
      <g transform="translate(390.981925 399.078438)scale(0.1 -0.1)">
       <use xlink:href="#DejaVuSans-50"/>
       <use x="63.623047" xlink:href="#DejaVuSans-48"/>
       <use x="127.246094" xlink:href="#DejaVuSans-48"/>
      </g>
     </g>
    </g>
    <g id="xtick_3">
     <g id="line2d_3">
      <g>
       <use style="stroke:#000000;stroke-width:0.8;" x="570.324078" xlink:href="#m3aa09096aa" y="384.48"/>
      </g>
     </g>
     <g id="text_3">
      <!-- 400 -->
      <defs>
       <path d="M 37.796875 64.3125 
L 12.890625 25.390625 
L 37.796875 25.390625 
z
M 35.203125 72.90625 
L 47.609375 72.90625 
L 47.609375 25.390625 
L 58.015625 25.390625 
L 58.015625 17.1875 
L 47.609375 17.1875 
L 47.609375 0 
L 37.796875 0 
L 37.796875 17.1875 
L 4.890625 17.1875 
L 4.890625 26.703125 
z
" id="DejaVuSans-52"/>
      </defs>
      <g transform="translate(560.780328 399.078438)scale(0.1 -0.1)">
       <use xlink:href="#DejaVuSans-52"/>
       <use x="63.623047" xlink:href="#DejaVuSans-48"/>
       <use x="127.246094" xlink:href="#DejaVuSans-48"/>
      </g>
     </g>
    </g>
    <g id="xtick_4">
     <g id="line2d_4">
      <g>
       <use style="stroke:#000000;stroke-width:0.8;" x="740.12248" xlink:href="#m3aa09096aa" y="384.48"/>
      </g>
     </g>
     <g id="text_4">
      <!-- 600 -->
      <defs>
       <path d="M 33.015625 40.375 
Q 26.375 40.375 22.484375 35.828125 
Q 18.609375 31.296875 18.609375 23.390625 
Q 18.609375 15.53125 22.484375 10.953125 
Q 26.375 6.390625 33.015625 6.390625 
Q 39.65625 6.390625 43.53125 10.953125 
Q 47.40625 15.53125 47.40625 23.390625 
Q 47.40625 31.296875 43.53125 35.828125 
Q 39.65625 40.375 33.015625 40.375 
z
M 52.59375 71.296875 
L 52.59375 62.3125 
Q 48.875 64.0625 45.09375 64.984375 
Q 41.3125 65.921875 37.59375 65.921875 
Q 27.828125 65.921875 22.671875 59.328125 
Q 17.53125 52.734375 16.796875 39.40625 
Q 19.671875 43.65625 24.015625 45.921875 
Q 28.375 48.1875 33.59375 48.1875 
Q 44.578125 48.1875 50.953125 41.515625 
Q 57.328125 34.859375 57.328125 23.390625 
Q 57.328125 12.15625 50.6875 5.359375 
Q 44.046875 -1.421875 33.015625 -1.421875 
Q 20.359375 -1.421875 13.671875 8.265625 
Q 6.984375 17.96875 6.984375 36.375 
Q 6.984375 53.65625 15.1875 63.9375 
Q 23.390625 74.21875 37.203125 74.21875 
Q 40.921875 74.21875 44.703125 73.484375 
Q 48.484375 72.75 52.59375 71.296875 
z
" id="DejaVuSans-54"/>
      </defs>
      <g transform="translate(730.57873 399.078438)scale(0.1 -0.1)">
       <use xlink:href="#DejaVuSans-54"/>
       <use x="63.623047" xlink:href="#DejaVuSans-48"/>
       <use x="127.246094" xlink:href="#DejaVuSans-48"/>
      </g>
     </g>
    </g>
    <g id="xtick_5">
     <g id="line2d_5">
      <g>
       <use style="stroke:#000000;stroke-width:0.8;" x="909.920882" xlink:href="#m3aa09096aa" y="384.48"/>
      </g>
     </g>
     <g id="text_5">
      <!-- 800 -->
      <defs>
       <path d="M 31.78125 34.625 
Q 24.75 34.625 20.71875 30.859375 
Q 16.703125 27.09375 16.703125 20.515625 
Q 16.703125 13.921875 20.71875 10.15625 
Q 24.75 6.390625 31.78125 6.390625 
Q 38.8125 6.390625 42.859375 10.171875 
Q 46.921875 13.96875 46.921875 20.515625 
Q 46.921875 27.09375 42.890625 30.859375 
Q 38.875 34.625 31.78125 34.625 
z
M 21.921875 38.8125 
Q 15.578125 40.375 12.03125 44.71875 
Q 8.5 49.078125 8.5 55.328125 
Q 8.5 64.0625 14.71875 69.140625 
Q 20.953125 74.21875 31.78125 74.21875 
Q 42.671875 74.21875 48.875 69.140625 
Q 55.078125 64.0625 55.078125 55.328125 
Q 55.078125 49.078125 51.53125 44.71875 
Q 48 40.375 41.703125 38.8125 
Q 48.828125 37.15625 52.796875 32.3125 
Q 56.78125 27.484375 56.78125 20.515625 
Q 56.78125 9.90625 50.3125 4.234375 
Q 43.84375 -1.421875 31.78125 -1.421875 
Q 19.734375 -1.421875 13.25 4.234375 
Q 6.78125 9.90625 6.78125 20.515625 
Q 6.78125 27.484375 10.78125 32.3125 
Q 14.796875 37.15625 21.921875 38.8125 
z
M 18.3125 54.390625 
Q 18.3125 48.734375 21.84375 45.5625 
Q 25.390625 42.390625 31.78125 42.390625 
Q 38.140625 42.390625 41.71875 45.5625 
Q 45.3125 48.734375 45.3125 54.390625 
Q 45.3125 60.0625 41.71875 63.234375 
Q 38.140625 66.40625 31.78125 66.40625 
Q 25.390625 66.40625 21.84375 63.234375 
Q 18.3125 60.0625 18.3125 54.390625 
z
" id="DejaVuSans-56"/>
      </defs>
      <g transform="translate(900.377132 399.078438)scale(0.1 -0.1)">
       <use xlink:href="#DejaVuSans-56"/>
       <use x="63.623047" xlink:href="#DejaVuSans-48"/>
       <use x="127.246094" xlink:href="#DejaVuSans-48"/>
      </g>
     </g>
    </g>
    <g id="xtick_6">
     <g id="line2d_6">
      <g>
       <use style="stroke:#000000;stroke-width:0.8;" x="1079.719285" xlink:href="#m3aa09096aa" y="384.48"/>
      </g>
     </g>
     <g id="text_6">
      <!-- 1000 -->
      <defs>
       <path d="M 12.40625 8.296875 
L 28.515625 8.296875 
L 28.515625 63.921875 
L 10.984375 60.40625 
L 10.984375 69.390625 
L 28.421875 72.90625 
L 38.28125 72.90625 
L 38.28125 8.296875 
L 54.390625 8.296875 
L 54.390625 0 
L 12.40625 0 
z
" id="DejaVuSans-49"/>
      </defs>
      <g transform="translate(1066.994285 399.078438)scale(0.1 -0.1)">
       <use xlink:href="#DejaVuSans-49"/>
       <use x="63.623047" xlink:href="#DejaVuSans-48"/>
       <use x="127.246094" xlink:href="#DejaVuSans-48"/>
       <use x="190.869141" xlink:href="#DejaVuSans-48"/>
      </g>
     </g>
    </g>
    <g id="xtick_7">
     <g id="line2d_7">
      <g>
       <use style="stroke:#000000;stroke-width:0.8;" x="1249.517687" xlink:href="#m3aa09096aa" y="384.48"/>
      </g>
     </g>
     <g id="text_7">
      <!-- 1200 -->
      <g transform="translate(1236.792687 399.078438)scale(0.1 -0.1)">
       <use xlink:href="#DejaVuSans-49"/>
       <use x="63.623047" xlink:href="#DejaVuSans-50"/>
       <use x="127.246094" xlink:href="#DejaVuSans-48"/>
       <use x="190.869141" xlink:href="#DejaVuSans-48"/>
      </g>
     </g>
    </g>
   </g>
   <g id="matplotlib.axis_2">
    <g id="ytick_1">
     <g id="line2d_8">
      <defs>
       <path d="M 0 0 
L -3.5 0 
" id="me20c61230a" style="stroke:#000000;stroke-width:0.8;"/>
      </defs>
      <g>
       <use style="stroke:#000000;stroke-width:0.8;" x="180" xlink:href="#me20c61230a" y="344.081897"/>
      </g>
     </g>
     <g id="text_8">
      <!-- 0.6 -->
      <defs>
       <path d="M 10.6875 12.40625 
L 21 12.40625 
L 21 0 
L 10.6875 0 
z
" id="DejaVuSans-46"/>
      </defs>
      <g transform="translate(157.096875 347.881116)scale(0.1 -0.1)">
       <use xlink:href="#DejaVuSans-48"/>
       <use x="63.623047" xlink:href="#DejaVuSans-46"/>
       <use x="95.410156" xlink:href="#DejaVuSans-54"/>
      </g>
     </g>
    </g>
    <g id="ytick_2">
     <g id="line2d_9">
      <g>
       <use style="stroke:#000000;stroke-width:0.8;" x="180" xlink:href="#me20c61230a" y="281.844566"/>
      </g>
     </g>
     <g id="text_9">
      <!-- 0.8 -->
      <g transform="translate(157.096875 285.643785)scale(0.1 -0.1)">
       <use xlink:href="#DejaVuSans-48"/>
       <use x="63.623047" xlink:href="#DejaVuSans-46"/>
       <use x="95.410156" xlink:href="#DejaVuSans-56"/>
      </g>
     </g>
    </g>
    <g id="ytick_3">
     <g id="line2d_10">
      <g>
       <use style="stroke:#000000;stroke-width:0.8;" x="180" xlink:href="#me20c61230a" y="219.607235"/>
      </g>
     </g>
     <g id="text_10">
      <!-- 1.0 -->
      <g transform="translate(157.096875 223.406454)scale(0.1 -0.1)">
       <use xlink:href="#DejaVuSans-49"/>
       <use x="63.623047" xlink:href="#DejaVuSans-46"/>
       <use x="95.410156" xlink:href="#DejaVuSans-48"/>
      </g>
     </g>
    </g>
    <g id="ytick_4">
     <g id="line2d_11">
      <g>
       <use style="stroke:#000000;stroke-width:0.8;" x="180" xlink:href="#me20c61230a" y="157.369904"/>
      </g>
     </g>
     <g id="text_11">
      <!-- 1.2 -->
      <g transform="translate(157.096875 161.169123)scale(0.1 -0.1)">
       <use xlink:href="#DejaVuSans-49"/>
       <use x="63.623047" xlink:href="#DejaVuSans-46"/>
       <use x="95.410156" xlink:href="#DejaVuSans-50"/>
      </g>
     </g>
    </g>
    <g id="ytick_5">
     <g id="line2d_12">
      <g>
       <use style="stroke:#000000;stroke-width:0.8;" x="180" xlink:href="#me20c61230a" y="95.132573"/>
      </g>
     </g>
     <g id="text_12">
      <!-- 1.4 -->
      <g transform="translate(157.096875 98.931792)scale(0.1 -0.1)">
       <use xlink:href="#DejaVuSans-49"/>
       <use x="63.623047" xlink:href="#DejaVuSans-46"/>
       <use x="95.410156" xlink:href="#DejaVuSans-52"/>
      </g>
     </g>
    </g>
    <g id="text_13">
     <!-- Height m -->
     <defs>
      <path d="M 9.8125 72.90625 
L 19.671875 72.90625 
L 19.671875 43.015625 
L 55.515625 43.015625 
L 55.515625 72.90625 
L 65.375 72.90625 
L 65.375 0 
L 55.515625 0 
L 55.515625 34.71875 
L 19.671875 34.71875 
L 19.671875 0 
L 9.8125 0 
z
" id="DejaVuSans-72"/>
      <path d="M 56.203125 29.59375 
L 56.203125 25.203125 
L 14.890625 25.203125 
Q 15.484375 15.921875 20.484375 11.0625 
Q 25.484375 6.203125 34.421875 6.203125 
Q 39.59375 6.203125 44.453125 7.46875 
Q 49.3125 8.734375 54.109375 11.28125 
L 54.109375 2.78125 
Q 49.265625 0.734375 44.1875 -0.34375 
Q 39.109375 -1.421875 33.890625 -1.421875 
Q 20.796875 -1.421875 13.15625 6.1875 
Q 5.515625 13.8125 5.515625 26.8125 
Q 5.515625 40.234375 12.765625 48.109375 
Q 20.015625 56 32.328125 56 
Q 43.359375 56 49.78125 48.890625 
Q 56.203125 41.796875 56.203125 29.59375 
z
M 47.21875 32.234375 
Q 47.125 39.59375 43.09375 43.984375 
Q 39.0625 48.390625 32.421875 48.390625 
Q 24.90625 48.390625 20.390625 44.140625 
Q 15.875 39.890625 15.1875 32.171875 
z
" id="DejaVuSans-101"/>
      <path d="M 9.421875 54.6875 
L 18.40625 54.6875 
L 18.40625 0 
L 9.421875 0 
z
M 9.421875 75.984375 
L 18.40625 75.984375 
L 18.40625 64.59375 
L 9.421875 64.59375 
z
" id="DejaVuSans-105"/>
      <path d="M 45.40625 27.984375 
Q 45.40625 37.75 41.375 43.109375 
Q 37.359375 48.484375 30.078125 48.484375 
Q 22.859375 48.484375 18.828125 43.109375 
Q 14.796875 37.75 14.796875 27.984375 
Q 14.796875 18.265625 18.828125 12.890625 
Q 22.859375 7.515625 30.078125 7.515625 
Q 37.359375 7.515625 41.375 12.890625 
Q 45.40625 18.265625 45.40625 27.984375 
z
M 54.390625 6.78125 
Q 54.390625 -7.171875 48.1875 -13.984375 
Q 42 -20.796875 29.203125 -20.796875 
Q 24.46875 -20.796875 20.265625 -20.09375 
Q 16.0625 -19.390625 12.109375 -17.921875 
L 12.109375 -9.1875 
Q 16.0625 -11.328125 19.921875 -12.34375 
Q 23.78125 -13.375 27.78125 -13.375 
Q 36.625 -13.375 41.015625 -8.765625 
Q 45.40625 -4.15625 45.40625 5.171875 
L 45.40625 9.625 
Q 42.625 4.78125 38.28125 2.390625 
Q 33.9375 0 27.875 0 
Q 17.828125 0 11.671875 7.65625 
Q 5.515625 15.328125 5.515625 27.984375 
Q 5.515625 40.671875 11.671875 48.328125 
Q 17.828125 56 27.875 56 
Q 33.9375 56 38.28125 53.609375 
Q 42.625 51.21875 45.40625 46.390625 
L 45.40625 54.6875 
L 54.390625 54.6875 
z
" id="DejaVuSans-103"/>
      <path d="M 54.890625 33.015625 
L 54.890625 0 
L 45.90625 0 
L 45.90625 32.71875 
Q 45.90625 40.484375 42.875 44.328125 
Q 39.84375 48.1875 33.796875 48.1875 
Q 26.515625 48.1875 22.3125 43.546875 
Q 18.109375 38.921875 18.109375 30.90625 
L 18.109375 0 
L 9.078125 0 
L 9.078125 75.984375 
L 18.109375 75.984375 
L 18.109375 46.1875 
Q 21.34375 51.125 25.703125 53.5625 
Q 30.078125 56 35.796875 56 
Q 45.21875 56 50.046875 50.171875 
Q 54.890625 44.34375 54.890625 33.015625 
z
" id="DejaVuSans-104"/>
      <path d="M 18.3125 70.21875 
L 18.3125 54.6875 
L 36.8125 54.6875 
L 36.8125 47.703125 
L 18.3125 47.703125 
L 18.3125 18.015625 
Q 18.3125 11.328125 20.140625 9.421875 
Q 21.96875 7.515625 27.59375 7.515625 
L 36.8125 7.515625 
L 36.8125 0 
L 27.59375 0 
Q 17.1875 0 13.234375 3.875 
Q 9.28125 7.765625 9.28125 18.015625 
L 9.28125 47.703125 
L 2.6875 47.703125 
L 2.6875 54.6875 
L 9.28125 54.6875 
L 9.28125 70.21875 
z
" id="DejaVuSans-116"/>
      <path id="DejaVuSans-32"/>
      <path d="M 52 44.1875 
Q 55.375 50.25 60.0625 53.125 
Q 64.75 56 71.09375 56 
Q 79.640625 56 84.28125 50.015625 
Q 88.921875 44.046875 88.921875 33.015625 
L 88.921875 0 
L 79.890625 0 
L 79.890625 32.71875 
Q 79.890625 40.578125 77.09375 44.375 
Q 74.3125 48.1875 68.609375 48.1875 
Q 61.625 48.1875 57.5625 43.546875 
Q 53.515625 38.921875 53.515625 30.90625 
L 53.515625 0 
L 44.484375 0 
L 44.484375 32.71875 
Q 44.484375 40.625 41.703125 44.40625 
Q 38.921875 48.1875 33.109375 48.1875 
Q 26.21875 48.1875 22.15625 43.53125 
Q 18.109375 38.875 18.109375 30.90625 
L 18.109375 0 
L 9.078125 0 
L 9.078125 54.6875 
L 18.109375 54.6875 
L 18.109375 46.1875 
Q 21.1875 51.21875 25.484375 53.609375 
Q 29.78125 56 35.6875 56 
Q 41.65625 56 45.828125 52.96875 
Q 50 49.953125 52 44.1875 
z
" id="DejaVuSans-109"/>
     </defs>
     <g transform="translate(151.017188 241.148281)rotate(-90)scale(0.1 -0.1)">
      <use xlink:href="#DejaVuSans-72"/>
      <use x="75.195312" xlink:href="#DejaVuSans-101"/>
      <use x="136.71875" xlink:href="#DejaVuSans-105"/>
      <use x="164.501953" xlink:href="#DejaVuSans-103"/>
      <use x="227.978516" xlink:href="#DejaVuSans-104"/>
      <use x="291.357422" xlink:href="#DejaVuSans-116"/>
      <use x="330.566406" xlink:href="#DejaVuSans-32"/>
      <use x="362.353516" xlink:href="#DejaVuSans-109"/>
     </g>
    </g>
   </g>
   <g id="line2d_13">
    <path clip-path="url(#pb6f4d0360c)" d="M 230.727273 219.607235 
L 231.576265 211.329975 
L 232.425257 204.472431 
L 233.274249 204.590138 
L 234.123241 217.333439 
L 234.972233 212.940915 
L 235.821225 210.18223 
L 236.670217 215.841009 
L 237.519209 204.882197 
L 238.368201 196.416123 
L 239.217193 192.910219 
L 240.066185 192.572765 
L 240.915177 188.79971 
L 241.764169 198.70398 
L 242.613161 192.205181 
L 244.311145 188.90175 
L 245.160137 201.4012 
L 246.009129 206.074935 
L 246.858121 213.286805 
L 247.707113 201.322862 
L 248.556105 186.983887 
L 249.405097 179.453043 
L 250.254089 176.269327 
L 251.103081 176.732924 
L 251.952073 179.565126 
L 252.801065 173.108911 
L 253.650057 164.221422 
L 254.499049 158.095028 
L 255.348041 144.360256 
L 256.197033 137.974746 
L 257.046025 127.452614 
L 257.895017 114.055296 
L 258.744009 109.083476 
L 259.593001 134.349126 
L 260.441993 130.39489 
L 261.290985 109.446239 
L 262.139977 93.45374 
L 262.988969 89.693942 
L 263.837961 90.279666 
L 264.686953 83.084267 
L 265.535945 87.647928 
L 266.384937 88.338101 
L 267.233929 80.531669 
L 268.082921 74.175084 
L 268.931913 66.96 
L 269.780905 75.516865 
L 270.629897 93.717276 
L 271.478889 84.850677 
L 272.327881 99.68137 
L 273.176873 129.568932 
L 274.025865 127.179437 
L 274.874857 118.311633 
L 275.723849 132.835404 
L 276.572841 166.100316 
L 277.421833 189.939822 
L 278.270825 173.011692 
L 279.119817 192.861609 
L 279.968809 216.03384 
L 280.817801 235.301248 
L 281.666793 240.101529 
L 282.515785 259.082101 
L 283.364777 265.556393 
L 284.213769 253.746313 
L 285.062762 239.748809 
L 285.911754 221.636377 
L 286.760746 215.071293 
L 287.609738 233.300629 
L 288.45873 226.331806 
L 289.307722 209.622218 
L 290.156714 204.729137 
L 291.854698 196.544275 
L 292.70369 187.234165 
L 293.552682 192.332932 
L 294.401674 217.677722 
L 295.250666 223.477107 
L 296.099658 208.493354 
L 296.94865 217.420615 
L 297.797642 220.374139 
L 298.646634 227.880478 
L 299.495626 211.735321 
L 300.344618 215.863506 
L 301.19361 217.764094 
L 302.042602 208.874195 
L 302.891594 193.577494 
L 303.740586 191.920756 
L 304.589578 195.897489 
L 305.43857 187.939604 
L 306.287562 184.291488 
L 307.136554 176.4489 
L 307.985546 202.930589 
L 308.834538 195.711086 
L 309.68353 207.420331 
L 310.532522 224.960297 
L 311.381514 249.333703 
L 312.230506 270.415728 
L 313.079498 280.172964 
L 313.92849 271.434116 
L 314.777482 255.893966 
L 315.626474 266.402438 
L 316.475466 282.957762 
L 317.324458 284.832237 
L 318.17345 283.988201 
L 319.022442 274.696169 
L 319.871434 267.619682 
L 320.720426 272.066842 
L 321.569418 269.937267 
L 322.41841 287.75523 
L 323.267402 301.48478 
L 324.116394 286.347164 
L 324.965386 291.145034 
L 325.814378 288.273865 
L 326.66337 279.694503 
L 327.512362 277.86703 
L 328.361354 280.732575 
L 329.210346 277.09651 
L 330.059338 285.40149 
L 330.90833 280.929825 
L 331.757322 285.593115 
L 332.606314 284.784833 
L 333.455306 274.791379 
L 334.304298 270.872094 
L 335.15329 260.882256 
L 336.002282 257.533429 
L 336.851274 260.650056 
L 337.700266 252.425021 
L 338.549258 247.671743 
L 339.39825 247.679375 
L 340.247242 243.071122 
L 341.096234 261.122491 
L 341.945226 251.016553 
L 342.794218 244.02925 
L 344.492202 240.284718 
L 345.341194 247.617911 
L 346.190186 245.204714 
L 347.039178 246.168868 
L 347.88817 252.136176 
L 348.737162 252.792202 
L 349.586154 238.816392 
L 350.435146 238.476528 
L 351.284138 231.631036 
L 352.13313 227.736256 
L 352.982122 226.482455 
L 353.831114 222.077076 
L 354.680107 222.16626 
L 355.529099 226.799822 
L 356.378091 220.703558 
L 357.227083 223.45461 
L 358.076075 228.413574 
L 358.925067 220.7132 
L 359.774059 217.19203 
L 360.623051 219.686376 
L 361.472043 217.504175 
L 362.321035 212.527534 
L 363.170027 214.467894 
L 364.019019 234.472477 
L 365.717003 231.747538 
L 366.565995 233.27773 
L 367.414987 226.663234 
L 368.263979 229.026616 
L 369.112971 225.388944 
L 369.961963 233.346828 
L 370.810955 234.546798 
L 371.659947 235.513362 
L 372.508939 237.904061 
L 373.357931 231.864843 
L 374.206923 229.568952 
L 375.055915 228.314749 
L 375.904907 220.80841 
L 376.753899 221.486531 
L 377.602891 217.903495 
L 378.451883 215.169717 
L 379.300875 218.517339 
L 380.149867 219.330443 
L 380.998859 217.760479 
L 381.847851 225.343548 
L 383.545835 219.812118 
L 384.394827 224.767868 
L 385.243819 250.249247 
L 386.092811 254.011857 
L 386.941803 246.946619 
L 387.790795 271.185846 
L 388.639787 266.839521 
L 389.488779 284.58678 
L 390.337771 284.265395 
L 391.186763 292.806994 
L 392.035755 284.741045 
L 392.884747 294.026649 
L 393.733739 290.602698 
L 394.582731 281.837335 
L 395.431723 284.191477 
L 396.280715 294.299826 
L 397.129707 290.534403 
L 397.978699 288.095094 
L 398.827691 306.254127 
L 399.676683 309.271929 
L 400.525675 319.032378 
L 401.374667 311.082127 
L 402.223659 313.880182 
L 403.072651 306.361791 
L 403.921643 305.416117 
L 404.770635 300.94405 
L 405.619627 303.245566 
L 406.468619 303.091301 
L 407.317611 293.671117 
L 408.166603 290.903996 
L 409.015595 291.477667 
L 409.864587 290.578192 
L 410.713579 285.588696 
L 411.562571 286.923246 
L 412.411563 285.294629 
L 413.260555 304.778168 
L 414.109547 303.858607 
L 414.958539 315.850671 
L 415.807531 310.900947 
L 416.656523 299.672171 
L 417.505515 298.714846 
L 418.354507 304.958546 
L 419.203499 299.696275 
L 420.052491 299.223036 
L 420.901483 305.140128 
L 421.750475 308.960185 
L 422.599467 309.48123 
L 423.448459 302.185398 
L 424.297452 304.225789 
L 425.146444 307.319115 
L 427.69342 285.75903 
L 428.542412 286.722782 
L 429.391404 284.976057 
L 430.240396 289.01546 
L 431.089388 286.644846 
L 431.93838 288.237709 
L 432.787372 292.89417 
L 433.636364 284.23165 
L 434.485356 283.496081 
L 435.334348 284.752695 
L 436.18334 278.242648 
L 437.032332 276.76227 
L 437.881324 280.557019 
L 438.730316 282.976643 
L 439.579308 277.530781 
L 440.4283 279.6009 
L 441.277292 275.92667 
L 442.126284 273.611898 
L 442.975276 274.314927 
L 443.824268 278.458779 
L 444.67326 277.372901 
L 445.522252 288.863204 
L 446.371244 290.933322 
L 447.220236 289.300688 
L 448.069228 290.636041 
L 448.91822 287.876553 
L 450.616204 290.143921 
L 451.465196 290.334342 
L 452.314188 283.028466 
L 453.16318 282.934863 
L 454.012172 281.567372 
L 455.710156 300.053815 
L 456.559148 300.244637 
L 457.40814 300.866918 
L 458.257132 300.74439 
L 459.106124 301.232493 
L 459.955116 297.286292 
L 460.804108 298.178134 
L 461.6531 304.571679 
L 462.502092 303.143928 
L 463.351084 300.485676 
L 464.200076 297.409222 
L 465.049068 300.072696 
L 465.89806 301.197542 
L 466.747052 300.024087 
L 467.596044 300.216918 
L 468.445036 301.35261 
L 469.294028 291.871765 
L 470.14302 290.808786 
L 470.992012 289.197444 
L 472.689996 287.672072 
L 473.538988 287.933197 
L 474.38798 288.796115 
L 475.236972 299.941732 
L 476.085964 299.286108 
L 476.934956 291.649608 
L 477.783948 292.545468 
L 478.63294 291.190832 
L 479.481932 290.335145 
L 480.330924 293.097847 
L 481.179916 289.398309 
L 482.028908 290.632426 
L 482.8779 293.627328 
L 483.726892 287.978994 
L 484.575884 285.43644 
L 485.424876 284.926644 
L 486.273868 284.794475 
L 487.12286 285.274543 
L 487.971852 280.440115 
L 488.820844 278.928804 
L 489.669836 277.807975 
L 490.518828 276.9085 
L 491.36782 277.709551 
L 492.216812 277.201362 
L 493.065804 273.881058 
L 493.914797 271.81576 
L 494.763789 271.453399 
L 495.612781 272.038319 
L 496.461773 273.201329 
L 497.310765 272.40309 
L 498.159757 272.966317 
L 499.008749 271.970426 
L 499.857741 274.050588 
L 500.706733 273.333499 
L 501.555725 269.891068 
L 502.404717 280.544164 
L 503.253709 279.98174 
L 504.102701 281.604733 
L 504.951693 285.365334 
L 505.800685 282.985883 
L 506.649677 281.785511 
L 507.498669 280.185016 
L 508.347661 281.588663 
L 509.196653 278.074725 
L 510.045645 276.034334 
L 510.894637 276.969563 
L 511.743629 280.663879 
L 512.592621 277.740083 
L 513.441613 271.977657 
L 514.290605 270.918695 
L 515.139597 270.136124 
L 515.988589 270.054171 
L 516.837581 269.686587 
L 517.686573 272.868696 
L 519.384557 272.27775 
L 520.233549 274.386435 
L 521.082541 273.255161 
L 521.931533 272.580253 
L 522.780525 272.651761 
L 523.629517 272.311897 
L 524.478509 274.430223 
L 525.327501 275.415669 
L 526.176493 274.016039 
L 527.025485 269.951327 
L 527.874477 269.897094 
L 528.723469 268.946599 
L 529.572461 270.831921 
L 530.421453 278.039372 
L 531.270445 276.898859 
L 532.119437 278.580905 
L 532.968429 275.928679 
L 533.817421 276.015051 
L 534.666413 275.945954 
L 535.515405 274.263103 
L 536.364397 274.86811 
L 537.213389 280.052847 
L 538.062381 278.229391 
L 538.911373 278.455565 
L 539.760365 277.752135 
L 540.609357 276.575064 
L 541.458349 271.770364 
L 542.307341 270.214059 
L 543.156333 270.362298 
L 544.005325 270.278336 
L 544.854317 270.894591 
L 545.703309 273.157942 
L 546.552301 269.296105 
L 547.401293 269.859331 
L 548.250285 269.739615 
L 549.099277 270.661989 
L 549.948269 268.08328 
L 550.797261 267.123947 
L 551.646253 268.448051 
L 552.495245 268.971506 
L 553.344237 271.442954 
L 554.193229 271.588782 
L 555.042221 269.349535 
L 555.891213 271.471477 
L 556.740205 270.322527 
L 557.589197 271.171785 
L 558.438189 270.921507 
L 559.287181 269.54116 
L 560.136173 271.534147 
L 560.985165 268.183712 
L 561.834157 266.298792 
L 562.683149 265.048606 
L 563.532141 264.026201 
L 564.381134 263.876355 
L 565.230126 264.186491 
L 566.079118 265.558 
L 566.92811 265.188006 
L 567.777102 263.191003 
L 568.626094 264.399409 
L 569.475086 264.725614 
L 570.324078 263.529662 
L 571.17307 262.80735 
L 572.022062 264.816003 
L 572.871054 266.230899 
L 573.720046 264.668568 
L 574.569038 268.826481 
L 575.41803 270.23053 
L 576.267022 270.034887 
L 577.116014 267.337667 
L 577.965006 268.566963 
L 578.813998 269.109702 
L 579.66299 279.749138 
L 580.511982 278.580102 
L 581.360974 280.133996 
L 583.058958 276.95952 
L 583.90795 276.870738 
L 584.756942 277.677815 
L 585.605934 275.790885 
L 586.454926 276.024693 
L 587.303918 278.426641 
L 588.15291 277.914434 
L 589.001902 278.151054 
L 590.699886 279.607327 
L 591.548878 279.16462 
L 592.39787 276.869532 
L 593.246862 273.900341 
L 594.095854 273.715143 
L 594.944846 274.82633 
L 595.793838 273.066749 
L 596.64283 273.930069 
L 598.340814 278.794224 
L 599.189806 281.935357 
L 600.038798 288.500441 
L 600.88779 286.458443 
L 601.736782 286.999976 
L 602.585774 288.000688 
L 603.434766 284.854333 
L 604.283758 282.838849 
L 605.13275 283.116445 
L 605.981742 282.541569 
L 606.830734 280.768329 
L 607.679726 281.436006 
L 608.528718 279.340578 
L 609.37771 279.473953 
L 611.075694 276.450929 
L 611.924686 276.212703 
L 612.773678 274.905471 
L 613.62267 274.694964 
L 614.471662 277.233501 
L 615.320654 275.319655 
L 616.169646 277.415886 
L 617.018638 274.286404 
L 617.86763 272.302657 
L 618.716622 270.704171 
L 620.414606 270.626235 
L 621.263598 272.711619 
L 622.11259 271.638597 
L 622.961582 270.968911 
L 623.810574 272.295025 
L 624.659566 271.563473 
L 625.508558 268.973113 
L 626.35755 268.737297 
L 627.206542 269.785814 
L 628.055534 272.104202 
L 628.904526 271.761124 
L 629.753518 269.351543 
L 630.60251 269.930839 
L 631.451502 270.228923 
L 632.300494 267.92781 
L 633.149486 270.34181 
L 634.847471 269.02815 
L 635.696463 269.677347 
L 636.545455 269.179201 
L 637.394447 267.796042 
L 638.243439 269.024936 
L 639.941423 270.450679 
L 640.790415 274.660817 
L 641.639407 273.619933 
L 642.488399 268.063193 
L 644.186383 266.506085 
L 645.035375 266.995794 
L 645.884367 264.479755 
L 646.733359 266.596474 
L 647.582351 265.020886 
L 648.431343 268.537637 
L 649.280335 271.412422 
L 650.129327 272.954666 
L 650.978319 275.668759 
L 651.827311 275.784458 
L 652.676303 277.675003 
L 653.525295 284.191075 
L 654.374287 283.309276 
L 656.072271 282.030166 
L 656.921263 281.24438 
L 657.770255 281.073243 
L 659.468239 282.672533 
L 660.317231 286.152726 
L 661.166223 290.738081 
L 662.015215 289.273371 
L 662.864207 294.341606 
L 663.713199 294.87189 
L 664.562191 295.227824 
L 665.411183 294.033478 
L 666.260175 289.163698 
L 667.109167 288.644662 
L 667.958159 290.707549 
L 668.807151 290.760578 
L 669.656143 294.222292 
L 670.505135 299.200941 
L 671.354127 297.820192 
L 672.203119 295.74927 
L 673.901103 296.821891 
L 674.750095 301.405639 
L 675.599087 298.894018 
L 676.448079 297.155328 
L 677.297071 296.122076 
L 678.146063 291.562432 
L 678.995055 291.403347 
L 679.844047 290.989966 
L 680.693039 293.65786 
L 681.542031 290.556499 
L 682.391023 291.104058 
L 683.240015 288.904984 
L 684.089007 289.233198 
L 684.937999 287.449111 
L 686.635983 286.614315 
L 687.484975 290.063173 
L 688.333967 289.341263 
L 689.182959 285.270526 
L 690.031951 285.209061 
L 690.880943 286.292127 
L 691.729935 285.0556 
L 692.578927 284.205136 
L 693.427919 282.628744 
L 694.276911 283.856032 
L 695.125903 281.963478 
L 695.974895 281.654547 
L 696.823887 280.675931 
L 697.672879 281.457297 
L 698.521871 284.573523 
L 699.370863 284.412831 
L 700.219855 283.732299 
L 701.068847 284.583566 
L 701.917839 294.718429 
L 702.766831 292.228904 
L 703.615824 287.370774 
L 704.464816 285.767065 
L 705.313808 284.689221 
L 706.1628 283.041322 
L 707.011792 283.584863 
L 707.860784 283.862058 
L 708.709776 282.362799 
L 709.558768 281.099757 
L 710.40776 277.783872 
L 711.256752 278.244255 
L 712.105744 279.637457 
L 712.954736 279.231307 
L 713.803728 280.711685 
L 714.65272 277.566134 
L 715.501712 277.554082 
L 716.350704 276.095799 
L 717.199696 278.136591 
L 718.048688 283.27995 
L 718.89768 277.999199 
L 719.746672 277.110571 
L 720.595664 276.948272 
L 721.444656 275.050897 
L 722.293648 275.784859 
L 723.14264 273.534364 
L 723.991632 274.651175 
L 724.840624 276.788383 
L 725.689616 278.563631 
L 726.538608 275.834272 
L 727.3876 272.698764 
L 728.236592 273.358406 
L 729.085584 271.538566 
L 729.934576 270.856829 
L 730.783568 268.604324 
L 731.63256 267.070516 
L 732.481552 266.782074 
L 733.330544 265.365571 
L 734.179536 267.314769 
L 735.028528 266.688872 
L 735.87752 263.657814 
L 736.726512 263.883586 
L 737.575504 262.261799 
L 738.424496 262.751509 
L 739.273488 264.766189 
L 740.12248 262.861583 
L 740.971472 264.204569 
L 741.820464 261.936799 
L 742.669456 265.167518 
L 743.518448 266.776048 
L 744.36744 270.077069 
L 745.216432 268.836525 
L 746.065424 266.328921 
L 746.914416 266.945578 
L 747.763408 265.520639 
L 748.6124 262.50324 
L 749.461392 261.414148 
L 750.310384 262.981299 
L 751.159376 263.277375 
L 752.008368 261.239796 
L 752.85736 264.879879 
L 753.706352 265.131764 
L 754.555344 267.120331 
L 755.404336 269.612668 
L 756.253328 266.79975 
L 757.10232 265.138995 
L 757.951312 265.531084 
L 758.800304 263.727715 
L 759.649296 262.761954 
L 760.498288 264.413871 
L 761.34728 269.196475 
L 762.196272 267.25009 
L 763.045264 267.541746 
L 763.894256 270.274319 
L 764.743248 272.602349 
L 765.59224 269.22299 
L 766.441232 267.582321 
L 767.290224 267.190634 
L 768.139216 265.195639 
L 769.8372 262.790879 
L 770.686192 265.068692 
L 771.535184 268.155993 
L 772.384176 267.326419 
L 773.233169 275.215205 
L 774.082161 272.353677 
L 774.931153 271.422465 
L 775.780145 272.101792 
L 776.629137 278.727537 
L 777.478129 278.586128 
L 778.327121 281.939776 
L 779.176113 277.731245 
L 780.025105 276.965546 
L 780.874097 279.173057 
L 781.723089 277.044285 
L 782.572081 278.522253 
L 783.421073 284.416044 
L 784.270065 282.81354 
L 785.119057 284.313201 
L 785.968049 281.594689 
L 786.817041 278.259119 
L 787.666033 280.386685 
L 788.515025 278.60983 
L 789.364017 278.343081 
L 790.213009 280.284244 
L 791.062001 281.721235 
L 791.910993 279.662365 
L 792.759985 281.746544 
L 793.608977 280.17417 
L 794.457969 279.99781 
L 795.306961 282.299727 
L 796.155953 280.911345 
L 797.004945 282.79948 
L 797.853937 281.549294 
L 798.702929 279.679237 
L 799.551921 276.408747 
L 800.400913 274.158252 
L 801.249905 272.981582 
L 802.098897 272.993233 
L 802.947889 271.831026 
L 803.796881 271.8483 
L 804.645873 273.44759 
L 805.494865 272.644129 
L 806.343857 273.711527 
L 807.192849 279.576394 
L 808.041841 277.65813 
L 808.890833 279.010757 
L 809.739825 278.23381 
L 810.588817 278.813106 
L 811.437809 275.78968 
L 812.286801 275.494006 
L 813.135793 273.915205 
L 813.984785 274.380409 
L 814.833777 274.343851 
L 815.682769 277.306616 
L 816.531761 277.163599 
L 817.380753 282.149078 
L 818.229745 290.368489 
L 819.078737 289.560608 
L 819.927729 289.826956 
L 820.776721 301.636232 
L 821.625713 301.352209 
L 822.474705 299.136664 
L 823.323697 307.636483 
L 824.172689 301.843525 
L 825.021681 300.322975 
L 825.870673 299.60468 
L 826.719665 294.747755 
L 827.568657 293.865956 
L 828.417649 288.563111 
L 829.266641 289.33122 
L 830.115633 288.804149 
L 830.964625 286.131033 
L 831.813617 287.492097 
L 832.662609 287.180354 
L 833.511601 283.907052 
L 834.360593 286.280878 
L 835.209585 284.472287 
L 836.058577 281.440425 
L 836.907569 277.873056 
L 837.756561 279.545461 
L 838.605553 282.149881 
L 839.454545 282.519875 
L 840.303537 283.877725 
L 841.152529 283.575624 
L 842.001521 282.777385 
L 842.850514 284.565086 
L 843.699506 285.688727 
L 844.548498 298.306286 
L 845.39749 293.653843 
L 846.246482 288.358228 
L 847.095474 290.826462 
L 847.944466 288.355014 
L 848.793458 285.145989 
L 849.64245 284.85594 
L 850.491442 287.356713 
L 851.340434 289.044786 
L 852.189426 288.725008 
L 853.038418 287.194816 
L 853.88741 286.276058 
L 854.736402 287.693364 
L 855.585394 288.663142 
L 856.434386 289.2569 
L 857.283378 294.139937 
L 858.13237 290.934126 
L 858.981362 289.565429 
L 859.830354 294.542471 
L 860.679346 296.829122 
L 861.528338 291.475257 
L 862.37733 291.385671 
L 863.226322 295.862558 
L 864.075314 295.340308 
L 864.924306 295.567688 
L 865.773298 293.346519 
L 866.62229 293.399547 
L 867.471282 288.986535 
L 868.320274 288.075811 
L 869.169266 288.581189 
L 870.018258 288.125626 
L 870.86725 290.103346 
L 871.716242 291.059064 
L 872.565234 288.929087 
L 873.414226 289.591943 
L 874.263218 290.808786 
L 875.11221 289.950287 
L 875.961202 286.854952 
L 876.810194 286.022967 
L 877.659186 289.199051 
L 878.508178 290.051925 
L 879.35717 293.057674 
L 880.206162 294.123868 
L 881.055154 296.365927 
L 881.904146 302.506783 
L 882.753138 299.619142 
L 883.60213 302.405145 
L 884.451122 302.484286 
L 885.300114 298.630483 
L 886.149106 298.824117 
L 886.998098 300.279989 
L 887.84709 303.040683 
L 888.696082 304.524676 
L 889.545074 302.074521 
L 890.394066 305.542662 
L 891.243058 306.349739 
L 892.09205 310.486762 
L 892.941042 324.235595 
L 893.790034 321.958585 
L 894.639026 326.343074 
L 895.488018 323.496009 
L 896.33701 324.905682 
L 897.186002 323.489581 
L 898.883986 327.714583 
L 899.732978 321.180433 
L 900.58197 324.353302 
L 901.430962 322.009203 
L 902.279954 325.053921 
L 903.128946 330.621105 
L 903.977938 330.063905 
L 904.82693 325.607907 
L 905.675922 324.443692 
L 906.524914 328.475863 
L 907.373906 322.998666 
L 908.222898 321.725581 
L 909.07189 322.086737 
L 909.920882 322.046564 
L 911.618866 325.456053 
L 912.467859 322.88819 
L 913.316851 321.331483 
L 914.165843 317.690196 
L 915.014835 317.5287 
L 915.863827 318.941989 
L 916.712819 319.913776 
L 917.561811 322.490477 
L 918.410803 322.347059 
L 919.259795 325.695484 
L 920.108787 330.088812 
L 920.957779 332.75068 
L 921.806771 336.948766 
L 922.655763 331.661186 
L 923.504755 334.726391 
L 924.353747 329.736896 
L 926.051731 327.707754 
L 926.900723 328.406765 
L 927.749715 332.62775 
L 928.598707 334.413041 
L 929.447699 337.841412 
L 930.296691 336.651485 
L 931.145683 334.268017 
L 931.994675 336.475929 
L 932.843667 335.405316 
L 933.692659 335.862486 
L 934.541651 331.532632 
L 935.390643 330.964585 
L 936.239635 332.260166 
L 937.088627 335.266719 
L 937.937619 337.367771 
L 938.786611 336.401609 
L 939.635603 334.336311 
L 940.484595 337.359335 
L 941.333587 338.230287 
L 942.182579 338.293359 
L 943.031571 341.784399 
L 943.880563 341.863941 
L 944.729555 342.222687 
L 945.578547 341.128372 
L 946.427539 343.182422 
L 947.276531 345.901737 
L 948.125523 342.642897 
L 948.974515 340.498459 
L 949.823507 340.635449 
L 950.672499 337.753433 
L 951.521491 338.262425 
L 952.370483 337.335231 
L 953.219475 339.755659 
L 954.068467 337.93381 
L 954.917459 344.130105 
L 955.766451 344.596112 
L 956.615443 344.796978 
L 957.464435 357.751589 
L 958.313427 358.931874 
L 959.162419 362.101127 
L 960.011411 366.097143 
L 960.860403 364.74331 
L 961.709395 369.36 
L 962.558387 364.959843 
L 963.407379 356.718337 
L 964.256371 359.91531 
L 965.105363 360.239507 
L 965.954355 360.684223 
L 966.803347 360.702703 
L 967.652339 363.572265 
L 968.501331 361.884594 
L 969.350323 359.152424 
L 970.199315 358.090649 
L 971.048307 352.507797 
L 971.897299 352.392099 
L 972.746291 352.501771 
L 973.595283 353.424145 
L 974.444275 354.742224 
L 975.293267 355.293398 
L 976.142259 350.750627 
L 976.991251 347.462461 
L 977.840243 348.186782 
L 978.689235 345.201922 
L 979.538227 343.623522 
L 980.387219 343.155908 
L 981.236211 348.510576 
L 982.085203 347.818796 
L 982.934196 347.952974 
L 983.783188 355.046334 
L 984.63218 355.339597 
L 985.481172 354.528503 
L 986.330164 352.350721 
L 987.179156 356.213763 
L 988.028148 354.970407 
L 988.87714 349.405633 
L 989.726132 348.560391 
L 990.575124 349.906591 
L 991.424116 353.586846 
L 992.273108 353.592069 
L 993.1221 355.667008 
L 993.971092 354.210332 
L 994.820084 354.300722 
L 995.669076 352.298496 
L 996.518068 356.559252 
L 997.36706 356.818368 
L 998.216052 357.757615 
L 999.065044 360.14269 
L 999.914036 359.666237 
L 1000.763028 360.815991 
L 1001.61202 359.065248 
L 1002.461012 361.042165 
L 1003.310004 361.729125 
L 1004.158996 363.622883 
L 1005.007988 363.350912 
L 1005.85698 364.800356 
L 1006.705972 365.56967 
L 1007.554964 361.629897 
L 1008.403956 358.518894 
L 1009.252948 358.961602 
L 1010.10194 358.500816 
L 1010.950932 358.778412 
L 1011.799924 357.451898 
L 1012.648916 358.590001 
L 1013.497908 356.147076 
L 1014.3469 356.56809 
L 1015.195892 357.899827 
L 1016.044884 356.128998 
L 1016.893876 355.091729 
L 1017.742868 357.718245 
L 1018.59186 357.419759 
L 1019.440852 356.516267 
L 1020.289844 357.308881 
L 1021.138836 357.759623 
L 1021.987828 359.885984 
L 1022.83682 361.600169 
L 1023.685812 363.012253 
L 1025.383796 353.917069 
L 1026.232788 352.445931 
L 1027.08178 349.51651 
L 1027.930772 348.72269 
L 1028.779764 349.904984 
L 1029.628756 343.547193 
L 1030.477748 343.294906 
L 1031.32674 343.281247 
L 1032.175732 343.621915 
L 1033.024724 338.875065 
L 1033.873716 328.146845 
L 1034.722708 328.380251 
L 1035.5717 329.210227 
L 1036.420692 328.912544 
L 1037.269684 327.227686 
L 1038.118676 323.571132 
L 1038.967668 318.065814 
L 1039.81666 314.259817 
L 1040.665652 311.504346 
L 1041.514644 320.057997 
L 1042.363636 311.594334 
L 1043.212628 307.793158 
L 1044.910612 317.936859 
L 1045.759604 315.505986 
L 1046.608596 309.79458 
L 1047.457588 308.950946 
L 1048.30658 309.207652 
L 1049.155572 306.247298 
L 1050.004564 304.935245 
L 1050.853556 307.846588 
L 1051.702548 314.064978 
L 1052.551541 311.935805 
L 1053.400533 315.059663 
L 1054.249525 307.927336 
L 1055.098517 299.483759 
L 1055.947509 298.772294 
L 1056.796501 296.342225 
L 1057.645493 294.915277 
L 1058.494485 295.876619 
L 1059.343477 295.458015 
L 1060.192469 295.750877 
L 1061.041461 300.715466 
L 1061.890453 301.230083 
L 1062.739445 303.575788 
L 1063.588437 298.713641 
L 1064.437429 297.479524 
L 1065.286421 298.78756 
L 1066.135413 297.3811 
L 1067.833397 304.697421 
L 1068.682389 302.621678 
L 1069.531381 311.512381 
L 1070.380373 313.536702 
L 1071.229365 319.258553 
L 1072.078357 317.572891 
L 1072.927349 333.592306 
L 1073.776341 330.997125 
L 1074.625333 332.027966 
L 1075.474325 334.411435 
L 1076.323317 327.344589 
L 1077.172309 329.6915 
L 1078.021301 331.310073 
L 1078.870293 326.852871 
L 1079.719285 325.575367 
L 1080.568277 332.235259 
L 1081.417269 332.999351 
L 1082.266261 329.532013 
L 1083.115253 330.877008 
L 1083.964245 335.033715 
L 1084.813237 336.285508 
L 1085.662229 331.416934 
L 1086.511221 331.716625 
L 1087.360213 331.661588 
L 1088.209205 332.885259 
L 1089.058197 333.463752 
L 1090.756181 338.14753 
L 1091.605173 338.613136 
L 1092.454165 342.832916 
L 1093.303157 340.965672 
L 1094.152149 333.886774 
L 1095.001141 335.412548 
L 1095.850133 334.843697 
L 1096.699125 338.14271 
L 1097.548117 337.849848 
L 1098.397109 338.077629 
L 1099.246101 335.596138 
L 1100.095093 331.747156 
L 1100.944085 329.072433 
L 1101.793077 328.956333 
L 1102.642069 330.93325 
L 1103.491061 331.431396 
L 1104.340053 329.628027 
L 1105.189045 331.917892 
L 1106.038037 325.900769 
L 1106.887029 326.537512 
L 1107.736021 328.292674 
L 1108.585013 328.923391 
L 1109.434005 328.214738 
L 1110.282997 335.119686 
L 1111.131989 334.68421 
L 1111.980981 336.201145 
L 1112.829973 336.173426 
L 1113.678965 335.48968 
L 1114.527957 332.928646 
L 1115.376949 332.658282 
L 1116.225941 332.777194 
L 1117.074933 336.191102 
L 1117.923925 334.801917 
L 1118.772917 338.904391 
L 1120.470901 335.029296 
L 1121.319893 334.281676 
L 1122.168886 334.021756 
L 1123.017878 334.065544 
L 1123.86687 333.025062 
L 1124.715862 333.817275 
L 1125.564854 335.132139 
L 1127.262838 339.892247 
L 1128.11183 343.9666 
L 1128.960822 344.938789 
L 1129.809814 343.744041 
L 1130.658806 345.98369 
L 1131.507798 342.581031 
L 1132.35679 343.652045 
L 1134.054774 341.71731 
L 1134.903766 341.070122 
L 1135.752758 334.948549 
L 1136.60175 335.046169 
L 1137.450742 334.640019 
L 1138.299734 334.431521 
L 1139.148726 334.431923 
L 1139.997718 335.735137 
L 1140.84671 332.494777 
L 1141.695702 332.81335 
L 1142.544694 332.572713 
L 1143.393686 334.488567 
L 1144.242678 329.595085 
L 1145.09167 328.153675 
L 1146.789654 324.368166 
L 1147.638646 323.716157 
L 1148.487638 319.344523 
L 1149.33663 320.073665 
L 1150.185622 321.199314 
L 1151.034614 320.182132 
L 1151.883606 319.871594 
L 1152.732598 324.286213 
L 1153.58159 324.262511 
L 1154.430582 322.228548 
L 1155.279574 321.713529 
L 1156.128566 323.039643 
L 1156.977558 322.66764 
L 1157.82655 326.433062 
L 1158.675542 331.124072 
L 1159.524534 329.702347 
L 1160.373526 332.30275 
L 1161.222518 332.268201 
L 1162.07151 330.613472 
L 1162.920502 328.066098 
L 1163.769494 327.698112 
L 1164.618486 324.660626 
L 1165.467478 327.477964 
L 1166.31647 328.387482 
L 1167.165462 328.729355 
L 1168.014454 331.462731 
L 1168.863446 331.895395 
L 1169.712438 329.705561 
L 1170.56143 331.2466 
L 1171.410422 331.605747 
L 1172.259414 330.146661 
L 1173.108406 326.535102 
L 1173.957398 329.618787 
L 1174.80639 332.021538 
L 1175.655382 333.246014 
L 1176.504374 331.441037 
L 1177.353366 330.417026 
L 1178.202358 328.912142 
L 1179.05135 330.943695 
L 1179.900342 329.644498 
L 1180.749334 330.398948 
L 1181.598326 334.903555 
L 1182.447318 334.684611 
L 1183.29631 334.928462 
L 1184.145302 333.459333 
L 1184.994294 335.213691 
L 1185.843286 334.248734 
L 1186.692278 330.928429 
L 1187.54127 332.086619 
L 1188.390262 332.109116 
L 1189.239254 333.781922 
L 1190.088246 333.885569 
L 1190.937238 334.662516 
L 1191.786231 333.774691 
L 1192.635223 334.377287 
L 1193.484215 334.149104 
L 1194.333207 333.728091 
L 1195.182199 332.883251 
L 1196.031191 333.115451 
L 1197.729175 329.506302 
L 1198.578167 328.940264 
L 1199.427159 327.958032 
L 1200.276151 328.8326 
L 1201.125143 329.446444 
L 1201.974135 326.968167 
L 1202.823127 323.258184 
L 1203.672119 320.445265 
L 1204.521111 320.482626 
L 1205.370103 320.217082 
L 1206.219095 322.509358 
L 1207.068087 326.539922 
L 1207.917079 323.417671 
L 1208.766071 322.572831 
L 1209.615063 321.124994 
L 1210.464055 322.729908 
L 1211.313047 320.209048 
L 1212.162039 319.175796 
L 1213.011031 315.219552 
L 1213.860023 314.637042 
L 1214.709015 312.45926 
L 1215.558007 309.848412 
L 1216.406999 312.903173 
L 1217.255991 309.94081 
L 1218.104983 310.636206 
L 1218.953975 307.446464 
L 1219.802967 308.141458 
L 1220.651959 308.635587 
L 1221.500951 308.730395 
L 1222.349943 309.438245 
L 1223.198935 306.325234 
L 1224.047927 308.880241 
L 1224.896919 306.808516 
L 1225.745911 314.753544 
L 1226.594903 333.507942 
L 1227.443895 330.070332 
L 1228.292887 324.948667 
L 1229.141879 318.56396 
L 1229.990871 316.790319 
L 1230.839863 314.323693 
L 1231.688855 315.414793 
L 1232.537847 311.450916 
L 1233.386839 313.34347 
L 1234.235831 313.023692 
L 1235.084823 306.048039 
L 1235.933815 303.381752 
L 1236.782807 305.693713 
L 1237.631799 301.537808 
L 1239.329783 295.159931 
L 1240.178775 293.86435 
L 1241.027767 300.06426 
L 1241.876759 299.64887 
L 1242.725751 311.798815 
L 1243.574743 303.558112 
L 1244.423735 301.404835 
L 1245.272727 301.144112 
L 1245.272727 301.144112 
" style="fill:none;stroke:#ff0000;stroke-linecap:square;stroke-width:5;"/>
   </g>
   <g id="line2d_14">
    <path clip-path="url(#pb6f4d0360c)" d="M 230.727273 219.607235 
L 231.576265 219.607235 
L 232.425257 212.927369 
L 233.274249 213.042027 
L 235.821225 213.042027 
L 236.670217 218.65033 
L 237.519209 207.789268 
L 238.368201 199.39871 
L 239.217193 195.924078 
L 240.066185 195.589635 
L 240.915177 191.850234 
L 241.764169 201.66616 
L 242.613161 201.66616 
L 244.311145 198.455034 
L 247.707113 198.455034 
L 248.556105 183.991247 
L 249.405097 176.394852 
L 250.254089 176.394852 
L 251.103081 176.858285 
L 251.952073 179.689484 
L 255.348041 179.689484 
L 256.197033 173.887761 
L 257.046025 164.327603 
L 257.895017 152.155118 
L 258.744009 147.637841 
L 259.593001 170.593609 
L 260.441993 167.000885 
L 261.290985 147.967439 
L 262.139977 133.437035 
L 264.686953 133.437035 
L 265.535945 137.487433 
L 268.082921 137.487433 
L 268.931913 131.272754 
L 269.780905 131.272754 
L 270.629897 147.244236 
L 273.176873 147.244236 
L 274.025865 144.960007 
L 274.874857 136.482859 
L 275.723849 150.36681 
L 276.572841 150.36681 
L 277.421833 175.234792 
L 278.270825 175.234792 
L 279.119817 194.961371 
L 279.968809 194.961371 
L 280.817801 215.518688 
L 286.760746 215.518688 
L 287.609738 233.722192 
L 288.45873 226.763244 
L 289.307722 226.763244 
L 290.156714 222.131309 
L 291.854698 222.131309 
L 292.70369 213.533894 
L 293.552682 218.242347 
L 294.401674 241.646976 
L 296.099658 241.646976 
L 296.94865 249.655929 
L 297.797642 249.655929 
L 298.646634 256.454197 
L 299.495626 256.454197 
L 300.344618 260.003781 
L 301.19361 260.003781 
L 302.042602 252.313469 
L 302.891594 252.313469 
L 303.740586 250.9453 
L 304.589578 254.22937 
L 305.43857 247.657581 
L 306.287562 247.657581 
L 307.136554 241.249195 
L 307.985546 262.888085 
L 308.834538 256.988837 
L 310.532522 256.988837 
L 311.381514 278.809729 
L 313.92849 278.809729 
L 314.777482 263.711506 
L 315.626474 273.921141 
L 316.475466 290.005668 
L 317.324458 291.826838 
L 326.66337 291.826838 
L 327.512362 290.087662 
L 328.361354 290.087662 
L 329.210346 286.587627 
L 330.90833 286.587627 
L 331.757322 291.145324 
L 332.606314 291.145324 
L 333.455306 281.410248 
L 334.304298 277.592295 
L 335.15329 267.860741 
L 336.002282 267.860741 
L 336.851274 270.859582 
L 342.794218 270.859582 
L 344.492202 267.465396 
L 345.341194 274.112479 
L 346.190186 271.925067 
L 349.586154 271.925067 
L 350.435146 271.623741 
L 352.13313 271.623741 
L 352.982122 270.55151 
L 354.680107 270.55151 
L 355.529099 274.458643 
L 356.378091 274.458643 
L 357.227083 276.732792 
L 358.076075 280.832105 
L 358.925067 280.832105 
L 359.774059 277.993625 
L 360.623051 280.004363 
L 361.472043 280.004363 
L 362.321035 276.020545 
L 364.019019 276.020545 
L 364.868011 274.905584 
L 366.565995 274.905584 
L 367.414987 269.216575 
L 368.263979 271.249277 
L 369.112971 271.249277 
L 369.961963 278.012186 
L 370.810955 278.012186 
L 371.659947 278.836936 
L 373.357931 278.836936 
L 374.206923 276.901809 
L 375.904907 276.901809 
L 376.753899 277.457221 
L 377.602891 274.522553 
L 378.451883 272.283466 
L 380.998859 272.283466 
L 381.847851 278.545744 
L 382.696843 278.545744 
L 383.545835 276.354709 
L 384.394827 280.409406 
L 385.243819 280.409406 
L 386.092811 283.767514 
L 386.941803 283.767514 
L 387.790795 304.86241 
L 390.337771 304.86241 
L 391.186763 312.690373 
L 392.035755 312.690373 
L 392.884747 320.921219 
L 393.733739 320.921219 
L 394.582731 313.262278 
L 395.431723 315.319265 
L 397.978699 315.319265 
L 398.827691 331.44135 
L 399.676683 334.120637 
L 401.374667 334.120637 
L 402.223659 336.625293 
L 403.921643 336.625293 
L 404.770635 332.772496 
L 405.619627 334.755309 
L 406.468619 334.622406 
L 407.317611 326.506682 
L 409.015595 326.506682 
L 409.864587 325.738864 
L 410.713579 321.479687 
L 411.562571 322.618897 
L 414.109547 322.618897 
L 414.958539 333.619601 
L 415.807531 333.619601 
L 416.656523 323.550947 
L 417.505515 322.692531 
L 418.354507 328.29115 
L 419.203499 323.572561 
L 420.052491 323.148215 
L 425.995436 323.148215 
L 426.844428 315.802173 
L 427.69342 310.373589 
L 428.542412 310.373589 
L 429.391404 308.796124 
L 431.089388 308.796124 
L 431.93838 310.244468 
L 433.636364 310.244468 
L 434.485356 309.586504 
L 435.334348 310.710542 
L 436.18334 310.710542 
L 437.032332 309.420481 
L 437.881324 312.727378 
L 438.730316 312.727378 
L 439.579308 307.935298 
L 440.4283 309.756896 
L 441.277292 309.756896 
L 442.126284 307.749379 
L 442.975276 307.749379 
L 443.824268 311.353041 
L 446.371244 311.353041 
L 447.220236 309.859396 
L 448.069228 311.081069 
L 448.91822 311.081069 
L 450.616204 313.131848 
L 451.465196 313.131848 
L 452.314188 306.518629 
L 454.012172 306.4339 
L 454.861164 315.197719 
L 459.106124 315.197719 
L 459.955116 311.491583 
L 460.804108 312.32917 
L 461.6531 312.32917 
L 462.502092 310.950379 
L 467.596044 310.950379 
L 468.445036 312.033205 
L 469.294028 312.033205 
L 470.14302 311.059925 
L 470.992012 311.059925 
L 472.689996 309.672587 
L 474.38798 309.672587 
L 475.236972 319.856703 
L 476.085964 319.257637 
L 476.934956 312.279917 
L 477.783948 313.098493 
L 479.481932 313.098493 
L 480.330924 315.599661 
L 482.028908 315.599661 
L 482.8779 318.283213 
L 483.726892 318.283213 
L 484.575884 316.057979 
L 485.424876 315.611807 
L 486.273868 315.611807 
L 487.12286 316.031736 
L 488.820844 316.031736 
L 489.669836 315.076019 
L 493.065804 315.076019 
L 493.914797 313.341884 
L 495.612781 313.341884 
L 496.461773 314.31925 
L 500.706733 314.31925 
L 501.555725 311.424828 
L 502.404717 320.382032 
L 506.649677 320.382032 
L 507.498669 319.029615 
L 508.347661 319.029615 
L 509.196653 316.043615 
L 513.441613 316.043615 
L 514.290605 315.164951 
L 521.082541 315.164951 
L 521.931533 314.599873 
L 528.723469 314.554922 
L 529.572461 316.111861 
L 534.666413 316.111861 
L 535.515405 314.69424 
L 536.364397 314.69424 
L 537.213389 319.07215 
L 541.458349 319.07215 
L 542.307341 317.800051 
L 546.552301 317.731382 
L 547.401293 318.190287 
L 548.250285 318.190287 
L 549.099277 318.941471 
L 549.948269 318.941471 
L 550.797261 318.167856 
L 564.381134 318.167856 
L 565.230126 318.41491 
L 571.17307 318.41491 
L 572.022062 320.006765 
L 577.116014 320.006765 
L 577.965006 320.990305 
L 580.511982 320.990305 
L 581.360974 322.28291 
L 583.90795 322.28291 
L 584.756942 322.945647 
L 585.605934 322.945647 
L 586.454926 323.136219 
L 592.39787 323.136219 
L 593.246862 320.708034 
L 594.095854 320.55658 
L 600.88779 320.55658 
L 601.736782 321.02254 
L 603.434766 321.02254 
L 604.283758 319.303456 
L 605.13275 319.540229 
L 611.075694 319.540229 
L 611.924686 319.342361 
L 613.62267 319.342361 
L 614.471662 321.438338 
L 615.320654 321.438338 
L 616.169646 323.156154 
L 617.018638 323.156154 
L 617.86763 321.55035 
L 620.414606 321.558107 
L 621.263598 323.235245 
L 625.508558 323.235245 
L 626.35755 323.048301 
L 627.206542 323.048301 
L 628.055534 324.893589 
L 632.300494 324.893589 
L 633.149486 326.78445 
L 637.394447 326.78445 
L 638.243439 327.737713 
L 641.639407 327.737713 
L 642.488399 323.350292 
L 643.337391 322.726055 
L 644.186383 322.726055 
L 645.035375 323.111593 
L 649.280335 323.111593 
L 650.129327 324.346442 
L 654.374287 324.346442 
L 655.223279 323.812265 
L 662.015215 323.812265 
L 662.864207 328.155712 
L 665.411183 328.155712 
L 666.260175 323.987771 
L 667.109167 323.543539 
L 667.958159 325.30912 
L 672.203119 325.30912 
L 673.052111 325.796246 
L 673.901103 325.796246 
L 674.750095 329.812357 
L 675.599087 329.812357 
L 676.448079 328.305479 
L 680.693039 328.305479 
L 681.542031 325.657254 
L 683.240015 325.657254 
L 684.089007 325.935599 
L 684.937999 325.935599 
L 685.786991 325.614314 
L 688.333967 325.614314 
L 689.182959 322.155117 
L 691.729935 322.102886 
L 692.578927 321.380638 
L 696.823887 321.380638 
L 697.672879 322.034843 
L 702.766831 322.034843 
L 703.615824 317.78368 
L 704.464816 316.380336 
L 706.1628 316.380336 
L 707.011792 316.850736 
L 707.860784 316.850736 
L 708.709776 315.551769 
L 710.40776 315.551769 
L 711.256752 315.943429 
L 712.105744 315.943429 
L 712.954736 315.59599 
L 713.803728 316.862372 
L 715.501712 316.862372 
L 716.350704 315.630446 
L 721.444656 315.630446 
L 722.293648 316.247948 
L 723.14264 314.354546 
L 726.538608 314.354546 
L 727.3876 311.692762 
L 730.783568 311.692762 
L 731.63256 310.411021 
L 738.424496 310.411021 
L 739.273488 312.067479 
L 745.216432 312.067479 
L 746.065424 309.973707 
L 748.6124 309.973707 
L 749.461392 309.077315 
L 756.253328 309.077315 
L 757.10232 307.682523 
L 758.800304 307.682523 
L 759.649296 306.875711 
L 765.59224 306.875711 
L 766.441232 305.471214 
L 774.082161 305.471214 
L 774.931153 304.659332 
L 777.478129 304.659332 
L 778.327121 307.66628 
L 789.364017 307.66628 
L 790.213009 309.381969 
L 791.910993 309.381969 
L 792.759985 311.219501 
L 793.608977 311.219501 
L 794.457969 311.064987 
L 796.155953 311.064987 
L 797.004945 312.725278 
L 799.551921 312.725278 
L 800.400913 310.796068 
L 808.041841 310.806009 
L 808.890833 311.981511 
L 811.437809 311.981511 
L 812.286801 311.727801 
L 813.135793 311.727801 
L 813.984785 312.124527 
L 819.927729 312.124527 
L 820.776721 322.841048 
L 821.625713 322.841048 
L 822.474705 320.833004 
L 823.323697 328.536755 
L 824.172689 328.536755 
L 825.021681 327.193484 
L 825.870673 326.558935 
L 826.719665 326.558935 
L 827.568657 325.795974 
L 828.417649 321.207775 
L 831.813617 321.207775 
L 832.662609 320.939232 
L 833.511601 320.939232 
L 834.360593 322.956993 
L 835.209585 321.419684 
L 836.058577 321.419684 
L 836.907569 318.424277 
L 838.605553 318.424277 
L 839.454545 318.740293 
L 842.850514 318.740293 
L 843.699506 319.707979 
L 845.39749 319.707979 
L 846.246482 314.994184 
L 847.095474 317.191237 
L 847.944466 317.191237 
L 848.793458 314.363901 
L 849.64245 314.10835 
L 850.491442 314.10835 
L 851.340434 315.610918 
L 853.88741 315.610918 
L 854.736402 316.85819 
L 855.585394 316.85819 
L 856.434386 317.382807 
L 858.13237 317.382807 
L 858.981362 316.165033 
L 860.679346 316.165033 
L 861.528338 311.253635 
L 863.226322 311.171453 
L 864.075314 310.683235 
L 866.62229 310.683235 
L 867.471282 306.591516 
L 868.320274 306.591516 
L 869.169266 307.05834 
L 870.018258 307.05834 
L 870.86725 308.881761 
L 873.414226 308.881761 
L 874.263218 310.001288 
L 875.11221 310.001288 
L 875.961202 307.163649 
L 876.810194 306.40093 
L 882.753138 306.40093 
L 883.60213 309.105202 
L 885.300114 309.105202 
L 886.149106 309.2901 
L 887.84709 309.2901 
L 888.696082 310.733374 
L 897.186002 310.733374 
L 898.883986 315.218356 
L 899.732978 308.282135 
L 901.430962 308.282135 
L 902.279954 311.527035 
L 904.82693 311.527035 
L 905.675922 310.282925 
L 906.524914 310.282925 
L 907.373906 304.313205 
L 908.222898 302.925641 
L 911.618866 302.925641 
L 912.467859 300.076023 
L 913.316851 300.076023 
L 914.165843 296.065231 
L 915.014835 295.887348 
L 915.863827 297.444052 
L 916.712819 297.444052 
L 917.561811 300.295306 
L 922.655763 300.295306 
L 923.504755 303.843319 
L 924.353747 303.843319 
L 925.202739 302.676091 
L 926.051731 302.676091 
L 926.900723 303.46126 
L 927.749715 303.46126 
L 928.598707 305.509314 
L 930.296691 305.509314 
L 931.145683 302.743516 
L 933.692659 302.743516 
L 934.541651 297.678017 
L 935.390643 297.013459 
L 948.125523 297.013459 
L 948.974515 294.348961 
L 949.823507 294.519174 
L 955.766451 294.519174 
L 956.615443 294.774061 
L 960.860403 294.774061 
L 961.709395 301.336099 
L 962.558387 301.336099 
L 963.407379 289.932664 
L 964.256371 294.356185 
L 965.105363 294.804763 
L 965.954355 295.420098 
L 968.501331 295.420098 
L 969.350323 291.61284 
L 970.199315 291.61284 
L 971.048307 283.881008 
L 971.897299 283.881008 
L 972.746291 284.032798 
L 973.595283 285.309388 
L 975.293267 285.309388 
L 976.142259 278.955104 
L 976.991251 274.355722 
L 977.840243 275.368878 
L 978.689235 271.193752 
L 979.538227 271.193752 
L 980.387219 270.545184 
L 981.236211 270.545184 
L 982.085203 269.557518 
L 985.481172 269.557518 
L 986.330164 266.329908 
L 987.179156 272.05518 
L 988.028148 272.05518 
L 988.87714 263.866157 
L 989.726132 262.622315 
L 990.575124 262.622315 
L 991.424116 268.078419 
L 995.669076 268.086161 
L 996.518068 274.357099 
L 997.36706 274.357099 
L 998.216052 275.741532 
L 1000.763028 275.741532 
L 1001.61202 273.114537 
L 1007.554964 273.114537 
L 1008.403956 268.375697 
L 1010.10194 268.375697 
L 1010.950932 268.798501 
L 1013.497908 268.798501 
L 1014.3469 269.430082 
L 1015.195892 269.430082 
L 1016.044884 266.753121 
L 1016.893876 266.753121 
L 1017.742868 270.700182 
L 1018.59186 270.700182 
L 1019.440852 269.344774 
L 1020.289844 270.533845 
L 1024.534804 270.533845 
L 1025.383796 263.951995 
L 1026.232788 263.951995 
L 1027.08178 259.569034 
L 1027.930772 258.381331 
L 1028.779764 260.150263 
L 1029.628756 260.150263 
L 1030.477748 259.785612 
L 1031.32674 259.785612 
L 1032.175732 260.277972 
L 1033.024724 260.277972 
L 1033.873716 245.156193 
L 1034.722708 245.485186 
L 1035.5717 246.655064 
L 1036.420692 246.655064 
L 1037.269684 244.283702 
L 1038.118676 239.137269 
L 1038.967668 239.137269 
L 1039.81666 233.919132 
L 1040.665652 230.141298 
L 1041.514644 241.868612 
L 1042.363636 230.264674 
L 1043.212628 230.264674 
L 1044.910612 243.934936 
L 1045.759604 240.658946 
L 1046.608596 232.961911 
L 1050.004564 232.961911 
L 1050.853556 236.800998 
L 1051.702548 236.800998 
L 1052.551541 233.912774 
L 1053.400533 238.150289 
L 1054.249525 238.150289 
L 1055.098517 227.063122 
L 1055.947509 227.063122 
L 1056.796501 223.88201 
L 1057.645493 222.014046 
L 1058.494485 223.272503 
L 1060.192469 223.272503 
L 1061.041461 229.767982 
L 1061.890453 229.767982 
L 1062.739445 232.843895 
L 1063.588437 232.843895 
L 1064.437429 231.259507 
L 1065.286421 232.938793 
L 1066.135413 232.938793 
L 1066.984405 237.405969 
L 1072.078357 237.405969 
L 1072.927349 259.44837 
L 1073.776341 259.44837 
L 1074.625333 260.848363 
L 1076.323317 260.848363 
L 1077.172309 263.962348 
L 1078.870293 263.962348 
L 1079.719285 262.290893 
L 1080.568277 271.004536 
L 1081.417269 272.004256 
L 1082.266261 272.004256 
L 1083.115253 273.733697 
L 1085.662229 273.733697 
L 1086.511221 274.120094 
L 1088.209205 274.049134 
L 1090.756181 274.049134 
L 1091.605173 274.669659 
L 1093.303157 274.669659 
L 1094.152149 265.118512 
L 1095.001141 267.17715 
L 1095.850133 267.17715 
L 1096.699125 271.615395 
L 1097.548117 271.221401 
L 1098.397109 271.527841 
L 1099.246101 271.527841 
L 1100.095093 266.415536 
L 1100.944085 266.415536 
L 1101.793077 266.263374 
L 1102.642069 266.263374 
L 1103.491061 266.922708 
L 1106.038037 266.922708 
L 1106.887029 267.742736 
L 1109.434005 267.742736 
L 1110.282997 276.708883 
L 1111.131989 276.708883 
L 1111.980981 278.674266 
L 1114.527957 278.674266 
L 1115.376949 278.329767 
L 1116.225941 278.329767 
L 1117.074933 282.682376 
L 1121.319893 282.682376 
L 1122.168886 282.354208 
L 1123.017878 282.354208 
L 1123.86687 281.040228 
L 1129.809814 281.040228 
L 1130.658806 284.030663 
L 1131.507798 284.030663 
L 1132.35679 285.434855 
L 1139.148726 285.434855 
L 1139.997718 287.063253 
L 1140.84671 287.063253 
L 1141.695702 287.454812 
L 1142.544694 287.454812 
L 1143.393686 289.806741 
L 1144.242678 289.806741 
L 1145.09167 288.080283 
L 1145.940662 288.080283 
L 1146.789654 285.929191 
L 1147.638646 285.15577 
L 1148.487638 279.970085 
L 1151.883606 279.970085 
L 1152.732598 285.219846 
L 1154.430582 285.219846 
L 1155.279574 284.61344 
L 1156.128566 284.61344 
L 1156.977558 284.172631 
L 1162.07151 284.172631 
L 1162.920502 281.034279 
L 1163.769494 281.034279 
L 1164.618486 277.298892 
L 1165.467478 280.763549 
L 1166.31647 280.763549 
L 1167.165462 281.18586 
L 1169.712438 281.18586 
L 1170.56143 283.09873 
L 1171.410422 283.09873 
L 1172.259414 281.284322 
L 1174.80639 281.284322 
L 1175.655382 282.821348 
L 1176.504374 282.821348 
L 1177.353366 281.547593 
L 1179.900342 281.547593 
L 1180.749334 282.48244 
L 1186.692278 282.48244 
L 1187.54127 283.921367 
L 1190.937238 283.949317 
L 1191.786231 283.949317 
L 1192.635223 284.704307 
L 1198.578167 284.704307 
L 1199.427159 283.50682 
L 1201.974135 283.50682 
L 1202.823127 279.005765 
L 1203.672119 275.593053 
L 1204.521111 275.593053 
L 1205.370103 275.270831 
L 1206.219095 278.052377 
L 1207.917079 278.052377 
L 1208.766071 277.022722 
L 1209.615063 277.022722 
L 1210.464055 278.965218 
L 1211.313047 275.914114 
L 1212.162039 274.663525 
L 1213.011031 274.663525 
L 1213.860023 273.971428 
L 1214.709015 273.971428 
L 1215.558007 270.900342 
L 1218.953975 270.900342 
L 1219.802967 271.709058 
L 1222.349943 271.819625 
L 1223.198935 268.177568 
L 1224.896919 268.177568 
L 1225.745911 277.492883 
L 1226.594903 277.492883 
L 1227.443895 273.079238 
L 1228.292887 266.503387 
L 1229.141879 258.305882 
L 1229.990871 258.305882 
L 1230.839863 255.165158 
L 1231.688855 256.554442 
L 1232.537847 256.554442 
L 1233.386839 258.920658 
L 1234.235831 258.520847 
L 1235.084823 258.520847 
L 1235.933815 255.290719 
L 1236.782807 255.290719 
L 1237.631799 250.204251 
L 1238.480791 250.204251 
L 1239.329783 246.253507 
L 1240.178775 244.689024 
L 1241.027767 252.175742 
L 1243.574743 252.175742 
L 1244.423735 249.535568 
L 1245.272727 249.535568 
L 1245.272727 249.535568 
" style="fill:none;stroke:#0000ff;stroke-linecap:square;stroke-width:2;"/>
   </g>
   <g id="line2d_15">
    <path clip-path="url(#pb6f4d0360c)" d="M 230.727273 219.607235 
L 238.368201 219.607235 
L 239.217193 216.344486 
L 240.066185 216.344486 
L 240.915177 212.836619 
L 242.613161 212.836619 
L 243.462153 211.274042 
L 247.707113 211.274042 
L 248.556105 197.368154 
L 249.405097 190.064767 
L 250.254089 190.064767 
L 251.103081 190.510325 
L 251.952073 193.232319 
L 259.593001 193.232319 
L 260.441993 189.865398 
L 261.290985 172.028211 
L 262.139977 158.411047 
L 268.082921 158.411047 
L 268.931913 152.526985 
L 269.780905 152.526985 
L 270.629897 167.648796 
L 273.176873 167.648796 
L 274.025865 165.486086 
L 274.874857 165.486086 
L 275.723849 178.348814 
L 276.572841 178.348814 
L 277.421833 201.387652 
L 278.270825 201.387652 
L 279.119817 219.663259 
L 279.968809 219.663259 
L 280.817801 238.708499 
L 286.760746 238.708499 
L 287.609738 255.573059 
L 288.45873 249.125971 
L 289.307722 249.125971 
L 290.156714 244.834734 
L 291.854698 244.834734 
L 292.70369 236.869695 
L 293.552682 236.869695 
L 294.401674 258.879463 
L 296.099658 258.879463 
L 296.94865 266.411101 
L 299.495626 266.411101 
L 300.344618 269.831855 
L 301.19361 269.831855 
L 302.042602 262.420656 
L 304.589578 262.420656 
L 305.43857 256.04351 
L 306.287562 256.04351 
L 307.136554 249.824927 
L 307.985546 249.824927 
L 308.834538 243.638031 
L 310.532522 243.638031 
L 311.381514 266.522915 
L 313.92849 266.522915 
L 314.777482 250.688498 
L 315.626474 261.395958 
L 316.475466 261.395958 
L 317.324458 263.433514 
L 326.66337 263.433514 
L 327.512362 261.487695 
L 328.361354 261.487695 
L 329.210346 257.571796 
L 332.606314 257.571796 
L 333.455306 246.472886 
L 334.304298 242.120057 
L 335.15329 231.025163 
L 336.002282 231.025163 
L 336.851274 234.444126 
L 342.794218 234.444126 
L 343.64321 232.429361 
L 344.492202 232.429361 
L 345.341194 239.960843 
L 346.190186 237.482394 
L 349.586154 237.482394 
L 350.435146 237.140977 
L 354.680107 237.140977 
L 355.529099 241.549717 
L 356.378091 241.549717 
L 357.227083 244.115827 
L 359.774059 244.115827 
L 360.623051 246.396025 
L 361.472043 246.396025 
L 362.321035 241.878334 
L 364.019019 241.878334 
L 364.868011 240.613958 
L 375.904907 240.613958 
L 376.753899 241.248753 
L 377.602891 241.248753 
L 378.451883 238.718947 
L 385.243819 238.718947 
L 386.092811 242.636199 
L 386.941803 242.636199 
L 387.790795 267.243516 
L 390.337771 267.243516 
L 391.186763 276.374881 
L 393.733739 276.374881 
L 394.582731 267.090298 
L 395.431723 269.583889 
L 398.827691 269.583889 
L 399.676683 273.094536 
L 401.374667 273.094536 
L 402.223659 276.376367 
L 403.921643 276.376367 
L 404.770635 271.328078 
L 405.619627 273.926142 
L 406.468619 273.752 
L 407.317611 263.118033 
L 409.015595 263.118033 
L 409.864587 262.111967 
L 410.713579 256.531203 
L 414.109547 256.531203 
L 414.958539 271.024215 
L 415.807531 271.024215 
L 416.656523 257.759144 
L 417.505515 256.628212 
L 418.354507 256.628212 
L 419.203499 250.239779 
L 420.052491 249.665264 
L 425.995436 249.665264 
L 426.844428 239.719558 
L 427.69342 232.369873 
L 428.542412 232.369873 
L 429.391404 230.234164 
L 431.089388 230.234164 
L 431.93838 232.195058 
L 433.636364 232.195058 
L 434.485356 231.304248 
L 436.18334 231.304248 
L 437.032332 229.548732 
L 437.881324 234.048761 
L 438.730316 234.048761 
L 439.579308 227.527693 
L 440.4283 230.006526 
L 446.371244 230.006526 
L 447.220236 227.959189 
L 471.841004 227.959189 
L 472.689996 226.992343 
L 476.085964 226.992343 
L 476.934956 216.971166 
L 477.783948 218.146779 
L 488.820844 218.146779 
L 489.669836 216.755463 
L 831.813617 216.755463 
L 832.662609 216.353085 
L 858.13237 216.353085 
L 858.981362 214.558811 
L 904.82693 214.558811 
L 905.675922 212.764508 
L 906.524914 212.764508 
L 907.373906 204.154749 
L 908.222898 202.153551 
L 965.105363 202.153551 
L 965.954355 203.010472 
L 976.991251 203.010472 
L 977.840243 204.305505 
L 986.330164 204.305505 
L 987.179156 211.373518 
L 1033.024724 211.373518 
L 1033.873716 193.51799 
L 1034.722708 193.906459 
L 1040.665652 193.906459 
L 1041.514644 207.047156 
L 1043.212628 207.047156 
L 1044.06162 214.403923 
L 1045.759604 214.403923 
L 1046.608596 206.010365 
L 1057.645493 206.010365 
L 1058.494485 207.334046 
L 1073.776341 207.334046 
L 1074.625333 209.00292 
L 1076.323317 209.00292 
L 1077.172309 212.714974 
L 1085.662229 212.714974 
L 1086.511221 213.19309 
L 1106.038037 213.19309 
L 1106.887029 214.180094 
L 1116.225941 214.180094 
L 1117.074933 219.638675 
L 1228.292887 219.638675 
L 1229.141879 209.987566 
L 1240.178775 209.987566 
L 1241.027767 218.382342 
L 1245.272727 218.382342 
L 1245.272727 218.382342 
" style="fill:none;stroke:#008000;stroke-linecap:square;stroke-width:2;"/>
   </g>
   <g id="patch_3">
    <path d="M 180 384.48 
L 180 51.84 
" style="fill:none;stroke:#000000;stroke-linecap:square;stroke-linejoin:miter;stroke-width:0.8;"/>
   </g>
   <g id="patch_4">
    <path d="M 1296 384.48 
L 1296 51.84 
" style="fill:none;stroke:#000000;stroke-linecap:square;stroke-linejoin:miter;stroke-width:0.8;"/>
   </g>
   <g id="patch_5">
    <path d="M 180 384.48 
L 1296 384.48 
" style="fill:none;stroke:#000000;stroke-linecap:square;stroke-linejoin:miter;stroke-width:0.8;"/>
   </g>
   <g id="patch_6">
    <path d="M 180 51.84 
L 1296 51.84 
" style="fill:none;stroke:#000000;stroke-linecap:square;stroke-linejoin:miter;stroke-width:0.8;"/>
   </g>
   <g id="text_14">
    <!-- LSTM Prediction- -modelPPT -->
    <defs>
     <path d="M 9.8125 72.90625 
L 19.671875 72.90625 
L 19.671875 8.296875 
L 55.171875 8.296875 
L 55.171875 0 
L 9.8125 0 
z
" id="DejaVuSans-76"/>
     <path d="M 53.515625 70.515625 
L 53.515625 60.890625 
Q 47.90625 63.578125 42.921875 64.890625 
Q 37.9375 66.21875 33.296875 66.21875 
Q 25.25 66.21875 20.875 63.09375 
Q 16.5 59.96875 16.5 54.203125 
Q 16.5 49.359375 19.40625 46.890625 
Q 22.3125 44.4375 30.421875 42.921875 
L 36.375 41.703125 
Q 47.40625 39.59375 52.65625 34.296875 
Q 57.90625 29 57.90625 20.125 
Q 57.90625 9.515625 50.796875 4.046875 
Q 43.703125 -1.421875 29.984375 -1.421875 
Q 24.8125 -1.421875 18.96875 -0.25 
Q 13.140625 0.921875 6.890625 3.21875 
L 6.890625 13.375 
Q 12.890625 10.015625 18.65625 8.296875 
Q 24.421875 6.59375 29.984375 6.59375 
Q 38.421875 6.59375 43.015625 9.90625 
Q 47.609375 13.234375 47.609375 19.390625 
Q 47.609375 24.75 44.3125 27.78125 
Q 41.015625 30.8125 33.5 32.328125 
L 27.484375 33.5 
Q 16.453125 35.6875 11.515625 40.375 
Q 6.59375 45.0625 6.59375 53.421875 
Q 6.59375 63.09375 13.40625 68.65625 
Q 20.21875 74.21875 32.171875 74.21875 
Q 37.3125 74.21875 42.625 73.28125 
Q 47.953125 72.359375 53.515625 70.515625 
z
" id="DejaVuSans-83"/>
     <path d="M -0.296875 72.90625 
L 61.375 72.90625 
L 61.375 64.59375 
L 35.5 64.59375 
L 35.5 0 
L 25.59375 0 
L 25.59375 64.59375 
L -0.296875 64.59375 
z
" id="DejaVuSans-84"/>
     <path d="M 9.8125 72.90625 
L 24.515625 72.90625 
L 43.109375 23.296875 
L 61.8125 72.90625 
L 76.515625 72.90625 
L 76.515625 0 
L 66.890625 0 
L 66.890625 64.015625 
L 48.09375 14.015625 
L 38.1875 14.015625 
L 19.390625 64.015625 
L 19.390625 0 
L 9.8125 0 
z
" id="DejaVuSans-77"/>
     <path d="M 19.671875 64.796875 
L 19.671875 37.40625 
L 32.078125 37.40625 
Q 38.96875 37.40625 42.71875 40.96875 
Q 46.484375 44.53125 46.484375 51.125 
Q 46.484375 57.671875 42.71875 61.234375 
Q 38.96875 64.796875 32.078125 64.796875 
z
M 9.8125 72.90625 
L 32.078125 72.90625 
Q 44.34375 72.90625 50.609375 67.359375 
Q 56.890625 61.8125 56.890625 51.125 
Q 56.890625 40.328125 50.609375 34.8125 
Q 44.34375 29.296875 32.078125 29.296875 
L 19.671875 29.296875 
L 19.671875 0 
L 9.8125 0 
z
" id="DejaVuSans-80"/>
     <path d="M 41.109375 46.296875 
Q 39.59375 47.171875 37.8125 47.578125 
Q 36.03125 48 33.890625 48 
Q 26.265625 48 22.1875 43.046875 
Q 18.109375 38.09375 18.109375 28.8125 
L 18.109375 0 
L 9.078125 0 
L 9.078125 54.6875 
L 18.109375 54.6875 
L 18.109375 46.1875 
Q 20.953125 51.171875 25.484375 53.578125 
Q 30.03125 56 36.53125 56 
Q 37.453125 56 38.578125 55.875 
Q 39.703125 55.765625 41.0625 55.515625 
z
" id="DejaVuSans-114"/>
     <path d="M 45.40625 46.390625 
L 45.40625 75.984375 
L 54.390625 75.984375 
L 54.390625 0 
L 45.40625 0 
L 45.40625 8.203125 
Q 42.578125 3.328125 38.25 0.953125 
Q 33.9375 -1.421875 27.875 -1.421875 
Q 17.96875 -1.421875 11.734375 6.484375 
Q 5.515625 14.40625 5.515625 27.296875 
Q 5.515625 40.1875 11.734375 48.09375 
Q 17.96875 56 27.875 56 
Q 33.9375 56 38.25 53.625 
Q 42.578125 51.265625 45.40625 46.390625 
z
M 14.796875 27.296875 
Q 14.796875 17.390625 18.875 11.75 
Q 22.953125 6.109375 30.078125 6.109375 
Q 37.203125 6.109375 41.296875 11.75 
Q 45.40625 17.390625 45.40625 27.296875 
Q 45.40625 37.203125 41.296875 42.84375 
Q 37.203125 48.484375 30.078125 48.484375 
Q 22.953125 48.484375 18.875 42.84375 
Q 14.796875 37.203125 14.796875 27.296875 
z
" id="DejaVuSans-100"/>
     <path d="M 48.78125 52.59375 
L 48.78125 44.1875 
Q 44.96875 46.296875 41.140625 47.34375 
Q 37.3125 48.390625 33.40625 48.390625 
Q 24.65625 48.390625 19.8125 42.84375 
Q 14.984375 37.3125 14.984375 27.296875 
Q 14.984375 17.28125 19.8125 11.734375 
Q 24.65625 6.203125 33.40625 6.203125 
Q 37.3125 6.203125 41.140625 7.25 
Q 44.96875 8.296875 48.78125 10.40625 
L 48.78125 2.09375 
Q 45.015625 0.34375 40.984375 -0.53125 
Q 36.96875 -1.421875 32.421875 -1.421875 
Q 20.0625 -1.421875 12.78125 6.34375 
Q 5.515625 14.109375 5.515625 27.296875 
Q 5.515625 40.671875 12.859375 48.328125 
Q 20.21875 56 33.015625 56 
Q 37.15625 56 41.109375 55.140625 
Q 45.0625 54.296875 48.78125 52.59375 
z
" id="DejaVuSans-99"/>
     <path d="M 30.609375 48.390625 
Q 23.390625 48.390625 19.1875 42.75 
Q 14.984375 37.109375 14.984375 27.296875 
Q 14.984375 17.484375 19.15625 11.84375 
Q 23.34375 6.203125 30.609375 6.203125 
Q 37.796875 6.203125 41.984375 11.859375 
Q 46.1875 17.53125 46.1875 27.296875 
Q 46.1875 37.015625 41.984375 42.703125 
Q 37.796875 48.390625 30.609375 48.390625 
z
M 30.609375 56 
Q 42.328125 56 49.015625 48.375 
Q 55.71875 40.765625 55.71875 27.296875 
Q 55.71875 13.875 49.015625 6.21875 
Q 42.328125 -1.421875 30.609375 -1.421875 
Q 18.84375 -1.421875 12.171875 6.21875 
Q 5.515625 13.875 5.515625 27.296875 
Q 5.515625 40.765625 12.171875 48.375 
Q 18.84375 56 30.609375 56 
z
" id="DejaVuSans-111"/>
     <path d="M 54.890625 33.015625 
L 54.890625 0 
L 45.90625 0 
L 45.90625 32.71875 
Q 45.90625 40.484375 42.875 44.328125 
Q 39.84375 48.1875 33.796875 48.1875 
Q 26.515625 48.1875 22.3125 43.546875 
Q 18.109375 38.921875 18.109375 30.90625 
L 18.109375 0 
L 9.078125 0 
L 9.078125 54.6875 
L 18.109375 54.6875 
L 18.109375 46.1875 
Q 21.34375 51.125 25.703125 53.5625 
Q 30.078125 56 35.796875 56 
Q 45.21875 56 50.046875 50.171875 
Q 54.890625 44.34375 54.890625 33.015625 
z
" id="DejaVuSans-110"/>
     <path d="M 4.890625 31.390625 
L 31.203125 31.390625 
L 31.203125 23.390625 
L 4.890625 23.390625 
z
" id="DejaVuSans-45"/>
     <path d="M 9.421875 75.984375 
L 18.40625 75.984375 
L 18.40625 0 
L 9.421875 0 
z
" id="DejaVuSans-108"/>
    </defs>
    <g transform="translate(656.145 45.84)scale(0.12 -0.12)">
     <use xlink:href="#DejaVuSans-76"/>
     <use x="55.712891" xlink:href="#DejaVuSans-83"/>
     <use x="119.189453" xlink:href="#DejaVuSans-84"/>
     <use x="180.273438" xlink:href="#DejaVuSans-77"/>
     <use x="266.552734" xlink:href="#DejaVuSans-32"/>
     <use x="298.339844" xlink:href="#DejaVuSans-80"/>
     <use x="358.626953" xlink:href="#DejaVuSans-114"/>
     <use x="399.708984" xlink:href="#DejaVuSans-101"/>
     <use x="461.232422" xlink:href="#DejaVuSans-100"/>
     <use x="524.708984" xlink:href="#DejaVuSans-105"/>
     <use x="552.492188" xlink:href="#DejaVuSans-99"/>
     <use x="607.472656" xlink:href="#DejaVuSans-116"/>
     <use x="646.681641" xlink:href="#DejaVuSans-105"/>
     <use x="674.464844" xlink:href="#DejaVuSans-111"/>
     <use x="735.646484" xlink:href="#DejaVuSans-110"/>
     <use x="799.025391" xlink:href="#DejaVuSans-45"/>
     <use x="835.109375" xlink:href="#DejaVuSans-45"/>
     <use x="871.193359" xlink:href="#DejaVuSans-109"/>
     <use x="968.605469" xlink:href="#DejaVuSans-111"/>
     <use x="1029.787109" xlink:href="#DejaVuSans-100"/>
     <use x="1093.263672" xlink:href="#DejaVuSans-101"/>
     <use x="1154.787109" xlink:href="#DejaVuSans-108"/>
     <use x="1182.570312" xlink:href="#DejaVuSans-80"/>
     <use x="1242.873047" xlink:href="#DejaVuSans-80"/>
     <use x="1303.175781" xlink:href="#DejaVuSans-84"/>
    </g>
   </g>
   <g id="legend_1">
    <g id="patch_7">
     <path d="M 1221.63125 103.874375 
L 1289 103.874375 
Q 1291 103.874375 1291 101.874375 
L 1291 58.84 
Q 1291 56.84 1289 56.84 
L 1221.63125 56.84 
Q 1219.63125 56.84 1219.63125 58.84 
L 1219.63125 101.874375 
Q 1219.63125 103.874375 1221.63125 103.874375 
z
" style="fill:#ffffff;opacity:0.8;stroke:#cccccc;stroke-linejoin:miter;"/>
    </g>
    <g id="line2d_16">
     <path d="M 1223.63125 64.938437 
L 1243.63125 64.938437 
" style="fill:none;stroke:#ff0000;stroke-linecap:square;stroke-width:5;"/>
    </g>
    <g id="line2d_17"/>
    <g id="text_15">
     <!-- CSI500 -->
     <defs>
      <path d="M 64.40625 67.28125 
L 64.40625 56.890625 
Q 59.421875 61.53125 53.78125 63.8125 
Q 48.140625 66.109375 41.796875 66.109375 
Q 29.296875 66.109375 22.65625 58.46875 
Q 16.015625 50.828125 16.015625 36.375 
Q 16.015625 21.96875 22.65625 14.328125 
Q 29.296875 6.6875 41.796875 6.6875 
Q 48.140625 6.6875 53.78125 8.984375 
Q 59.421875 11.28125 64.40625 15.921875 
L 64.40625 5.609375 
Q 59.234375 2.09375 53.4375 0.328125 
Q 47.65625 -1.421875 41.21875 -1.421875 
Q 24.65625 -1.421875 15.125 8.703125 
Q 5.609375 18.84375 5.609375 36.375 
Q 5.609375 53.953125 15.125 64.078125 
Q 24.65625 74.21875 41.21875 74.21875 
Q 47.75 74.21875 53.53125 72.484375 
Q 59.328125 70.75 64.40625 67.28125 
z
" id="DejaVuSans-67"/>
      <path d="M 9.8125 72.90625 
L 19.671875 72.90625 
L 19.671875 0 
L 9.8125 0 
z
" id="DejaVuSans-73"/>
      <path d="M 10.796875 72.90625 
L 49.515625 72.90625 
L 49.515625 64.59375 
L 19.828125 64.59375 
L 19.828125 46.734375 
Q 21.96875 47.46875 24.109375 47.828125 
Q 26.265625 48.1875 28.421875 48.1875 
Q 40.625 48.1875 47.75 41.5 
Q 54.890625 34.8125 54.890625 23.390625 
Q 54.890625 11.625 47.5625 5.09375 
Q 40.234375 -1.421875 26.90625 -1.421875 
Q 22.3125 -1.421875 17.546875 -0.640625 
Q 12.796875 0.140625 7.71875 1.703125 
L 7.71875 11.625 
Q 12.109375 9.234375 16.796875 8.0625 
Q 21.484375 6.890625 26.703125 6.890625 
Q 35.15625 6.890625 40.078125 11.328125 
Q 45.015625 15.765625 45.015625 23.390625 
Q 45.015625 31 40.078125 35.4375 
Q 35.15625 39.890625 26.703125 39.890625 
Q 22.75 39.890625 18.8125 39.015625 
Q 14.890625 38.140625 10.796875 36.28125 
z
" id="DejaVuSans-53"/>
     </defs>
     <g transform="translate(1251.63125 68.438437)scale(0.1 -0.1)">
      <use xlink:href="#DejaVuSans-67"/>
      <use x="69.824219" xlink:href="#DejaVuSans-83"/>
      <use x="133.300781" xlink:href="#DejaVuSans-73"/>
      <use x="162.792969" xlink:href="#DejaVuSans-53"/>
      <use x="226.416016" xlink:href="#DejaVuSans-48"/>
      <use x="290.039062" xlink:href="#DejaVuSans-48"/>
     </g>
    </g>
    <g id="line2d_18">
     <path d="M 1223.63125 79.616562 
L 1243.63125 79.616562 
" style="fill:none;stroke:#0000ff;stroke-linecap:square;stroke-width:2;"/>
    </g>
    <g id="line2d_19"/>
    <g id="text_16">
     <!-- S0 -->
     <g transform="translate(1251.63125 83.116562)scale(0.1 -0.1)">
      <use xlink:href="#DejaVuSans-83"/>
      <use x="63.476562" xlink:href="#DejaVuSans-48"/>
     </g>
    </g>
    <g id="line2d_20">
     <path d="M 1223.63125 94.294687 
L 1243.63125 94.294687 
" style="fill:none;stroke:#008000;stroke-linecap:square;stroke-width:2;"/>
    </g>
    <g id="line2d_21"/>
    <g id="text_17">
     <!-- S1 -->
     <g transform="translate(1251.63125 97.794687)scale(0.1 -0.1)">
      <use xlink:href="#DejaVuSans-83"/>
      <use x="63.476562" xlink:href="#DejaVuSans-49"/>
     </g>
    </g>
   </g>
  </g>
 </g>
 <defs>
  <clipPath id="pb6f4d0360c">
   <rect height="332.64" width="1116" x="180" y="51.84"/>
  </clipPath>
 </defs>
</svg>
