<?xml version="1.0" encoding="utf-8" standalone="no"?>
<!DOCTYPE svg PUBLIC "-//W3C//DTD SVG 1.1//EN"
  "http://www.w3.org/Graphics/SVG/1.1/DTD/svg11.dtd">
<!-- Created with matplotlib (https://matplotlib.org/) -->
<svg height="432pt" version="1.1" viewBox="0 0 1440 432" width="1440pt" xmlns="http://www.w3.org/2000/svg" xmlns:xlink="http://www.w3.org/1999/xlink">
 <defs>
  <style type="text/css">
*{stroke-linecap:butt;stroke-linejoin:round;}
  </style>
 </defs>
 <g id="figure_1">
  <g id="patch_1">
   <path d="M 0 432 
L 1440 432 
L 1440 0 
L 0 0 
z
" style="fill:#ffffff;"/>
  </g>
  <g id="axes_1">
   <g id="patch_2">
    <path d="M 180 384.48 
L 1296 384.48 
L 1296 51.84 
L 180 51.84 
z
" style="fill:#ffffff;"/>
   </g>
   <g id="matplotlib.axis_1">
    <g id="xtick_1">
     <g id="line2d_1">
      <defs>
       <path d="M 0 0 
L 0 3.5 
" id="m6ab5807e36" style="stroke:#000000;stroke-width:0.8;"/>
      </defs>
      <g>
       <use style="stroke:#000000;stroke-width:0.8;" x="230.727273" xlink:href="#m6ab5807e36" y="384.48"/>
      </g>
     </g>
     <g id="text_1">
      <!-- 0 -->
      <defs>
       <path d="M 31.78125 66.40625 
Q 24.171875 66.40625 20.328125 58.90625 
Q 16.5 51.421875 16.5 36.375 
Q 16.5 21.390625 20.328125 13.890625 
Q 24.171875 6.390625 31.78125 6.390625 
Q 39.453125 6.390625 43.28125 13.890625 
Q 47.125 21.390625 47.125 36.375 
Q 47.125 51.421875 43.28125 58.90625 
Q 39.453125 66.40625 31.78125 66.40625 
z
M 31.78125 74.21875 
Q 44.046875 74.21875 50.515625 64.515625 
Q 56.984375 54.828125 56.984375 36.375 
Q 56.984375 17.96875 50.515625 8.265625 
Q 44.046875 -1.421875 31.78125 -1.421875 
Q 19.53125 -1.421875 13.0625 8.265625 
Q 6.59375 17.96875 6.59375 36.375 
Q 6.59375 54.828125 13.0625 64.515625 
Q 19.53125 74.21875 31.78125 74.21875 
z
" id="DejaVuSans-48"/>
      </defs>
      <g transform="translate(227.546023 399.078438)scale(0.1 -0.1)">
       <use xlink:href="#DejaVuSans-48"/>
      </g>
     </g>
    </g>
    <g id="xtick_2">
     <g id="line2d_2">
      <g>
       <use style="stroke:#000000;stroke-width:0.8;" x="400.525675" xlink:href="#m6ab5807e36" y="384.48"/>
      </g>
     </g>
     <g id="text_2">
      <!-- 200 -->
      <defs>
       <path d="M 19.1875 8.296875 
L 53.609375 8.296875 
L 53.609375 0 
L 7.328125 0 
L 7.328125 8.296875 
Q 12.9375 14.109375 22.625 23.890625 
Q 32.328125 33.6875 34.8125 36.53125 
Q 39.546875 41.84375 41.421875 45.53125 
Q 43.3125 49.21875 43.3125 52.78125 
Q 43.3125 58.59375 39.234375 62.25 
Q 35.15625 65.921875 28.609375 65.921875 
Q 23.96875 65.921875 18.8125 64.3125 
Q 13.671875 62.703125 7.8125 59.421875 
L 7.8125 69.390625 
Q 13.765625 71.78125 18.9375 73 
Q 24.125 74.21875 28.421875 74.21875 
Q 39.75 74.21875 46.484375 68.546875 
Q 53.21875 62.890625 53.21875 53.421875 
Q 53.21875 48.921875 51.53125 44.890625 
Q 49.859375 40.875 45.40625 35.40625 
Q 44.1875 33.984375 37.640625 27.21875 
Q 31.109375 20.453125 19.1875 8.296875 
z
" id="DejaVuSans-50"/>
      </defs>
      <g transform="translate(390.981925 399.078438)scale(0.1 -0.1)">
       <use xlink:href="#DejaVuSans-50"/>
       <use x="63.623047" xlink:href="#DejaVuSans-48"/>
       <use x="127.246094" xlink:href="#DejaVuSans-48"/>
      </g>
     </g>
    </g>
    <g id="xtick_3">
     <g id="line2d_3">
      <g>
       <use style="stroke:#000000;stroke-width:0.8;" x="570.324078" xlink:href="#m6ab5807e36" y="384.48"/>
      </g>
     </g>
     <g id="text_3">
      <!-- 400 -->
      <defs>
       <path d="M 37.796875 64.3125 
L 12.890625 25.390625 
L 37.796875 25.390625 
z
M 35.203125 72.90625 
L 47.609375 72.90625 
L 47.609375 25.390625 
L 58.015625 25.390625 
L 58.015625 17.1875 
L 47.609375 17.1875 
L 47.609375 0 
L 37.796875 0 
L 37.796875 17.1875 
L 4.890625 17.1875 
L 4.890625 26.703125 
z
" id="DejaVuSans-52"/>
      </defs>
      <g transform="translate(560.780328 399.078438)scale(0.1 -0.1)">
       <use xlink:href="#DejaVuSans-52"/>
       <use x="63.623047" xlink:href="#DejaVuSans-48"/>
       <use x="127.246094" xlink:href="#DejaVuSans-48"/>
      </g>
     </g>
    </g>
    <g id="xtick_4">
     <g id="line2d_4">
      <g>
       <use style="stroke:#000000;stroke-width:0.8;" x="740.12248" xlink:href="#m6ab5807e36" y="384.48"/>
      </g>
     </g>
     <g id="text_4">
      <!-- 600 -->
      <defs>
       <path d="M 33.015625 40.375 
Q 26.375 40.375 22.484375 35.828125 
Q 18.609375 31.296875 18.609375 23.390625 
Q 18.609375 15.53125 22.484375 10.953125 
Q 26.375 6.390625 33.015625 6.390625 
Q 39.65625 6.390625 43.53125 10.953125 
Q 47.40625 15.53125 47.40625 23.390625 
Q 47.40625 31.296875 43.53125 35.828125 
Q 39.65625 40.375 33.015625 40.375 
z
M 52.59375 71.296875 
L 52.59375 62.3125 
Q 48.875 64.0625 45.09375 64.984375 
Q 41.3125 65.921875 37.59375 65.921875 
Q 27.828125 65.921875 22.671875 59.328125 
Q 17.53125 52.734375 16.796875 39.40625 
Q 19.671875 43.65625 24.015625 45.921875 
Q 28.375 48.1875 33.59375 48.1875 
Q 44.578125 48.1875 50.953125 41.515625 
Q 57.328125 34.859375 57.328125 23.390625 
Q 57.328125 12.15625 50.6875 5.359375 
Q 44.046875 -1.421875 33.015625 -1.421875 
Q 20.359375 -1.421875 13.671875 8.265625 
Q 6.984375 17.96875 6.984375 36.375 
Q 6.984375 53.65625 15.1875 63.9375 
Q 23.390625 74.21875 37.203125 74.21875 
Q 40.921875 74.21875 44.703125 73.484375 
Q 48.484375 72.75 52.59375 71.296875 
z
" id="DejaVuSans-54"/>
      </defs>
      <g transform="translate(730.57873 399.078438)scale(0.1 -0.1)">
       <use xlink:href="#DejaVuSans-54"/>
       <use x="63.623047" xlink:href="#DejaVuSans-48"/>
       <use x="127.246094" xlink:href="#DejaVuSans-48"/>
      </g>
     </g>
    </g>
    <g id="xtick_5">
     <g id="line2d_5">
      <g>
       <use style="stroke:#000000;stroke-width:0.8;" x="909.920882" xlink:href="#m6ab5807e36" y="384.48"/>
      </g>
     </g>
     <g id="text_5">
      <!-- 800 -->
      <defs>
       <path d="M 31.78125 34.625 
Q 24.75 34.625 20.71875 30.859375 
Q 16.703125 27.09375 16.703125 20.515625 
Q 16.703125 13.921875 20.71875 10.15625 
Q 24.75 6.390625 31.78125 6.390625 
Q 38.8125 6.390625 42.859375 10.171875 
Q 46.921875 13.96875 46.921875 20.515625 
Q 46.921875 27.09375 42.890625 30.859375 
Q 38.875 34.625 31.78125 34.625 
z
M 21.921875 38.8125 
Q 15.578125 40.375 12.03125 44.71875 
Q 8.5 49.078125 8.5 55.328125 
Q 8.5 64.0625 14.71875 69.140625 
Q 20.953125 74.21875 31.78125 74.21875 
Q 42.671875 74.21875 48.875 69.140625 
Q 55.078125 64.0625 55.078125 55.328125 
Q 55.078125 49.078125 51.53125 44.71875 
Q 48 40.375 41.703125 38.8125 
Q 48.828125 37.15625 52.796875 32.3125 
Q 56.78125 27.484375 56.78125 20.515625 
Q 56.78125 9.90625 50.3125 4.234375 
Q 43.84375 -1.421875 31.78125 -1.421875 
Q 19.734375 -1.421875 13.25 4.234375 
Q 6.78125 9.90625 6.78125 20.515625 
Q 6.78125 27.484375 10.78125 32.3125 
Q 14.796875 37.15625 21.921875 38.8125 
z
M 18.3125 54.390625 
Q 18.3125 48.734375 21.84375 45.5625 
Q 25.390625 42.390625 31.78125 42.390625 
Q 38.140625 42.390625 41.71875 45.5625 
Q 45.3125 48.734375 45.3125 54.390625 
Q 45.3125 60.0625 41.71875 63.234375 
Q 38.140625 66.40625 31.78125 66.40625 
Q 25.390625 66.40625 21.84375 63.234375 
Q 18.3125 60.0625 18.3125 54.390625 
z
" id="DejaVuSans-56"/>
      </defs>
      <g transform="translate(900.377132 399.078438)scale(0.1 -0.1)">
       <use xlink:href="#DejaVuSans-56"/>
       <use x="63.623047" xlink:href="#DejaVuSans-48"/>
       <use x="127.246094" xlink:href="#DejaVuSans-48"/>
      </g>
     </g>
    </g>
    <g id="xtick_6">
     <g id="line2d_6">
      <g>
       <use style="stroke:#000000;stroke-width:0.8;" x="1079.719285" xlink:href="#m6ab5807e36" y="384.48"/>
      </g>
     </g>
     <g id="text_6">
      <!-- 1000 -->
      <defs>
       <path d="M 12.40625 8.296875 
L 28.515625 8.296875 
L 28.515625 63.921875 
L 10.984375 60.40625 
L 10.984375 69.390625 
L 28.421875 72.90625 
L 38.28125 72.90625 
L 38.28125 8.296875 
L 54.390625 8.296875 
L 54.390625 0 
L 12.40625 0 
z
" id="DejaVuSans-49"/>
      </defs>
      <g transform="translate(1066.994285 399.078438)scale(0.1 -0.1)">
       <use xlink:href="#DejaVuSans-49"/>
       <use x="63.623047" xlink:href="#DejaVuSans-48"/>
       <use x="127.246094" xlink:href="#DejaVuSans-48"/>
       <use x="190.869141" xlink:href="#DejaVuSans-48"/>
      </g>
     </g>
    </g>
    <g id="xtick_7">
     <g id="line2d_7">
      <g>
       <use style="stroke:#000000;stroke-width:0.8;" x="1249.517687" xlink:href="#m6ab5807e36" y="384.48"/>
      </g>
     </g>
     <g id="text_7">
      <!-- 1200 -->
      <g transform="translate(1236.792687 399.078438)scale(0.1 -0.1)">
       <use xlink:href="#DejaVuSans-49"/>
       <use x="63.623047" xlink:href="#DejaVuSans-50"/>
       <use x="127.246094" xlink:href="#DejaVuSans-48"/>
       <use x="190.869141" xlink:href="#DejaVuSans-48"/>
      </g>
     </g>
    </g>
   </g>
   <g id="matplotlib.axis_2">
    <g id="ytick_1">
     <g id="line2d_8">
      <defs>
       <path d="M 0 0 
L -3.5 0 
" id="m7b355c24f6" style="stroke:#000000;stroke-width:0.8;"/>
      </defs>
      <g>
       <use style="stroke:#000000;stroke-width:0.8;" x="180" xlink:href="#m7b355c24f6" y="344.081897"/>
      </g>
     </g>
     <g id="text_8">
      <!-- 0.6 -->
      <defs>
       <path d="M 10.6875 12.40625 
L 21 12.40625 
L 21 0 
L 10.6875 0 
z
" id="DejaVuSans-46"/>
      </defs>
      <g transform="translate(157.096875 347.881116)scale(0.1 -0.1)">
       <use xlink:href="#DejaVuSans-48"/>
       <use x="63.623047" xlink:href="#DejaVuSans-46"/>
       <use x="95.410156" xlink:href="#DejaVuSans-54"/>
      </g>
     </g>
    </g>
    <g id="ytick_2">
     <g id="line2d_9">
      <g>
       <use style="stroke:#000000;stroke-width:0.8;" x="180" xlink:href="#m7b355c24f6" y="281.844566"/>
      </g>
     </g>
     <g id="text_9">
      <!-- 0.8 -->
      <g transform="translate(157.096875 285.643785)scale(0.1 -0.1)">
       <use xlink:href="#DejaVuSans-48"/>
       <use x="63.623047" xlink:href="#DejaVuSans-46"/>
       <use x="95.410156" xlink:href="#DejaVuSans-56"/>
      </g>
     </g>
    </g>
    <g id="ytick_3">
     <g id="line2d_10">
      <g>
       <use style="stroke:#000000;stroke-width:0.8;" x="180" xlink:href="#m7b355c24f6" y="219.607235"/>
      </g>
     </g>
     <g id="text_10">
      <!-- 1.0 -->
      <g transform="translate(157.096875 223.406454)scale(0.1 -0.1)">
       <use xlink:href="#DejaVuSans-49"/>
       <use x="63.623047" xlink:href="#DejaVuSans-46"/>
       <use x="95.410156" xlink:href="#DejaVuSans-48"/>
      </g>
     </g>
    </g>
    <g id="ytick_4">
     <g id="line2d_11">
      <g>
       <use style="stroke:#000000;stroke-width:0.8;" x="180" xlink:href="#m7b355c24f6" y="157.369904"/>
      </g>
     </g>
     <g id="text_11">
      <!-- 1.2 -->
      <g transform="translate(157.096875 161.169123)scale(0.1 -0.1)">
       <use xlink:href="#DejaVuSans-49"/>
       <use x="63.623047" xlink:href="#DejaVuSans-46"/>
       <use x="95.410156" xlink:href="#DejaVuSans-50"/>
      </g>
     </g>
    </g>
    <g id="ytick_5">
     <g id="line2d_12">
      <g>
       <use style="stroke:#000000;stroke-width:0.8;" x="180" xlink:href="#m7b355c24f6" y="95.132573"/>
      </g>
     </g>
     <g id="text_12">
      <!-- 1.4 -->
      <g transform="translate(157.096875 98.931792)scale(0.1 -0.1)">
       <use xlink:href="#DejaVuSans-49"/>
       <use x="63.623047" xlink:href="#DejaVuSans-46"/>
       <use x="95.410156" xlink:href="#DejaVuSans-52"/>
      </g>
     </g>
    </g>
    <g id="text_13">
     <!-- Height m -->
     <defs>
      <path d="M 9.8125 72.90625 
L 19.671875 72.90625 
L 19.671875 43.015625 
L 55.515625 43.015625 
L 55.515625 72.90625 
L 65.375 72.90625 
L 65.375 0 
L 55.515625 0 
L 55.515625 34.71875 
L 19.671875 34.71875 
L 19.671875 0 
L 9.8125 0 
z
" id="DejaVuSans-72"/>
      <path d="M 56.203125 29.59375 
L 56.203125 25.203125 
L 14.890625 25.203125 
Q 15.484375 15.921875 20.484375 11.0625 
Q 25.484375 6.203125 34.421875 6.203125 
Q 39.59375 6.203125 44.453125 7.46875 
Q 49.3125 8.734375 54.109375 11.28125 
L 54.109375 2.78125 
Q 49.265625 0.734375 44.1875 -0.34375 
Q 39.109375 -1.421875 33.890625 -1.421875 
Q 20.796875 -1.421875 13.15625 6.1875 
Q 5.515625 13.8125 5.515625 26.8125 
Q 5.515625 40.234375 12.765625 48.109375 
Q 20.015625 56 32.328125 56 
Q 43.359375 56 49.78125 48.890625 
Q 56.203125 41.796875 56.203125 29.59375 
z
M 47.21875 32.234375 
Q 47.125 39.59375 43.09375 43.984375 
Q 39.0625 48.390625 32.421875 48.390625 
Q 24.90625 48.390625 20.390625 44.140625 
Q 15.875 39.890625 15.1875 32.171875 
z
" id="DejaVuSans-101"/>
      <path d="M 9.421875 54.6875 
L 18.40625 54.6875 
L 18.40625 0 
L 9.421875 0 
z
M 9.421875 75.984375 
L 18.40625 75.984375 
L 18.40625 64.59375 
L 9.421875 64.59375 
z
" id="DejaVuSans-105"/>
      <path d="M 45.40625 27.984375 
Q 45.40625 37.75 41.375 43.109375 
Q 37.359375 48.484375 30.078125 48.484375 
Q 22.859375 48.484375 18.828125 43.109375 
Q 14.796875 37.75 14.796875 27.984375 
Q 14.796875 18.265625 18.828125 12.890625 
Q 22.859375 7.515625 30.078125 7.515625 
Q 37.359375 7.515625 41.375 12.890625 
Q 45.40625 18.265625 45.40625 27.984375 
z
M 54.390625 6.78125 
Q 54.390625 -7.171875 48.1875 -13.984375 
Q 42 -20.796875 29.203125 -20.796875 
Q 24.46875 -20.796875 20.265625 -20.09375 
Q 16.0625 -19.390625 12.109375 -17.921875 
L 12.109375 -9.1875 
Q 16.0625 -11.328125 19.921875 -12.34375 
Q 23.78125 -13.375 27.78125 -13.375 
Q 36.625 -13.375 41.015625 -8.765625 
Q 45.40625 -4.15625 45.40625 5.171875 
L 45.40625 9.625 
Q 42.625 4.78125 38.28125 2.390625 
Q 33.9375 0 27.875 0 
Q 17.828125 0 11.671875 7.65625 
Q 5.515625 15.328125 5.515625 27.984375 
Q 5.515625 40.671875 11.671875 48.328125 
Q 17.828125 56 27.875 56 
Q 33.9375 56 38.28125 53.609375 
Q 42.625 51.21875 45.40625 46.390625 
L 45.40625 54.6875 
L 54.390625 54.6875 
z
" id="DejaVuSans-103"/>
      <path d="M 54.890625 33.015625 
L 54.890625 0 
L 45.90625 0 
L 45.90625 32.71875 
Q 45.90625 40.484375 42.875 44.328125 
Q 39.84375 48.1875 33.796875 48.1875 
Q 26.515625 48.1875 22.3125 43.546875 
Q 18.109375 38.921875 18.109375 30.90625 
L 18.109375 0 
L 9.078125 0 
L 9.078125 75.984375 
L 18.109375 75.984375 
L 18.109375 46.1875 
Q 21.34375 51.125 25.703125 53.5625 
Q 30.078125 56 35.796875 56 
Q 45.21875 56 50.046875 50.171875 
Q 54.890625 44.34375 54.890625 33.015625 
z
" id="DejaVuSans-104"/>
      <path d="M 18.3125 70.21875 
L 18.3125 54.6875 
L 36.8125 54.6875 
L 36.8125 47.703125 
L 18.3125 47.703125 
L 18.3125 18.015625 
Q 18.3125 11.328125 20.140625 9.421875 
Q 21.96875 7.515625 27.59375 7.515625 
L 36.8125 7.515625 
L 36.8125 0 
L 27.59375 0 
Q 17.1875 0 13.234375 3.875 
Q 9.28125 7.765625 9.28125 18.015625 
L 9.28125 47.703125 
L 2.6875 47.703125 
L 2.6875 54.6875 
L 9.28125 54.6875 
L 9.28125 70.21875 
z
" id="DejaVuSans-116"/>
      <path id="DejaVuSans-32"/>
      <path d="M 52 44.1875 
Q 55.375 50.25 60.0625 53.125 
Q 64.75 56 71.09375 56 
Q 79.640625 56 84.28125 50.015625 
Q 88.921875 44.046875 88.921875 33.015625 
L 88.921875 0 
L 79.890625 0 
L 79.890625 32.71875 
Q 79.890625 40.578125 77.09375 44.375 
Q 74.3125 48.1875 68.609375 48.1875 
Q 61.625 48.1875 57.5625 43.546875 
Q 53.515625 38.921875 53.515625 30.90625 
L 53.515625 0 
L 44.484375 0 
L 44.484375 32.71875 
Q 44.484375 40.625 41.703125 44.40625 
Q 38.921875 48.1875 33.109375 48.1875 
Q 26.21875 48.1875 22.15625 43.53125 
Q 18.109375 38.875 18.109375 30.90625 
L 18.109375 0 
L 9.078125 0 
L 9.078125 54.6875 
L 18.109375 54.6875 
L 18.109375 46.1875 
Q 21.1875 51.21875 25.484375 53.609375 
Q 29.78125 56 35.6875 56 
Q 41.65625 56 45.828125 52.96875 
Q 50 49.953125 52 44.1875 
z
" id="DejaVuSans-109"/>
     </defs>
     <g transform="translate(151.017188 241.148281)rotate(-90)scale(0.1 -0.1)">
      <use xlink:href="#DejaVuSans-72"/>
      <use x="75.195312" xlink:href="#DejaVuSans-101"/>
      <use x="136.71875" xlink:href="#DejaVuSans-105"/>
      <use x="164.501953" xlink:href="#DejaVuSans-103"/>
      <use x="227.978516" xlink:href="#DejaVuSans-104"/>
      <use x="291.357422" xlink:href="#DejaVuSans-116"/>
      <use x="330.566406" xlink:href="#DejaVuSans-32"/>
      <use x="362.353516" xlink:href="#DejaVuSans-109"/>
     </g>
    </g>
   </g>
   <g id="line2d_13">
    <path clip-path="url(#p97c98a8375)" d="M 230.727273 219.607235 
L 231.576265 211.329975 
L 232.425257 204.472431 
L 233.274249 204.590138 
L 234.123241 217.333439 
L 234.972233 212.940915 
L 235.821225 210.18223 
L 236.670217 215.841009 
L 237.519209 204.882197 
L 238.368201 196.416123 
L 239.217193 192.910219 
L 240.066185 192.572765 
L 240.915177 188.79971 
L 241.764169 198.70398 
L 242.613161 192.205181 
L 244.311145 188.90175 
L 245.160137 201.4012 
L 246.009129 206.074935 
L 246.858121 213.286805 
L 247.707113 201.322862 
L 248.556105 186.983887 
L 249.405097 179.453043 
L 250.254089 176.269327 
L 251.103081 176.732924 
L 251.952073 179.565126 
L 252.801065 173.108911 
L 253.650057 164.221422 
L 254.499049 158.095028 
L 255.348041 144.360256 
L 256.197033 137.974746 
L 257.046025 127.452614 
L 257.895017 114.055296 
L 258.744009 109.083476 
L 259.593001 134.349126 
L 260.441993 130.39489 
L 261.290985 109.446239 
L 262.139977 93.45374 
L 262.988969 89.693942 
L 263.837961 90.279666 
L 264.686953 83.084267 
L 265.535945 87.647928 
L 266.384937 88.338101 
L 267.233929 80.531669 
L 268.082921 74.175084 
L 268.931913 66.96 
L 269.780905 75.516865 
L 270.629897 93.717276 
L 271.478889 84.850677 
L 272.327881 99.68137 
L 273.176873 129.568932 
L 274.025865 127.179437 
L 274.874857 118.311633 
L 275.723849 132.835404 
L 276.572841 166.100316 
L 277.421833 189.939822 
L 278.270825 173.011692 
L 279.119817 192.861609 
L 279.968809 216.03384 
L 280.817801 235.301248 
L 281.666793 240.101529 
L 282.515785 259.082101 
L 283.364777 265.556393 
L 284.213769 253.746313 
L 285.062762 239.748809 
L 285.911754 221.636377 
L 286.760746 215.071293 
L 287.609738 233.300629 
L 288.45873 226.331806 
L 289.307722 209.622218 
L 290.156714 204.729137 
L 291.854698 196.544275 
L 292.70369 187.234165 
L 293.552682 192.332932 
L 294.401674 217.677722 
L 295.250666 223.477107 
L 296.099658 208.493354 
L 296.94865 217.420615 
L 297.797642 220.374139 
L 298.646634 227.880478 
L 299.495626 211.735321 
L 300.344618 215.863506 
L 301.19361 217.764094 
L 302.042602 208.874195 
L 302.891594 193.577494 
L 303.740586 191.920756 
L 304.589578 195.897489 
L 305.43857 187.939604 
L 306.287562 184.291488 
L 307.136554 176.4489 
L 307.985546 202.930589 
L 308.834538 195.711086 
L 309.68353 207.420331 
L 310.532522 224.960297 
L 311.381514 249.333703 
L 312.230506 270.415728 
L 313.079498 280.172964 
L 313.92849 271.434116 
L 314.777482 255.893966 
L 315.626474 266.402438 
L 316.475466 282.957762 
L 317.324458 284.832237 
L 318.17345 283.988201 
L 319.022442 274.696169 
L 319.871434 267.619682 
L 320.720426 272.066842 
L 321.569418 269.937267 
L 322.41841 287.75523 
L 323.267402 301.48478 
L 324.116394 286.347164 
L 324.965386 291.145034 
L 325.814378 288.273865 
L 326.66337 279.694503 
L 327.512362 277.86703 
L 328.361354 280.732575 
L 329.210346 277.09651 
L 330.059338 285.40149 
L 330.90833 280.929825 
L 331.757322 285.593115 
L 332.606314 284.784833 
L 333.455306 274.791379 
L 334.304298 270.872094 
L 335.15329 260.882256 
L 336.002282 257.533429 
L 336.851274 260.650056 
L 337.700266 252.425021 
L 338.549258 247.671743 
L 339.39825 247.679375 
L 340.247242 243.071122 
L 341.096234 261.122491 
L 341.945226 251.016553 
L 342.794218 244.02925 
L 344.492202 240.284718 
L 345.341194 247.617911 
L 346.190186 245.204714 
L 347.039178 246.168868 
L 347.88817 252.136176 
L 348.737162 252.792202 
L 349.586154 238.816392 
L 350.435146 238.476528 
L 351.284138 231.631036 
L 352.13313 227.736256 
L 352.982122 226.482455 
L 353.831114 222.077076 
L 354.680107 222.16626 
L 355.529099 226.799822 
L 356.378091 220.703558 
L 357.227083 223.45461 
L 358.076075 228.413574 
L 358.925067 220.7132 
L 359.774059 217.19203 
L 360.623051 219.686376 
L 361.472043 217.504175 
L 362.321035 212.527534 
L 363.170027 214.467894 
L 364.019019 234.472477 
L 365.717003 231.747538 
L 366.565995 233.27773 
L 367.414987 226.663234 
L 368.263979 229.026616 
L 369.112971 225.388944 
L 369.961963 233.346828 
L 370.810955 234.546798 
L 371.659947 235.513362 
L 372.508939 237.904061 
L 373.357931 231.864843 
L 374.206923 229.568952 
L 375.055915 228.314749 
L 375.904907 220.80841 
L 376.753899 221.486531 
L 377.602891 217.903495 
L 378.451883 215.169717 
L 379.300875 218.517339 
L 380.149867 219.330443 
L 380.998859 217.760479 
L 381.847851 225.343548 
L 383.545835 219.812118 
L 384.394827 224.767868 
L 385.243819 250.249247 
L 386.092811 254.011857 
L 386.941803 246.946619 
L 387.790795 271.185846 
L 388.639787 266.839521 
L 389.488779 284.58678 
L 390.337771 284.265395 
L 391.186763 292.806994 
L 392.035755 284.741045 
L 392.884747 294.026649 
L 393.733739 290.602698 
L 394.582731 281.837335 
L 395.431723 284.191477 
L 396.280715 294.299826 
L 397.129707 290.534403 
L 397.978699 288.095094 
L 398.827691 306.254127 
L 399.676683 309.271929 
L 400.525675 319.032378 
L 401.374667 311.082127 
L 402.223659 313.880182 
L 403.072651 306.361791 
L 403.921643 305.416117 
L 404.770635 300.94405 
L 405.619627 303.245566 
L 406.468619 303.091301 
L 407.317611 293.671117 
L 408.166603 290.903996 
L 409.015595 291.477667 
L 409.864587 290.578192 
L 410.713579 285.588696 
L 411.562571 286.923246 
L 412.411563 285.294629 
L 413.260555 304.778168 
L 414.109547 303.858607 
L 414.958539 315.850671 
L 415.807531 310.900947 
L 416.656523 299.672171 
L 417.505515 298.714846 
L 418.354507 304.958546 
L 419.203499 299.696275 
L 420.052491 299.223036 
L 420.901483 305.140128 
L 421.750475 308.960185 
L 422.599467 309.48123 
L 423.448459 302.185398 
L 424.297452 304.225789 
L 425.146444 307.319115 
L 427.69342 285.75903 
L 428.542412 286.722782 
L 429.391404 284.976057 
L 430.240396 289.01546 
L 431.089388 286.644846 
L 431.93838 288.237709 
L 432.787372 292.89417 
L 433.636364 284.23165 
L 434.485356 283.496081 
L 435.334348 284.752695 
L 436.18334 278.242648 
L 437.032332 276.76227 
L 437.881324 280.557019 
L 438.730316 282.976643 
L 439.579308 277.530781 
L 440.4283 279.6009 
L 441.277292 275.92667 
L 442.126284 273.611898 
L 442.975276 274.314927 
L 443.824268 278.458779 
L 444.67326 277.372901 
L 445.522252 288.863204 
L 446.371244 290.933322 
L 447.220236 289.300688 
L 448.069228 290.636041 
L 448.91822 287.876553 
L 450.616204 290.143921 
L 451.465196 290.334342 
L 452.314188 283.028466 
L 453.16318 282.934863 
L 454.012172 281.567372 
L 455.710156 300.053815 
L 456.559148 300.244637 
L 457.40814 300.866918 
L 458.257132 300.74439 
L 459.106124 301.232493 
L 459.955116 297.286292 
L 460.804108 298.178134 
L 461.6531 304.571679 
L 462.502092 303.143928 
L 463.351084 300.485676 
L 464.200076 297.409222 
L 465.049068 300.072696 
L 465.89806 301.197542 
L 466.747052 300.024087 
L 467.596044 300.216918 
L 468.445036 301.35261 
L 469.294028 291.871765 
L 470.14302 290.808786 
L 470.992012 289.197444 
L 472.689996 287.672072 
L 473.538988 287.933197 
L 474.38798 288.796115 
L 475.236972 299.941732 
L 476.085964 299.286108 
L 476.934956 291.649608 
L 477.783948 292.545468 
L 478.63294 291.190832 
L 479.481932 290.335145 
L 480.330924 293.097847 
L 481.179916 289.398309 
L 482.028908 290.632426 
L 482.8779 293.627328 
L 483.726892 287.978994 
L 484.575884 285.43644 
L 485.424876 284.926644 
L 486.273868 284.794475 
L 487.12286 285.274543 
L 487.971852 280.440115 
L 488.820844 278.928804 
L 489.669836 277.807975 
L 490.518828 276.9085 
L 491.36782 277.709551 
L 492.216812 277.201362 
L 493.065804 273.881058 
L 493.914797 271.81576 
L 494.763789 271.453399 
L 495.612781 272.038319 
L 496.461773 273.201329 
L 497.310765 272.40309 
L 498.159757 272.966317 
L 499.008749 271.970426 
L 499.857741 274.050588 
L 500.706733 273.333499 
L 501.555725 269.891068 
L 502.404717 280.544164 
L 503.253709 279.98174 
L 504.102701 281.604733 
L 504.951693 285.365334 
L 505.800685 282.985883 
L 506.649677 281.785511 
L 507.498669 280.185016 
L 508.347661 281.588663 
L 509.196653 278.074725 
L 510.045645 276.034334 
L 510.894637 276.969563 
L 511.743629 280.663879 
L 512.592621 277.740083 
L 513.441613 271.977657 
L 514.290605 270.918695 
L 515.139597 270.136124 
L 515.988589 270.054171 
L 516.837581 269.686587 
L 517.686573 272.868696 
L 519.384557 272.27775 
L 520.233549 274.386435 
L 521.082541 273.255161 
L 521.931533 272.580253 
L 522.780525 272.651761 
L 523.629517 272.311897 
L 524.478509 274.430223 
L 525.327501 275.415669 
L 526.176493 274.016039 
L 527.025485 269.951327 
L 527.874477 269.897094 
L 528.723469 268.946599 
L 529.572461 270.831921 
L 530.421453 278.039372 
L 531.270445 276.898859 
L 532.119437 278.580905 
L 532.968429 275.928679 
L 533.817421 276.015051 
L 534.666413 275.945954 
L 535.515405 274.263103 
L 536.364397 274.86811 
L 537.213389 280.052847 
L 538.062381 278.229391 
L 538.911373 278.455565 
L 539.760365 277.752135 
L 540.609357 276.575064 
L 541.458349 271.770364 
L 542.307341 270.214059 
L 543.156333 270.362298 
L 544.005325 270.278336 
L 544.854317 270.894591 
L 545.703309 273.157942 
L 546.552301 269.296105 
L 547.401293 269.859331 
L 548.250285 269.739615 
L 549.099277 270.661989 
L 549.948269 268.08328 
L 550.797261 267.123947 
L 551.646253 268.448051 
L 552.495245 268.971506 
L 553.344237 271.442954 
L 554.193229 271.588782 
L 555.042221 269.349535 
L 555.891213 271.471477 
L 556.740205 270.322527 
L 557.589197 271.171785 
L 558.438189 270.921507 
L 559.287181 269.54116 
L 560.136173 271.534147 
L 560.985165 268.183712 
L 561.834157 266.298792 
L 562.683149 265.048606 
L 563.532141 264.026201 
L 564.381134 263.876355 
L 565.230126 264.186491 
L 566.079118 265.558 
L 566.92811 265.188006 
L 567.777102 263.191003 
L 568.626094 264.399409 
L 569.475086 264.725614 
L 570.324078 263.529662 
L 571.17307 262.80735 
L 572.022062 264.816003 
L 572.871054 266.230899 
L 573.720046 264.668568 
L 574.569038 268.826481 
L 575.41803 270.23053 
L 576.267022 270.034887 
L 577.116014 267.337667 
L 577.965006 268.566963 
L 578.813998 269.109702 
L 579.66299 279.749138 
L 580.511982 278.580102 
L 581.360974 280.133996 
L 583.058958 276.95952 
L 583.90795 276.870738 
L 584.756942 277.677815 
L 585.605934 275.790885 
L 586.454926 276.024693 
L 587.303918 278.426641 
L 588.15291 277.914434 
L 589.001902 278.151054 
L 590.699886 279.607327 
L 591.548878 279.16462 
L 592.39787 276.869532 
L 593.246862 273.900341 
L 594.095854 273.715143 
L 594.944846 274.82633 
L 595.793838 273.066749 
L 596.64283 273.930069 
L 598.340814 278.794224 
L 599.189806 281.935357 
L 600.038798 288.500441 
L 600.88779 286.458443 
L 601.736782 286.999976 
L 602.585774 288.000688 
L 603.434766 284.854333 
L 604.283758 282.838849 
L 605.13275 283.116445 
L 605.981742 282.541569 
L 606.830734 280.768329 
L 607.679726 281.436006 
L 608.528718 279.340578 
L 609.37771 279.473953 
L 611.075694 276.450929 
L 611.924686 276.212703 
L 612.773678 274.905471 
L 613.62267 274.694964 
L 614.471662 277.233501 
L 615.320654 275.319655 
L 616.169646 277.415886 
L 617.018638 274.286404 
L 617.86763 272.302657 
L 618.716622 270.704171 
L 620.414606 270.626235 
L 621.263598 272.711619 
L 622.11259 271.638597 
L 622.961582 270.968911 
L 623.810574 272.295025 
L 624.659566 271.563473 
L 625.508558 268.973113 
L 626.35755 268.737297 
L 627.206542 269.785814 
L 628.055534 272.104202 
L 628.904526 271.761124 
L 629.753518 269.351543 
L 630.60251 269.930839 
L 631.451502 270.228923 
L 632.300494 267.92781 
L 633.149486 270.34181 
L 634.847471 269.02815 
L 635.696463 269.677347 
L 636.545455 269.179201 
L 637.394447 267.796042 
L 638.243439 269.024936 
L 639.941423 270.450679 
L 640.790415 274.660817 
L 641.639407 273.619933 
L 642.488399 268.063193 
L 644.186383 266.506085 
L 645.035375 266.995794 
L 645.884367 264.479755 
L 646.733359 266.596474 
L 647.582351 265.020886 
L 648.431343 268.537637 
L 649.280335 271.412422 
L 650.129327 272.954666 
L 650.978319 275.668759 
L 651.827311 275.784458 
L 652.676303 277.675003 
L 653.525295 284.191075 
L 654.374287 283.309276 
L 656.072271 282.030166 
L 656.921263 281.24438 
L 657.770255 281.073243 
L 659.468239 282.672533 
L 660.317231 286.152726 
L 661.166223 290.738081 
L 662.015215 289.273371 
L 662.864207 294.341606 
L 663.713199 294.87189 
L 664.562191 295.227824 
L 665.411183 294.033478 
L 666.260175 289.163698 
L 667.109167 288.644662 
L 667.958159 290.707549 
L 668.807151 290.760578 
L 669.656143 294.222292 
L 670.505135 299.200941 
L 671.354127 297.820192 
L 672.203119 295.74927 
L 673.901103 296.821891 
L 674.750095 301.405639 
L 675.599087 298.894018 
L 676.448079 297.155328 
L 677.297071 296.122076 
L 678.146063 291.562432 
L 678.995055 291.403347 
L 679.844047 290.989966 
L 680.693039 293.65786 
L 681.542031 290.556499 
L 682.391023 291.104058 
L 683.240015 288.904984 
L 684.089007 289.233198 
L 684.937999 287.449111 
L 686.635983 286.614315 
L 687.484975 290.063173 
L 688.333967 289.341263 
L 689.182959 285.270526 
L 690.031951 285.209061 
L 690.880943 286.292127 
L 691.729935 285.0556 
L 692.578927 284.205136 
L 693.427919 282.628744 
L 694.276911 283.856032 
L 695.125903 281.963478 
L 695.974895 281.654547 
L 696.823887 280.675931 
L 697.672879 281.457297 
L 698.521871 284.573523 
L 699.370863 284.412831 
L 700.219855 283.732299 
L 701.068847 284.583566 
L 701.917839 294.718429 
L 702.766831 292.228904 
L 703.615824 287.370774 
L 704.464816 285.767065 
L 705.313808 284.689221 
L 706.1628 283.041322 
L 707.011792 283.584863 
L 707.860784 283.862058 
L 708.709776 282.362799 
L 709.558768 281.099757 
L 710.40776 277.783872 
L 711.256752 278.244255 
L 712.105744 279.637457 
L 712.954736 279.231307 
L 713.803728 280.711685 
L 714.65272 277.566134 
L 715.501712 277.554082 
L 716.350704 276.095799 
L 717.199696 278.136591 
L 718.048688 283.27995 
L 718.89768 277.999199 
L 719.746672 277.110571 
L 720.595664 276.948272 
L 721.444656 275.050897 
L 722.293648 275.784859 
L 723.14264 273.534364 
L 723.991632 274.651175 
L 724.840624 276.788383 
L 725.689616 278.563631 
L 726.538608 275.834272 
L 727.3876 272.698764 
L 728.236592 273.358406 
L 729.085584 271.538566 
L 729.934576 270.856829 
L 730.783568 268.604324 
L 731.63256 267.070516 
L 732.481552 266.782074 
L 733.330544 265.365571 
L 734.179536 267.314769 
L 735.028528 266.688872 
L 735.87752 263.657814 
L 736.726512 263.883586 
L 737.575504 262.261799 
L 738.424496 262.751509 
L 739.273488 264.766189 
L 740.12248 262.861583 
L 740.971472 264.204569 
L 741.820464 261.936799 
L 742.669456 265.167518 
L 743.518448 266.776048 
L 744.36744 270.077069 
L 745.216432 268.836525 
L 746.065424 266.328921 
L 746.914416 266.945578 
L 747.763408 265.520639 
L 748.6124 262.50324 
L 749.461392 261.414148 
L 750.310384 262.981299 
L 751.159376 263.277375 
L 752.008368 261.239796 
L 752.85736 264.879879 
L 753.706352 265.131764 
L 754.555344 267.120331 
L 755.404336 269.612668 
L 756.253328 266.79975 
L 757.10232 265.138995 
L 757.951312 265.531084 
L 758.800304 263.727715 
L 759.649296 262.761954 
L 760.498288 264.413871 
L 761.34728 269.196475 
L 762.196272 267.25009 
L 763.045264 267.541746 
L 763.894256 270.274319 
L 764.743248 272.602349 
L 765.59224 269.22299 
L 766.441232 267.582321 
L 767.290224 267.190634 
L 768.139216 265.195639 
L 769.8372 262.790879 
L 770.686192 265.068692 
L 771.535184 268.155993 
L 772.384176 267.326419 
L 773.233169 275.215205 
L 774.082161 272.353677 
L 774.931153 271.422465 
L 775.780145 272.101792 
L 776.629137 278.727537 
L 777.478129 278.586128 
L 778.327121 281.939776 
L 779.176113 277.731245 
L 780.025105 276.965546 
L 780.874097 279.173057 
L 781.723089 277.044285 
L 782.572081 278.522253 
L 783.421073 284.416044 
L 784.270065 282.81354 
L 785.119057 284.313201 
L 785.968049 281.594689 
L 786.817041 278.259119 
L 787.666033 280.386685 
L 788.515025 278.60983 
L 789.364017 278.343081 
L 790.213009 280.284244 
L 791.062001 281.721235 
L 791.910993 279.662365 
L 792.759985 281.746544 
L 793.608977 280.17417 
L 794.457969 279.99781 
L 795.306961 282.299727 
L 796.155953 280.911345 
L 797.004945 282.79948 
L 797.853937 281.549294 
L 798.702929 279.679237 
L 799.551921 276.408747 
L 800.400913 274.158252 
L 801.249905 272.981582 
L 802.098897 272.993233 
L 802.947889 271.831026 
L 803.796881 271.8483 
L 804.645873 273.44759 
L 805.494865 272.644129 
L 806.343857 273.711527 
L 807.192849 279.576394 
L 808.041841 277.65813 
L 808.890833 279.010757 
L 809.739825 278.23381 
L 810.588817 278.813106 
L 811.437809 275.78968 
L 812.286801 275.494006 
L 813.135793 273.915205 
L 813.984785 274.380409 
L 814.833777 274.343851 
L 815.682769 277.306616 
L 816.531761 277.163599 
L 817.380753 282.149078 
L 818.229745 290.368489 
L 819.078737 289.560608 
L 819.927729 289.826956 
L 820.776721 301.636232 
L 821.625713 301.352209 
L 822.474705 299.136664 
L 823.323697 307.636483 
L 824.172689 301.843525 
L 825.021681 300.322975 
L 825.870673 299.60468 
L 826.719665 294.747755 
L 827.568657 293.865956 
L 828.417649 288.563111 
L 829.266641 289.33122 
L 830.115633 288.804149 
L 830.964625 286.131033 
L 831.813617 287.492097 
L 832.662609 287.180354 
L 833.511601 283.907052 
L 834.360593 286.280878 
L 835.209585 284.472287 
L 836.058577 281.440425 
L 836.907569 277.873056 
L 837.756561 279.545461 
L 838.605553 282.149881 
L 839.454545 282.519875 
L 840.303537 283.877725 
L 841.152529 283.575624 
L 842.001521 282.777385 
L 842.850514 284.565086 
L 843.699506 285.688727 
L 844.548498 298.306286 
L 845.39749 293.653843 
L 846.246482 288.358228 
L 847.095474 290.826462 
L 847.944466 288.355014 
L 848.793458 285.145989 
L 849.64245 284.85594 
L 850.491442 287.356713 
L 851.340434 289.044786 
L 852.189426 288.725008 
L 853.038418 287.194816 
L 853.88741 286.276058 
L 854.736402 287.693364 
L 855.585394 288.663142 
L 856.434386 289.2569 
L 857.283378 294.139937 
L 858.13237 290.934126 
L 858.981362 289.565429 
L 859.830354 294.542471 
L 860.679346 296.829122 
L 861.528338 291.475257 
L 862.37733 291.385671 
L 863.226322 295.862558 
L 864.075314 295.340308 
L 864.924306 295.567688 
L 865.773298 293.346519 
L 866.62229 293.399547 
L 867.471282 288.986535 
L 868.320274 288.075811 
L 869.169266 288.581189 
L 870.018258 288.125626 
L 870.86725 290.103346 
L 871.716242 291.059064 
L 872.565234 288.929087 
L 873.414226 289.591943 
L 874.263218 290.808786 
L 875.11221 289.950287 
L 875.961202 286.854952 
L 876.810194 286.022967 
L 877.659186 289.199051 
L 878.508178 290.051925 
L 879.35717 293.057674 
L 880.206162 294.123868 
L 881.055154 296.365927 
L 881.904146 302.506783 
L 882.753138 299.619142 
L 883.60213 302.405145 
L 884.451122 302.484286 
L 885.300114 298.630483 
L 886.149106 298.824117 
L 886.998098 300.279989 
L 887.84709 303.040683 
L 888.696082 304.524676 
L 889.545074 302.074521 
L 890.394066 305.542662 
L 891.243058 306.349739 
L 892.09205 310.486762 
L 892.941042 324.235595 
L 893.790034 321.958585 
L 894.639026 326.343074 
L 895.488018 323.496009 
L 896.33701 324.905682 
L 897.186002 323.489581 
L 898.883986 327.714583 
L 899.732978 321.180433 
L 900.58197 324.353302 
L 901.430962 322.009203 
L 902.279954 325.053921 
L 903.128946 330.621105 
L 903.977938 330.063905 
L 904.82693 325.607907 
L 905.675922 324.443692 
L 906.524914 328.475863 
L 907.373906 322.998666 
L 908.222898 321.725581 
L 909.07189 322.086737 
L 909.920882 322.046564 
L 911.618866 325.456053 
L 912.467859 322.88819 
L 913.316851 321.331483 
L 914.165843 317.690196 
L 915.014835 317.5287 
L 915.863827 318.941989 
L 916.712819 319.913776 
L 917.561811 322.490477 
L 918.410803 322.347059 
L 919.259795 325.695484 
L 920.108787 330.088812 
L 920.957779 332.75068 
L 921.806771 336.948766 
L 922.655763 331.661186 
L 923.504755 334.726391 
L 924.353747 329.736896 
L 926.051731 327.707754 
L 926.900723 328.406765 
L 927.749715 332.62775 
L 928.598707 334.413041 
L 929.447699 337.841412 
L 930.296691 336.651485 
L 931.145683 334.268017 
L 931.994675 336.475929 
L 932.843667 335.405316 
L 933.692659 335.862486 
L 934.541651 331.532632 
L 935.390643 330.964585 
L 936.239635 332.260166 
L 937.088627 335.266719 
L 937.937619 337.367771 
L 938.786611 336.401609 
L 939.635603 334.336311 
L 940.484595 337.359335 
L 941.333587 338.230287 
L 942.182579 338.293359 
L 943.031571 341.784399 
L 943.880563 341.863941 
L 944.729555 342.222687 
L 945.578547 341.128372 
L 946.427539 343.182422 
L 947.276531 345.901737 
L 948.125523 342.642897 
L 948.974515 340.498459 
L 949.823507 340.635449 
L 950.672499 337.753433 
L 951.521491 338.262425 
L 952.370483 337.335231 
L 953.219475 339.755659 
L 954.068467 337.93381 
L 954.917459 344.130105 
L 955.766451 344.596112 
L 956.615443 344.796978 
L 957.464435 357.751589 
L 958.313427 358.931874 
L 959.162419 362.101127 
L 960.011411 366.097143 
L 960.860403 364.74331 
L 961.709395 369.36 
L 962.558387 364.959843 
L 963.407379 356.718337 
L 964.256371 359.91531 
L 965.105363 360.239507 
L 965.954355 360.684223 
L 966.803347 360.702703 
L 967.652339 363.572265 
L 968.501331 361.884594 
L 969.350323 359.152424 
L 970.199315 358.090649 
L 971.048307 352.507797 
L 971.897299 352.392099 
L 972.746291 352.501771 
L 973.595283 353.424145 
L 974.444275 354.742224 
L 975.293267 355.293398 
L 976.142259 350.750627 
L 976.991251 347.462461 
L 977.840243 348.186782 
L 978.689235 345.201922 
L 979.538227 343.623522 
L 980.387219 343.155908 
L 981.236211 348.510576 
L 982.085203 347.818796 
L 982.934196 347.952974 
L 983.783188 355.046334 
L 984.63218 355.339597 
L 985.481172 354.528503 
L 986.330164 352.350721 
L 987.179156 356.213763 
L 988.028148 354.970407 
L 988.87714 349.405633 
L 989.726132 348.560391 
L 990.575124 349.906591 
L 991.424116 353.586846 
L 992.273108 353.592069 
L 993.1221 355.667008 
L 993.971092 354.210332 
L 994.820084 354.300722 
L 995.669076 352.298496 
L 996.518068 356.559252 
L 997.36706 356.818368 
L 998.216052 357.757615 
L 999.065044 360.14269 
L 999.914036 359.666237 
L 1000.763028 360.815991 
L 1001.61202 359.065248 
L 1002.461012 361.042165 
L 1003.310004 361.729125 
L 1004.158996 363.622883 
L 1005.007988 363.350912 
L 1005.85698 364.800356 
L 1006.705972 365.56967 
L 1007.554964 361.629897 
L 1008.403956 358.518894 
L 1009.252948 358.961602 
L 1010.10194 358.500816 
L 1010.950932 358.778412 
L 1011.799924 357.451898 
L 1012.648916 358.590001 
L 1013.497908 356.147076 
L 1014.3469 356.56809 
L 1015.195892 357.899827 
L 1016.044884 356.128998 
L 1016.893876 355.091729 
L 1017.742868 357.718245 
L 1018.59186 357.419759 
L 1019.440852 356.516267 
L 1020.289844 357.308881 
L 1021.138836 357.759623 
L 1021.987828 359.885984 
L 1022.83682 361.600169 
L 1023.685812 363.012253 
L 1025.383796 353.917069 
L 1026.232788 352.445931 
L 1027.08178 349.51651 
L 1027.930772 348.72269 
L 1028.779764 349.904984 
L 1029.628756 343.547193 
L 1030.477748 343.294906 
L 1031.32674 343.281247 
L 1032.175732 343.621915 
L 1033.024724 338.875065 
L 1033.873716 328.146845 
L 1034.722708 328.380251 
L 1035.5717 329.210227 
L 1036.420692 328.912544 
L 1037.269684 327.227686 
L 1038.118676 323.571132 
L 1038.967668 318.065814 
L 1039.81666 314.259817 
L 1040.665652 311.504346 
L 1041.514644 320.057997 
L 1042.363636 311.594334 
L 1043.212628 307.793158 
L 1044.910612 317.936859 
L 1045.759604 315.505986 
L 1046.608596 309.79458 
L 1047.457588 308.950946 
L 1048.30658 309.207652 
L 1049.155572 306.247298 
L 1050.004564 304.935245 
L 1050.853556 307.846588 
L 1051.702548 314.064978 
L 1052.551541 311.935805 
L 1053.400533 315.059663 
L 1054.249525 307.927336 
L 1055.098517 299.483759 
L 1055.947509 298.772294 
L 1056.796501 296.342225 
L 1057.645493 294.915277 
L 1058.494485 295.876619 
L 1059.343477 295.458015 
L 1060.192469 295.750877 
L 1061.041461 300.715466 
L 1061.890453 301.230083 
L 1062.739445 303.575788 
L 1063.588437 298.713641 
L 1064.437429 297.479524 
L 1065.286421 298.78756 
L 1066.135413 297.3811 
L 1067.833397 304.697421 
L 1068.682389 302.621678 
L 1069.531381 311.512381 
L 1070.380373 313.536702 
L 1071.229365 319.258553 
L 1072.078357 317.572891 
L 1072.927349 333.592306 
L 1073.776341 330.997125 
L 1074.625333 332.027966 
L 1075.474325 334.411435 
L 1076.323317 327.344589 
L 1077.172309 329.6915 
L 1078.021301 331.310073 
L 1078.870293 326.852871 
L 1079.719285 325.575367 
L 1080.568277 332.235259 
L 1081.417269 332.999351 
L 1082.266261 329.532013 
L 1083.115253 330.877008 
L 1083.964245 335.033715 
L 1084.813237 336.285508 
L 1085.662229 331.416934 
L 1086.511221 331.716625 
L 1087.360213 331.661588 
L 1088.209205 332.885259 
L 1089.058197 333.463752 
L 1090.756181 338.14753 
L 1091.605173 338.613136 
L 1092.454165 342.832916 
L 1093.303157 340.965672 
L 1094.152149 333.886774 
L 1095.001141 335.412548 
L 1095.850133 334.843697 
L 1096.699125 338.14271 
L 1097.548117 337.849848 
L 1098.397109 338.077629 
L 1099.246101 335.596138 
L 1100.095093 331.747156 
L 1100.944085 329.072433 
L 1101.793077 328.956333 
L 1102.642069 330.93325 
L 1103.491061 331.431396 
L 1104.340053 329.628027 
L 1105.189045 331.917892 
L 1106.038037 325.900769 
L 1106.887029 326.537512 
L 1107.736021 328.292674 
L 1108.585013 328.923391 
L 1109.434005 328.214738 
L 1110.282997 335.119686 
L 1111.131989 334.68421 
L 1111.980981 336.201145 
L 1112.829973 336.173426 
L 1113.678965 335.48968 
L 1114.527957 332.928646 
L 1115.376949 332.658282 
L 1116.225941 332.777194 
L 1117.074933 336.191102 
L 1117.923925 334.801917 
L 1118.772917 338.904391 
L 1120.470901 335.029296 
L 1121.319893 334.281676 
L 1122.168886 334.021756 
L 1123.017878 334.065544 
L 1123.86687 333.025062 
L 1124.715862 333.817275 
L 1125.564854 335.132139 
L 1127.262838 339.892247 
L 1128.11183 343.9666 
L 1128.960822 344.938789 
L 1129.809814 343.744041 
L 1130.658806 345.98369 
L 1131.507798 342.581031 
L 1132.35679 343.652045 
L 1134.054774 341.71731 
L 1134.903766 341.070122 
L 1135.752758 334.948549 
L 1136.60175 335.046169 
L 1137.450742 334.640019 
L 1138.299734 334.431521 
L 1139.148726 334.431923 
L 1139.997718 335.735137 
L 1140.84671 332.494777 
L 1141.695702 332.81335 
L 1142.544694 332.572713 
L 1143.393686 334.488567 
L 1144.242678 329.595085 
L 1145.09167 328.153675 
L 1146.789654 324.368166 
L 1147.638646 323.716157 
L 1148.487638 319.344523 
L 1149.33663 320.073665 
L 1150.185622 321.199314 
L 1151.034614 320.182132 
L 1151.883606 319.871594 
L 1152.732598 324.286213 
L 1153.58159 324.262511 
L 1154.430582 322.228548 
L 1155.279574 321.713529 
L 1156.128566 323.039643 
L 1156.977558 322.66764 
L 1157.82655 326.433062 
L 1158.675542 331.124072 
L 1159.524534 329.702347 
L 1160.373526 332.30275 
L 1161.222518 332.268201 
L 1162.07151 330.613472 
L 1162.920502 328.066098 
L 1163.769494 327.698112 
L 1164.618486 324.660626 
L 1165.467478 327.477964 
L 1166.31647 328.387482 
L 1167.165462 328.729355 
L 1168.014454 331.462731 
L 1168.863446 331.895395 
L 1169.712438 329.705561 
L 1170.56143 331.2466 
L 1171.410422 331.605747 
L 1172.259414 330.146661 
L 1173.108406 326.535102 
L 1173.957398 329.618787 
L 1174.80639 332.021538 
L 1175.655382 333.246014 
L 1176.504374 331.441037 
L 1177.353366 330.417026 
L 1178.202358 328.912142 
L 1179.05135 330.943695 
L 1179.900342 329.644498 
L 1180.749334 330.398948 
L 1181.598326 334.903555 
L 1182.447318 334.684611 
L 1183.29631 334.928462 
L 1184.145302 333.459333 
L 1184.994294 335.213691 
L 1185.843286 334.248734 
L 1186.692278 330.928429 
L 1187.54127 332.086619 
L 1188.390262 332.109116 
L 1189.239254 333.781922 
L 1190.088246 333.885569 
L 1190.937238 334.662516 
L 1191.786231 333.774691 
L 1192.635223 334.377287 
L 1193.484215 334.149104 
L 1194.333207 333.728091 
L 1195.182199 332.883251 
L 1196.031191 333.115451 
L 1197.729175 329.506302 
L 1198.578167 328.940264 
L 1199.427159 327.958032 
L 1200.276151 328.8326 
L 1201.125143 329.446444 
L 1201.974135 326.968167 
L 1202.823127 323.258184 
L 1203.672119 320.445265 
L 1204.521111 320.482626 
L 1205.370103 320.217082 
L 1206.219095 322.509358 
L 1207.068087 326.539922 
L 1207.917079 323.417671 
L 1208.766071 322.572831 
L 1209.615063 321.124994 
L 1210.464055 322.729908 
L 1211.313047 320.209048 
L 1212.162039 319.175796 
L 1213.011031 315.219552 
L 1213.860023 314.637042 
L 1214.709015 312.45926 
L 1215.558007 309.848412 
L 1216.406999 312.903173 
L 1217.255991 309.94081 
L 1218.104983 310.636206 
L 1218.953975 307.446464 
L 1219.802967 308.141458 
L 1220.651959 308.635587 
L 1221.500951 308.730395 
L 1222.349943 309.438245 
L 1223.198935 306.325234 
L 1224.047927 308.880241 
L 1224.896919 306.808516 
L 1225.745911 314.753544 
L 1226.594903 333.507942 
L 1227.443895 330.070332 
L 1228.292887 324.948667 
L 1229.141879 318.56396 
L 1229.990871 316.790319 
L 1230.839863 314.323693 
L 1231.688855 315.414793 
L 1232.537847 311.450916 
L 1233.386839 313.34347 
L 1234.235831 313.023692 
L 1235.084823 306.048039 
L 1235.933815 303.381752 
L 1236.782807 305.693713 
L 1237.631799 301.537808 
L 1239.329783 295.159931 
L 1240.178775 293.86435 
L 1241.027767 300.06426 
L 1241.876759 299.64887 
L 1242.725751 311.798815 
L 1243.574743 303.558112 
L 1244.423735 301.404835 
L 1245.272727 301.144112 
L 1245.272727 301.144112 
" style="fill:none;stroke:#ff0000;stroke-linecap:square;stroke-width:5;"/>
   </g>
   <g id="line2d_14">
    <path clip-path="url(#p97c98a8375)" d="M 230.727273 219.607235 
L 231.576265 219.607235 
L 232.425257 212.927369 
L 233.274249 213.042027 
L 234.123241 213.042027 
L 234.972233 208.589367 
L 235.821225 208.589367 
L 236.670217 214.27626 
L 237.519209 203.263002 
L 238.368201 203.263002 
L 239.217193 199.828886 
L 240.066185 199.828886 
L 240.915177 196.136777 
L 241.764169 205.828563 
L 242.613161 205.828563 
L 244.311145 202.658047 
L 245.160137 214.654572 
L 246.009129 214.654572 
L 246.858121 221.675892 
L 247.707113 221.675892 
L 248.556105 208.222706 
L 249.405097 201.157078 
L 251.103081 201.157078 
L 251.952073 203.793906 
L 252.801065 203.793906 
L 253.650057 195.668855 
L 254.499049 195.668855 
L 255.348041 183.318761 
L 256.197033 177.577009 
L 257.046025 177.577009 
L 257.895017 165.844615 
L 258.744009 161.490658 
L 259.593001 183.616471 
L 260.441993 180.15364 
L 261.290985 161.808339 
L 262.139977 147.803275 
L 262.988969 147.803275 
L 263.837961 148.311836 
L 264.686953 148.311836 
L 265.535945 152.21061 
L 266.384937 152.800231 
L 268.082921 152.800231 
L 268.931913 146.827511 
L 272.327881 146.827511 
L 273.176873 173.446592 
L 274.874857 173.446592 
L 275.723849 186.029025 
L 276.572841 214.847541 
L 279.968809 214.847541 
L 280.817801 234.187565 
L 285.062762 234.187565 
L 285.911754 215.729044 
L 286.760746 209.038516 
L 287.609738 209.038516 
L 288.45873 201.501349 
L 290.156714 201.501349 
L 291.005706 197.283613 
L 292.70369 197.283613 
L 293.552682 202.233236 
L 295.250666 202.233236 
L 296.099658 186.213702 
L 301.19361 186.213702 
L 302.042602 176.427786 
L 302.891594 176.427786 
L 303.740586 174.686792 
L 304.589578 174.686792 
L 305.43857 166.224895 
L 306.287562 166.224895 
L 307.136554 157.973396 
L 307.985546 185.835836 
L 308.834538 178.239909 
L 314.777482 178.239909 
L 315.626474 191.716828 
L 316.475466 191.716828 
L 317.324458 194.281392 
L 320.720426 194.281392 
L 321.569418 191.511568 
L 322.41841 214.686444 
L 324.116394 214.686444 
L 324.965386 220.890833 
L 328.361354 220.890833 
L 329.210346 216.384627 
L 330.90833 216.384627 
L 331.757322 222.252545 
L 332.606314 222.252545 
L 333.455306 209.718885 
L 334.304298 204.803369 
L 335.15329 192.274245 
L 336.002282 188.074189 
L 336.851274 191.983022 
L 337.700266 181.66729 
L 340.247242 181.66729 
L 341.096234 203.571059 
L 341.945226 191.308381 
L 342.794218 191.308381 
L 343.64321 189.000353 
L 344.492202 189.000353 
L 345.341194 197.628094 
L 346.190186 194.788889 
L 347.039178 194.788889 
L 347.88817 201.833405 
L 348.737162 202.607856 
L 349.586154 202.607856 
L 350.435146 202.225845 
L 351.284138 194.531434 
L 352.13313 190.153658 
L 352.982122 190.153658 
L 353.831114 185.222363 
L 354.680107 185.322194 
L 355.529099 190.508912 
L 356.378091 183.684874 
L 357.227083 183.684874 
L 358.076075 189.285529 
L 358.925067 189.285529 
L 359.774059 185.407477 
L 360.623051 188.154634 
L 361.472043 188.154634 
L 362.321035 182.711773 
L 364.019019 182.711773 
L 364.868011 181.188466 
L 367.414987 181.188466 
L 368.263979 183.90523 
L 369.112971 183.90523 
L 369.961963 192.944048 
L 370.810955 194.307012 
L 371.659947 195.404866 
L 373.357931 195.404866 
L 374.206923 192.828948 
L 375.904907 192.828948 
L 376.753899 193.568277 
L 377.602891 189.661834 
L 378.451883 186.681304 
L 379.300875 190.331085 
L 380.149867 191.217579 
L 380.998859 191.217579 
L 381.847851 199.443636 
L 382.696843 199.443636 
L 383.545835 196.565517 
L 384.394827 201.891721 
L 385.243819 201.891721 
L 386.092811 206.302893 
L 386.941803 206.302893 
L 387.790795 234.012904 
L 388.639787 234.012904 
L 389.488779 253.967296 
L 391.186763 253.967296 
L 392.035755 244.584975 
L 392.884747 255.385999 
L 393.733739 255.385999 
L 394.582731 245.335464 
L 397.978699 245.335464 
L 398.827691 266.693827 
L 399.676683 270.243316 
L 401.374667 270.243316 
L 402.223659 273.561458 
L 403.072651 264.64559 
L 403.921643 263.524139 
L 404.770635 263.524139 
L 405.619627 266.200345 
L 406.468619 266.020966 
L 409.015595 266.020966 
L 409.864587 265.025811 
L 410.713579 265.025811 
L 411.562571 266.472276 
L 412.411563 264.707084 
L 413.260555 285.82451 
L 414.109547 284.827834 
L 414.958539 297.825552 
L 415.807531 297.825552 
L 416.656523 285.929085 
L 417.505515 284.914835 
L 418.354507 291.529801 
L 419.203499 285.954622 
L 420.052491 285.453243 
L 422.599467 285.453243 
L 423.448459 277.3653 
L 424.297452 279.627216 
L 425.146444 279.627216 
L 425.995436 271.356433 
L 426.844428 271.356433 
L 427.69342 264.805586 
L 428.542412 264.805586 
L 429.391404 262.902008 
L 431.089388 262.902008 
L 431.93838 264.649772 
L 434.485356 264.649772 
L 435.334348 266.002151 
L 436.18334 266.002151 
L 437.032332 264.450023 
L 437.881324 268.428693 
L 438.730316 268.428693 
L 439.579308 262.663135 
L 440.4283 264.854779 
L 441.277292 264.854779 
L 442.126284 262.439448 
L 442.975276 263.173018 
L 443.824268 267.496887 
L 444.67326 266.363836 
L 445.522252 278.353298 
L 446.371244 278.353298 
L 447.220236 276.635037 
L 448.069228 278.040426 
L 448.91822 278.040426 
L 450.616204 280.399604 
L 451.465196 280.399604 
L 452.314188 272.791882 
L 454.012172 272.694411 
L 457.40814 272.694411 
L 458.257132 272.55687 
L 459.106124 272.55687 
L 459.955116 268.11773 
L 460.804108 268.11773 
L 461.6531 275.337498 
L 462.502092 273.725242 
L 464.200076 273.725242 
L 465.049068 276.659007 
L 465.89806 276.659007 
L 466.747052 275.360137 
L 467.596044 275.573576 
L 469.294028 275.573576 
L 470.14302 274.438085 
L 470.992012 272.716825 
L 471.841004 272.716825 
L 472.689996 271.892874 
L 473.538988 272.170947 
L 474.38798 272.170947 
L 475.236972 284.082265 
L 476.085964 284.082265 
L 476.934956 275.944252 
L 477.783948 276.898946 
L 478.63294 275.455346 
L 479.481932 274.543464 
L 480.330924 277.487602 
L 481.179916 277.487602 
L 482.028908 278.782611 
L 483.726892 278.782611 
L 484.575884 276.143761 
L 486.273868 276.143761 
L 487.12286 276.640711 
L 487.971852 276.640711 
L 488.820844 275.106464 
L 489.669836 273.968625 
L 493.065804 273.968625 
L 493.914797 271.904032 
L 494.763789 271.541794 
L 495.612781 272.126515 
L 496.461773 273.289129 
L 497.310765 273.289129 
L 498.159757 273.850424 
L 499.008749 272.857948 
L 499.857741 274.930977 
L 500.706733 274.216347 
L 501.555725 270.78572 
L 502.404717 281.402286 
L 503.253709 280.841791 
L 505.800685 280.841791 
L 506.649677 279.631034 
L 507.498669 278.016691 
L 508.347661 279.432483 
L 509.196653 275.888141 
L 510.045645 273.830096 
L 510.894637 273.830096 
L 511.743629 277.570106 
L 512.592621 277.570106 
L 513.441613 271.80381 
L 514.290605 270.744136 
L 515.988589 270.744136 
L 516.837581 270.377525 
L 518.535565 270.377525 
L 519.384557 270.119892 
L 521.082541 270.119892 
L 521.931533 269.436768 
L 523.629517 269.436768 
L 524.478509 271.578656 
L 526.176493 271.578656 
L 527.025485 267.475362 
L 528.723469 267.420613 
L 529.572461 269.316923 
L 530.421453 269.316923 
L 531.270445 268.137051 
L 535.515405 268.065816 
L 536.364397 268.685439 
L 537.213389 273.995429 
L 539.760365 273.995429 
L 540.609357 272.800883 
L 541.458349 272.800883 
L 542.307341 271.250769 
L 543.156333 271.398418 
L 544.854317 271.314791 
L 545.703309 273.574482 
L 546.552301 273.574482 
L 547.401293 274.128494 
L 549.099277 274.128494 
L 549.948269 271.584148 
L 550.797261 270.637599 
L 551.646253 271.944059 
L 552.495245 272.460538 
L 555.042221 272.460538 
L 555.891213 274.55723 
L 556.740205 274.55723 
L 557.589197 275.392682 
L 558.438189 275.146473 
L 560.136173 275.146473 
L 560.985165 271.842721 
L 561.834157 269.984063 
L 562.683149 268.751296 
L 563.532141 267.743137 
L 564.381134 267.595379 
L 565.230126 267.901194 
L 566.079118 269.253593 
L 566.92811 268.888755 
L 567.777102 268.888755 
L 568.626094 270.071431 
L 569.475086 270.071431 
L 570.324078 268.899508 
L 571.17307 268.191709 
L 572.022062 270.160005 
L 572.871054 270.160005 
L 573.720046 268.620877 
L 575.41803 268.620877 
L 576.267022 268.424025 
L 577.116014 268.424025 
L 577.965006 269.648252 
L 578.813998 270.188752 
L 579.66299 280.784318 
L 580.511982 280.784318 
L 581.360974 282.324632 
L 582.209966 282.324632 
L 583.058958 280.816504 
L 583.90795 280.816504 
L 584.756942 281.611039 
L 585.605934 279.753432 
L 586.454926 279.983606 
L 591.548878 279.983606 
L 592.39787 277.695988 
L 593.246862 274.73646 
L 594.095854 274.551865 
L 597.491822 274.551865 
L 598.340814 276.943931 
L 600.88779 276.943931 
L 601.736782 277.506551 
L 602.585774 278.546231 
L 603.434766 275.277355 
L 604.283758 273.183389 
L 605.13275 273.471794 
L 605.981742 273.471794 
L 606.830734 271.63377 
L 608.528718 271.63377 
L 609.37771 271.771233 
L 611.075694 268.655556 
L 611.924686 268.410028 
L 612.773678 267.062731 
L 613.62267 266.845772 
L 614.471662 269.462113 
L 616.169646 269.462113 
L 617.018638 266.234393 
L 617.86763 264.188375 
L 620.414606 264.108487 
L 621.263598 266.246114 
L 622.11259 266.246114 
L 622.961582 265.562494 
L 624.659566 265.562494 
L 625.508558 262.91217 
L 626.35755 262.670895 
L 627.206542 262.670895 
L 628.055534 265.052481 
L 628.904526 265.052481 
L 629.753518 262.580494 
L 630.60251 263.174793 
L 632.300494 263.174793 
L 633.149486 265.632442 
L 633.998479 265.632442 
L 634.847471 264.913875 
L 636.545455 264.913875 
L 637.394447 263.508165 
L 638.243439 264.757095 
L 639.092431 264.757095 
L 639.941423 265.500102 
L 641.639407 265.500102 
L 642.488399 259.767917 
L 643.337391 258.952349 
L 644.186383 258.952349 
L 645.035375 259.456056 
L 645.884367 259.456056 
L 646.733359 261.612704 
L 649.280335 261.612704 
L 650.129327 263.213216 
L 654.374287 263.213216 
L 656.072271 261.83024 
L 656.921263 260.980648 
L 659.468239 260.980648 
L 660.317231 264.765096 
L 662.015215 264.765096 
L 662.864207 270.347629 
L 663.713199 270.347629 
L 664.562191 270.740562 
L 665.411183 270.740562 
L 666.260175 265.391685 
L 667.109167 264.821585 
L 667.958159 267.087423 
L 672.203119 267.087423 
L 673.901103 268.290841 
L 674.750095 273.433541 
L 675.599087 273.433541 
L 676.448079 271.503958 
L 678.146063 271.503958 
L 678.995055 271.331534 
L 681.542031 271.331534 
L 682.391023 271.922912 
L 683.240015 269.547857 
L 684.089007 269.902336 
L 684.937999 269.902336 
L 685.786991 269.493173 
L 686.635983 269.493173 
L 687.484975 273.183855 
L 688.333967 273.183855 
L 689.182959 268.840714 
L 690.031951 268.775136 
L 690.880943 269.930678 
L 691.729935 269.930678 
L 692.578927 269.027869 
L 693.427919 267.354453 
L 694.276911 268.657278 
L 695.125903 268.657278 
L 695.974895 268.331827 
L 696.823887 267.30088 
L 698.521871 267.30088 
L 699.370863 267.128915 
L 700.219855 267.128915 
L 701.068847 268.03739 
L 701.917839 268.03739 
L 702.766831 265.266501 
L 703.615824 259.859309 
L 704.464816 258.074351 
L 705.313808 258.074351 
L 706.1628 256.24824 
L 707.860784 256.24824 
L 708.709776 254.581322 
L 710.40776 254.581322 
L 711.256752 255.083925 
L 712.105744 256.604893 
L 712.954736 256.604893 
L 713.803728 258.218421 
L 714.65272 254.789947 
L 715.501712 254.776811 
L 716.350704 253.187366 
L 717.199696 253.187366 
L 718.048688 258.838617 
L 718.89768 253.036407 
L 719.746672 252.060029 
L 721.444656 252.060029 
L 722.293648 252.859973 
L 723.14264 250.407161 
L 723.991632 251.624372 
L 725.689616 251.624372 
L 726.538608 248.603506 
L 727.3876 245.133113 
L 728.236592 245.863207 
L 729.934576 245.863207 
L 730.783568 243.394119 
L 731.63256 241.712831 
L 732.481552 241.396654 
L 733.330544 239.843951 
L 735.028528 239.843951 
L 735.87752 236.504801 
L 736.726512 236.753522 
L 737.575504 236.753522 
L 738.424496 237.28975 
L 739.273488 239.495807 
L 740.12248 239.495807 
L 740.971472 240.955912 
L 741.820464 238.490375 
L 743.518448 238.490375 
L 744.36744 242.145053 
L 745.216432 242.145053 
L 746.065424 239.381944 
L 747.763408 239.381944 
L 748.6124 236.067225 
L 749.461392 234.870819 
L 750.310384 236.59239 
L 752.008368 236.59239 
L 752.85736 240.565313 
L 753.706352 240.565313 
L 754.555344 242.737768 
L 756.253328 242.737768 
L 757.10232 240.925642 
L 757.951312 241.353469 
L 758.800304 241.353469 
L 759.649296 240.306799 
L 760.498288 242.097109 
L 763.894256 242.097109 
L 764.743248 244.676933 
L 765.59224 244.676933 
L 766.441232 242.882303 
L 767.290224 242.45386 
L 768.988208 242.45386 
L 769.8372 241.151792 
L 770.686192 243.61352 
L 772.384176 243.61352 
L 773.233169 252.212322 
L 774.082161 252.212322 
L 774.931153 251.208537 
L 775.780145 251.940807 
L 776.629137 251.940807 
L 777.478129 251.78437 
L 778.327121 255.494406 
L 779.176113 255.494406 
L 780.025105 254.661424 
L 781.723089 254.661424 
L 782.572081 256.269761 
L 783.421073 262.683435 
L 784.270065 262.683435 
L 785.119057 264.304832 
L 786.817041 264.304832 
L 787.666033 266.549961 
L 788.515025 266.549961 
L 789.364017 266.270455 
L 790.213009 268.304448 
L 791.062001 268.304448 
L 791.910993 266.134673 
L 792.759985 268.33112 
L 793.608977 268.33112 
L 794.457969 268.146427 
L 796.155953 268.146427 
L 797.004945 270.131014 
L 797.853937 268.816964 
L 800.400913 268.816964 
L 801.249905 267.615805 
L 803.796881 267.645252 
L 804.645873 269.270501 
L 805.494865 269.270501 
L 806.343857 270.351849 
L 807.192849 276.293361 
L 808.041841 276.293361 
L 808.890833 277.653281 
L 810.588817 277.653281 
L 811.437809 274.615939 
L 812.286801 274.318904 
L 813.135793 274.318904 
L 813.984785 274.783377 
L 814.833777 274.783377 
L 815.682769 277.741064 
L 816.531761 277.741064 
L 817.380753 282.715191 
L 818.229745 282.715191 
L 819.078737 281.881594 
L 819.927729 281.881594 
L 820.776721 294.080256 
L 821.625713 294.080256 
L 822.474705 291.794491 
L 823.323697 300.563705 
L 824.172689 300.563705 
L 825.021681 299.034654 
L 826.719665 299.034654 
L 827.568657 298.16887 
L 828.417649 292.96233 
L 829.266641 293.71649 
L 834.360593 293.71649 
L 835.209585 291.962897 
L 836.907569 291.962897 
L 837.756561 293.542135 
L 838.605553 296.001467 
L 839.454545 296.350849 
L 840.303537 296.350849 
L 841.152529 296.064008 
L 842.001521 295.306093 
L 843.699506 295.306093 
L 844.548498 307.428568 
L 846.246482 307.428568 
L 847.095474 309.702646 
L 847.944466 309.702646 
L 848.793458 306.776188 
L 853.038418 306.776188 
L 853.88741 305.931283 
L 854.736402 307.234661 
L 856.434386 307.234661 
L 857.283378 311.75425 
L 858.13237 311.75425 
L 858.981362 310.504358 
L 859.830354 315.049387 
L 860.679346 315.049387 
L 861.528338 310.112459 
L 863.226322 310.02985 
L 864.075314 309.539094 
L 866.62229 309.539094 
L 867.471282 305.426106 
L 868.320274 304.577299 
L 869.169266 305.048317 
L 870.018258 304.623727 
L 870.86725 304.623727 
L 871.716242 305.521787 
L 872.565234 305.521787 
L 873.414226 306.139169 
L 874.263218 307.272532 
L 875.11221 307.272532 
L 875.961202 304.399823 
L 876.810194 303.627678 
L 877.659186 306.575327 
L 878.508178 307.36686 
L 882.753138 307.36686 
L 883.60213 310.059491 
L 885.300114 310.059491 
L 886.149106 310.243593 
L 886.998098 311.627795 
L 892.941042 311.627795 
L 893.790034 309.211802 
L 894.639026 313.86391 
L 896.33701 313.86391 
L 897.186002 312.371864 
L 898.883986 316.823452 
L 899.732978 309.938876 
L 901.430962 309.938876 
L 902.279954 313.159615 
L 903.128946 313.159615 
L 903.977938 312.553809 
L 904.82693 312.553809 
L 905.675922 311.315525 
L 907.373906 311.315525 
L 908.222898 309.970862 
L 911.618866 309.928357 
L 912.467859 307.166311 
L 913.316851 305.491886 
L 914.165843 301.575244 
L 915.014835 301.401536 
L 916.712819 301.401536 
L 917.561811 304.204434 
L 918.410803 304.048426 
L 921.806771 304.048426 
L 922.655763 297.863412 
L 923.504755 301.448859 
L 924.353747 301.448859 
L 925.202739 300.269316 
L 926.051731 300.269316 
L 926.900723 301.06277 
L 927.749715 301.06277 
L 928.598707 303.132432 
L 930.296691 303.132432 
L 931.145683 300.337453 
L 931.994675 302.926565 
L 932.843667 302.926565 
L 933.692659 303.459729 
L 934.541651 298.410139 
L 935.390643 297.747667 
L 936.239635 297.747667 
L 937.088627 301.27687 
L 939.635603 301.27687 
L 940.484595 304.808601 
L 942.182579 304.88262 
L 943.031571 308.979571 
L 946.427539 308.979571 
L 947.276531 312.194636 
L 948.125523 308.341688 
L 948.974515 305.806303 
L 949.823507 305.806303 
L 950.672499 302.396421 
L 951.521491 302.99864 
L 952.370483 301.901622 
L 954.068467 301.901622 
L 954.917459 309.255575 
L 955.766451 309.255575 
L 956.615443 309.494565 
L 957.464435 324.907975 
L 958.313427 326.312279 
L 960.860403 326.312279 
L 961.709395 331.997463 
L 962.558387 326.578927 
L 963.407379 316.429992 
L 964.256371 320.366879 
L 965.105363 320.766108 
L 968.501331 320.766108 
L 969.350323 317.36883 
L 970.199315 316.048583 
L 971.048307 309.106667 
L 971.897299 308.962804 
L 972.746291 309.099174 
L 973.595283 310.246087 
L 974.444275 311.885032 
L 975.293267 312.570382 
L 977.840243 312.570382 
L 978.689235 309.003344 
L 979.538227 309.003344 
L 980.387219 308.449237 
L 981.236211 314.794338 
L 982.085203 313.974602 
L 984.63218 313.974602 
L 985.481172 312.972284 
L 986.330164 310.281069 
L 987.179156 310.281069 
L 988.028148 308.710581 
L 988.87714 301.681693 
L 989.726132 300.614066 
L 990.575124 300.614066 
L 991.424116 305.297205 
L 992.273108 305.297205 
L 993.1221 307.937652 
L 993.971092 307.937652 
L 994.820084 308.051727 
L 996.518068 308.051727 
L 997.36706 308.382983 
L 999.065044 308.382983 
L 999.914036 307.762019 
L 1003.310004 307.762019 
L 1004.158996 310.260283 
L 1005.007988 310.260283 
L 1005.85698 312.169299 
L 1007.554964 312.169299 
L 1008.403956 308.148693 
L 1009.252948 308.72084 
L 1010.10194 308.72084 
L 1010.950932 309.078641 
L 1011.799924 307.368861 
L 1012.648916 307.368861 
L 1013.497908 304.199301 
L 1014.3469 304.745543 
L 1016.044884 304.745543 
L 1016.893876 303.403128 
L 1017.742868 306.80232 
L 1018.59186 306.416024 
L 1019.440852 305.24674 
L 1021.138836 305.24674 
L 1021.987828 308.018414 
L 1022.83682 310.252824 
L 1023.685812 310.252824 
L 1025.383796 298.297633 
L 1026.232788 298.297633 
L 1027.08178 294.47881 
L 1027.930772 293.443978 
L 1029.628756 293.443978 
L 1030.477748 293.124185 
L 1031.32674 293.124185 
L 1032.175732 293.555976 
L 1033.024724 287.539408 
L 1033.873716 273.941537 
L 1034.722708 274.237376 
L 1035.5717 275.289359 
L 1036.420692 275.289359 
L 1037.269684 273.156972 
L 1038.118676 268.529175 
L 1039.81666 268.529175 
L 1040.665652 265.191766 
L 1041.514644 275.551894 
L 1042.363636 265.300758 
L 1043.212628 265.300758 
L 1044.910612 277.377324 
L 1045.759604 274.483253 
L 1046.608596 267.683548 
L 1047.457588 266.679161 
L 1048.30658 266.679161 
L 1049.155572 263.150634 
L 1050.004564 261.586762 
L 1050.853556 265.056871 
L 1051.702548 265.056871 
L 1052.551541 262.446236 
L 1054.249525 262.446236 
L 1055.098517 252.279552 
L 1055.947509 251.422896 
L 1057.645493 251.422896 
L 1058.494485 252.561494 
L 1059.343477 252.561494 
L 1060.192469 252.907738 
L 1061.041461 252.907738 
L 1061.890453 253.529287 
L 1062.739445 256.362404 
L 1063.588437 256.362404 
L 1064.437429 254.903079 
L 1065.286421 256.449811 
L 1066.135413 256.449811 
L 1067.833397 265.049122 
L 1068.682389 265.049122 
L 1069.531381 275.403835 
L 1072.078357 275.403835 
L 1072.927349 294.591435 
L 1073.776341 294.591435 
L 1074.625333 295.810109 
L 1076.323317 295.810109 
L 1077.172309 298.52079 
L 1078.021301 300.39024 
L 1078.870293 300.39024 
L 1079.719285 298.946973 
L 1080.568277 306.471028 
L 1081.417269 307.334265 
L 1085.662229 307.334265 
L 1086.511221 307.670156 
L 1087.360213 307.608471 
L 1088.209205 308.97995 
L 1093.303157 308.97995 
L 1094.152149 300.70827 
L 1095.001141 302.491134 
L 1095.850133 301.826433 
L 1096.699125 305.681324 
L 1097.548117 305.339115 
L 1098.397109 305.605277 
L 1099.246101 305.605277 
L 1100.095093 301.164924 
L 1103.491061 301.164924 
L 1104.340053 299.087774 
L 1105.189045 301.725278 
L 1106.038037 301.725278 
L 1106.887029 302.437151 
L 1107.736021 302.437151 
L 1108.585013 303.148399 
L 1109.434005 302.349264 
L 1110.282997 310.135842 
L 1111.131989 310.135842 
L 1111.980981 311.842662 
L 1112.829973 311.842662 
L 1113.678965 311.073437 
L 1114.527957 308.192232 
L 1115.376949 307.888067 
L 1116.225941 307.888067 
L 1117.074933 311.731076 
L 1117.923925 311.731076 
L 1118.772917 316.316466 
L 1119.621909 316.316466 
L 1120.470901 314.132975 
L 1121.319893 314.132975 
L 1122.168886 313.846405 
L 1123.017878 313.894683 
L 1123.86687 312.747518 
L 1128.960822 312.747518 
L 1129.809814 311.345833 
L 1131.507798 311.345833 
L 1132.35679 312.59459 
L 1137.450742 312.703353 
L 1138.299734 312.471537 
L 1139.148726 312.471984 
L 1139.997718 313.920942 
L 1140.84671 313.920942 
L 1141.695702 314.269354 
L 1142.544694 314.006178 
L 1144.242678 314.006178 
L 1145.09167 312.453087 
L 1145.940662 312.453087 
L 1146.789654 310.518003 
L 1147.638646 310.518003 
L 1148.487638 305.867742 
L 1149.33663 306.643356 
L 1150.185622 307.840749 
L 1151.034614 307.840749 
L 1151.883606 307.512014 
L 1152.732598 312.18532 
L 1154.430582 312.18532 
L 1155.279574 311.645501 
L 1156.128566 313.035472 
L 1156.977558 312.645556 
L 1158.675542 312.645556 
L 1159.524534 311.092257 
L 1162.07151 311.092257 
L 1162.920502 308.296467 
L 1163.769494 307.892596 
L 1164.618486 304.5589 
L 1165.467478 307.650979 
L 1166.31647 307.650979 
L 1167.165462 308.027877 
L 1168.863446 308.027877 
L 1169.712438 305.575266 
L 1170.56143 307.301227 
L 1171.410422 307.301227 
L 1172.259414 305.664107 
L 1173.108406 301.611873 
L 1173.957398 305.071822 
L 1176.504374 305.071822 
L 1177.353366 303.912361 
L 1179.900342 303.912361 
L 1180.749334 304.763324 
L 1184.145302 304.763324 
L 1184.994294 306.772798 
L 1185.843286 306.772798 
L 1186.692278 302.988333 
L 1187.54127 304.308431 
L 1190.088246 304.334073 
L 1190.937238 305.227623 
L 1191.786231 305.227623 
L 1192.635223 305.917532 
L 1193.484215 305.917532 
L 1194.333207 305.436075 
L 1196.031191 305.436075 
L 1197.729175 301.321565 
L 1198.578167 301.321565 
L 1199.427159 300.204939 
L 1200.276151 300.204939 
L 1201.125143 300.905795 
L 1201.974135 298.076226 
L 1202.823127 293.840359 
L 1203.672119 290.628714 
L 1204.521111 290.671371 
L 1205.370103 290.368187 
L 1206.219095 292.985388 
L 1207.068087 297.587278 
L 1207.917079 294.022453 
L 1209.615063 294.022453 
L 1210.464055 295.834825 
L 1211.313047 292.988109 
L 1212.162039 291.821296 
L 1213.011031 287.353653 
L 1213.860023 286.695846 
L 1214.709015 286.695846 
L 1215.558007 283.776919 
L 1216.406999 287.19214 
L 1217.255991 287.19214 
L 1218.104983 287.959165 
L 1218.953975 284.440868 
L 1219.802967 285.207449 
L 1220.651959 285.752475 
L 1222.349943 285.752475 
L 1223.198935 282.306361 
L 1224.047927 285.134762 
L 1224.896919 285.134762 
L 1225.745911 293.848585 
L 1226.594903 293.848585 
L 1227.443895 289.71993 
L 1228.292887 289.71993 
L 1229.141879 282.242533 
L 1229.990871 282.242533 
L 1230.839863 279.377705 
L 1231.688855 279.377705 
L 1232.537847 274.750595 
L 1233.386839 276.959809 
L 1234.235831 276.959809 
L 1235.084823 268.828952 
L 1235.933815 265.721114 
L 1236.782807 268.415947 
L 1237.631799 263.571803 
L 1238.480791 263.571803 
L 1239.329783 259.809277 
L 1240.178775 258.319327 
L 1241.027767 265.449371 
L 1241.876759 264.971663 
L 1243.574743 264.971663 
L 1244.423735 262.452742 
L 1245.272727 262.452742 
L 1245.272727 262.452742 
" style="fill:none;stroke:#0000ff;stroke-linecap:square;stroke-width:2;"/>
   </g>
   <g id="line2d_15">
    <path clip-path="url(#p97c98a8375)" d="M 230.727273 219.607235 
L 231.576265 219.607235 
L 232.425257 212.927369 
L 233.274249 213.042027 
L 240.915177 213.042027 
L 241.764169 222.24423 
L 242.613161 222.24423 
L 244.311145 219.233874 
L 247.707113 219.233874 
L 248.556105 205.674407 
L 249.405097 198.552962 
L 252.801065 198.552962 
L 253.650057 190.297687 
L 255.348041 190.297687 
L 256.197033 184.671257 
L 258.744009 184.671257 
L 259.593001 205.408267 
L 260.441993 202.162792 
L 261.290985 184.968998 
L 262.139977 171.84301 
L 265.535945 171.84301 
L 266.384937 172.402054 
L 274.874857 172.402054 
L 275.723849 185.021266 
L 276.572841 213.92402 
L 279.968809 213.92402 
L 280.817801 233.320576 
L 285.062762 233.320576 
L 285.911754 214.8081 
L 286.760746 208.098015 
L 287.609738 208.098015 
L 288.45873 200.538817 
L 290.156714 200.538817 
L 291.005706 196.308752 
L 292.70369 196.308752 
L 293.552682 201.272843 
L 295.250666 201.272843 
L 296.099658 185.206483 
L 301.19361 185.206483 
L 302.042602 175.391963 
L 302.891594 175.391963 
L 303.740586 173.64588 
L 304.589578 173.64588 
L 305.43857 165.159248 
L 307.136554 165.159248 
L 307.985546 192.48466 
L 308.834538 185.035139 
L 314.777482 185.035139 
L 315.626474 198.252299 
L 316.475466 198.252299 
L 317.324458 200.767433 
L 320.720426 200.767433 
L 321.569418 198.050995 
L 322.41841 220.779192 
L 324.116394 220.779192 
L 324.965386 226.863996 
L 328.361354 226.863996 
L 329.210346 222.444644 
L 332.606314 222.444644 
L 333.455306 209.918789 
L 334.304298 205.006333 
L 336.002282 205.006333 
L 336.851274 208.722049 
L 337.700266 198.915968 
L 341.096234 198.915968 
L 341.945226 186.47884 
L 344.492202 186.47884 
L 345.341194 195.170231 
L 346.190186 192.31008 
L 347.88817 192.31008 
L 348.737162 193.106951 
L 349.586154 193.106951 
L 350.435146 192.713881 
L 354.680107 192.811548 
L 355.529099 197.885825 
L 358.925067 197.885825 
L 359.774059 194.105436 
L 360.623051 196.783409 
L 361.472043 196.783409 
L 362.321035 191.477617 
L 364.019019 191.477617 
L 364.868011 189.992673 
L 367.414987 189.992673 
L 368.263979 192.64102 
L 369.112971 192.64102 
L 369.961963 201.452211 
L 370.810955 202.780851 
L 371.659947 203.851058 
L 373.357931 203.851058 
L 374.206923 201.34001 
L 375.904907 201.34001 
L 376.753899 202.06072 
L 377.602891 202.06072 
L 378.451883 199.188521 
L 379.300875 202.705646 
L 385.243819 202.705646 
L 386.092811 207.105901 
L 386.941803 207.105901 
L 387.790795 234.747339 
L 388.639787 234.747339 
L 389.488779 254.652351 
L 391.186763 254.652351 
L 392.035755 245.293248 
L 392.884747 256.067543 
L 393.733739 256.067543 
L 394.582731 246.04188 
L 397.978699 246.04188 
L 398.827691 267.347387 
L 399.676683 270.888093 
L 401.374667 270.888093 
L 402.223659 274.198023 
L 403.072651 265.304219 
L 403.921643 264.185544 
L 404.770635 264.185544 
L 405.619627 266.855127 
L 406.468619 266.676191 
L 409.015595 266.676191 
L 409.864587 265.683499 
L 412.411563 265.683499 
L 413.260555 286.723435 
L 414.109547 285.730416 
L 414.958539 298.680438 
L 415.807531 298.680438 
L 416.656523 286.827626 
L 417.505515 286.827626 
L 418.354507 293.39113 
L 419.203499 287.859323 
L 420.052491 287.361845 
L 423.448459 287.361845 
L 424.297452 289.534539 
L 425.146444 289.534539 
L 425.995436 281.589999 
L 426.844428 281.589999 
L 427.69342 275.297551 
L 431.089388 275.297551 
L 431.93838 276.964445 
L 434.485356 276.964445 
L 435.334348 278.254248 
L 436.18334 278.254248 
L 437.032332 276.773939 
L 437.881324 280.568513 
L 438.730316 280.568513 
L 439.579308 275.069732 
L 440.4283 277.159966 
L 442.975276 277.159966 
L 443.824268 281.257852 
L 444.67326 280.184019 
L 446.371244 280.184019 
L 447.220236 278.478219 
L 448.069228 279.873416 
L 448.91822 279.873416 
L 449.767212 281.121219 
L 451.465196 281.121219 
L 452.314188 273.535422 
L 460.804108 273.535422 
L 461.6531 280.606282 
L 462.502092 279.027279 
L 465.89806 279.027279 
L 466.747052 277.740512 
L 469.294028 277.740512 
L 470.14302 276.614662 
L 470.992012 274.908016 
L 476.085964 274.908016 
L 476.934956 266.467382 
L 477.783948 267.457577 
L 478.63294 265.960296 
L 488.820844 265.960296 
L 489.669836 264.781756 
L 505.800685 264.781756 
L 506.649677 263.493204 
L 515.988589 263.493204 
L 516.837581 263.116371 
L 543.156333 263.060716 
L 544.854317 262.974401 
L 593.246862 262.974401 
L 594.095854 262.781326 
L 642.488399 262.781326 
L 643.337391 261.974826 
L 688.333967 261.974826 
L 689.182959 257.442708 
L 779.176113 257.442708 
L 780.025105 256.615621 
L 788.515025 256.615621 
L 789.364017 256.325608 
L 821.625713 256.325608 
L 822.474705 253.675275 
L 824.172689 253.675275 
L 825.021681 251.834819 
L 826.719665 251.834819 
L 827.568657 250.79271 
L 834.360593 250.79271 
L 835.209585 248.721623 
L 838.605553 248.721623 
L 839.454545 249.14136 
L 847.944466 249.14136 
L 848.793458 245.413286 
L 892.941042 245.306457 
L 893.790034 242.159366 
L 894.639026 248.219237 
L 897.186002 248.219237 
L 898.883986 253.9783 
L 899.732978 245.071658 
L 901.430962 245.071658 
L 902.279954 249.238359 
L 903.128946 249.238359 
L 903.977938 248.454622 
L 904.82693 248.454622 
L 905.675922 246.852642 
L 911.618866 246.852642 
L 912.467859 243.3018 
L 922.655763 243.3018 
L 923.504755 247.727102 
L 926.051731 247.727102 
L 926.900723 248.701402 
L 931.145683 248.701402 
L 931.994675 251.870631 
L 933.692659 251.870631 
L 934.541651 245.675134 
L 936.239635 245.675134 
L 937.088627 249.992912 
L 948.125523 250.084885 
L 948.974515 246.885522 
L 955.766451 246.885522 
L 956.615443 247.191795 
L 957.464435 247.191795 
L 958.313427 249.126185 
L 960.860403 249.126185 
L 961.709395 256.957368 
L 962.558387 249.493485 
L 963.407379 235.513611 
L 964.256371 240.936562 
L 965.105363 241.486489 
L 968.501331 241.486489 
L 969.350323 236.806834 
L 970.199315 234.98823 
L 971.048307 225.425936 
L 971.897299 225.227768 
L 972.746291 225.415614 
L 973.595283 226.995454 
L 974.444275 229.253055 
L 975.293267 230.197106 
L 977.840243 230.197106 
L 978.689235 225.283611 
L 979.538227 225.283611 
L 980.387219 224.520343 
L 981.236211 224.520343 
L 982.085203 223.35801 
L 988.87714 223.35801 
L 989.726132 221.925405 
L 993.971092 221.925405 
L 994.820084 222.083509 
L 1008.403956 222.083509 
L 1009.252948 222.876824 
L 1024.534804 222.876824 
L 1025.383796 215.089751 
L 1029.628756 215.089751 
L 1030.477748 214.664387 
L 1031.32674 214.664387 
L 1032.175732 215.238722 
L 1034.722708 215.238722 
L 1035.5717 216.532622 
L 1036.420692 216.532622 
L 1037.269684 213.909865 
L 1040.665652 213.909865 
L 1041.514644 226.270305 
L 1044.06162 226.270305 
L 1044.910612 233.363502 
L 1045.759604 229.966784 
L 1046.608596 221.986095 
L 1048.30658 221.986095 
L 1049.155572 217.860476 
L 1050.004564 216.031969 
L 1050.853556 220.089285 
L 1051.702548 220.089285 
L 1052.551541 217.036882 
L 1055.098517 217.036882 
L 1055.947509 216.071827 
L 1059.343477 216.071827 
L 1060.192469 216.46348 
L 1073.776341 216.46348 
L 1074.625333 218.085251 
L 1076.323317 218.085251 
L 1077.172309 221.692535 
L 1078.021301 224.180338 
L 1078.870293 224.180338 
L 1079.719285 222.259685 
L 1080.568277 232.272448 
L 1094.152149 232.189919 
L 1095.001141 234.50371 
L 1099.246101 234.50371 
L 1100.095093 228.66135 
L 1106.038037 228.66135 
L 1106.887029 229.600282 
L 1111.131989 229.600282 
L 1111.980981 231.930056 
L 1114.527957 231.930056 
L 1115.376949 231.521686 
L 1116.225941 231.521686 
L 1117.074933 236.68129 
L 1135.752758 236.68129 
L 1136.60175 236.827893 
L 1145.940662 236.827893 
L 1146.789654 234.222567 
L 1147.638646 234.222567 
L 1148.487638 227.961627 
L 1151.034614 227.961627 
L 1151.883606 227.515114 
L 1166.31647 227.515114 
L 1167.165462 228.027365 
L 1226.594903 228.027365 
L 1227.443895 222.751808 
L 1228.292887 222.751808 
L 1229.141879 213.197259 
L 1231.688855 213.197259 
L 1232.537847 207.352151 
L 1235.084823 207.352151 
L 1235.933815 203.514979 
L 1236.782807 203.514979 
L 1237.631799 197.472603 
L 1240.178775 197.472603 
L 1241.027767 206.194868 
L 1241.876759 205.610482 
L 1243.574743 205.610482 
L 1244.423735 202.529058 
L 1245.272727 202.529058 
L 1245.272727 202.529058 
" style="fill:none;stroke:#008000;stroke-linecap:square;stroke-width:2;"/>
   </g>
   <g id="patch_3">
    <path d="M 180 384.48 
L 180 51.84 
" style="fill:none;stroke:#000000;stroke-linecap:square;stroke-linejoin:miter;stroke-width:0.8;"/>
   </g>
   <g id="patch_4">
    <path d="M 1296 384.48 
L 1296 51.84 
" style="fill:none;stroke:#000000;stroke-linecap:square;stroke-linejoin:miter;stroke-width:0.8;"/>
   </g>
   <g id="patch_5">
    <path d="M 180 384.48 
L 1296 384.48 
" style="fill:none;stroke:#000000;stroke-linecap:square;stroke-linejoin:miter;stroke-width:0.8;"/>
   </g>
   <g id="patch_6">
    <path d="M 180 51.84 
L 1296 51.84 
" style="fill:none;stroke:#000000;stroke-linecap:square;stroke-linejoin:miter;stroke-width:0.8;"/>
   </g>
   <g id="text_14">
    <!-- LSTM Prediction- -my_model -->
    <defs>
     <path d="M 9.8125 72.90625 
L 19.671875 72.90625 
L 19.671875 8.296875 
L 55.171875 8.296875 
L 55.171875 0 
L 9.8125 0 
z
" id="DejaVuSans-76"/>
     <path d="M 53.515625 70.515625 
L 53.515625 60.890625 
Q 47.90625 63.578125 42.921875 64.890625 
Q 37.9375 66.21875 33.296875 66.21875 
Q 25.25 66.21875 20.875 63.09375 
Q 16.5 59.96875 16.5 54.203125 
Q 16.5 49.359375 19.40625 46.890625 
Q 22.3125 44.4375 30.421875 42.921875 
L 36.375 41.703125 
Q 47.40625 39.59375 52.65625 34.296875 
Q 57.90625 29 57.90625 20.125 
Q 57.90625 9.515625 50.796875 4.046875 
Q 43.703125 -1.421875 29.984375 -1.421875 
Q 24.8125 -1.421875 18.96875 -0.25 
Q 13.140625 0.921875 6.890625 3.21875 
L 6.890625 13.375 
Q 12.890625 10.015625 18.65625 8.296875 
Q 24.421875 6.59375 29.984375 6.59375 
Q 38.421875 6.59375 43.015625 9.90625 
Q 47.609375 13.234375 47.609375 19.390625 
Q 47.609375 24.75 44.3125 27.78125 
Q 41.015625 30.8125 33.5 32.328125 
L 27.484375 33.5 
Q 16.453125 35.6875 11.515625 40.375 
Q 6.59375 45.0625 6.59375 53.421875 
Q 6.59375 63.09375 13.40625 68.65625 
Q 20.21875 74.21875 32.171875 74.21875 
Q 37.3125 74.21875 42.625 73.28125 
Q 47.953125 72.359375 53.515625 70.515625 
z
" id="DejaVuSans-83"/>
     <path d="M -0.296875 72.90625 
L 61.375 72.90625 
L 61.375 64.59375 
L 35.5 64.59375 
L 35.5 0 
L 25.59375 0 
L 25.59375 64.59375 
L -0.296875 64.59375 
z
" id="DejaVuSans-84"/>
     <path d="M 9.8125 72.90625 
L 24.515625 72.90625 
L 43.109375 23.296875 
L 61.8125 72.90625 
L 76.515625 72.90625 
L 76.515625 0 
L 66.890625 0 
L 66.890625 64.015625 
L 48.09375 14.015625 
L 38.1875 14.015625 
L 19.390625 64.015625 
L 19.390625 0 
L 9.8125 0 
z
" id="DejaVuSans-77"/>
     <path d="M 19.671875 64.796875 
L 19.671875 37.40625 
L 32.078125 37.40625 
Q 38.96875 37.40625 42.71875 40.96875 
Q 46.484375 44.53125 46.484375 51.125 
Q 46.484375 57.671875 42.71875 61.234375 
Q 38.96875 64.796875 32.078125 64.796875 
z
M 9.8125 72.90625 
L 32.078125 72.90625 
Q 44.34375 72.90625 50.609375 67.359375 
Q 56.890625 61.8125 56.890625 51.125 
Q 56.890625 40.328125 50.609375 34.8125 
Q 44.34375 29.296875 32.078125 29.296875 
L 19.671875 29.296875 
L 19.671875 0 
L 9.8125 0 
z
" id="DejaVuSans-80"/>
     <path d="M 41.109375 46.296875 
Q 39.59375 47.171875 37.8125 47.578125 
Q 36.03125 48 33.890625 48 
Q 26.265625 48 22.1875 43.046875 
Q 18.109375 38.09375 18.109375 28.8125 
L 18.109375 0 
L 9.078125 0 
L 9.078125 54.6875 
L 18.109375 54.6875 
L 18.109375 46.1875 
Q 20.953125 51.171875 25.484375 53.578125 
Q 30.03125 56 36.53125 56 
Q 37.453125 56 38.578125 55.875 
Q 39.703125 55.765625 41.0625 55.515625 
z
" id="DejaVuSans-114"/>
     <path d="M 45.40625 46.390625 
L 45.40625 75.984375 
L 54.390625 75.984375 
L 54.390625 0 
L 45.40625 0 
L 45.40625 8.203125 
Q 42.578125 3.328125 38.25 0.953125 
Q 33.9375 -1.421875 27.875 -1.421875 
Q 17.96875 -1.421875 11.734375 6.484375 
Q 5.515625 14.40625 5.515625 27.296875 
Q 5.515625 40.1875 11.734375 48.09375 
Q 17.96875 56 27.875 56 
Q 33.9375 56 38.25 53.625 
Q 42.578125 51.265625 45.40625 46.390625 
z
M 14.796875 27.296875 
Q 14.796875 17.390625 18.875 11.75 
Q 22.953125 6.109375 30.078125 6.109375 
Q 37.203125 6.109375 41.296875 11.75 
Q 45.40625 17.390625 45.40625 27.296875 
Q 45.40625 37.203125 41.296875 42.84375 
Q 37.203125 48.484375 30.078125 48.484375 
Q 22.953125 48.484375 18.875 42.84375 
Q 14.796875 37.203125 14.796875 27.296875 
z
" id="DejaVuSans-100"/>
     <path d="M 48.78125 52.59375 
L 48.78125 44.1875 
Q 44.96875 46.296875 41.140625 47.34375 
Q 37.3125 48.390625 33.40625 48.390625 
Q 24.65625 48.390625 19.8125 42.84375 
Q 14.984375 37.3125 14.984375 27.296875 
Q 14.984375 17.28125 19.8125 11.734375 
Q 24.65625 6.203125 33.40625 6.203125 
Q 37.3125 6.203125 41.140625 7.25 
Q 44.96875 8.296875 48.78125 10.40625 
L 48.78125 2.09375 
Q 45.015625 0.34375 40.984375 -0.53125 
Q 36.96875 -1.421875 32.421875 -1.421875 
Q 20.0625 -1.421875 12.78125 6.34375 
Q 5.515625 14.109375 5.515625 27.296875 
Q 5.515625 40.671875 12.859375 48.328125 
Q 20.21875 56 33.015625 56 
Q 37.15625 56 41.109375 55.140625 
Q 45.0625 54.296875 48.78125 52.59375 
z
" id="DejaVuSans-99"/>
     <path d="M 30.609375 48.390625 
Q 23.390625 48.390625 19.1875 42.75 
Q 14.984375 37.109375 14.984375 27.296875 
Q 14.984375 17.484375 19.15625 11.84375 
Q 23.34375 6.203125 30.609375 6.203125 
Q 37.796875 6.203125 41.984375 11.859375 
Q 46.1875 17.53125 46.1875 27.296875 
Q 46.1875 37.015625 41.984375 42.703125 
Q 37.796875 48.390625 30.609375 48.390625 
z
M 30.609375 56 
Q 42.328125 56 49.015625 48.375 
Q 55.71875 40.765625 55.71875 27.296875 
Q 55.71875 13.875 49.015625 6.21875 
Q 42.328125 -1.421875 30.609375 -1.421875 
Q 18.84375 -1.421875 12.171875 6.21875 
Q 5.515625 13.875 5.515625 27.296875 
Q 5.515625 40.765625 12.171875 48.375 
Q 18.84375 56 30.609375 56 
z
" id="DejaVuSans-111"/>
     <path d="M 54.890625 33.015625 
L 54.890625 0 
L 45.90625 0 
L 45.90625 32.71875 
Q 45.90625 40.484375 42.875 44.328125 
Q 39.84375 48.1875 33.796875 48.1875 
Q 26.515625 48.1875 22.3125 43.546875 
Q 18.109375 38.921875 18.109375 30.90625 
L 18.109375 0 
L 9.078125 0 
L 9.078125 54.6875 
L 18.109375 54.6875 
L 18.109375 46.1875 
Q 21.34375 51.125 25.703125 53.5625 
Q 30.078125 56 35.796875 56 
Q 45.21875 56 50.046875 50.171875 
Q 54.890625 44.34375 54.890625 33.015625 
z
" id="DejaVuSans-110"/>
     <path d="M 4.890625 31.390625 
L 31.203125 31.390625 
L 31.203125 23.390625 
L 4.890625 23.390625 
z
" id="DejaVuSans-45"/>
     <path d="M 32.171875 -5.078125 
Q 28.375 -14.84375 24.75 -17.8125 
Q 21.140625 -20.796875 15.09375 -20.796875 
L 7.90625 -20.796875 
L 7.90625 -13.28125 
L 13.1875 -13.28125 
Q 16.890625 -13.28125 18.9375 -11.515625 
Q 21 -9.765625 23.484375 -3.21875 
L 25.09375 0.875 
L 2.984375 54.6875 
L 12.5 54.6875 
L 29.59375 11.921875 
L 46.6875 54.6875 
L 56.203125 54.6875 
z
" id="DejaVuSans-121"/>
     <path d="M 50.984375 -16.609375 
L 50.984375 -23.578125 
L -0.984375 -23.578125 
L -0.984375 -16.609375 
z
" id="DejaVuSans-95"/>
     <path d="M 9.421875 75.984375 
L 18.40625 75.984375 
L 18.40625 0 
L 9.421875 0 
z
" id="DejaVuSans-108"/>
    </defs>
    <g transform="translate(654.649688 45.84)scale(0.12 -0.12)">
     <use xlink:href="#DejaVuSans-76"/>
     <use x="55.712891" xlink:href="#DejaVuSans-83"/>
     <use x="119.189453" xlink:href="#DejaVuSans-84"/>
     <use x="180.273438" xlink:href="#DejaVuSans-77"/>
     <use x="266.552734" xlink:href="#DejaVuSans-32"/>
     <use x="298.339844" xlink:href="#DejaVuSans-80"/>
     <use x="358.626953" xlink:href="#DejaVuSans-114"/>
     <use x="399.708984" xlink:href="#DejaVuSans-101"/>
     <use x="461.232422" xlink:href="#DejaVuSans-100"/>
     <use x="524.708984" xlink:href="#DejaVuSans-105"/>
     <use x="552.492188" xlink:href="#DejaVuSans-99"/>
     <use x="607.472656" xlink:href="#DejaVuSans-116"/>
     <use x="646.681641" xlink:href="#DejaVuSans-105"/>
     <use x="674.464844" xlink:href="#DejaVuSans-111"/>
     <use x="735.646484" xlink:href="#DejaVuSans-110"/>
     <use x="799.025391" xlink:href="#DejaVuSans-45"/>
     <use x="835.109375" xlink:href="#DejaVuSans-45"/>
     <use x="871.193359" xlink:href="#DejaVuSans-109"/>
     <use x="968.605469" xlink:href="#DejaVuSans-121"/>
     <use x="1027.785156" xlink:href="#DejaVuSans-95"/>
     <use x="1077.785156" xlink:href="#DejaVuSans-109"/>
     <use x="1175.197266" xlink:href="#DejaVuSans-111"/>
     <use x="1236.378906" xlink:href="#DejaVuSans-100"/>
     <use x="1299.855469" xlink:href="#DejaVuSans-101"/>
     <use x="1361.378906" xlink:href="#DejaVuSans-108"/>
    </g>
   </g>
   <g id="legend_1">
    <g id="patch_7">
     <path d="M 1221.63125 103.874375 
L 1289 103.874375 
Q 1291 103.874375 1291 101.874375 
L 1291 58.84 
Q 1291 56.84 1289 56.84 
L 1221.63125 56.84 
Q 1219.63125 56.84 1219.63125 58.84 
L 1219.63125 101.874375 
Q 1219.63125 103.874375 1221.63125 103.874375 
z
" style="fill:#ffffff;opacity:0.8;stroke:#cccccc;stroke-linejoin:miter;"/>
    </g>
    <g id="line2d_16">
     <path d="M 1223.63125 64.938437 
L 1243.63125 64.938437 
" style="fill:none;stroke:#ff0000;stroke-linecap:square;stroke-width:5;"/>
    </g>
    <g id="line2d_17"/>
    <g id="text_15">
     <!-- CSI500 -->
     <defs>
      <path d="M 64.40625 67.28125 
L 64.40625 56.890625 
Q 59.421875 61.53125 53.78125 63.8125 
Q 48.140625 66.109375 41.796875 66.109375 
Q 29.296875 66.109375 22.65625 58.46875 
Q 16.015625 50.828125 16.015625 36.375 
Q 16.015625 21.96875 22.65625 14.328125 
Q 29.296875 6.6875 41.796875 6.6875 
Q 48.140625 6.6875 53.78125 8.984375 
Q 59.421875 11.28125 64.40625 15.921875 
L 64.40625 5.609375 
Q 59.234375 2.09375 53.4375 0.328125 
Q 47.65625 -1.421875 41.21875 -1.421875 
Q 24.65625 -1.421875 15.125 8.703125 
Q 5.609375 18.84375 5.609375 36.375 
Q 5.609375 53.953125 15.125 64.078125 
Q 24.65625 74.21875 41.21875 74.21875 
Q 47.75 74.21875 53.53125 72.484375 
Q 59.328125 70.75 64.40625 67.28125 
z
" id="DejaVuSans-67"/>
      <path d="M 9.8125 72.90625 
L 19.671875 72.90625 
L 19.671875 0 
L 9.8125 0 
z
" id="DejaVuSans-73"/>
      <path d="M 10.796875 72.90625 
L 49.515625 72.90625 
L 49.515625 64.59375 
L 19.828125 64.59375 
L 19.828125 46.734375 
Q 21.96875 47.46875 24.109375 47.828125 
Q 26.265625 48.1875 28.421875 48.1875 
Q 40.625 48.1875 47.75 41.5 
Q 54.890625 34.8125 54.890625 23.390625 
Q 54.890625 11.625 47.5625 5.09375 
Q 40.234375 -1.421875 26.90625 -1.421875 
Q 22.3125 -1.421875 17.546875 -0.640625 
Q 12.796875 0.140625 7.71875 1.703125 
L 7.71875 11.625 
Q 12.109375 9.234375 16.796875 8.0625 
Q 21.484375 6.890625 26.703125 6.890625 
Q 35.15625 6.890625 40.078125 11.328125 
Q 45.015625 15.765625 45.015625 23.390625 
Q 45.015625 31 40.078125 35.4375 
Q 35.15625 39.890625 26.703125 39.890625 
Q 22.75 39.890625 18.8125 39.015625 
Q 14.890625 38.140625 10.796875 36.28125 
z
" id="DejaVuSans-53"/>
     </defs>
     <g transform="translate(1251.63125 68.438437)scale(0.1 -0.1)">
      <use xlink:href="#DejaVuSans-67"/>
      <use x="69.824219" xlink:href="#DejaVuSans-83"/>
      <use x="133.300781" xlink:href="#DejaVuSans-73"/>
      <use x="162.792969" xlink:href="#DejaVuSans-53"/>
      <use x="226.416016" xlink:href="#DejaVuSans-48"/>
      <use x="290.039062" xlink:href="#DejaVuSans-48"/>
     </g>
    </g>
    <g id="line2d_18">
     <path d="M 1223.63125 79.616562 
L 1243.63125 79.616562 
" style="fill:none;stroke:#0000ff;stroke-linecap:square;stroke-width:2;"/>
    </g>
    <g id="line2d_19"/>
    <g id="text_16">
     <!-- S0 -->
     <g transform="translate(1251.63125 83.116562)scale(0.1 -0.1)">
      <use xlink:href="#DejaVuSans-83"/>
      <use x="63.476562" xlink:href="#DejaVuSans-48"/>
     </g>
    </g>
    <g id="line2d_20">
     <path d="M 1223.63125 94.294687 
L 1243.63125 94.294687 
" style="fill:none;stroke:#008000;stroke-linecap:square;stroke-width:2;"/>
    </g>
    <g id="line2d_21"/>
    <g id="text_17">
     <!-- S1 -->
     <g transform="translate(1251.63125 97.794687)scale(0.1 -0.1)">
      <use xlink:href="#DejaVuSans-83"/>
      <use x="63.476562" xlink:href="#DejaVuSans-49"/>
     </g>
    </g>
   </g>
  </g>
 </g>
 <defs>
  <clipPath id="p97c98a8375">
   <rect height="332.64" width="1116" x="180" y="51.84"/>
  </clipPath>
 </defs>
</svg>
