<?xml version="1.0" encoding="utf-8" standalone="no"?>
<!DOCTYPE svg PUBLIC "-//W3C//DTD SVG 1.1//EN"
  "http://www.w3.org/Graphics/SVG/1.1/DTD/svg11.dtd">
<!-- Created with matplotlib (https://matplotlib.org/) -->
<svg height="432pt" version="1.1" viewBox="0 0 1440 432" width="1440pt" xmlns="http://www.w3.org/2000/svg" xmlns:xlink="http://www.w3.org/1999/xlink">
 <defs>
  <style type="text/css">
*{stroke-linecap:butt;stroke-linejoin:round;}
  </style>
 </defs>
 <g id="figure_1">
  <g id="patch_1">
   <path d="M 0 432 
L 1440 432 
L 1440 0 
L 0 0 
z
" style="fill:#ffffff;"/>
  </g>
  <g id="axes_1">
   <g id="patch_2">
    <path d="M 180 384.48 
L 1296 384.48 
L 1296 51.84 
L 180 51.84 
z
" style="fill:#ffffff;"/>
   </g>
   <g id="matplotlib.axis_1">
    <g id="xtick_1">
     <g id="line2d_1">
      <defs>
       <path d="M 0 0 
L 0 3.5 
" id="m6b03f54eda" style="stroke:#000000;stroke-width:0.8;"/>
      </defs>
      <g>
       <use style="stroke:#000000;stroke-width:0.8;" x="230.727273" xlink:href="#m6b03f54eda" y="384.48"/>
      </g>
     </g>
     <g id="text_1">
      <!-- 0 -->
      <defs>
       <path d="M 31.78125 66.40625 
Q 24.171875 66.40625 20.328125 58.90625 
Q 16.5 51.421875 16.5 36.375 
Q 16.5 21.390625 20.328125 13.890625 
Q 24.171875 6.390625 31.78125 6.390625 
Q 39.453125 6.390625 43.28125 13.890625 
Q 47.125 21.390625 47.125 36.375 
Q 47.125 51.421875 43.28125 58.90625 
Q 39.453125 66.40625 31.78125 66.40625 
z
M 31.78125 74.21875 
Q 44.046875 74.21875 50.515625 64.515625 
Q 56.984375 54.828125 56.984375 36.375 
Q 56.984375 17.96875 50.515625 8.265625 
Q 44.046875 -1.421875 31.78125 -1.421875 
Q 19.53125 -1.421875 13.0625 8.265625 
Q 6.59375 17.96875 6.59375 36.375 
Q 6.59375 54.828125 13.0625 64.515625 
Q 19.53125 74.21875 31.78125 74.21875 
z
" id="DejaVuSans-48"/>
      </defs>
      <g transform="translate(227.546023 399.078438)scale(0.1 -0.1)">
       <use xlink:href="#DejaVuSans-48"/>
      </g>
     </g>
    </g>
    <g id="xtick_2">
     <g id="line2d_2">
      <g>
       <use style="stroke:#000000;stroke-width:0.8;" x="398.559441" xlink:href="#m6b03f54eda" y="384.48"/>
      </g>
     </g>
     <g id="text_2">
      <!-- 200 -->
      <defs>
       <path d="M 19.1875 8.296875 
L 53.609375 8.296875 
L 53.609375 0 
L 7.328125 0 
L 7.328125 8.296875 
Q 12.9375 14.109375 22.625 23.890625 
Q 32.328125 33.6875 34.8125 36.53125 
Q 39.546875 41.84375 41.421875 45.53125 
Q 43.3125 49.21875 43.3125 52.78125 
Q 43.3125 58.59375 39.234375 62.25 
Q 35.15625 65.921875 28.609375 65.921875 
Q 23.96875 65.921875 18.8125 64.3125 
Q 13.671875 62.703125 7.8125 59.421875 
L 7.8125 69.390625 
Q 13.765625 71.78125 18.9375 73 
Q 24.125 74.21875 28.421875 74.21875 
Q 39.75 74.21875 46.484375 68.546875 
Q 53.21875 62.890625 53.21875 53.421875 
Q 53.21875 48.921875 51.53125 44.890625 
Q 49.859375 40.875 45.40625 35.40625 
Q 44.1875 33.984375 37.640625 27.21875 
Q 31.109375 20.453125 19.1875 8.296875 
z
" id="DejaVuSans-50"/>
      </defs>
      <g transform="translate(389.015691 399.078438)scale(0.1 -0.1)">
       <use xlink:href="#DejaVuSans-50"/>
       <use x="63.623047" xlink:href="#DejaVuSans-48"/>
       <use x="127.246094" xlink:href="#DejaVuSans-48"/>
      </g>
     </g>
    </g>
    <g id="xtick_3">
     <g id="line2d_3">
      <g>
       <use style="stroke:#000000;stroke-width:0.8;" x="566.391608" xlink:href="#m6b03f54eda" y="384.48"/>
      </g>
     </g>
     <g id="text_3">
      <!-- 400 -->
      <defs>
       <path d="M 37.796875 64.3125 
L 12.890625 25.390625 
L 37.796875 25.390625 
z
M 35.203125 72.90625 
L 47.609375 72.90625 
L 47.609375 25.390625 
L 58.015625 25.390625 
L 58.015625 17.1875 
L 47.609375 17.1875 
L 47.609375 0 
L 37.796875 0 
L 37.796875 17.1875 
L 4.890625 17.1875 
L 4.890625 26.703125 
z
" id="DejaVuSans-52"/>
      </defs>
      <g transform="translate(556.847858 399.078438)scale(0.1 -0.1)">
       <use xlink:href="#DejaVuSans-52"/>
       <use x="63.623047" xlink:href="#DejaVuSans-48"/>
       <use x="127.246094" xlink:href="#DejaVuSans-48"/>
      </g>
     </g>
    </g>
    <g id="xtick_4">
     <g id="line2d_4">
      <g>
       <use style="stroke:#000000;stroke-width:0.8;" x="734.223776" xlink:href="#m6b03f54eda" y="384.48"/>
      </g>
     </g>
     <g id="text_4">
      <!-- 600 -->
      <defs>
       <path d="M 33.015625 40.375 
Q 26.375 40.375 22.484375 35.828125 
Q 18.609375 31.296875 18.609375 23.390625 
Q 18.609375 15.53125 22.484375 10.953125 
Q 26.375 6.390625 33.015625 6.390625 
Q 39.65625 6.390625 43.53125 10.953125 
Q 47.40625 15.53125 47.40625 23.390625 
Q 47.40625 31.296875 43.53125 35.828125 
Q 39.65625 40.375 33.015625 40.375 
z
M 52.59375 71.296875 
L 52.59375 62.3125 
Q 48.875 64.0625 45.09375 64.984375 
Q 41.3125 65.921875 37.59375 65.921875 
Q 27.828125 65.921875 22.671875 59.328125 
Q 17.53125 52.734375 16.796875 39.40625 
Q 19.671875 43.65625 24.015625 45.921875 
Q 28.375 48.1875 33.59375 48.1875 
Q 44.578125 48.1875 50.953125 41.515625 
Q 57.328125 34.859375 57.328125 23.390625 
Q 57.328125 12.15625 50.6875 5.359375 
Q 44.046875 -1.421875 33.015625 -1.421875 
Q 20.359375 -1.421875 13.671875 8.265625 
Q 6.984375 17.96875 6.984375 36.375 
Q 6.984375 53.65625 15.1875 63.9375 
Q 23.390625 74.21875 37.203125 74.21875 
Q 40.921875 74.21875 44.703125 73.484375 
Q 48.484375 72.75 52.59375 71.296875 
z
" id="DejaVuSans-54"/>
      </defs>
      <g transform="translate(724.680026 399.078438)scale(0.1 -0.1)">
       <use xlink:href="#DejaVuSans-54"/>
       <use x="63.623047" xlink:href="#DejaVuSans-48"/>
       <use x="127.246094" xlink:href="#DejaVuSans-48"/>
      </g>
     </g>
    </g>
    <g id="xtick_5">
     <g id="line2d_5">
      <g>
       <use style="stroke:#000000;stroke-width:0.8;" x="902.055944" xlink:href="#m6b03f54eda" y="384.48"/>
      </g>
     </g>
     <g id="text_5">
      <!-- 800 -->
      <defs>
       <path d="M 31.78125 34.625 
Q 24.75 34.625 20.71875 30.859375 
Q 16.703125 27.09375 16.703125 20.515625 
Q 16.703125 13.921875 20.71875 10.15625 
Q 24.75 6.390625 31.78125 6.390625 
Q 38.8125 6.390625 42.859375 10.171875 
Q 46.921875 13.96875 46.921875 20.515625 
Q 46.921875 27.09375 42.890625 30.859375 
Q 38.875 34.625 31.78125 34.625 
z
M 21.921875 38.8125 
Q 15.578125 40.375 12.03125 44.71875 
Q 8.5 49.078125 8.5 55.328125 
Q 8.5 64.0625 14.71875 69.140625 
Q 20.953125 74.21875 31.78125 74.21875 
Q 42.671875 74.21875 48.875 69.140625 
Q 55.078125 64.0625 55.078125 55.328125 
Q 55.078125 49.078125 51.53125 44.71875 
Q 48 40.375 41.703125 38.8125 
Q 48.828125 37.15625 52.796875 32.3125 
Q 56.78125 27.484375 56.78125 20.515625 
Q 56.78125 9.90625 50.3125 4.234375 
Q 43.84375 -1.421875 31.78125 -1.421875 
Q 19.734375 -1.421875 13.25 4.234375 
Q 6.78125 9.90625 6.78125 20.515625 
Q 6.78125 27.484375 10.78125 32.3125 
Q 14.796875 37.15625 21.921875 38.8125 
z
M 18.3125 54.390625 
Q 18.3125 48.734375 21.84375 45.5625 
Q 25.390625 42.390625 31.78125 42.390625 
Q 38.140625 42.390625 41.71875 45.5625 
Q 45.3125 48.734375 45.3125 54.390625 
Q 45.3125 60.0625 41.71875 63.234375 
Q 38.140625 66.40625 31.78125 66.40625 
Q 25.390625 66.40625 21.84375 63.234375 
Q 18.3125 60.0625 18.3125 54.390625 
z
" id="DejaVuSans-56"/>
      </defs>
      <g transform="translate(892.512194 399.078438)scale(0.1 -0.1)">
       <use xlink:href="#DejaVuSans-56"/>
       <use x="63.623047" xlink:href="#DejaVuSans-48"/>
       <use x="127.246094" xlink:href="#DejaVuSans-48"/>
      </g>
     </g>
    </g>
    <g id="xtick_6">
     <g id="line2d_6">
      <g>
       <use style="stroke:#000000;stroke-width:0.8;" x="1069.888112" xlink:href="#m6b03f54eda" y="384.48"/>
      </g>
     </g>
     <g id="text_6">
      <!-- 1000 -->
      <defs>
       <path d="M 12.40625 8.296875 
L 28.515625 8.296875 
L 28.515625 63.921875 
L 10.984375 60.40625 
L 10.984375 69.390625 
L 28.421875 72.90625 
L 38.28125 72.90625 
L 38.28125 8.296875 
L 54.390625 8.296875 
L 54.390625 0 
L 12.40625 0 
z
" id="DejaVuSans-49"/>
      </defs>
      <g transform="translate(1057.163112 399.078438)scale(0.1 -0.1)">
       <use xlink:href="#DejaVuSans-49"/>
       <use x="63.623047" xlink:href="#DejaVuSans-48"/>
       <use x="127.246094" xlink:href="#DejaVuSans-48"/>
       <use x="190.869141" xlink:href="#DejaVuSans-48"/>
      </g>
     </g>
    </g>
    <g id="xtick_7">
     <g id="line2d_7">
      <g>
       <use style="stroke:#000000;stroke-width:0.8;" x="1237.72028" xlink:href="#m6b03f54eda" y="384.48"/>
      </g>
     </g>
     <g id="text_7">
      <!-- 1200 -->
      <g transform="translate(1224.99528 399.078438)scale(0.1 -0.1)">
       <use xlink:href="#DejaVuSans-49"/>
       <use x="63.623047" xlink:href="#DejaVuSans-50"/>
       <use x="127.246094" xlink:href="#DejaVuSans-48"/>
       <use x="190.869141" xlink:href="#DejaVuSans-48"/>
      </g>
     </g>
    </g>
   </g>
   <g id="matplotlib.axis_2">
    <g id="ytick_1">
     <g id="line2d_8">
      <defs>
       <path d="M 0 0 
L -3.5 0 
" id="m1f4a753049" style="stroke:#000000;stroke-width:0.8;"/>
      </defs>
      <g>
       <use style="stroke:#000000;stroke-width:0.8;" x="180" xlink:href="#m1f4a753049" y="348.545776"/>
      </g>
     </g>
     <g id="text_8">
      <!-- −0.08 -->
      <defs>
       <path d="M 10.59375 35.5 
L 73.1875 35.5 
L 73.1875 27.203125 
L 10.59375 27.203125 
z
" id="DejaVuSans-8722"/>
       <path d="M 10.6875 12.40625 
L 21 12.40625 
L 21 0 
L 10.6875 0 
z
" id="DejaVuSans-46"/>
      </defs>
      <g transform="translate(142.354688 352.344995)scale(0.1 -0.1)">
       <use xlink:href="#DejaVuSans-8722"/>
       <use x="83.789062" xlink:href="#DejaVuSans-48"/>
       <use x="147.412109" xlink:href="#DejaVuSans-46"/>
       <use x="179.199219" xlink:href="#DejaVuSans-48"/>
       <use x="242.822266" xlink:href="#DejaVuSans-56"/>
      </g>
     </g>
    </g>
    <g id="ytick_2">
     <g id="line2d_9">
      <g>
       <use style="stroke:#000000;stroke-width:0.8;" x="180" xlink:href="#m1f4a753049" y="311.395169"/>
      </g>
     </g>
     <g id="text_9">
      <!-- −0.06 -->
      <g transform="translate(142.354688 315.194388)scale(0.1 -0.1)">
       <use xlink:href="#DejaVuSans-8722"/>
       <use x="83.789062" xlink:href="#DejaVuSans-48"/>
       <use x="147.412109" xlink:href="#DejaVuSans-46"/>
       <use x="179.199219" xlink:href="#DejaVuSans-48"/>
       <use x="242.822266" xlink:href="#DejaVuSans-54"/>
      </g>
     </g>
    </g>
    <g id="ytick_3">
     <g id="line2d_10">
      <g>
       <use style="stroke:#000000;stroke-width:0.8;" x="180" xlink:href="#m1f4a753049" y="274.244562"/>
      </g>
     </g>
     <g id="text_10">
      <!-- −0.04 -->
      <g transform="translate(142.354688 278.043781)scale(0.1 -0.1)">
       <use xlink:href="#DejaVuSans-8722"/>
       <use x="83.789062" xlink:href="#DejaVuSans-48"/>
       <use x="147.412109" xlink:href="#DejaVuSans-46"/>
       <use x="179.199219" xlink:href="#DejaVuSans-48"/>
       <use x="242.822266" xlink:href="#DejaVuSans-52"/>
      </g>
     </g>
    </g>
    <g id="ytick_4">
     <g id="line2d_11">
      <g>
       <use style="stroke:#000000;stroke-width:0.8;" x="180" xlink:href="#m1f4a753049" y="237.093956"/>
      </g>
     </g>
     <g id="text_11">
      <!-- −0.02 -->
      <g transform="translate(142.354688 240.893174)scale(0.1 -0.1)">
       <use xlink:href="#DejaVuSans-8722"/>
       <use x="83.789062" xlink:href="#DejaVuSans-48"/>
       <use x="147.412109" xlink:href="#DejaVuSans-46"/>
       <use x="179.199219" xlink:href="#DejaVuSans-48"/>
       <use x="242.822266" xlink:href="#DejaVuSans-50"/>
      </g>
     </g>
    </g>
    <g id="ytick_5">
     <g id="line2d_12">
      <g>
       <use style="stroke:#000000;stroke-width:0.8;" x="180" xlink:href="#m1f4a753049" y="199.943349"/>
      </g>
     </g>
     <g id="text_12">
      <!-- 0.00 -->
      <g transform="translate(150.734375 203.742568)scale(0.1 -0.1)">
       <use xlink:href="#DejaVuSans-48"/>
       <use x="63.623047" xlink:href="#DejaVuSans-46"/>
       <use x="95.410156" xlink:href="#DejaVuSans-48"/>
       <use x="159.033203" xlink:href="#DejaVuSans-48"/>
      </g>
     </g>
    </g>
    <g id="ytick_6">
     <g id="line2d_13">
      <g>
       <use style="stroke:#000000;stroke-width:0.8;" x="180" xlink:href="#m1f4a753049" y="162.792742"/>
      </g>
     </g>
     <g id="text_13">
      <!-- 0.02 -->
      <g transform="translate(150.734375 166.591961)scale(0.1 -0.1)">
       <use xlink:href="#DejaVuSans-48"/>
       <use x="63.623047" xlink:href="#DejaVuSans-46"/>
       <use x="95.410156" xlink:href="#DejaVuSans-48"/>
       <use x="159.033203" xlink:href="#DejaVuSans-50"/>
      </g>
     </g>
    </g>
    <g id="ytick_7">
     <g id="line2d_14">
      <g>
       <use style="stroke:#000000;stroke-width:0.8;" x="180" xlink:href="#m1f4a753049" y="125.642135"/>
      </g>
     </g>
     <g id="text_14">
      <!-- 0.04 -->
      <g transform="translate(150.734375 129.441354)scale(0.1 -0.1)">
       <use xlink:href="#DejaVuSans-48"/>
       <use x="63.623047" xlink:href="#DejaVuSans-46"/>
       <use x="95.410156" xlink:href="#DejaVuSans-48"/>
       <use x="159.033203" xlink:href="#DejaVuSans-52"/>
      </g>
     </g>
    </g>
    <g id="ytick_8">
     <g id="line2d_15">
      <g>
       <use style="stroke:#000000;stroke-width:0.8;" x="180" xlink:href="#m1f4a753049" y="88.491529"/>
      </g>
     </g>
     <g id="text_15">
      <!-- 0.06 -->
      <g transform="translate(150.734375 92.290747)scale(0.1 -0.1)">
       <use xlink:href="#DejaVuSans-48"/>
       <use x="63.623047" xlink:href="#DejaVuSans-46"/>
       <use x="95.410156" xlink:href="#DejaVuSans-48"/>
       <use x="159.033203" xlink:href="#DejaVuSans-54"/>
      </g>
     </g>
    </g>
    <g id="ytick_9">
     <g id="line2d_16">
      <g>
       <use style="stroke:#000000;stroke-width:0.8;" x="180" xlink:href="#m1f4a753049" y="51.340922"/>
      </g>
     </g>
     <g id="text_16">
      <!-- 0.08 -->
      <g transform="translate(150.734375 55.140141)scale(0.1 -0.1)">
       <use xlink:href="#DejaVuSans-48"/>
       <use x="63.623047" xlink:href="#DejaVuSans-46"/>
       <use x="95.410156" xlink:href="#DejaVuSans-48"/>
       <use x="159.033203" xlink:href="#DejaVuSans-56"/>
      </g>
     </g>
    </g>
    <g id="text_17">
     <!-- Height m -->
     <defs>
      <path d="M 9.8125 72.90625 
L 19.671875 72.90625 
L 19.671875 43.015625 
L 55.515625 43.015625 
L 55.515625 72.90625 
L 65.375 72.90625 
L 65.375 0 
L 55.515625 0 
L 55.515625 34.71875 
L 19.671875 34.71875 
L 19.671875 0 
L 9.8125 0 
z
" id="DejaVuSans-72"/>
      <path d="M 56.203125 29.59375 
L 56.203125 25.203125 
L 14.890625 25.203125 
Q 15.484375 15.921875 20.484375 11.0625 
Q 25.484375 6.203125 34.421875 6.203125 
Q 39.59375 6.203125 44.453125 7.46875 
Q 49.3125 8.734375 54.109375 11.28125 
L 54.109375 2.78125 
Q 49.265625 0.734375 44.1875 -0.34375 
Q 39.109375 -1.421875 33.890625 -1.421875 
Q 20.796875 -1.421875 13.15625 6.1875 
Q 5.515625 13.8125 5.515625 26.8125 
Q 5.515625 40.234375 12.765625 48.109375 
Q 20.015625 56 32.328125 56 
Q 43.359375 56 49.78125 48.890625 
Q 56.203125 41.796875 56.203125 29.59375 
z
M 47.21875 32.234375 
Q 47.125 39.59375 43.09375 43.984375 
Q 39.0625 48.390625 32.421875 48.390625 
Q 24.90625 48.390625 20.390625 44.140625 
Q 15.875 39.890625 15.1875 32.171875 
z
" id="DejaVuSans-101"/>
      <path d="M 9.421875 54.6875 
L 18.40625 54.6875 
L 18.40625 0 
L 9.421875 0 
z
M 9.421875 75.984375 
L 18.40625 75.984375 
L 18.40625 64.59375 
L 9.421875 64.59375 
z
" id="DejaVuSans-105"/>
      <path d="M 45.40625 27.984375 
Q 45.40625 37.75 41.375 43.109375 
Q 37.359375 48.484375 30.078125 48.484375 
Q 22.859375 48.484375 18.828125 43.109375 
Q 14.796875 37.75 14.796875 27.984375 
Q 14.796875 18.265625 18.828125 12.890625 
Q 22.859375 7.515625 30.078125 7.515625 
Q 37.359375 7.515625 41.375 12.890625 
Q 45.40625 18.265625 45.40625 27.984375 
z
M 54.390625 6.78125 
Q 54.390625 -7.171875 48.1875 -13.984375 
Q 42 -20.796875 29.203125 -20.796875 
Q 24.46875 -20.796875 20.265625 -20.09375 
Q 16.0625 -19.390625 12.109375 -17.921875 
L 12.109375 -9.1875 
Q 16.0625 -11.328125 19.921875 -12.34375 
Q 23.78125 -13.375 27.78125 -13.375 
Q 36.625 -13.375 41.015625 -8.765625 
Q 45.40625 -4.15625 45.40625 5.171875 
L 45.40625 9.625 
Q 42.625 4.78125 38.28125 2.390625 
Q 33.9375 0 27.875 0 
Q 17.828125 0 11.671875 7.65625 
Q 5.515625 15.328125 5.515625 27.984375 
Q 5.515625 40.671875 11.671875 48.328125 
Q 17.828125 56 27.875 56 
Q 33.9375 56 38.28125 53.609375 
Q 42.625 51.21875 45.40625 46.390625 
L 45.40625 54.6875 
L 54.390625 54.6875 
z
" id="DejaVuSans-103"/>
      <path d="M 54.890625 33.015625 
L 54.890625 0 
L 45.90625 0 
L 45.90625 32.71875 
Q 45.90625 40.484375 42.875 44.328125 
Q 39.84375 48.1875 33.796875 48.1875 
Q 26.515625 48.1875 22.3125 43.546875 
Q 18.109375 38.921875 18.109375 30.90625 
L 18.109375 0 
L 9.078125 0 
L 9.078125 75.984375 
L 18.109375 75.984375 
L 18.109375 46.1875 
Q 21.34375 51.125 25.703125 53.5625 
Q 30.078125 56 35.796875 56 
Q 45.21875 56 50.046875 50.171875 
Q 54.890625 44.34375 54.890625 33.015625 
z
" id="DejaVuSans-104"/>
      <path d="M 18.3125 70.21875 
L 18.3125 54.6875 
L 36.8125 54.6875 
L 36.8125 47.703125 
L 18.3125 47.703125 
L 18.3125 18.015625 
Q 18.3125 11.328125 20.140625 9.421875 
Q 21.96875 7.515625 27.59375 7.515625 
L 36.8125 7.515625 
L 36.8125 0 
L 27.59375 0 
Q 17.1875 0 13.234375 3.875 
Q 9.28125 7.765625 9.28125 18.015625 
L 9.28125 47.703125 
L 2.6875 47.703125 
L 2.6875 54.6875 
L 9.28125 54.6875 
L 9.28125 70.21875 
z
" id="DejaVuSans-116"/>
      <path id="DejaVuSans-32"/>
      <path d="M 52 44.1875 
Q 55.375 50.25 60.0625 53.125 
Q 64.75 56 71.09375 56 
Q 79.640625 56 84.28125 50.015625 
Q 88.921875 44.046875 88.921875 33.015625 
L 88.921875 0 
L 79.890625 0 
L 79.890625 32.71875 
Q 79.890625 40.578125 77.09375 44.375 
Q 74.3125 48.1875 68.609375 48.1875 
Q 61.625 48.1875 57.5625 43.546875 
Q 53.515625 38.921875 53.515625 30.90625 
L 53.515625 0 
L 44.484375 0 
L 44.484375 32.71875 
Q 44.484375 40.625 41.703125 44.40625 
Q 38.921875 48.1875 33.109375 48.1875 
Q 26.21875 48.1875 22.15625 43.53125 
Q 18.109375 38.875 18.109375 30.90625 
L 18.109375 0 
L 9.078125 0 
L 9.078125 54.6875 
L 18.109375 54.6875 
L 18.109375 46.1875 
Q 21.1875 51.21875 25.484375 53.609375 
Q 29.78125 56 35.6875 56 
Q 41.65625 56 45.828125 52.96875 
Q 50 49.953125 52 44.1875 
z
" id="DejaVuSans-109"/>
     </defs>
     <g transform="translate(136.275 241.148281)rotate(-90)scale(0.1 -0.1)">
      <use xlink:href="#DejaVuSans-72"/>
      <use x="75.195312" xlink:href="#DejaVuSans-101"/>
      <use x="136.71875" xlink:href="#DejaVuSans-105"/>
      <use x="164.501953" xlink:href="#DejaVuSans-103"/>
      <use x="227.978516" xlink:href="#DejaVuSans-104"/>
      <use x="291.357422" xlink:href="#DejaVuSans-116"/>
      <use x="330.566406" xlink:href="#DejaVuSans-32"/>
      <use x="362.353516" xlink:href="#DejaVuSans-109"/>
     </g>
    </g>
   </g>
   <g id="line2d_17">
    <path clip-path="url(#p255309f83a)" d="M 230.727273 152.872627 
L 231.566434 143.14919 
L 232.405594 223.54822 
L 233.244755 154.407942 
L 234.083916 195.359199 
L 234.923077 258.385603 
L 235.762238 159.021323 
L 236.601399 152.508283 
L 237.440559 208.562031 
L 238.27972 216.093163 
L 239.118881 153.057082 
L 239.958042 133.868145 
L 240.797203 204.460018 
L 241.636364 160.436956 
L 242.475524 199.126455 
L 243.314685 174.519982 
L 244.153846 132.917622 
L 244.993007 147.853307 
L 245.832168 178.642134 
L 246.671329 272.546391 
L 247.51049 173.982549 
L 248.34965 226.593461 
L 249.188811 163.700709 
L 250.027972 144.468094 
L 250.867133 145.551589 
L 251.706294 173.806311 
L 252.545455 165.503528 
L 253.384615 249.740017 
L 254.223776 193.72461 
L 255.062937 158.023188 
L 255.902098 181.78884 
L 256.741259 213.584179 
L 257.58042 284.956293 
L 258.41958 167.543417 
L 259.258741 215.151536 
L 260.097902 229.44985 
L 260.937063 91.747966 
L 261.776224 150.111739 
L 262.615385 149.70763 
L 263.454545 180.339739 
L 264.293706 191.283143 
L 265.132867 240.190403 
L 265.972028 124.238468 
L 266.811189 159.85816 
L 267.65035 208.158921 
L 268.48951 240.296204 
L 269.328671 157.820177 
L 270.167832 226.378261 
L 271.006993 89.029701 
L 271.846154 91.731096 
L 272.685315 138.866435 
L 273.524476 233.175789 
L 274.363636 229.364508 
L 275.202797 197.726085 
L 276.041958 121.315417 
L 276.881119 174.849401 
L 278.559441 133.888109 
L 279.398601 205.620084 
L 280.237762 225.672614 
L 281.076923 119.432446 
L 281.916084 194.583651 
L 282.755245 300.117821 
L 283.594406 140.49987 
L 284.433566 107.71277 
L 285.272727 108.639004 
L 286.951049 218.032379 
L 287.79021 227.094067 
L 288.629371 286.600025 
L 289.468531 199.446943 
L 290.307692 135.197425 
L 291.146853 186.651402 
L 291.986014 181.87372 
L 292.825175 296.961274 
L 293.664336 252.894596 
L 294.503497 121.988185 
L 295.342657 317.516035 
L 296.181818 300.421878 
L 297.020979 155.698558 
L 297.86014 205.711974 
L 298.699301 297.129619 
L 299.538462 365.444409 
L 300.377622 346.818428 
L 301.216783 83.336659 
L 302.055944 264.403711 
L 302.895105 274.05176 
L 303.734266 230.821328 
L 304.573427 279.40573 
L 305.412587 305.578038 
L 306.251748 190.434598 
L 307.090909 143.597883 
L 307.93007 123.583402 
L 308.769231 92.134529 
L 309.608392 170.187647 
L 310.447552 292.627371 
L 311.286713 173.371642 
L 312.125874 89.470675 
L 312.965035 156.577045 
L 313.804196 177.37881 
L 314.643357 190.619946 
L 315.482517 154.693859 
L 317.160839 337.356572 
L 318 270.196475 
L 318.839161 119.432342 
L 319.678322 291.43147 
L 320.517483 215.42767 
L 321.356643 302.750232 
L 322.195804 86.220177 
L 323.034965 232.130734 
L 323.874126 215.615544 
L 324.713287 128.020977 
L 325.552448 106.432171 
L 326.391608 205.303083 
L 327.230769 252.746048 
L 328.06993 155.973642 
L 328.909091 207.029509 
L 329.748252 205.313063 
L 330.587413 312.887859 
L 331.426573 150.600494 
L 332.265734 244.649399 
L 333.104895 323.493904 
L 333.944056 350.119399 
L 334.783217 339.650111 
L 335.622378 293.878464 
L 336.461538 131.687925 
L 337.300699 83.694235 
L 338.13986 275.997785 
L 338.979021 299.830467 
L 341.496503 94.349231 
L 342.335664 134.447675 
L 343.174825 229.172915 
L 344.013986 180.458193 
L 344.853147 339.043338 
L 345.692308 305.81871 
L 346.531469 66.96 
L 347.370629 193.144852 
L 349.048951 110.255908 
L 349.888112 200.247113 
L 350.727273 200.595676 
L 351.566434 174.377601 
L 352.405594 275.440593 
L 353.244755 106.84487 
L 354.083916 220.678273 
L 354.923077 214.017088 
L 355.762238 103.939395 
L 356.601399 177.596768 
L 357.440559 116.044181 
L 358.27972 179.69058 
L 359.118881 229.320698 
L 359.958042 119.735113 
L 361.636364 211.646626 
L 362.475524 140.742971 
L 363.314685 323.0459 
L 364.153846 110.106557 
L 364.993007 139.308793 
L 365.832168 207.91972 
L 366.671329 173.132975 
L 367.51049 256.97418 
L 368.34965 199.913442 
L 369.188811 205.175236 
L 370.027972 234.601342 
L 370.867133 202.059008 
L 371.706294 81.38507 
L 372.545455 214.031233 
L 373.384615 129.914405 
L 375.062937 184.951502 
L 375.902098 160.67066 
L 376.741259 214.103251 
L 377.58042 248.755826 
L 378.41958 140.313969 
L 379.258741 253.142575 
L 380.097902 238.146103 
L 380.937063 123.455115 
L 381.776224 180.233384 
L 382.615385 219.559145 
L 383.454545 169.458071 
L 384.293706 146.170911 
L 385.132867 241.208689 
L 385.972028 320.349764 
L 386.811189 183.797609 
L 387.65035 211.918758 
L 388.48951 229.387094 
L 389.328671 132.515953 
L 390.167832 210.890489 
L 391.006993 168.211275 
L 391.846154 231.481643 
L 392.685315 216.33336 
L 393.524476 180.726873 
L 394.363636 216.633841 
L 395.202797 173.533255 
L 396.041958 174.966199 
L 396.881119 188.165083 
L 397.72028 151.14394 
L 398.559441 203.506826 
L 399.398601 200.166502 
L 400.237762 193.4254 
L 401.076923 236.513771 
L 401.916084 192.043337 
L 402.755245 200.640972 
L 403.594406 239.317493 
L 404.433566 190.212584 
L 405.272727 179.887455 
L 406.111888 243.689884 
L 406.951049 352.437338 
L 408.629371 160.252179 
L 409.468531 359.367488 
L 410.307692 206.141931 
L 411.146853 317.747144 
L 411.986014 163.636873 
L 412.825175 275.843708 
L 413.664336 96.027783 
L 414.503497 252.987339 
L 415.342657 145.410434 
L 416.181818 142.917462 
L 417.020979 230.643934 
L 417.86014 277.668691 
L 418.699301 167.24047 
L 419.538462 191.967405 
L 420.377622 341.71769 
L 421.216783 196.757487 
L 422.055944 284.577328 
L 422.895105 114.58188 
L 423.734266 201.219537 
L 424.573427 122.955627 
L 425.412587 186.320381 
L 426.251748 167.839905 
L 427.090909 225.841372 
L 427.93007 182.360057 
L 428.769231 125.276742 
L 429.608392 188.630781 
L 430.447552 220.427545 
L 431.286713 182.901865 
L 432.125874 170.916939 
L 432.965035 222.641757 
L 433.804196 211.985653 
L 434.643357 340.370328 
L 435.482517 220.204266 
L 436.321678 324.186179 
L 437.160839 145.832278 
L 438 120.570241 
L 439.678322 292.529262 
L 440.517483 154.855119 
L 441.356643 153.479656 
L 442.195804 229.056118 
L 443.034965 231.838264 
L 443.874126 201.957225 
L 444.713287 115.211233 
L 445.552448 224.007977 
L 446.391608 217.970581 
L 447.230769 96.85368 
L 448.06993 119.33399 
L 448.909091 158.014223 
L 449.748252 204.389014 
L 450.587413 168.665407 
L 451.426573 232.290264 
L 452.265734 203.022821 
L 453.104895 213.689858 
L 453.944056 239.750765 
L 454.783217 116.902241 
L 455.622378 208.608269 
L 456.461538 227.263269 
L 457.300699 137.488577 
L 458.979021 239.05027 
L 459.818182 215.431851 
L 460.657343 155.619457 
L 461.496503 215.499102 
L 462.335664 175.329654 
L 463.174825 175.351929 
L 464.013986 211.698807 
L 464.853147 235.402161 
L 465.692308 194.261526 
L 466.531469 303.980482 
L 467.370629 230.318581 
L 468.20979 176.387066 
L 469.048951 208.714144 
L 469.888112 174.728868 
L 470.727273 207.776057 
L 471.566434 192.484181 
L 472.405594 214.15561 
L 473.244755 131.773503 
L 474.083916 205.145898 
L 474.923077 188.954525 
L 475.762238 279.210563 
L 476.601399 265.888951 
L 477.440559 199.382539 
L 478.27972 217.38635 
L 479.118881 200.271967 
L 479.958042 208.479747 
L 480.797203 170.005963 
L 481.636364 178.658823 
L 482.475524 254.345617 
L 483.314685 184.387935 
L 484.153846 174.50648 
L 484.993007 170.326113 
L 485.832168 220.05701 
L 486.671329 207.335853 
L 487.51049 183.086519 
L 488.34965 214.297725 
L 489.188811 210.14684 
L 490.027972 108.552112 
L 490.867133 192.185719 
L 491.706294 183.036615 
L 492.545455 186.015442 
L 493.384615 204.719927 
L 494.223776 202.113964 
L 495.062937 208.559895 
L 495.902098 311.936831 
L 496.741259 196.688831 
L 497.58042 136.329366 
L 498.41958 223.834353 
L 499.258741 180.965149 
L 500.937063 224.156799 
L 501.776224 153.043367 
L 502.615385 206.291518 
L 503.454545 208.74656 
L 504.293706 143.66805 
L 505.132867 178.840914 
L 505.972028 205.742077 
L 506.811189 184.812713 
L 507.65035 213.792761 
L 508.48951 168.415781 
L 509.328671 202.165399 
L 510.167832 203.631915 
L 511.006993 206.274439 
L 511.846154 195.719272 
L 512.685315 216.875996 
L 513.524476 175.863831 
L 514.363636 168.518205 
L 515.202797 193.676716 
L 516.041958 223.678077 
L 516.881119 211.357112 
L 517.72028 180.252386 
L 518.559441 204.175183 
L 519.398601 202.735531 
L 520.237762 212.350778 
L 521.076923 203.336441 
L 521.916084 172.103832 
L 522.755245 301.117246 
L 523.594406 213.430624 
L 524.433566 214.987698 
L 525.272727 207.995171 
L 526.111888 204.241704 
L 526.951049 181.150602 
L 527.79021 217.902425 
L 528.629371 180.981054 
L 529.468531 179.088974 
L 530.307692 215.039754 
L 531.146853 229.149256 
L 532.825175 139.271703 
L 533.664336 193.260939 
L 534.503497 193.951588 
L 535.342657 205.503659 
L 536.181818 197.437496 
L 537.020979 231.253828 
L 537.86014 194.149816 
L 538.699301 184.556203 
L 539.538462 209.696317 
L 540.377622 192.200308 
L 541.216783 197.016773 
L 542.055944 197.969947 
L 543.734266 208.782835 
L 544.573427 208.859159 
L 545.412587 189.820825 
L 546.251748 165.774575 
L 547.090909 208.960088 
L 547.93007 190.353596 
L 548.769231 217.069447 
L 549.608392 248.351098 
L 550.447552 199.674971 
L 551.286713 201.077333 
L 552.125874 182.057163 
L 552.965035 205.759904 
L 553.804196 196.759159 
L 554.643357 194.539476 
L 555.482517 210.14579 
L 556.321678 228.89364 
L 557.160839 184.280904 
L 558 200.958542 
L 558.839161 194.256936 
L 559.678322 196.723666 
L 560.517483 149.338416 
L 561.356643 197.933137 
L 562.195804 200.926358 
L 563.034965 200.884852 
L 564.713287 222.266935 
L 565.552448 173.997939 
L 566.391608 211.12332 
L 567.230769 192.844486 
L 568.06993 210.326672 
L 568.909091 183.079936 
L 569.748252 200.441321 
L 570.587413 213.214979 
L 571.426573 201.6525 
L 572.265734 214.454767 
L 573.104895 204.807139 
L 573.944056 185.588884 
L 574.783217 225.590064 
L 575.622378 194.067176 
L 576.461538 206.810341 
L 577.300699 212.87106 
L 578.13986 182.504199 
L 578.979021 222.792101 
L 579.818182 182.914781 
L 580.657343 196.658711 
L 581.496503 187.329739 
L 582.335664 184.811147 
L 583.174825 197.241385 
L 584.013986 216.480491 
L 584.853147 204.30584 
L 585.692308 204.557139 
L 586.531469 178.327109 
L 587.370629 210.128142 
L 588.20979 216.308275 
L 589.048951 181.858081 
L 589.888112 201.211673 
L 590.727273 204.831477 
L 591.566434 180.425244 
L 592.405594 200.896345 
L 593.244755 232.702313 
L 594.083916 199.570715 
L 594.923077 218.675651 
L 595.762238 188.801273 
L 596.601399 217.587798 
L 597.440559 212.961012 
L 598.27972 302.104022 
L 599.118881 199.344271 
L 599.958042 220.49274 
L 600.797203 187.859965 
L 601.636364 179.016333 
L 602.475524 216.398039 
L 603.314685 198.170612 
L 604.153846 191.134997 
L 605.832168 220.264925 
L 606.671329 190.989181 
L 607.51049 205.015312 
L 608.34965 210.756664 
L 609.188811 197.969235 
L 610.027972 197.269744 
L 610.867133 198.807283 
L 611.706294 173.157952 
L 612.545455 207.031839 
L 613.384615 217.676291 
L 614.223776 203.166804 
L 615.062937 209.355903 
L 615.902098 213.391715 
L 616.741259 207.037728 
L 617.58042 229.016727 
L 618.41958 267.49115 
L 619.258741 162.383867 
L 620.097902 221.901125 
L 620.937063 201.603842 
L 621.776224 163.067523 
L 623.454545 225.631384 
L 624.293706 190.482137 
L 625.132867 184.522683 
L 625.972028 209.269261 
L 626.811189 176.496088 
L 627.65035 211.007696 
L 628.48951 185.685899 
L 629.328671 189.746405 
L 630.167832 209.055928 
L 631.006993 191.175934 
L 632.685315 216.520451 
L 633.524476 194.77035 
L 634.363636 214.391448 
L 635.202797 188.016047 
L 636.041958 174.339279 
L 636.881119 201.01663 
L 638.559441 187.887417 
L 639.398601 211.135774 
L 640.237762 199.56737 
L 641.076923 195.307142 
L 641.916084 211.057938 
L 642.755245 192.321358 
L 643.594406 166.72862 
L 644.433566 185.671915 
L 645.272727 212.359123 
L 646.111888 210.050591 
L 646.951049 203.679435 
L 647.79021 180.063106 
L 648.629371 212.063737 
L 649.468531 200.13309 
L 650.307692 191.489768 
L 651.146853 216.065569 
L 651.986014 195.979928 
L 652.825175 193.060149 
L 653.664336 211.764492 
L 654.503497 200.143534 
L 655.342657 183.95522 
L 656.181818 216.589035 
L 657.020979 202.96685 
L 657.86014 214.426354 
L 658.699301 234.124524 
L 659.538462 186.56387 
L 660.377622 165.058786 
L 661.216783 198.910934 
L 662.055944 198.214076 
L 662.895105 232.014993 
L 663.734266 194.912109 
L 664.573427 219.432775 
L 665.412587 187.246619 
L 666.251748 222.325344 
L 667.090909 218.819215 
L 667.93007 219.907815 
L 668.769231 202.777589 
L 669.608392 194.900367 
L 671.286713 229.336406 
L 672.125874 190.747596 
L 672.965035 198.299135 
L 673.804196 177.046651 
L 674.643357 192.071429 
L 675.482517 199.822975 
L 676.321678 210.380881 
L 677.160839 202.315164 
L 678 220.063816 
L 678.839161 230.061207 
L 679.678322 185.633166 
L 680.517483 232.065145 
L 681.356643 198.800291 
L 682.195804 197.616741 
L 683.034965 195.746029 
L 683.874126 162.033277 
L 684.713287 192.062658 
L 685.552448 209.248125 
L 686.391608 212.675074 
L 687.230769 213.350796 
L 688.06993 230.942352 
L 688.909091 180.884609 
L 689.748252 198.468844 
L 690.587413 218.814465 
L 691.426573 195.61523 
L 692.265734 237.057511 
L 693.104895 181.201361 
L 693.944056 183.64409 
L 694.783217 194.522361 
L 695.622378 164.756908 
L 696.461538 205.206797 
L 697.300699 198.504728 
L 698.13986 221.23709 
L 698.979021 178.93622 
L 699.818182 205.105371 
L 700.657343 173.366303 
L 701.496503 206.294453 
L 702.335664 193.426787 
L 703.174825 195.25964 
L 704.013986 196.158889 
L 704.853147 226.726869 
L 705.692308 190.595679 
L 706.531469 185.709437 
L 707.370629 201.320217 
L 708.20979 211.915698 
L 709.048951 194.447389 
L 709.888112 195.313743 
L 710.727273 181.634413 
L 711.566434 206.499371 
L 712.405594 192.714309 
L 713.244755 197.546378 
L 714.083916 203.539224 
L 714.923077 232.520768 
L 715.762238 219.865507 
L 716.601399 196.986137 
L 717.440559 208.145898 
L 718.27972 234.705607 
L 719.118881 294.800761 
L 719.958042 187.540598 
L 720.797203 180.693977 
L 721.636364 195.709593 
L 722.475524 198.249302 
L 723.314685 204.020757 
L 724.153846 198.125957 
L 724.993007 207.403886 
L 725.832168 132.682444 
L 726.671329 208.600922 
L 727.51049 197.554579 
L 728.34965 194.840304 
L 729.188811 217.269642 
L 730.027972 191.015547 
L 730.867133 214.412424 
L 731.706294 186.106017 
L 732.545455 167.787739 
L 733.384615 199.279351 
L 734.223776 209.826014 
L 735.062937 212.156216 
L 735.902098 145.202846 
L 736.741259 194.671574 
L 737.58042 172.450704 
L 739.258741 211.696014 
L 740.097902 192.377827 
L 740.937063 214.464659 
L 741.776224 207.670609 
L 742.615385 211.89611 
L 743.454545 182.213566 
L 744.293706 169.255697 
L 745.132867 211.273014 
L 745.972028 192.803638 
L 746.811189 189.082834 
L 747.65035 184.003417 
L 748.48951 181.649375 
L 749.328671 198.424686 
L 750.167832 182.502777 
L 751.006993 212.12606 
L 751.846154 204.964554 
L 752.685315 188.996815 
L 753.524476 211.599569 
L 754.363636 196.04983 
L 755.202797 208.973146 
L 756.041958 203.51163 
L 756.881119 180.968333 
L 757.72028 214.158136 
L 758.559441 187.723152 
L 759.398601 219.473882 
L 760.237762 206.231758 
L 761.076923 222.644586 
L 762.755245 184.311273 
L 763.594406 200.153639 
L 764.433566 187.67485 
L 765.272727 177.199048 
L 766.111888 172.79555 
L 766.951049 215.356079 
L 767.79021 201.467242 
L 768.629371 174.446167 
L 769.468531 241.779659 
L 770.307692 205.567173 
L 771.146853 208.681799 
L 771.986014 205.461779 
L 772.825175 182.39135 
L 773.664336 181.617101 
L 774.503497 197.076978 
L 775.342657 188.642025 
L 776.181818 202.409367 
L 777.020979 214.039701 
L 777.86014 239.352514 
L 778.699301 186.131902 
L 779.538462 197.002754 
L 780.377622 224.91871 
L 781.216783 214.622055 
L 782.055944 182.381138 
L 782.895105 191.139071 
L 783.734266 192.879196 
L 784.573427 182.056257 
L 785.412587 183.656402 
L 786.251748 194.265102 
L 787.090909 209.413991 
L 787.93007 227.991591 
L 788.769231 189.820843 
L 789.608392 243.813763 
L 790.447552 173.760269 
L 791.286713 202.730015 
L 792.125874 203.524439 
L 792.965035 258.674582 
L 793.804196 212.487094 
L 794.643357 222.61725 
L 795.482517 165.16411 
L 796.321678 206.663671 
L 797.160839 217.6937 
L 798 163.932257 
L 798.839161 206.994194 
L 799.678322 240.42574 
L 800.517483 172.765749 
L 801.356643 207.574093 
L 802.195804 184.085789 
L 803.034965 174.20766 
L 803.874126 218.651658 
L 804.713287 192.301272 
L 805.552448 212.028013 
L 806.391608 210.678543 
L 807.230769 203.410666 
L 808.06993 181.312127 
L 808.909091 216.561458 
L 809.748252 192.304421 
L 810.587413 210.737272 
L 811.426573 224.507335 
L 812.265734 196.758963 
L 813.104895 214.285502 
L 813.944056 200.177497 
L 814.783217 191.821411 
L 816.461538 172.956896 
L 817.300699 200.739997 
L 818.13986 192.894586 
L 818.979021 195.055701 
L 819.818182 202.586442 
L 820.657343 212.827489 
L 821.496503 186.2951 
L 823.174825 255.168604 
L 824.013986 203.181072 
L 824.853147 186.593954 
L 825.692308 204.240547 
L 826.531469 210.481472 
L 827.370629 156.873194 
L 828.20979 200.342545 
L 829.048951 152.187206 
L 829.888112 202.442886 
L 830.727273 193.829683 
L 831.566434 217.355136 
L 832.405594 217.87081 
L 833.244755 249.278786 
L 834.083916 240.27231 
L 834.923077 194.427854 
L 835.762238 215.393405 
L 836.601399 299.131488 
L 837.440559 178.696095 
L 838.27972 171.179445 
L 839.118881 255.303852 
L 839.958042 135.137237 
L 840.797203 199.368538 
L 841.636364 201.982755 
L 842.475524 164.975845 
L 843.314685 209.841207 
L 844.153846 132.802766 
L 844.993007 184.484967 
L 845.832168 189.193672 
L 846.671329 161.577363 
L 847.51049 218.457941 
L 848.34965 175.120519 
L 849.188811 197.957226 
L 850.027972 212.694679 
L 850.867133 191.671558 
L 851.706294 134.435364 
L 853.384615 209.544755 
L 854.223776 231.079407 
L 855.062937 192.457904 
L 855.902098 227.464032 
L 856.741259 177.913911 
L 857.58042 178.071308 
L 858.41958 234.521369 
L 859.258741 212.814733 
L 860.097902 293.176094 
L 860.937063 141.193986 
L 861.776224 133.095164 
L 862.615385 209.549754 
L 863.454545 192.817497 
L 864.293706 141.16796 
L 865.132867 200.158372 
L 865.972028 227.10846 
L 866.811189 235.318836 
L 867.65035 195.048745 
L 868.48951 206.126204 
L 869.328671 200.844021 
L 870.167832 207.779953 
L 871.006993 202.28193 
L 871.846154 185.568424 
L 872.685315 255.475997 
L 873.524476 159.829837 
L 874.363636 201.961673 
L 875.202797 238.180138 
L 876.041958 230.950635 
L 876.881119 142.926322 
L 877.72028 187.041399 
L 878.559441 238.872243 
L 879.398601 174.582304 
L 880.237762 204.089252 
L 881.076923 173.939977 
L 881.916084 212.07411 
L 882.755245 161.582131 
L 883.594406 195.400652 
L 884.433566 201.003731 
L 885.272727 190.384499 
L 886.111888 230.394993 
L 886.951049 203.790469 
L 887.79021 172.521389 
L 888.629371 211.270416 
L 889.468531 215.504243 
L 891.146853 173.922257 
L 891.986014 186.459276 
L 892.825175 229.677693 
L 893.664336 207.56075 
L 894.503497 234.145588 
L 895.342657 207.807654 
L 896.181818 223.98805 
L 897.020979 249.616432 
L 897.86014 181.09063 
L 898.699301 236.364469 
L 899.538462 207.13638 
L 900.377622 152.843252 
L 901.216783 202.985851 
L 902.055944 213.657051 
L 902.895105 220.189207 
L 903.734266 224.796957 
L 904.573427 173.377655 
L 905.412587 229.084351 
L 906.251748 213.80404 
L 907.090909 235.088692 
L 907.93007 306.880954 
L 908.769231 179.965131 
L 909.608392 249.963241 
L 910.447552 165.787864 
L 911.286713 213.236595 
L 912.125874 168.130735 
L 912.965035 222.128023 
L 913.804196 203.030755 
L 914.643357 124.061431 
L 915.482517 221.157796 
L 916.321678 178.016032 
L 917.160839 247.921148 
L 918 239.013408 
L 918.839161 189.484236 
L 919.678322 150.989621 
L 920.517483 186.968243 
L 921.356643 234.890543 
L 922.195804 138.596513 
L 923.034965 195.53718 
L 923.874126 201.722312 
L 924.713287 194.520937 
L 925.552448 215.693575 
L 926.391608 220.530199 
L 927.230769 177.174853 
L 928.06993 186.763894 
L 928.909091 190.042448 
L 929.748252 196.854323 
L 930.587413 229.758153 
L 931.426573 213.301301 
L 932.265734 240.633647 
L 933.104895 198.013927 
L 933.944056 223.024763 
L 934.783217 238.21773 
L 935.622378 234.976003 
L 936.461538 251.107831 
L 937.300699 150.127288 
L 938.13986 239.719598 
L 938.979021 135.983934 
L 939.818182 182.454705 
L 940.657343 175.822768 
L 941.496503 215.53052 
L 942.335664 248.84987 
L 943.174825 218.336357 
L 944.013986 237.452555 
L 944.853147 198.156148 
L 945.692308 172.410763 
L 946.531469 222.152575 
L 947.370629 179.362192 
L 948.20979 206.847667 
L 949.048951 144.425859 
L 949.888112 200.34137 
L 951.566434 229.125787 
L 952.405594 228.890812 
L 953.244755 188.955023 
L 954.083916 184.747953 
L 954.923077 232.180529 
L 955.762238 209.515169 
L 956.601399 196.862418 
L 957.440559 244.790581 
L 958.27972 194.133644 
L 959.118881 212.41858 
L 959.958042 192.597937 
L 960.797203 232.934249 
L 961.636364 222.765404 
L 962.475524 162.071083 
L 963.314685 179.578354 
L 964.153846 206.320108 
L 964.993007 168.485204 
L 965.832168 206.93317 
L 966.671329 180.202766 
L 967.51049 226.601833 
L 968.34965 185.378754 
L 969.188811 275.845521 
L 970.027972 210.536874 
L 970.867133 198.894477 
L 971.706294 316.950199 
L 972.545455 190.330966 
L 973.384615 226.5818 
L 974.223776 249.760977 
L 975.062937 176.783183 
L 975.902098 240.400496 
L 976.741259 130.792539 
L 977.58042 103.254096 
L 978.41958 232.278317 
L 979.258741 211.387036 
L 980.097902 215.13225 
L 980.937063 215.1262 
L 981.776224 218.633504 
L 982.615385 185.876103 
L 983.454545 176.914961 
L 984.293706 184.274249 
L 985.132867 110.484187 
L 985.972028 199.116723 
L 986.811189 199.626615 
L 987.65035 204.542053 
L 988.48951 222.276168 
L 989.328671 209.387536 
L 990.167832 135.405879 
L 991.006993 168.36456 
L 991.846154 208.389938 
L 992.685315 173.777366 
L 993.524476 202.54739 
L 994.363636 211.697864 
L 995.202797 251.989892 
L 996.041958 189.39021 
L 996.881119 212.358411 
L 997.72028 261.928706 
L 998.559441 205.876132 
L 1000.237762 163.722752 
L 1001.076923 239.224791 
L 1001.916084 176.354899 
L 1002.755245 139.301396 
L 1003.594406 191.87884 
L 1004.433566 195.874641 
L 1005.272727 248.352032 
L 1006.111888 206.485885 
L 1006.951049 219.571101 
L 1007.79021 184.221855 
L 1008.629371 199.041022 
L 1009.468531 186.387168 
L 1010.307692 252.342656 
L 1011.146853 215.93235 
L 1011.986014 208.293207 
L 1012.825175 235.174007 
L 1013.664336 186.254999 
L 1014.503497 211.366168 
L 1015.342657 179.42761 
L 1016.181818 215.679128 
L 1017.020979 213.625579 
L 1017.86014 223.440398 
L 1018.699301 196.296983 
L 1019.538462 232.265536 
L 1020.377622 221.51529 
L 1021.216783 153.050072 
L 1022.055944 165.781121 
L 1022.895105 206.608466 
L 1023.734266 201.398782 
L 1024.573427 205.136985 
L 1025.412587 196.151541 
L 1026.251748 222.854013 
L 1027.090909 169.710029 
L 1027.93007 198.432426 
L 1028.769231 223.248406 
L 1029.608392 173.076613 
L 1030.447552 192.217725 
L 1031.286713 232.801554 
L 1032.125874 201.589893 
L 1032.965035 179.113259 
L 1033.804196 199.458845 
L 1034.643357 208.383408 
L 1035.482517 223.757086 
L 1036.321678 219.017692 
L 1037.160839 204.214323 
L 1038 134.460338 
L 1038.839161 134.454615 
L 1039.678322 177.121178 
L 1040.517483 164.529149 
L 1041.356643 194.101246 
L 1042.195804 205.535274 
L 1043.034965 123.663443 
L 1043.874126 209.877519 
L 1044.713287 196.851957 
L 1045.552448 194.456676 
L 1046.391608 142.397695 
L 1047.230769 97.812991 
L 1048.06993 187.103366 
L 1048.909091 231.846966 
L 1049.748252 181.29987 
L 1051.426573 138.526028 
L 1052.265734 134.73464 
L 1053.944056 208.769492 
L 1054.783217 241.573755 
L 1055.622378 117.636692 
L 1056.461538 150.887249 
L 1057.300699 283.286757 
L 1058.13986 247.832996 
L 1058.979021 185.951572 
L 1059.818182 150.293599 
L 1060.657343 197.973808 
L 1061.496503 222.737597 
L 1062.335664 182.390407 
L 1063.174825 210.823505 
L 1064.853147 242.963387 
L 1065.692308 191.306271 
L 1066.531469 212.362645 
L 1067.370629 123.749914 
L 1068.20979 126.083069 
L 1069.048951 207.04271 
L 1069.888112 185.097175 
L 1070.727273 190.404514 
L 1071.566434 239.241562 
L 1072.405594 198.331034 
L 1073.244755 215.444376 
L 1074.083916 238.177505 
L 1074.923077 194.857687 
L 1075.762238 231.5242 
L 1076.601399 165.810444 
L 1077.440559 178.156742 
L 1078.27972 213.884777 
L 1079.118881 187.683674 
L 1079.958042 219.744154 
L 1080.797203 214.945764 
L 1081.636364 161.27698 
L 1082.475524 252.756279 
L 1083.314685 213.469 
L 1084.153846 247.226994 
L 1084.993007 190.561537 
L 1085.832168 347.38764 
L 1086.671329 188.424565 
L 1087.51049 227.469911 
L 1088.34965 215.474265 
L 1089.188811 118.549675 
L 1090.027972 237.242423 
L 1090.867133 210.410788 
L 1091.706294 157.575353 
L 1092.545455 193.892095 
L 1093.384615 266.460641 
L 1094.223776 211.80139 
L 1095.062937 169.083746 
L 1096.741259 246.586553 
L 1097.58042 209.542993 
L 1098.41958 137.929171 
L 1099.258741 183.496442 
L 1100.097902 208.915308 
L 1100.937063 215.630594 
L 1101.776224 201.919384 
L 1102.615385 218.322587 
L 1103.454545 216.015185 
L 1104.293706 206.435839 
L 1105.132867 244.897434 
L 1105.972028 179.899659 
L 1106.811189 127.256031 
L 1107.65035 216.740864 
L 1108.48951 192.469878 
L 1109.328671 232.416209 
L 1110.167832 214.775896 
L 1111.006993 182.686166 
L 1111.846154 181.773184 
L 1112.685315 164.5363 
L 1113.524476 167.951383 
L 1114.363636 211.328842 
L 1115.202797 219.567694 
L 1116.041958 192.40647 
L 1116.881119 174.399305 
L 1117.72028 216.664585 
L 1118.559441 130.324827 
L 1119.398601 197.159707 
L 1120.237762 230.872424 
L 1121.076923 213.919682 
L 1121.916084 181.764821 
L 1122.755245 249.245782 
L 1123.594406 186.221391 
L 1124.433566 208.93856 
L 1125.272727 195.319329 
L 1126.111888 195.195859 
L 1126.951049 163.969123 
L 1127.79021 202.584147 
L 1128.629371 193.993077 
L 1129.468531 230.78596 
L 1130.307692 178.620162 
L 1131.146853 231.276023 
L 1131.986014 176.711502 
L 1132.825175 177.204209 
L 1133.664336 185.166507 
L 1134.503497 204.948703 
L 1136.181818 183.805046 
L 1137.020979 211.393263 
L 1137.86014 195.82705 
L 1138.699301 220.160706 
L 1139.538462 230.215295 
L 1140.377622 228.400001 
L 1141.216783 209.37937 
L 1142.055944 171.812647 
L 1142.895105 218.555606 
L 1143.734266 160.272281 
L 1144.573427 218.700673 
L 1145.412587 184.955007 
L 1146.251748 176.842979 
L 1147.090909 185.353135 
L 1147.93007 134.964912 
L 1148.769231 212.820284 
L 1149.608392 201.971939 
L 1150.447552 195.754818 
L 1151.286713 197.525687 
L 1152.125874 216.914024 
L 1152.965035 168.241875 
L 1153.804196 203.2862 
L 1154.643357 204.892376 
L 1155.482517 211.357663 
L 1156.321678 152.216491 
L 1157.160839 190.792234 
L 1158 189.89738 
L 1158.839161 178.090185 
L 1159.678322 196.435148 
L 1160.517483 154.949624 
L 1161.356643 208.431338 
L 1162.195804 223.381704 
L 1163.034965 192.277877 
L 1163.874126 195.816873 
L 1164.713287 239.361303 
L 1165.552448 198.482116 
L 1166.391608 170.863262 
L 1167.230769 200.542338 
L 1168.06993 222.527209 
L 1168.909091 188.606176 
L 1169.748252 224.003768 
L 1170.587413 254.203919 
L 1171.426573 172.786031 
L 1172.265734 222.470074 
L 1173.104895 212.463467 
L 1173.944056 193.2329 
L 1174.783217 148.937456 
L 1175.622378 200.099376 
L 1176.461538 185.957515 
L 1177.300699 220.394792 
L 1178.13986 204.9985 
L 1178.979021 197.823811 
L 1179.818182 210.730564 
L 1180.657343 204.585409 
L 1181.496503 174.68697 
L 1182.335664 218.419805 
L 1184.013986 175.829493 
L 1184.853147 167.700937 
L 1185.692308 219.38594 
L 1186.531469 202.696746 
L 1187.370629 214.028581 
L 1188.20979 182.505142 
L 1189.048951 185.717336 
L 1189.888112 185.333725 
L 1190.727273 211.07797 
L 1191.566434 186.243808 
L 1192.405594 204.664099 
L 1193.244755 241.290066 
L 1194.083916 201.819612 
L 1194.923077 188.441022 
L 1195.762238 188.025831 
L 1196.601399 219.478044 
L 1197.440559 191.392042 
L 1198.27972 148.506291 
L 1199.118881 210.052405 
L 1199.958042 206.932032 
L 1200.797203 236.157168 
L 1201.636364 219.881004 
L 1202.475524 180.594186 
L 1203.314685 205.13179 
L 1204.153846 200.597882 
L 1204.993007 209.820285 
L 1205.832168 194.76649 
L 1206.671329 193.434633 
L 1207.51049 201.728379 
L 1208.34965 159.935711 
L 1209.188811 181.507437 
L 1210.027972 206.107149 
L 1210.867133 185.96657 
L 1211.706294 216.825896 
L 1212.545455 196.992079 
L 1213.384615 162.792528 
L 1214.223776 173.573641 
L 1215.062937 177.730148 
L 1215.902098 209.428865 
L 1216.741259 201.99528 
L 1218.41958 236.733082 
L 1219.258741 164.378352 
L 1220.097902 184.693691 
L 1220.937063 190.324668 
L 1221.776224 226.931617 
L 1222.615385 176.130198 
L 1223.454545 191.767166 
L 1224.293706 164.1795 
L 1225.132867 196.629124 
L 1225.972028 175.753098 
L 1226.811189 166.696117 
L 1227.65035 229.878351 
L 1228.48951 149.643335 
L 1229.328671 208.623481 
L 1230.167832 169.82994 
L 1231.006993 211.952063 
L 1231.846154 198.320182 
L 1232.685315 194.421645 
L 1233.524476 197.489055 
L 1234.363636 152.200496 
L 1235.202797 214.140647 
L 1236.041958 174.569139 
L 1236.881119 261.578438 
L 1237.72028 327.106905 
L 1238.559441 110.033989 
L 1239.398601 143.774138 
L 1240.237762 130.387237 
L 1241.076923 196.666307 
L 1241.916084 175.634557 
L 1242.755245 212.440996 
L 1243.594406 147.892501 
L 1244.433566 218.364725 
L 1245.272727 195.786717 
L 1245.272727 195.786717 
" style="fill:none;stroke:#ff0000;stroke-dasharray:18.5,8;stroke-dashoffset:0;stroke-width:5;"/>
   </g>
   <g id="line2d_18">
    <path clip-path="url(#p255309f83a)" d="M 247.51049 181.640942 
L 248.34965 212.819092 
L 249.188811 170.181436 
L 250.027972 141.931374 
L 250.867133 144.751434 
L 251.706294 176.972657 
L 252.545455 184.326234 
L 253.384615 224.011081 
L 254.223776 200.686979 
L 255.062937 165.249809 
L 255.902098 172.479899 
L 256.741259 203.375315 
L 257.58042 249.396703 
L 258.41958 169.599402 
L 259.258741 216.72987 
L 260.097902 204.062957 
L 260.937063 125.363309 
L 261.776224 133.920611 
L 262.615385 149.811708 
L 263.454545 210.652854 
L 264.293706 204.081602 
L 265.132867 193.231228 
L 265.972028 149.609479 
L 266.811189 172.940492 
L 267.65035 193.00731 
L 268.48951 230.955099 
L 269.328671 185.552822 
L 270.167832 231.12769 
L 271.006993 114.972021 
L 271.846154 88.768387 
L 273.524476 228.849564 
L 274.363636 215.749244 
L 275.202797 206.191497 
L 276.041958 109.159446 
L 276.881119 177.917736 
L 277.72028 149.162655 
L 278.559441 142.48448 
L 279.398601 204.646326 
L 280.237762 233.797409 
L 281.076923 125.711003 
L 281.916084 199.258233 
L 282.755245 294.069819 
L 283.594406 139.520969 
L 284.433566 117.825811 
L 285.272727 135.980426 
L 286.111888 172.560903 
L 286.951049 216.854922 
L 287.79021 244.659194 
L 288.629371 277.115713 
L 289.468531 183.659551 
L 290.307692 156.881432 
L 291.146853 192.015387 
L 291.986014 194.412875 
L 292.825175 285.983896 
L 293.664336 248.873896 
L 294.503497 120.766757 
L 295.342657 318.848741 
L 296.181818 294.813514 
L 297.020979 145.368483 
L 297.86014 202.870867 
L 299.538462 369.36 
L 300.377622 348.328974 
L 301.216783 85.613874 
L 302.055944 264.385927 
L 302.895105 278.41319 
L 303.734266 236.100985 
L 304.573427 285.846966 
L 305.412587 302.608728 
L 306.251748 190.204417 
L 307.090909 130.070578 
L 307.93007 123.588543 
L 308.769231 84.221312 
L 310.447552 285.266987 
L 311.286713 183.443408 
L 312.125874 97.302881 
L 312.965035 160.471168 
L 313.804196 183.492511 
L 314.643357 195.283515 
L 315.482517 148.035327 
L 317.160839 332.32553 
L 318 255.283179 
L 318.839161 116.071791 
L 319.678322 290.841513 
L 320.517483 219.084017 
L 321.356643 299.587664 
L 322.195804 81.03613 
L 323.034965 247.730198 
L 323.874126 221.399123 
L 324.713287 123.538734 
L 325.552448 114.483868 
L 326.391608 201.974376 
L 327.230769 250.764098 
L 328.06993 152.584765 
L 328.909091 201.26204 
L 329.748252 201.230354 
L 330.587413 293.463793 
L 331.426573 146.84491 
L 333.104895 324.140314 
L 333.944056 347.128783 
L 334.783217 342.599776 
L 335.622378 286.679367 
L 336.461538 135.666431 
L 337.300699 93.539201 
L 338.13986 273.920228 
L 338.979021 298.622478 
L 341.496503 90.191071 
L 342.335664 142.10199 
L 343.174825 224.654593 
L 344.013986 176.171241 
L 344.853147 340.73254 
L 345.692308 310.345801 
L 346.531469 69.521379 
L 347.370629 191.963935 
L 349.048951 105.298043 
L 349.888112 194.289796 
L 350.727273 209.796018 
L 351.566434 172.184977 
L 352.405594 274.732887 
L 353.244755 101.878688 
L 354.083916 218.400298 
L 354.923077 209.717613 
L 355.762238 107.951276 
L 356.601399 177.247262 
L 357.440559 124.062663 
L 359.118881 234.461485 
L 359.958042 130.208491 
L 360.797203 175.990448 
L 361.636364 206.543724 
L 362.475524 145.993624 
L 363.314685 310.739588 
L 364.153846 130.453744 
L 364.993007 145.126614 
L 365.832168 201.629941 
L 366.671329 177.232781 
L 367.51049 247.972842 
L 368.34965 205.498411 
L 369.188811 215.636698 
L 370.027972 246.692589 
L 370.867133 186.368915 
L 371.706294 85.017931 
L 372.545455 216.412503 
L 373.384615 146.637287 
L 375.062937 189.994465 
L 375.902098 160.488907 
L 376.741259 229.524494 
L 377.58042 231.912126 
L 378.41958 149.958841 
L 379.258741 242.229735 
L 380.097902 231.862753 
L 380.937063 136.550434 
L 381.776224 192.971158 
L 382.615385 195.986742 
L 383.454545 180.652258 
L 384.293706 146.969803 
L 385.132867 213.281375 
L 385.972028 296.48094 
L 386.811189 198.085998 
L 387.65035 190.214808 
L 388.48951 247.493585 
L 389.328671 119.246427 
L 390.167832 236.187788 
L 391.006993 165.336576 
L 391.846154 230.342312 
L 392.685315 219.040856 
L 393.524476 201.741847 
L 394.363636 208.891467 
L 395.202797 186.630675 
L 396.041958 172.477071 
L 396.881119 211.289506 
L 397.72028 148.911306 
L 398.559441 219.371939 
L 399.398601 191.519319 
L 400.237762 187.679884 
L 401.076923 193.853755 
L 401.916084 215.709463 
L 402.755245 211.39289 
L 403.594406 214.014117 
L 404.433566 202.035897 
L 405.272727 220.894169 
L 406.111888 194.703046 
L 406.951049 198.06029 
L 407.79021 240.666606 
L 408.629371 173.048823 
L 409.468531 308.642593 
L 410.307692 207.633977 
L 411.146853 309.019516 
L 411.986014 164.300337 
L 412.825175 269.033049 
L 413.664336 93.221048 
L 414.503497 245.667761 
L 415.342657 148.196106 
L 416.181818 150.342363 
L 417.020979 226.750042 
L 417.86014 265.166769 
L 418.699301 163.194516 
L 419.538462 168.683644 
L 420.377622 338.529595 
L 421.216783 197.034013 
L 422.055944 280.935091 
L 422.895105 116.537988 
L 423.734266 199.518392 
L 424.573427 131.381418 
L 425.412587 185.863524 
L 426.251748 169.806866 
L 427.090909 225.212663 
L 428.769231 146.206621 
L 429.608392 182.431719 
L 430.447552 239.541267 
L 432.125874 181.811985 
L 432.965035 217.283223 
L 433.804196 232.00953 
L 434.643357 341.334704 
L 435.482517 217.318362 
L 436.321678 329.849666 
L 437.160839 146.709786 
L 438 116.08752 
L 438.839161 209.627804 
L 439.678322 278.258358 
L 440.517483 176.455401 
L 441.356643 157.588484 
L 442.195804 241.25919 
L 443.034965 228.624934 
L 443.874126 219.49008 
L 444.713287 133.664757 
L 445.552448 223.198564 
L 446.391608 221.255291 
L 447.230769 102.795857 
L 448.06993 125.661969 
L 448.909091 159.248443 
L 449.748252 180.891743 
L 450.587413 182.688924 
L 451.426573 236.509325 
L 452.265734 206.429452 
L 453.944056 233.359909 
L 454.783217 134.16156 
L 455.622378 207.644884 
L 456.461538 229.23637 
L 457.300699 136.18481 
L 458.13986 198.986831 
L 458.979021 239.345719 
L 459.818182 190.712495 
L 460.657343 164.937578 
L 461.496503 227.503422 
L 462.335664 179.672469 
L 463.174825 183.452409 
L 464.013986 213.183756 
L 465.692308 186.055152 
L 466.531469 239.621018 
L 468.20979 165.474831 
L 469.048951 217.372927 
L 469.888112 183.267276 
L 470.727273 228.939943 
L 471.566434 205.674275 
L 473.244755 151.43075 
L 474.083916 201.886097 
L 474.923077 197.623342 
L 475.762238 238.268265 
L 476.601399 202.483378 
L 477.440559 196.138802 
L 478.27972 225.765662 
L 479.118881 196.624498 
L 480.797203 175.898487 
L 481.636364 183.728545 
L 482.475524 239.698451 
L 483.314685 184.031063 
L 484.153846 198.602846 
L 484.993007 154.464266 
L 485.832168 187.191805 
L 486.671329 206.194557 
L 487.51049 190.030795 
L 489.188811 232.085918 
L 490.027972 181.929335 
L 490.867133 202.784759 
L 491.706294 196.294741 
L 492.545455 215.477362 
L 493.384615 184.405904 
L 494.223776 203.679151 
L 495.062937 192.219504 
L 495.902098 220.414743 
L 496.741259 226.103613 
L 497.58042 155.297173 
L 498.41958 231.844589 
L 499.258741 174.993154 
L 500.097902 232.736172 
L 500.937063 193.391045 
L 501.776224 192.841568 
L 502.615385 162.322772 
L 503.454545 224.375487 
L 504.293706 161.232146 
L 505.972028 206.573168 
L 506.811189 177.302344 
L 507.65035 199.413229 
L 508.48951 173.952199 
L 509.328671 212.991345 
L 510.167832 178.44195 
L 511.006993 199.24336 
L 511.846154 209.326583 
L 512.685315 206.462437 
L 513.524476 214.884651 
L 514.363636 190.134268 
L 515.202797 209.463824 
L 516.041958 204.704734 
L 516.881119 201.352418 
L 517.72028 209.523192 
L 518.559441 207.249994 
L 519.398601 210.873107 
L 520.237762 205.812583 
L 521.076923 198.421964 
L 521.916084 214.099817 
L 522.755245 220.690648 
L 523.594406 184.860448 
L 524.433566 181.958476 
L 525.272727 206.440322 
L 526.111888 206.520916 
L 526.951049 194.437302 
L 527.79021 204.209431 
L 528.629371 200.678226 
L 529.468531 194.220731 
L 530.307692 215.348163 
L 531.146853 202.39775 
L 531.986014 192.084008 
L 532.825175 216.870784 
L 533.664336 207.65433 
L 534.503497 195.190077 
L 535.342657 186.40875 
L 536.181818 199.950359 
L 537.020979 223.427098 
L 537.86014 218.222218 
L 538.699301 189.52439 
L 539.538462 193.697887 
L 540.377622 210.760543 
L 541.216783 207.022019 
L 542.055944 183.618115 
L 542.895105 199.943331 
L 543.734266 206.723503 
L 544.573427 206.534935 
L 545.412587 192.041985 
L 546.251748 198.153177 
L 547.090909 210.756895 
L 547.93007 191.247472 
L 548.769231 197.709682 
L 549.608392 205.402339 
L 550.447552 200.592972 
L 551.286713 203.290968 
L 552.125874 216.522167 
L 552.965035 201.225177 
L 553.804196 204.772731 
L 554.643357 203.506862 
L 555.482517 203.950108 
L 556.321678 205.610512 
L 557.160839 204.416821 
L 558 198.929703 
L 558.839161 197.87521 
L 559.678322 214.139954 
L 560.517483 199.912392 
L 561.356643 197.449576 
L 562.195804 207.900808 
L 563.034965 205.023176 
L 563.874126 217.425269 
L 564.713287 213.350512 
L 565.552448 201.812922 
L 566.391608 205.946212 
L 567.230769 201.259674 
L 568.06993 198.352739 
L 568.909091 201.447494 
L 569.748252 200.059115 
L 570.587413 197.71477 
L 571.426573 213.586243 
L 572.265734 186.90359 
L 573.104895 199.753394 
L 573.944056 201.578578 
L 574.783217 206.653388 
L 575.622378 197.661272 
L 576.461538 196.880583 
L 577.300699 206.74398 
L 578.13986 200.116883 
L 578.979021 202.45203 
L 579.818182 211.074216 
L 580.657343 202.405507 
L 581.496503 206.542781 
L 582.335664 202.546821 
L 583.174825 208.977736 
L 584.013986 205.9666 
L 584.853147 207.309558 
L 585.692308 208.287621 
L 586.531469 205.521557 
L 587.370629 210.438417 
L 588.20979 203.752379 
L 589.048951 207.977061 
L 589.888112 212.782941 
L 590.727273 205.527766 
L 591.566434 202.618626 
L 592.405594 207.75679 
L 593.244755 206.362415 
L 594.083916 199.621331 
L 594.923077 202.811908 
L 595.762238 204.973005 
L 596.601399 194.324791 
L 597.440559 201.473486 
L 598.27972 206.000634 
L 599.118881 206.412515 
L 599.958042 197.255672 
L 600.797203 234.983947 
L 601.636364 187.274996 
L 602.475524 195.538354 
L 603.314685 208.672158 
L 604.153846 195.610729 
L 604.993007 213.718697 
L 605.832168 198.386453 
L 606.671329 190.595234 
L 607.51049 215.934787 
L 608.34965 218.740818 
L 609.188811 206.743055 
L 610.027972 208.244158 
L 610.867133 208.321228 
L 611.706294 197.909689 
L 612.545455 206.569966 
L 613.384615 209.593271 
L 614.223776 202.840996 
L 615.062937 207.656342 
L 615.902098 211.709019 
L 616.741259 205.083826 
L 617.58042 201.114765 
L 618.41958 202.013819 
L 619.258741 209.359034 
L 620.097902 220.679751 
L 620.937063 210.375544 
L 621.776224 186.164318 
L 622.615385 181.667877 
L 623.454545 206.126381 
L 624.293706 194.923905 
L 625.132867 213.509777 
L 625.972028 207.279793 
L 626.811189 204.941515 
L 627.65035 193.295169 
L 628.48951 206.669543 
L 629.328671 193.223649 
L 630.167832 205.055645 
L 631.006993 202.535968 
L 631.846154 189.606603 
L 632.685315 216.488559 
L 634.363636 184.756885 
L 635.202797 213.144117 
L 636.041958 200.224803 
L 636.881119 202.034154 
L 637.72028 199.905436 
L 638.559441 194.748894 
L 639.398601 209.288813 
L 640.237762 207.853804 
L 641.076923 204.41892 
L 641.916084 206.139689 
L 642.755245 204.027855 
L 643.594406 207.526057 
L 644.433566 206.544009 
L 645.272727 201.708417 
L 646.111888 208.978394 
L 646.951049 209.410005 
L 647.79021 210.029419 
L 648.629371 203.247219 
L 649.468531 204.472044 
L 650.307692 194.611031 
L 651.146853 205.04755 
L 651.986014 202.44358 
L 652.825175 200.448704 
L 653.664336 205.255545 
L 654.503497 197.927391 
L 655.342657 195.579879 
L 656.181818 203.901574 
L 657.020979 201.178813 
L 657.86014 201.080945 
L 659.538462 205.907391 
L 660.377622 189.699988 
L 661.216783 214.424611 
L 662.055944 200.165826 
L 662.895105 208.416375 
L 663.734266 207.032178 
L 664.573427 202.903887 
L 665.412587 204.339732 
L 666.251748 206.795557 
L 667.090909 204.241134 
L 667.93007 211.36414 
L 668.769231 226.922135 
L 669.608392 194.298353 
L 670.447552 198.803743 
L 671.286713 199.551181 
L 672.125874 189.470216 
L 672.965035 194.392379 
L 673.804196 202.469928 
L 674.643357 218.062072 
L 675.482517 197.404156 
L 676.321678 195.459949 
L 677.160839 209.030522 
L 678 217.677642 
L 678.839161 202.76928 
L 680.517483 216.551087 
L 681.356643 217.947391 
L 682.195804 189.188192 
L 683.034965 201.807852 
L 683.874126 202.559221 
L 684.713287 191.93901 
L 685.552448 203.07614 
L 686.391608 196.239126 
L 687.230769 197.823669 
L 688.06993 209.231116 
L 688.909091 202.013356 
L 689.748252 211.126594 
L 690.587413 204.117148 
L 691.426573 208.323684 
L 692.265734 198.687443 
L 693.104895 215.732432 
L 693.944056 195.004872 
L 694.783217 201.412516 
L 695.622378 199.009123 
L 696.461538 186.915777 
L 697.300699 202.58203 
L 698.13986 206.951282 
L 698.979021 201.593612 
L 699.818182 198.560681 
L 700.657343 209.631967 
L 701.496503 192.048123 
L 702.335664 203.697031 
L 703.174825 202.205962 
L 704.013986 201.196675 
L 704.853147 217.840992 
L 705.692308 203.39855 
L 706.531469 202.843594 
L 707.370629 203.810858 
L 708.20979 208.649865 
L 709.048951 197.729234 
L 709.888112 205.510722 
L 710.727273 210.023352 
L 711.566434 197.496918 
L 712.405594 199.323366 
L 713.244755 204.600869 
L 714.083916 201.653301 
L 714.923077 212.663261 
L 715.762238 197.786664 
L 716.601399 201.465658 
L 717.440559 211.941353 
L 718.27972 210.188044 
L 719.118881 199.343007 
L 719.958042 190.85678 
L 720.797203 210.583166 
L 721.636364 234.103024 
L 722.475524 181.887437 
L 723.314685 195.580448 
L 724.153846 195.433583 
L 724.993007 203.987505 
L 725.832168 199.392306 
L 726.671329 226.50054 
L 727.51049 205.550787 
L 728.34965 187.488221 
L 729.188811 228.897768 
L 730.027972 188.943086 
L 730.867133 194.366796 
L 731.706294 208.293919 
L 732.545455 173.911029 
L 733.384615 185.110162 
L 734.223776 191.770279 
L 735.062937 180.145158 
L 735.902098 197.404014 
L 736.741259 201.257432 
L 737.58042 202.637021 
L 738.41958 195.067657 
L 739.258741 199.523427 
L 740.097902 208.388408 
L 740.937063 210.476757 
L 741.776224 212.198006 
L 742.615385 178.486801 
L 743.454545 207.977665 
L 744.293706 199.964538 
L 745.132867 189.436165 
L 745.972028 192.617134 
L 746.811189 209.235369 
L 747.65035 201.100337 
L 748.48951 190.41243 
L 749.328671 198.744694 
L 750.167832 205.305057 
L 751.006993 200.020811 
L 751.846154 207.931658 
L 752.685315 195.058174 
L 753.524476 210.699164 
L 754.363636 196.858397 
L 755.202797 199.773836 
L 756.041958 203.854214 
L 756.881119 195.451587 
L 757.72028 203.356527 
L 758.559441 205.827154 
L 759.398601 204.691906 
L 760.237762 199.831212 
L 761.076923 199.375031 
L 761.916084 196.395545 
L 762.755245 200.392911 
L 763.594406 212.223252 
L 764.433566 205.252769 
L 765.272727 201.550646 
L 766.111888 210.32073 
L 766.951049 201.706158 
L 767.79021 212.554094 
L 768.629371 200.676892 
L 769.468531 203.052674 
L 770.307692 206.019884 
L 771.146853 202.369231 
L 771.986014 212.81299 
L 772.825175 190.669849 
L 773.664336 202.431481 
L 774.503497 203.979037 
L 775.342657 199.619569 
L 777.020979 211.350885 
L 777.86014 191.810061 
L 778.699301 201.508659 
L 779.538462 207.2646 
L 780.377622 217.536133 
L 781.216783 191.304207 
L 782.055944 212.654596 
L 782.895105 212.218768 
L 783.734266 197.094965 
L 784.573427 201.005582 
L 785.412587 196.204879 
L 786.251748 200.398106 
L 787.090909 200.732738 
L 787.93007 207.280167 
L 788.769231 197.521328 
L 789.608392 197.386543 
L 790.447552 215.834481 
L 791.286713 195.25948 
L 792.125874 200.727081 
L 792.965035 193.387256 
L 793.804196 197.211603 
L 794.643357 208.113767 
L 795.482517 210.164702 
L 796.321678 208.736614 
L 797.160839 193.782253 
L 798 197.458952 
L 798.839161 205.320891 
L 799.678322 220.768821 
L 800.517483 168.567557 
L 801.356643 195.756046 
L 802.195804 207.612931 
L 803.034965 192.916486 
L 803.874126 201.795985 
L 804.713287 202.287356 
L 805.552448 196.594983 
L 806.391608 217.354468 
L 807.230769 212.60012 
L 808.06993 205.774902 
L 808.909091 200.595 
L 809.748252 197.035294 
L 810.587413 199.082013 
L 811.426573 211.691388 
L 812.265734 190.380567 
L 813.944056 219.522122 
L 814.783217 185.8903 
L 816.461538 210.791392 
L 818.13986 204.797336 
L 818.979021 205.430164 
L 819.818182 205.391308 
L 820.657343 206.281039 
L 821.496503 204.246899 
L 822.335664 204.522411 
L 823.174825 209.174737 
L 824.013986 202.99802 
L 824.853147 209.078683 
L 825.692308 217.617491 
L 826.531469 187.246566 
L 827.370629 192.053335 
L 828.20979 202.824949 
L 829.048951 200.094288 
L 829.888112 209.342239 
L 830.727273 201.593612 
L 831.566434 203.88268 
L 832.405594 195.629622 
L 833.244755 214.583699 
L 834.083916 216.3071 
L 834.923077 194.147752 
L 835.762238 228.15574 
L 836.601399 216.582434 
L 837.440559 199.771612 
L 838.27972 186.762222 
L 839.118881 234.291911 
L 839.958042 195.572371 
L 840.797203 170.022688 
L 841.636364 195.271471 
L 842.475524 186.92115 
L 843.314685 217.842886 
L 844.153846 178.534854 
L 844.993007 181.610377 
L 845.832168 186.473883 
L 846.671329 167.133953 
L 847.51049 215.857076 
L 848.34965 180.144483 
L 849.188811 190.705983 
L 850.027972 223.249988 
L 850.867133 179.323692 
L 851.706294 193.627915 
L 852.545455 194.599841 
L 853.384615 202.825785 
L 854.223776 228.655525 
L 855.062937 200.520526 
L 855.902098 214.45192 
L 856.741259 209.686763 
L 857.58042 200.83509 
L 858.41958 206.535772 
L 859.258741 222.673559 
L 860.097902 221.849344 
L 860.937063 180.52982 
L 861.776224 168.533293 
L 862.615385 215.46174 
L 863.454545 202.733164 
L 864.293706 135.9943 
L 865.132867 202.082474 
L 865.972028 228.312239 
L 866.811189 206.079555 
L 867.65035 227.018722 
L 868.48951 195.937194 
L 869.328671 230.207047 
L 870.167832 201.457314 
L 871.006993 190.260602 
L 871.846154 190.595767 
L 872.685315 228.65065 
L 873.524476 205.149652 
L 874.363636 214.333307 
L 875.202797 216.432517 
L 876.041958 221.288427 
L 876.881119 151.56776 
L 877.72028 211.224374 
L 878.559441 220.628521 
L 879.398601 227.496358 
L 880.237762 221.432223 
L 881.076923 202.905151 
L 881.916084 181.559725 
L 882.755245 203.654012 
L 883.594406 189.881795 
L 884.433566 203.67102 
L 885.272727 214.971668 
L 886.111888 198.951231 
L 886.951049 207.731242 
L 887.79021 176.62333 
L 888.629371 219.708226 
L 889.468531 191.210787 
L 890.307692 186.156775 
L 891.146853 182.364683 
L 891.986014 199.761578 
L 892.825175 197.765208 
L 893.664336 200.945323 
L 894.503497 184.355839 
L 895.342657 205.470959 
L 896.181818 207.792069 
L 897.020979 205.625456 
L 897.86014 201.186588 
L 898.699301 221.246013 
L 899.538462 214.716952 
L 900.377622 183.332284 
L 901.216783 203.519494 
L 902.055944 209.545146 
L 902.895105 185.411436 
L 903.734266 195.323954 
L 904.573427 206.939468 
L 905.412587 197.537073 
L 906.251748 207.222044 
L 907.090909 214.621379 
L 907.93007 239.977559 
L 908.769231 200.492932 
L 908.769231 200.492932 
" style="fill:none;stroke:#000000;stroke-linecap:square;stroke-width:4.5;"/>
   </g>
   <g id="line2d_19">
    <path clip-path="url(#p255309f83a)" d="M 927.230769 201.079521 
L 928.06993 214.242821 
L 928.909091 165.666992 
L 929.748252 193.09228 
L 930.587413 178.429123 
L 931.426573 217.066395 
L 932.265734 192.052571 
L 933.104895 203.003357 
L 933.944056 169.951113 
L 935.622378 229.171423 
L 936.461538 217.694739 
L 937.300699 184.380408 
L 938.13986 222.816376 
L 938.979021 186.535582 
L 939.818182 180.083513 
L 940.657343 157.187545 
L 941.496503 203.303528 
L 942.335664 210.378604 
L 943.174825 196.802 
L 944.013986 186.652861 
L 944.853147 242.2715 
L 945.692308 199.677711 
L 946.531469 220.961516 
L 947.370629 180.935099 
L 948.20979 208.16771 
L 949.048951 211.619513 
L 949.888112 182.54672 
L 950.727273 185.250017 
L 951.566434 217.716881 
L 952.405594 166.953819 
L 953.244755 216.403207 
L 954.083916 211.943648 
L 954.923077 209.376292 
L 955.762238 183.01201 
L 956.601399 212.147996 
L 957.440559 208.155078 
L 958.27972 196.262824 
L 959.118881 189.647771 
L 959.958042 201.131382 
L 960.797203 219.651303 
L 961.636364 193.596585 
L 962.475524 197.44673 
L 963.314685 214.297512 
L 964.993007 192.946393 
L 965.832168 196.17595 
L 966.671329 192.551734 
L 967.51049 220.491272 
L 968.34965 202.407428 
L 969.188811 201.186873 
L 970.027972 221.612251 
L 970.867133 188.848864 
L 971.706294 266.865673 
L 972.545455 187.572604 
L 973.384615 189.980339 
L 974.223776 200.105194 
L 975.062937 167.605329 
L 975.902098 110.046583 
L 976.741259 192.393838 
L 977.58042 152.77287 
L 978.41958 148.659171 
L 979.258741 213.260524 
L 980.097902 148.177671 
L 980.937063 196.342581 
L 981.776224 211.757856 
L 982.615385 276.655883 
L 983.454545 168.347091 
L 984.293706 229.545247 
L 985.132867 246.939831 
L 985.972028 179.427628 
L 986.811189 235.706593 
L 987.65035 263.991974 
L 988.48951 164.177507 
L 989.328671 203.020045 
L 990.167832 197.762717 
L 991.006993 205.575784 
L 991.846154 158.935479 
L 992.685315 249.048739 
L 993.524476 182.327926 
L 994.363636 224.047322 
L 995.202797 205.147393 
L 996.041958 205.147411 
L 996.881119 177.476518 
L 997.72028 196.590891 
L 998.559441 193.084327 
L 999.398601 204.388569 
L 1000.237762 164.88988 
L 1001.076923 158.240935 
L 1001.916084 175.18688 
L 1002.755245 194.874926 
L 1003.594406 175.096858 
L 1004.433566 229.959202 
L 1005.272727 199.537143 
L 1006.111888 202.956353 
L 1006.951049 142.21861 
L 1007.79021 265.476909 
L 1008.629371 191.820113 
L 1009.468531 209.714393 
L 1010.307692 188.913392 
L 1011.146853 212.136058 
L 1011.986014 203.62133 
L 1012.825175 210.060892 
L 1013.664336 191.566199 
L 1014.503497 184.689119 
L 1015.342657 182.760586 
L 1016.181818 202.088079 
L 1017.020979 217.533109 
L 1017.86014 186.543517 
L 1018.699301 196.807853 
L 1019.538462 220.02029 
L 1020.377622 194.956427 
L 1021.216783 203.762235 
L 1022.055944 217.063397 
L 1022.895105 214.083218 
L 1023.734266 199.140954 
L 1024.573427 215.632587 
L 1025.412587 211.500312 
L 1026.251748 218.337433 
L 1027.090909 214.794808 
L 1027.93007 204.598361 
L 1028.769231 206.532534 
L 1029.608392 211.01394 
L 1030.447552 222.160456 
L 1031.286713 190.833954 
L 1032.125874 192.000123 
L 1032.965035 188.350181 
L 1033.804196 202.67698 
L 1034.643357 199.898284 
L 1035.482517 207.545609 
L 1036.321678 169.01116 
L 1037.160839 205.771343 
L 1038 174.000572 
L 1038.839161 227.304054 
L 1039.678322 195.663354 
L 1040.517483 211.847362 
L 1041.356643 196.468702 
L 1042.195804 208.186141 
L 1043.034965 216.247002 
L 1043.874126 220.614697 
L 1044.713287 195.098275 
L 1045.552448 204.621062 
L 1046.391608 217.000098 
L 1047.230769 165.54895 
L 1048.06993 130.612298 
L 1048.909091 228.440121 
L 1049.748252 204.448507 
L 1050.587413 194.782501 
L 1051.426573 219.448476 
L 1052.265734 211.535894 
L 1053.104895 202.348415 
L 1053.944056 185.851943 
L 1054.783217 234.178599 
L 1055.622378 186.975465 
L 1056.461538 202.852382 
L 1057.300699 275.188226 
L 1058.13986 247.29148 
L 1058.979021 114.178876 
L 1059.818182 200.35635 
L 1060.657343 133.842334 
L 1061.496503 226.721842 
L 1062.335664 217.858418 
L 1063.174825 281.08541 
L 1064.013986 153.261217 
L 1064.853147 180.60335 
L 1065.692308 160.189306 
L 1066.531469 162.394914 
L 1067.370629 231.661884 
L 1068.20979 177.457553 
L 1069.048951 166.488584 
L 1069.888112 227.436696 
L 1070.727273 194.415258 
L 1071.566434 199.053458 
L 1072.405594 138.94301 
L 1073.244755 201.547515 
L 1074.083916 150.370724 
L 1074.923077 225.681198 
L 1075.762238 255.656328 
L 1076.601399 163.947986 
L 1077.440559 136.436658 
L 1078.27972 187.443495 
L 1079.118881 188.433211 
L 1079.958042 139.793853 
L 1080.797203 200.782215 
L 1081.636364 193.288106 
L 1082.475524 193.669333 
L 1083.314685 196.176538 
L 1084.153846 146.047229 
L 1084.993007 231.840658 
L 1085.832168 206.756292 
L 1086.671329 212.296675 
L 1087.51049 168.346184 
L 1088.34965 254.651647 
L 1089.188811 159.440015 
L 1090.867133 207.210817 
L 1091.706294 165.388527 
L 1092.545455 150.953416 
L 1093.384615 198.545061 
L 1094.223776 183.839721 
L 1095.062937 215.49049 
L 1095.902098 233.101761 
L 1096.741259 198.791093 
L 1097.58042 197.311215 
L 1098.41958 218.443592 
L 1099.258741 228.165542 
L 1100.097902 167.577449 
L 1100.937063 183.460451 
L 1101.776224 167.928859 
L 1102.615385 208.01597 
L 1103.454545 256.787926 
L 1104.293706 183.584277 
L 1105.132867 239.172239 
L 1105.972028 174.377494 
L 1106.811189 250.609208 
L 1107.65035 176.314086 
L 1108.48951 178.636619 
L 1109.328671 198.857561 
L 1110.167832 169.971966 
L 1111.006993 195.558494 
L 1111.846154 187.391136 
L 1112.685315 208.18945 
L 1113.524476 185.9826 
L 1114.363636 203.120565 
L 1115.202797 192.990319 
L 1116.041958 205.749264 
L 1116.881119 211.15965 
L 1117.72028 200.240122 
L 1118.559441 205.592258 
L 1119.398601 177.412844 
L 1120.237762 198.145865 
L 1121.076923 225.819533 
L 1121.916084 211.838022 
L 1122.755245 224.082184 
L 1123.594406 211.501985 
L 1124.433566 174.920227 
L 1125.272727 183.711803 
L 1126.111888 190.325112 
L 1126.951049 192.6377 
L 1127.79021 211.835941 
L 1128.629371 207.29625 
L 1129.468531 173.004345 
L 1130.307692 183.541116 
L 1131.146853 191.757044 
L 1131.986014 196.0019 
L 1132.825175 211.924914 
L 1133.664336 216.089409 
L 1134.503497 179.70257 
L 1135.342657 185.353152 
L 1136.181818 218.821519 
L 1137.020979 210.035806 
L 1137.86014 222.217645 
L 1138.699301 191.877898 
L 1139.538462 188.905688 
L 1140.377622 200.67465 
L 1142.055944 206.551872 
L 1142.895105 188.470999 
L 1143.734266 203.690697 
L 1144.573427 193.562053 
L 1145.412587 188.292288 
L 1146.251748 208.450854 
L 1147.090909 202.141078 
L 1147.93007 209.747627 
L 1148.769231 189.211178 
L 1149.608392 206.489853 
L 1150.447552 184.437234 
L 1151.286713 221.126316 
L 1152.125874 193.574631 
L 1152.965035 204.639636 
L 1153.804196 207.14081 
L 1154.643357 177.364542 
L 1155.482517 202.358876 
L 1156.321678 193.81602 
L 1157.160839 204.155417 
L 1158 220.049841 
L 1158.839161 211.059575 
L 1159.678322 192.513857 
L 1160.517483 209.34868 
L 1161.356643 203.533691 
L 1162.195804 208.375509 
L 1163.034965 205.249709 
L 1163.874126 196.257985 
L 1164.713287 211.948754 
L 1165.552448 198.47516 
L 1166.391608 204.646201 
L 1167.230769 204.977417 
L 1168.06993 206.164383 
L 1168.909091 192.600927 
L 1169.748252 212.254226 
L 1170.587413 202.205571 
L 1171.426573 196.091532 
L 1172.265734 221.810186 
L 1173.104895 200.181073 
L 1173.944056 208.513105 
L 1174.783217 209.133906 
L 1176.461538 184.630605 
L 1177.300699 195.888536 
L 1178.13986 186.769125 
L 1178.979021 206.156679 
L 1179.818182 194.688903 
L 1180.657343 203.494639 
L 1181.496503 209.691496 
L 1182.335664 201.760029 
L 1183.174825 205.337295 
L 1184.013986 186.32273 
L 1184.853147 217.420055 
L 1185.692308 219.720208 
L 1186.531469 197.897057 
L 1187.370629 199.147982 
L 1188.20979 197.99368 
L 1189.048951 216.384687 
L 1189.888112 205.622005 
L 1190.727273 201.611278 
L 1191.566434 215.605154 
L 1192.405594 206.459163 
L 1193.244755 207.953825 
L 1194.083916 204.72635 
L 1194.923077 200.595907 
L 1195.762238 206.828114 
L 1196.601399 207.047513 
L 1197.440559 198.669385 
L 1198.27972 191.819544 
L 1199.118881 206.899723 
L 1199.958042 200.950394 
L 1200.797203 196.236493 
L 1201.636364 199.168904 
L 1202.475524 198.152021 
L 1203.314685 227.546787 
L 1204.153846 194.270261 
L 1204.993007 207.387394 
L 1205.832168 207.489835 
L 1206.671329 217.568734 
L 1207.51049 192.60541 
L 1208.34965 208.586458 
L 1209.188811 192.546308 
L 1210.027972 188.048355 
L 1210.867133 196.382949 
L 1211.706294 210.33619 
L 1212.545455 198.579326 
L 1213.384615 203.471974 
L 1214.223776 213.707311 
L 1215.062937 182.917184 
L 1215.902098 206.102559 
L 1216.741259 204.754317 
L 1217.58042 202.737399 
L 1218.41958 210.18228 
L 1219.258741 194.067283 
L 1220.097902 203.185253 
L 1220.937063 202.671572 
L 1221.776224 199.203348 
L 1222.615385 200.374729 
L 1223.454545 195.779654 
L 1224.293706 204.760562 
L 1225.132867 199.23224 
L 1225.972028 196.047499 
L 1226.811189 202.470052 
L 1227.65035 202.002504 
L 1228.48951 204.163708 
L 1229.328671 194.151186 
L 1230.167832 204.172034 
L 1231.006993 153.516767 
L 1231.846154 199.196391 
L 1232.685315 194.471282 
L 1233.524476 211.721864 
L 1234.363636 204.809256 
L 1235.202797 204.695322 
L 1236.041958 209.523744 
L 1236.881119 177.4475 
L 1237.72028 181.126495 
L 1238.559441 172.596734 
L 1239.398601 192.653855 
L 1240.237762 236.199361 
L 1241.076923 160.014099 
L 1241.916084 199.259283 
L 1242.755245 188.944722 
L 1244.433566 261.95388 
L 1244.433566 261.95388 
" style="fill:none;stroke:#008000;stroke-linecap:square;stroke-width:4.5;"/>
   </g>
   <g id="patch_3">
    <path d="M 180 384.48 
L 180 51.84 
" style="fill:none;stroke:#000000;stroke-linecap:square;stroke-linejoin:miter;stroke-width:0.8;"/>
   </g>
   <g id="patch_4">
    <path d="M 1296 384.48 
L 1296 51.84 
" style="fill:none;stroke:#000000;stroke-linecap:square;stroke-linejoin:miter;stroke-width:0.8;"/>
   </g>
   <g id="patch_5">
    <path d="M 180 384.48 
L 1296 384.48 
" style="fill:none;stroke:#000000;stroke-linecap:square;stroke-linejoin:miter;stroke-width:0.8;"/>
   </g>
   <g id="patch_6">
    <path d="M 180 51.84 
L 1296 51.84 
" style="fill:none;stroke:#000000;stroke-linecap:square;stroke-linejoin:miter;stroke-width:0.8;"/>
   </g>
   <g id="text_18">
    <!-- LSTM Gait Prediction -->
    <defs>
     <path d="M 9.8125 72.90625 
L 19.671875 72.90625 
L 19.671875 8.296875 
L 55.171875 8.296875 
L 55.171875 0 
L 9.8125 0 
z
" id="DejaVuSans-76"/>
     <path d="M 53.515625 70.515625 
L 53.515625 60.890625 
Q 47.90625 63.578125 42.921875 64.890625 
Q 37.9375 66.21875 33.296875 66.21875 
Q 25.25 66.21875 20.875 63.09375 
Q 16.5 59.96875 16.5 54.203125 
Q 16.5 49.359375 19.40625 46.890625 
Q 22.3125 44.4375 30.421875 42.921875 
L 36.375 41.703125 
Q 47.40625 39.59375 52.65625 34.296875 
Q 57.90625 29 57.90625 20.125 
Q 57.90625 9.515625 50.796875 4.046875 
Q 43.703125 -1.421875 29.984375 -1.421875 
Q 24.8125 -1.421875 18.96875 -0.25 
Q 13.140625 0.921875 6.890625 3.21875 
L 6.890625 13.375 
Q 12.890625 10.015625 18.65625 8.296875 
Q 24.421875 6.59375 29.984375 6.59375 
Q 38.421875 6.59375 43.015625 9.90625 
Q 47.609375 13.234375 47.609375 19.390625 
Q 47.609375 24.75 44.3125 27.78125 
Q 41.015625 30.8125 33.5 32.328125 
L 27.484375 33.5 
Q 16.453125 35.6875 11.515625 40.375 
Q 6.59375 45.0625 6.59375 53.421875 
Q 6.59375 63.09375 13.40625 68.65625 
Q 20.21875 74.21875 32.171875 74.21875 
Q 37.3125 74.21875 42.625 73.28125 
Q 47.953125 72.359375 53.515625 70.515625 
z
" id="DejaVuSans-83"/>
     <path d="M -0.296875 72.90625 
L 61.375 72.90625 
L 61.375 64.59375 
L 35.5 64.59375 
L 35.5 0 
L 25.59375 0 
L 25.59375 64.59375 
L -0.296875 64.59375 
z
" id="DejaVuSans-84"/>
     <path d="M 9.8125 72.90625 
L 24.515625 72.90625 
L 43.109375 23.296875 
L 61.8125 72.90625 
L 76.515625 72.90625 
L 76.515625 0 
L 66.890625 0 
L 66.890625 64.015625 
L 48.09375 14.015625 
L 38.1875 14.015625 
L 19.390625 64.015625 
L 19.390625 0 
L 9.8125 0 
z
" id="DejaVuSans-77"/>
     <path d="M 59.515625 10.40625 
L 59.515625 29.984375 
L 43.40625 29.984375 
L 43.40625 38.09375 
L 69.28125 38.09375 
L 69.28125 6.78125 
Q 63.578125 2.734375 56.6875 0.65625 
Q 49.8125 -1.421875 42 -1.421875 
Q 24.90625 -1.421875 15.25 8.5625 
Q 5.609375 18.5625 5.609375 36.375 
Q 5.609375 54.25 15.25 64.234375 
Q 24.90625 74.21875 42 74.21875 
Q 49.125 74.21875 55.546875 72.453125 
Q 61.96875 70.703125 67.390625 67.28125 
L 67.390625 56.78125 
Q 61.921875 61.421875 55.765625 63.765625 
Q 49.609375 66.109375 42.828125 66.109375 
Q 29.4375 66.109375 22.71875 58.640625 
Q 16.015625 51.171875 16.015625 36.375 
Q 16.015625 21.625 22.71875 14.15625 
Q 29.4375 6.6875 42.828125 6.6875 
Q 48.046875 6.6875 52.140625 7.59375 
Q 56.25 8.5 59.515625 10.40625 
z
" id="DejaVuSans-71"/>
     <path d="M 34.28125 27.484375 
Q 23.390625 27.484375 19.1875 25 
Q 14.984375 22.515625 14.984375 16.5 
Q 14.984375 11.71875 18.140625 8.90625 
Q 21.296875 6.109375 26.703125 6.109375 
Q 34.1875 6.109375 38.703125 11.40625 
Q 43.21875 16.703125 43.21875 25.484375 
L 43.21875 27.484375 
z
M 52.203125 31.203125 
L 52.203125 0 
L 43.21875 0 
L 43.21875 8.296875 
Q 40.140625 3.328125 35.546875 0.953125 
Q 30.953125 -1.421875 24.3125 -1.421875 
Q 15.921875 -1.421875 10.953125 3.296875 
Q 6 8.015625 6 15.921875 
Q 6 25.140625 12.171875 29.828125 
Q 18.359375 34.515625 30.609375 34.515625 
L 43.21875 34.515625 
L 43.21875 35.40625 
Q 43.21875 41.609375 39.140625 45 
Q 35.0625 48.390625 27.6875 48.390625 
Q 23 48.390625 18.546875 47.265625 
Q 14.109375 46.140625 10.015625 43.890625 
L 10.015625 52.203125 
Q 14.9375 54.109375 19.578125 55.046875 
Q 24.21875 56 28.609375 56 
Q 40.484375 56 46.34375 49.84375 
Q 52.203125 43.703125 52.203125 31.203125 
z
" id="DejaVuSans-97"/>
     <path d="M 19.671875 64.796875 
L 19.671875 37.40625 
L 32.078125 37.40625 
Q 38.96875 37.40625 42.71875 40.96875 
Q 46.484375 44.53125 46.484375 51.125 
Q 46.484375 57.671875 42.71875 61.234375 
Q 38.96875 64.796875 32.078125 64.796875 
z
M 9.8125 72.90625 
L 32.078125 72.90625 
Q 44.34375 72.90625 50.609375 67.359375 
Q 56.890625 61.8125 56.890625 51.125 
Q 56.890625 40.328125 50.609375 34.8125 
Q 44.34375 29.296875 32.078125 29.296875 
L 19.671875 29.296875 
L 19.671875 0 
L 9.8125 0 
z
" id="DejaVuSans-80"/>
     <path d="M 41.109375 46.296875 
Q 39.59375 47.171875 37.8125 47.578125 
Q 36.03125 48 33.890625 48 
Q 26.265625 48 22.1875 43.046875 
Q 18.109375 38.09375 18.109375 28.8125 
L 18.109375 0 
L 9.078125 0 
L 9.078125 54.6875 
L 18.109375 54.6875 
L 18.109375 46.1875 
Q 20.953125 51.171875 25.484375 53.578125 
Q 30.03125 56 36.53125 56 
Q 37.453125 56 38.578125 55.875 
Q 39.703125 55.765625 41.0625 55.515625 
z
" id="DejaVuSans-114"/>
     <path d="M 45.40625 46.390625 
L 45.40625 75.984375 
L 54.390625 75.984375 
L 54.390625 0 
L 45.40625 0 
L 45.40625 8.203125 
Q 42.578125 3.328125 38.25 0.953125 
Q 33.9375 -1.421875 27.875 -1.421875 
Q 17.96875 -1.421875 11.734375 6.484375 
Q 5.515625 14.40625 5.515625 27.296875 
Q 5.515625 40.1875 11.734375 48.09375 
Q 17.96875 56 27.875 56 
Q 33.9375 56 38.25 53.625 
Q 42.578125 51.265625 45.40625 46.390625 
z
M 14.796875 27.296875 
Q 14.796875 17.390625 18.875 11.75 
Q 22.953125 6.109375 30.078125 6.109375 
Q 37.203125 6.109375 41.296875 11.75 
Q 45.40625 17.390625 45.40625 27.296875 
Q 45.40625 37.203125 41.296875 42.84375 
Q 37.203125 48.484375 30.078125 48.484375 
Q 22.953125 48.484375 18.875 42.84375 
Q 14.796875 37.203125 14.796875 27.296875 
z
" id="DejaVuSans-100"/>
     <path d="M 48.78125 52.59375 
L 48.78125 44.1875 
Q 44.96875 46.296875 41.140625 47.34375 
Q 37.3125 48.390625 33.40625 48.390625 
Q 24.65625 48.390625 19.8125 42.84375 
Q 14.984375 37.3125 14.984375 27.296875 
Q 14.984375 17.28125 19.8125 11.734375 
Q 24.65625 6.203125 33.40625 6.203125 
Q 37.3125 6.203125 41.140625 7.25 
Q 44.96875 8.296875 48.78125 10.40625 
L 48.78125 2.09375 
Q 45.015625 0.34375 40.984375 -0.53125 
Q 36.96875 -1.421875 32.421875 -1.421875 
Q 20.0625 -1.421875 12.78125 6.34375 
Q 5.515625 14.109375 5.515625 27.296875 
Q 5.515625 40.671875 12.859375 48.328125 
Q 20.21875 56 33.015625 56 
Q 37.15625 56 41.109375 55.140625 
Q 45.0625 54.296875 48.78125 52.59375 
z
" id="DejaVuSans-99"/>
     <path d="M 30.609375 48.390625 
Q 23.390625 48.390625 19.1875 42.75 
Q 14.984375 37.109375 14.984375 27.296875 
Q 14.984375 17.484375 19.15625 11.84375 
Q 23.34375 6.203125 30.609375 6.203125 
Q 37.796875 6.203125 41.984375 11.859375 
Q 46.1875 17.53125 46.1875 27.296875 
Q 46.1875 37.015625 41.984375 42.703125 
Q 37.796875 48.390625 30.609375 48.390625 
z
M 30.609375 56 
Q 42.328125 56 49.015625 48.375 
Q 55.71875 40.765625 55.71875 27.296875 
Q 55.71875 13.875 49.015625 6.21875 
Q 42.328125 -1.421875 30.609375 -1.421875 
Q 18.84375 -1.421875 12.171875 6.21875 
Q 5.515625 13.875 5.515625 27.296875 
Q 5.515625 40.765625 12.171875 48.375 
Q 18.84375 56 30.609375 56 
z
" id="DejaVuSans-111"/>
     <path d="M 54.890625 33.015625 
L 54.890625 0 
L 45.90625 0 
L 45.90625 32.71875 
Q 45.90625 40.484375 42.875 44.328125 
Q 39.84375 48.1875 33.796875 48.1875 
Q 26.515625 48.1875 22.3125 43.546875 
Q 18.109375 38.921875 18.109375 30.90625 
L 18.109375 0 
L 9.078125 0 
L 9.078125 54.6875 
L 18.109375 54.6875 
L 18.109375 46.1875 
Q 21.34375 51.125 25.703125 53.5625 
Q 30.078125 56 35.796875 56 
Q 45.21875 56 50.046875 50.171875 
Q 54.890625 44.34375 54.890625 33.015625 
z
" id="DejaVuSans-110"/>
    </defs>
    <g transform="translate(675.80625 45.84)scale(0.12 -0.12)">
     <use xlink:href="#DejaVuSans-76"/>
     <use x="55.712891" xlink:href="#DejaVuSans-83"/>
     <use x="119.189453" xlink:href="#DejaVuSans-84"/>
     <use x="180.273438" xlink:href="#DejaVuSans-77"/>
     <use x="266.552734" xlink:href="#DejaVuSans-32"/>
     <use x="298.339844" xlink:href="#DejaVuSans-71"/>
     <use x="375.830078" xlink:href="#DejaVuSans-97"/>
     <use x="437.109375" xlink:href="#DejaVuSans-105"/>
     <use x="464.892578" xlink:href="#DejaVuSans-116"/>
     <use x="504.101562" xlink:href="#DejaVuSans-32"/>
     <use x="535.888672" xlink:href="#DejaVuSans-80"/>
     <use x="596.175781" xlink:href="#DejaVuSans-114"/>
     <use x="637.257812" xlink:href="#DejaVuSans-101"/>
     <use x="698.78125" xlink:href="#DejaVuSans-100"/>
     <use x="762.257812" xlink:href="#DejaVuSans-105"/>
     <use x="790.041016" xlink:href="#DejaVuSans-99"/>
     <use x="845.021484" xlink:href="#DejaVuSans-116"/>
     <use x="884.230469" xlink:href="#DejaVuSans-105"/>
     <use x="912.013672" xlink:href="#DejaVuSans-111"/>
     <use x="973.195312" xlink:href="#DejaVuSans-110"/>
    </g>
   </g>
   <g id="legend_1">
    <g id="patch_7">
     <path d="M 1200.348438 103.874375 
L 1289 103.874375 
Q 1291 103.874375 1291 101.874375 
L 1291 58.84 
Q 1291 56.84 1289 56.84 
L 1200.348438 56.84 
Q 1198.348438 56.84 1198.348438 58.84 
L 1198.348438 101.874375 
Q 1198.348438 103.874375 1200.348438 103.874375 
z
" style="fill:#ffffff;opacity:0.8;stroke:#cccccc;stroke-linejoin:miter;"/>
    </g>
    <g id="line2d_20">
     <path d="M 1202.348438 64.938437 
L 1222.348438 64.938437 
" style="fill:none;stroke:#ff0000;stroke-dasharray:18.5,8;stroke-dashoffset:0;stroke-width:5;"/>
    </g>
    <g id="line2d_21"/>
    <g id="text_19">
     <!-- raw-data -->
     <defs>
      <path d="M 4.203125 54.6875 
L 13.1875 54.6875 
L 24.421875 12.015625 
L 35.59375 54.6875 
L 46.1875 54.6875 
L 57.421875 12.015625 
L 68.609375 54.6875 
L 77.59375 54.6875 
L 63.28125 0 
L 52.6875 0 
L 40.921875 44.828125 
L 29.109375 0 
L 18.5 0 
z
" id="DejaVuSans-119"/>
      <path d="M 4.890625 31.390625 
L 31.203125 31.390625 
L 31.203125 23.390625 
L 4.890625 23.390625 
z
" id="DejaVuSans-45"/>
     </defs>
     <g transform="translate(1230.348438 68.438437)scale(0.1 -0.1)">
      <use xlink:href="#DejaVuSans-114"/>
      <use x="41.113281" xlink:href="#DejaVuSans-97"/>
      <use x="102.392578" xlink:href="#DejaVuSans-119"/>
      <use x="184.179688" xlink:href="#DejaVuSans-45"/>
      <use x="220.263672" xlink:href="#DejaVuSans-100"/>
      <use x="283.740234" xlink:href="#DejaVuSans-97"/>
      <use x="345.019531" xlink:href="#DejaVuSans-116"/>
      <use x="384.228516" xlink:href="#DejaVuSans-97"/>
     </g>
    </g>
    <g id="line2d_22">
     <path d="M 1202.348438 79.616562 
L 1222.348438 79.616562 
" style="fill:none;stroke:#000000;stroke-linecap:square;stroke-width:4.5;"/>
    </g>
    <g id="line2d_23"/>
    <g id="text_20">
     <!-- true-values -->
     <defs>
      <path d="M 8.5 21.578125 
L 8.5 54.6875 
L 17.484375 54.6875 
L 17.484375 21.921875 
Q 17.484375 14.15625 20.5 10.265625 
Q 23.53125 6.390625 29.59375 6.390625 
Q 36.859375 6.390625 41.078125 11.03125 
Q 45.3125 15.671875 45.3125 23.6875 
L 45.3125 54.6875 
L 54.296875 54.6875 
L 54.296875 0 
L 45.3125 0 
L 45.3125 8.40625 
Q 42.046875 3.421875 37.71875 1 
Q 33.40625 -1.421875 27.6875 -1.421875 
Q 18.265625 -1.421875 13.375 4.4375 
Q 8.5 10.296875 8.5 21.578125 
z
M 31.109375 56 
z
" id="DejaVuSans-117"/>
      <path d="M 2.984375 54.6875 
L 12.5 54.6875 
L 29.59375 8.796875 
L 46.6875 54.6875 
L 56.203125 54.6875 
L 35.6875 0 
L 23.484375 0 
z
" id="DejaVuSans-118"/>
      <path d="M 9.421875 75.984375 
L 18.40625 75.984375 
L 18.40625 0 
L 9.421875 0 
z
" id="DejaVuSans-108"/>
      <path d="M 44.28125 53.078125 
L 44.28125 44.578125 
Q 40.484375 46.53125 36.375 47.5 
Q 32.28125 48.484375 27.875 48.484375 
Q 21.1875 48.484375 17.84375 46.4375 
Q 14.5 44.390625 14.5 40.28125 
Q 14.5 37.15625 16.890625 35.375 
Q 19.28125 33.59375 26.515625 31.984375 
L 29.59375 31.296875 
Q 39.15625 29.25 43.1875 25.515625 
Q 47.21875 21.78125 47.21875 15.09375 
Q 47.21875 7.46875 41.1875 3.015625 
Q 35.15625 -1.421875 24.609375 -1.421875 
Q 20.21875 -1.421875 15.453125 -0.5625 
Q 10.6875 0.296875 5.421875 2 
L 5.421875 11.28125 
Q 10.40625 8.6875 15.234375 7.390625 
Q 20.0625 6.109375 24.8125 6.109375 
Q 31.15625 6.109375 34.5625 8.28125 
Q 37.984375 10.453125 37.984375 14.40625 
Q 37.984375 18.0625 35.515625 20.015625 
Q 33.0625 21.96875 24.703125 23.78125 
L 21.578125 24.515625 
Q 13.234375 26.265625 9.515625 29.90625 
Q 5.8125 33.546875 5.8125 39.890625 
Q 5.8125 47.609375 11.28125 51.796875 
Q 16.75 56 26.8125 56 
Q 31.78125 56 36.171875 55.265625 
Q 40.578125 54.546875 44.28125 53.078125 
z
" id="DejaVuSans-115"/>
     </defs>
     <g transform="translate(1230.348438 83.116562)scale(0.1 -0.1)">
      <use xlink:href="#DejaVuSans-116"/>
      <use x="39.208984" xlink:href="#DejaVuSans-114"/>
      <use x="80.322266" xlink:href="#DejaVuSans-117"/>
      <use x="143.701172" xlink:href="#DejaVuSans-101"/>
      <use x="205.224609" xlink:href="#DejaVuSans-45"/>
      <use x="241.277344" xlink:href="#DejaVuSans-118"/>
      <use x="300.457031" xlink:href="#DejaVuSans-97"/>
      <use x="361.736328" xlink:href="#DejaVuSans-108"/>
      <use x="389.519531" xlink:href="#DejaVuSans-117"/>
      <use x="452.898438" xlink:href="#DejaVuSans-101"/>
      <use x="514.421875" xlink:href="#DejaVuSans-115"/>
     </g>
    </g>
    <g id="line2d_24">
     <path d="M 1202.348438 94.294687 
L 1222.348438 94.294687 
" style="fill:none;stroke:#008000;stroke-linecap:square;stroke-width:4.5;"/>
    </g>
    <g id="line2d_25"/>
    <g id="text_21">
     <!-- pre-values -->
     <defs>
      <path d="M 18.109375 8.203125 
L 18.109375 -20.796875 
L 9.078125 -20.796875 
L 9.078125 54.6875 
L 18.109375 54.6875 
L 18.109375 46.390625 
Q 20.953125 51.265625 25.265625 53.625 
Q 29.59375 56 35.59375 56 
Q 45.5625 56 51.78125 48.09375 
Q 58.015625 40.1875 58.015625 27.296875 
Q 58.015625 14.40625 51.78125 6.484375 
Q 45.5625 -1.421875 35.59375 -1.421875 
Q 29.59375 -1.421875 25.265625 0.953125 
Q 20.953125 3.328125 18.109375 8.203125 
z
M 48.6875 27.296875 
Q 48.6875 37.203125 44.609375 42.84375 
Q 40.53125 48.484375 33.40625 48.484375 
Q 26.265625 48.484375 22.1875 42.84375 
Q 18.109375 37.203125 18.109375 27.296875 
Q 18.109375 17.390625 22.1875 11.75 
Q 26.265625 6.109375 33.40625 6.109375 
Q 40.53125 6.109375 44.609375 11.75 
Q 48.6875 17.390625 48.6875 27.296875 
z
" id="DejaVuSans-112"/>
     </defs>
     <g transform="translate(1230.348438 97.794687)scale(0.1 -0.1)">
      <use xlink:href="#DejaVuSans-112"/>
      <use x="63.476562" xlink:href="#DejaVuSans-114"/>
      <use x="104.558594" xlink:href="#DejaVuSans-101"/>
      <use x="166.082031" xlink:href="#DejaVuSans-45"/>
      <use x="202.134766" xlink:href="#DejaVuSans-118"/>
      <use x="261.314453" xlink:href="#DejaVuSans-97"/>
      <use x="322.59375" xlink:href="#DejaVuSans-108"/>
      <use x="350.376953" xlink:href="#DejaVuSans-117"/>
      <use x="413.755859" xlink:href="#DejaVuSans-101"/>
      <use x="475.279297" xlink:href="#DejaVuSans-115"/>
     </g>
    </g>
   </g>
  </g>
 </g>
 <defs>
  <clipPath id="p255309f83a">
   <rect height="332.64" width="1116" x="180" y="51.84"/>
  </clipPath>
 </defs>
</svg>
