<?xml version="1.0" encoding="utf-8" standalone="no"?>
<!DOCTYPE svg PUBLIC "-//W3C//DTD SVG 1.1//EN"
  "http://www.w3.org/Graphics/SVG/1.1/DTD/svg11.dtd">
<!-- Created with matplotlib (https://matplotlib.org/) -->
<svg height="432pt" version="1.1" viewBox="0 0 1440 432" width="1440pt" xmlns="http://www.w3.org/2000/svg" xmlns:xlink="http://www.w3.org/1999/xlink">
 <defs>
  <style type="text/css">
*{stroke-linecap:butt;stroke-linejoin:round;}
  </style>
 </defs>
 <g id="figure_1">
  <g id="patch_1">
   <path d="M 0 432 
L 1440 432 
L 1440 0 
L 0 0 
z
" style="fill:#ffffff;"/>
  </g>
  <g id="axes_1">
   <g id="patch_2">
    <path d="M 180 384.48 
L 1296 384.48 
L 1296 51.84 
L 180 51.84 
z
" style="fill:#ffffff;"/>
   </g>
   <g id="matplotlib.axis_1">
    <g id="xtick_1">
     <g id="line2d_1">
      <defs>
       <path d="M 0 0 
L 0 3.5 
" id="mfa1b98f109" style="stroke:#000000;stroke-width:0.8;"/>
      </defs>
      <g>
       <use style="stroke:#000000;stroke-width:0.8;" x="230.727273" xlink:href="#mfa1b98f109" y="384.48"/>
      </g>
     </g>
     <g id="text_1">
      <!-- 0 -->
      <defs>
       <path d="M 31.78125 66.40625 
Q 24.171875 66.40625 20.328125 58.90625 
Q 16.5 51.421875 16.5 36.375 
Q 16.5 21.390625 20.328125 13.890625 
Q 24.171875 6.390625 31.78125 6.390625 
Q 39.453125 6.390625 43.28125 13.890625 
Q 47.125 21.390625 47.125 36.375 
Q 47.125 51.421875 43.28125 58.90625 
Q 39.453125 66.40625 31.78125 66.40625 
z
M 31.78125 74.21875 
Q 44.046875 74.21875 50.515625 64.515625 
Q 56.984375 54.828125 56.984375 36.375 
Q 56.984375 17.96875 50.515625 8.265625 
Q 44.046875 -1.421875 31.78125 -1.421875 
Q 19.53125 -1.421875 13.0625 8.265625 
Q 6.59375 17.96875 6.59375 36.375 
Q 6.59375 54.828125 13.0625 64.515625 
Q 19.53125 74.21875 31.78125 74.21875 
z
" id="DejaVuSans-48"/>
      </defs>
      <g transform="translate(227.546023 399.078438)scale(0.1 -0.1)">
       <use xlink:href="#DejaVuSans-48"/>
      </g>
     </g>
    </g>
    <g id="xtick_2">
     <g id="line2d_2">
      <g>
       <use style="stroke:#000000;stroke-width:0.8;" x="364.926407" xlink:href="#mfa1b98f109" y="384.48"/>
      </g>
     </g>
     <g id="text_2">
      <!-- 50 -->
      <defs>
       <path d="M 10.796875 72.90625 
L 49.515625 72.90625 
L 49.515625 64.59375 
L 19.828125 64.59375 
L 19.828125 46.734375 
Q 21.96875 47.46875 24.109375 47.828125 
Q 26.265625 48.1875 28.421875 48.1875 
Q 40.625 48.1875 47.75 41.5 
Q 54.890625 34.8125 54.890625 23.390625 
Q 54.890625 11.625 47.5625 5.09375 
Q 40.234375 -1.421875 26.90625 -1.421875 
Q 22.3125 -1.421875 17.546875 -0.640625 
Q 12.796875 0.140625 7.71875 1.703125 
L 7.71875 11.625 
Q 12.109375 9.234375 16.796875 8.0625 
Q 21.484375 6.890625 26.703125 6.890625 
Q 35.15625 6.890625 40.078125 11.328125 
Q 45.015625 15.765625 45.015625 23.390625 
Q 45.015625 31 40.078125 35.4375 
Q 35.15625 39.890625 26.703125 39.890625 
Q 22.75 39.890625 18.8125 39.015625 
Q 14.890625 38.140625 10.796875 36.28125 
z
" id="DejaVuSans-53"/>
      </defs>
      <g transform="translate(358.563907 399.078438)scale(0.1 -0.1)">
       <use xlink:href="#DejaVuSans-53"/>
       <use x="63.623047" xlink:href="#DejaVuSans-48"/>
      </g>
     </g>
    </g>
    <g id="xtick_3">
     <g id="line2d_3">
      <g>
       <use style="stroke:#000000;stroke-width:0.8;" x="499.125541" xlink:href="#mfa1b98f109" y="384.48"/>
      </g>
     </g>
     <g id="text_3">
      <!-- 100 -->
      <defs>
       <path d="M 12.40625 8.296875 
L 28.515625 8.296875 
L 28.515625 63.921875 
L 10.984375 60.40625 
L 10.984375 69.390625 
L 28.421875 72.90625 
L 38.28125 72.90625 
L 38.28125 8.296875 
L 54.390625 8.296875 
L 54.390625 0 
L 12.40625 0 
z
" id="DejaVuSans-49"/>
      </defs>
      <g transform="translate(489.581791 399.078438)scale(0.1 -0.1)">
       <use xlink:href="#DejaVuSans-49"/>
       <use x="63.623047" xlink:href="#DejaVuSans-48"/>
       <use x="127.246094" xlink:href="#DejaVuSans-48"/>
      </g>
     </g>
    </g>
    <g id="xtick_4">
     <g id="line2d_4">
      <g>
       <use style="stroke:#000000;stroke-width:0.8;" x="633.324675" xlink:href="#mfa1b98f109" y="384.48"/>
      </g>
     </g>
     <g id="text_4">
      <!-- 150 -->
      <g transform="translate(623.780925 399.078438)scale(0.1 -0.1)">
       <use xlink:href="#DejaVuSans-49"/>
       <use x="63.623047" xlink:href="#DejaVuSans-53"/>
       <use x="127.246094" xlink:href="#DejaVuSans-48"/>
      </g>
     </g>
    </g>
    <g id="xtick_5">
     <g id="line2d_5">
      <g>
       <use style="stroke:#000000;stroke-width:0.8;" x="767.52381" xlink:href="#mfa1b98f109" y="384.48"/>
      </g>
     </g>
     <g id="text_5">
      <!-- 200 -->
      <defs>
       <path d="M 19.1875 8.296875 
L 53.609375 8.296875 
L 53.609375 0 
L 7.328125 0 
L 7.328125 8.296875 
Q 12.9375 14.109375 22.625 23.890625 
Q 32.328125 33.6875 34.8125 36.53125 
Q 39.546875 41.84375 41.421875 45.53125 
Q 43.3125 49.21875 43.3125 52.78125 
Q 43.3125 58.59375 39.234375 62.25 
Q 35.15625 65.921875 28.609375 65.921875 
Q 23.96875 65.921875 18.8125 64.3125 
Q 13.671875 62.703125 7.8125 59.421875 
L 7.8125 69.390625 
Q 13.765625 71.78125 18.9375 73 
Q 24.125 74.21875 28.421875 74.21875 
Q 39.75 74.21875 46.484375 68.546875 
Q 53.21875 62.890625 53.21875 53.421875 
Q 53.21875 48.921875 51.53125 44.890625 
Q 49.859375 40.875 45.40625 35.40625 
Q 44.1875 33.984375 37.640625 27.21875 
Q 31.109375 20.453125 19.1875 8.296875 
z
" id="DejaVuSans-50"/>
      </defs>
      <g transform="translate(757.98006 399.078438)scale(0.1 -0.1)">
       <use xlink:href="#DejaVuSans-50"/>
       <use x="63.623047" xlink:href="#DejaVuSans-48"/>
       <use x="127.246094" xlink:href="#DejaVuSans-48"/>
      </g>
     </g>
    </g>
    <g id="xtick_6">
     <g id="line2d_6">
      <g>
       <use style="stroke:#000000;stroke-width:0.8;" x="901.722944" xlink:href="#mfa1b98f109" y="384.48"/>
      </g>
     </g>
     <g id="text_6">
      <!-- 250 -->
      <g transform="translate(892.179194 399.078438)scale(0.1 -0.1)">
       <use xlink:href="#DejaVuSans-50"/>
       <use x="63.623047" xlink:href="#DejaVuSans-53"/>
       <use x="127.246094" xlink:href="#DejaVuSans-48"/>
      </g>
     </g>
    </g>
    <g id="xtick_7">
     <g id="line2d_7">
      <g>
       <use style="stroke:#000000;stroke-width:0.8;" x="1035.922078" xlink:href="#mfa1b98f109" y="384.48"/>
      </g>
     </g>
     <g id="text_7">
      <!-- 300 -->
      <defs>
       <path d="M 40.578125 39.3125 
Q 47.65625 37.796875 51.625 33 
Q 55.609375 28.21875 55.609375 21.1875 
Q 55.609375 10.40625 48.1875 4.484375 
Q 40.765625 -1.421875 27.09375 -1.421875 
Q 22.515625 -1.421875 17.65625 -0.515625 
Q 12.796875 0.390625 7.625 2.203125 
L 7.625 11.71875 
Q 11.71875 9.328125 16.59375 8.109375 
Q 21.484375 6.890625 26.8125 6.890625 
Q 36.078125 6.890625 40.9375 10.546875 
Q 45.796875 14.203125 45.796875 21.1875 
Q 45.796875 27.640625 41.28125 31.265625 
Q 36.765625 34.90625 28.71875 34.90625 
L 20.21875 34.90625 
L 20.21875 43.015625 
L 29.109375 43.015625 
Q 36.375 43.015625 40.234375 45.921875 
Q 44.09375 48.828125 44.09375 54.296875 
Q 44.09375 59.90625 40.109375 62.90625 
Q 36.140625 65.921875 28.71875 65.921875 
Q 24.65625 65.921875 20.015625 65.03125 
Q 15.375 64.15625 9.8125 62.3125 
L 9.8125 71.09375 
Q 15.4375 72.65625 20.34375 73.4375 
Q 25.25 74.21875 29.59375 74.21875 
Q 40.828125 74.21875 47.359375 69.109375 
Q 53.90625 64.015625 53.90625 55.328125 
Q 53.90625 49.265625 50.4375 45.09375 
Q 46.96875 40.921875 40.578125 39.3125 
z
" id="DejaVuSans-51"/>
      </defs>
      <g transform="translate(1026.378328 399.078438)scale(0.1 -0.1)">
       <use xlink:href="#DejaVuSans-51"/>
       <use x="63.623047" xlink:href="#DejaVuSans-48"/>
       <use x="127.246094" xlink:href="#DejaVuSans-48"/>
      </g>
     </g>
    </g>
    <g id="xtick_8">
     <g id="line2d_8">
      <g>
       <use style="stroke:#000000;stroke-width:0.8;" x="1170.121212" xlink:href="#mfa1b98f109" y="384.48"/>
      </g>
     </g>
     <g id="text_8">
      <!-- 350 -->
      <g transform="translate(1160.577462 399.078438)scale(0.1 -0.1)">
       <use xlink:href="#DejaVuSans-51"/>
       <use x="63.623047" xlink:href="#DejaVuSans-53"/>
       <use x="127.246094" xlink:href="#DejaVuSans-48"/>
      </g>
     </g>
    </g>
   </g>
   <g id="matplotlib.axis_2">
    <g id="ytick_1">
     <g id="line2d_9">
      <defs>
       <path d="M 0 0 
L -3.5 0 
" id="md50986843f" style="stroke:#000000;stroke-width:0.8;"/>
      </defs>
      <g>
       <use style="stroke:#000000;stroke-width:0.8;" x="180" xlink:href="#md50986843f" y="340.980263"/>
      </g>
     </g>
     <g id="text_9">
      <!-- 0.8 -->
      <defs>
       <path d="M 10.6875 12.40625 
L 21 12.40625 
L 21 0 
L 10.6875 0 
z
" id="DejaVuSans-46"/>
       <path d="M 31.78125 34.625 
Q 24.75 34.625 20.71875 30.859375 
Q 16.703125 27.09375 16.703125 20.515625 
Q 16.703125 13.921875 20.71875 10.15625 
Q 24.75 6.390625 31.78125 6.390625 
Q 38.8125 6.390625 42.859375 10.171875 
Q 46.921875 13.96875 46.921875 20.515625 
Q 46.921875 27.09375 42.890625 30.859375 
Q 38.875 34.625 31.78125 34.625 
z
M 21.921875 38.8125 
Q 15.578125 40.375 12.03125 44.71875 
Q 8.5 49.078125 8.5 55.328125 
Q 8.5 64.0625 14.71875 69.140625 
Q 20.953125 74.21875 31.78125 74.21875 
Q 42.671875 74.21875 48.875 69.140625 
Q 55.078125 64.0625 55.078125 55.328125 
Q 55.078125 49.078125 51.53125 44.71875 
Q 48 40.375 41.703125 38.8125 
Q 48.828125 37.15625 52.796875 32.3125 
Q 56.78125 27.484375 56.78125 20.515625 
Q 56.78125 9.90625 50.3125 4.234375 
Q 43.84375 -1.421875 31.78125 -1.421875 
Q 19.734375 -1.421875 13.25 4.234375 
Q 6.78125 9.90625 6.78125 20.515625 
Q 6.78125 27.484375 10.78125 32.3125 
Q 14.796875 37.15625 21.921875 38.8125 
z
M 18.3125 54.390625 
Q 18.3125 48.734375 21.84375 45.5625 
Q 25.390625 42.390625 31.78125 42.390625 
Q 38.140625 42.390625 41.71875 45.5625 
Q 45.3125 48.734375 45.3125 54.390625 
Q 45.3125 60.0625 41.71875 63.234375 
Q 38.140625 66.40625 31.78125 66.40625 
Q 25.390625 66.40625 21.84375 63.234375 
Q 18.3125 60.0625 18.3125 54.390625 
z
" id="DejaVuSans-56"/>
      </defs>
      <g transform="translate(157.096875 344.779482)scale(0.1 -0.1)">
       <use xlink:href="#DejaVuSans-48"/>
       <use x="63.623047" xlink:href="#DejaVuSans-46"/>
       <use x="95.410156" xlink:href="#DejaVuSans-56"/>
      </g>
     </g>
    </g>
    <g id="ytick_2">
     <g id="line2d_10">
      <g>
       <use style="stroke:#000000;stroke-width:0.8;" x="180" xlink:href="#md50986843f" y="285.68598"/>
      </g>
     </g>
     <g id="text_10">
      <!-- 0.9 -->
      <defs>
       <path d="M 10.984375 1.515625 
L 10.984375 10.5 
Q 14.703125 8.734375 18.5 7.8125 
Q 22.3125 6.890625 25.984375 6.890625 
Q 35.75 6.890625 40.890625 13.453125 
Q 46.046875 20.015625 46.78125 33.40625 
Q 43.953125 29.203125 39.59375 26.953125 
Q 35.25 24.703125 29.984375 24.703125 
Q 19.046875 24.703125 12.671875 31.3125 
Q 6.296875 37.9375 6.296875 49.421875 
Q 6.296875 60.640625 12.9375 67.421875 
Q 19.578125 74.21875 30.609375 74.21875 
Q 43.265625 74.21875 49.921875 64.515625 
Q 56.59375 54.828125 56.59375 36.375 
Q 56.59375 19.140625 48.40625 8.859375 
Q 40.234375 -1.421875 26.421875 -1.421875 
Q 22.703125 -1.421875 18.890625 -0.6875 
Q 15.09375 0.046875 10.984375 1.515625 
z
M 30.609375 32.421875 
Q 37.25 32.421875 41.125 36.953125 
Q 45.015625 41.5 45.015625 49.421875 
Q 45.015625 57.28125 41.125 61.84375 
Q 37.25 66.40625 30.609375 66.40625 
Q 23.96875 66.40625 20.09375 61.84375 
Q 16.21875 57.28125 16.21875 49.421875 
Q 16.21875 41.5 20.09375 36.953125 
Q 23.96875 32.421875 30.609375 32.421875 
z
" id="DejaVuSans-57"/>
      </defs>
      <g transform="translate(157.096875 289.485199)scale(0.1 -0.1)">
       <use xlink:href="#DejaVuSans-48"/>
       <use x="63.623047" xlink:href="#DejaVuSans-46"/>
       <use x="95.410156" xlink:href="#DejaVuSans-57"/>
      </g>
     </g>
    </g>
    <g id="ytick_3">
     <g id="line2d_11">
      <g>
       <use style="stroke:#000000;stroke-width:0.8;" x="180" xlink:href="#md50986843f" y="230.391697"/>
      </g>
     </g>
     <g id="text_11">
      <!-- 1.0 -->
      <g transform="translate(157.096875 234.190916)scale(0.1 -0.1)">
       <use xlink:href="#DejaVuSans-49"/>
       <use x="63.623047" xlink:href="#DejaVuSans-46"/>
       <use x="95.410156" xlink:href="#DejaVuSans-48"/>
      </g>
     </g>
    </g>
    <g id="ytick_4">
     <g id="line2d_12">
      <g>
       <use style="stroke:#000000;stroke-width:0.8;" x="180" xlink:href="#md50986843f" y="175.097414"/>
      </g>
     </g>
     <g id="text_12">
      <!-- 1.1 -->
      <g transform="translate(157.096875 178.896632)scale(0.1 -0.1)">
       <use xlink:href="#DejaVuSans-49"/>
       <use x="63.623047" xlink:href="#DejaVuSans-46"/>
       <use x="95.410156" xlink:href="#DejaVuSans-49"/>
      </g>
     </g>
    </g>
    <g id="ytick_5">
     <g id="line2d_13">
      <g>
       <use style="stroke:#000000;stroke-width:0.8;" x="180" xlink:href="#md50986843f" y="119.80313"/>
      </g>
     </g>
     <g id="text_13">
      <!-- 1.2 -->
      <g transform="translate(157.096875 123.602349)scale(0.1 -0.1)">
       <use xlink:href="#DejaVuSans-49"/>
       <use x="63.623047" xlink:href="#DejaVuSans-46"/>
       <use x="95.410156" xlink:href="#DejaVuSans-50"/>
      </g>
     </g>
    </g>
    <g id="ytick_6">
     <g id="line2d_14">
      <g>
       <use style="stroke:#000000;stroke-width:0.8;" x="180" xlink:href="#md50986843f" y="64.508847"/>
      </g>
     </g>
     <g id="text_14">
      <!-- 1.3 -->
      <g transform="translate(157.096875 68.308066)scale(0.1 -0.1)">
       <use xlink:href="#DejaVuSans-49"/>
       <use x="63.623047" xlink:href="#DejaVuSans-46"/>
       <use x="95.410156" xlink:href="#DejaVuSans-51"/>
      </g>
     </g>
    </g>
    <g id="text_15">
     <!-- Height m -->
     <defs>
      <path d="M 9.8125 72.90625 
L 19.671875 72.90625 
L 19.671875 43.015625 
L 55.515625 43.015625 
L 55.515625 72.90625 
L 65.375 72.90625 
L 65.375 0 
L 55.515625 0 
L 55.515625 34.71875 
L 19.671875 34.71875 
L 19.671875 0 
L 9.8125 0 
z
" id="DejaVuSans-72"/>
      <path d="M 56.203125 29.59375 
L 56.203125 25.203125 
L 14.890625 25.203125 
Q 15.484375 15.921875 20.484375 11.0625 
Q 25.484375 6.203125 34.421875 6.203125 
Q 39.59375 6.203125 44.453125 7.46875 
Q 49.3125 8.734375 54.109375 11.28125 
L 54.109375 2.78125 
Q 49.265625 0.734375 44.1875 -0.34375 
Q 39.109375 -1.421875 33.890625 -1.421875 
Q 20.796875 -1.421875 13.15625 6.1875 
Q 5.515625 13.8125 5.515625 26.8125 
Q 5.515625 40.234375 12.765625 48.109375 
Q 20.015625 56 32.328125 56 
Q 43.359375 56 49.78125 48.890625 
Q 56.203125 41.796875 56.203125 29.59375 
z
M 47.21875 32.234375 
Q 47.125 39.59375 43.09375 43.984375 
Q 39.0625 48.390625 32.421875 48.390625 
Q 24.90625 48.390625 20.390625 44.140625 
Q 15.875 39.890625 15.1875 32.171875 
z
" id="DejaVuSans-101"/>
      <path d="M 9.421875 54.6875 
L 18.40625 54.6875 
L 18.40625 0 
L 9.421875 0 
z
M 9.421875 75.984375 
L 18.40625 75.984375 
L 18.40625 64.59375 
L 9.421875 64.59375 
z
" id="DejaVuSans-105"/>
      <path d="M 45.40625 27.984375 
Q 45.40625 37.75 41.375 43.109375 
Q 37.359375 48.484375 30.078125 48.484375 
Q 22.859375 48.484375 18.828125 43.109375 
Q 14.796875 37.75 14.796875 27.984375 
Q 14.796875 18.265625 18.828125 12.890625 
Q 22.859375 7.515625 30.078125 7.515625 
Q 37.359375 7.515625 41.375 12.890625 
Q 45.40625 18.265625 45.40625 27.984375 
z
M 54.390625 6.78125 
Q 54.390625 -7.171875 48.1875 -13.984375 
Q 42 -20.796875 29.203125 -20.796875 
Q 24.46875 -20.796875 20.265625 -20.09375 
Q 16.0625 -19.390625 12.109375 -17.921875 
L 12.109375 -9.1875 
Q 16.0625 -11.328125 19.921875 -12.34375 
Q 23.78125 -13.375 27.78125 -13.375 
Q 36.625 -13.375 41.015625 -8.765625 
Q 45.40625 -4.15625 45.40625 5.171875 
L 45.40625 9.625 
Q 42.625 4.78125 38.28125 2.390625 
Q 33.9375 0 27.875 0 
Q 17.828125 0 11.671875 7.65625 
Q 5.515625 15.328125 5.515625 27.984375 
Q 5.515625 40.671875 11.671875 48.328125 
Q 17.828125 56 27.875 56 
Q 33.9375 56 38.28125 53.609375 
Q 42.625 51.21875 45.40625 46.390625 
L 45.40625 54.6875 
L 54.390625 54.6875 
z
" id="DejaVuSans-103"/>
      <path d="M 54.890625 33.015625 
L 54.890625 0 
L 45.90625 0 
L 45.90625 32.71875 
Q 45.90625 40.484375 42.875 44.328125 
Q 39.84375 48.1875 33.796875 48.1875 
Q 26.515625 48.1875 22.3125 43.546875 
Q 18.109375 38.921875 18.109375 30.90625 
L 18.109375 0 
L 9.078125 0 
L 9.078125 75.984375 
L 18.109375 75.984375 
L 18.109375 46.1875 
Q 21.34375 51.125 25.703125 53.5625 
Q 30.078125 56 35.796875 56 
Q 45.21875 56 50.046875 50.171875 
Q 54.890625 44.34375 54.890625 33.015625 
z
" id="DejaVuSans-104"/>
      <path d="M 18.3125 70.21875 
L 18.3125 54.6875 
L 36.8125 54.6875 
L 36.8125 47.703125 
L 18.3125 47.703125 
L 18.3125 18.015625 
Q 18.3125 11.328125 20.140625 9.421875 
Q 21.96875 7.515625 27.59375 7.515625 
L 36.8125 7.515625 
L 36.8125 0 
L 27.59375 0 
Q 17.1875 0 13.234375 3.875 
Q 9.28125 7.765625 9.28125 18.015625 
L 9.28125 47.703125 
L 2.6875 47.703125 
L 2.6875 54.6875 
L 9.28125 54.6875 
L 9.28125 70.21875 
z
" id="DejaVuSans-116"/>
      <path id="DejaVuSans-32"/>
      <path d="M 52 44.1875 
Q 55.375 50.25 60.0625 53.125 
Q 64.75 56 71.09375 56 
Q 79.640625 56 84.28125 50.015625 
Q 88.921875 44.046875 88.921875 33.015625 
L 88.921875 0 
L 79.890625 0 
L 79.890625 32.71875 
Q 79.890625 40.578125 77.09375 44.375 
Q 74.3125 48.1875 68.609375 48.1875 
Q 61.625 48.1875 57.5625 43.546875 
Q 53.515625 38.921875 53.515625 30.90625 
L 53.515625 0 
L 44.484375 0 
L 44.484375 32.71875 
Q 44.484375 40.625 41.703125 44.40625 
Q 38.921875 48.1875 33.109375 48.1875 
Q 26.21875 48.1875 22.15625 43.53125 
Q 18.109375 38.875 18.109375 30.90625 
L 18.109375 0 
L 9.078125 0 
L 9.078125 54.6875 
L 18.109375 54.6875 
L 18.109375 46.1875 
Q 21.1875 51.21875 25.484375 53.609375 
Q 29.78125 56 35.6875 56 
Q 41.65625 56 45.828125 52.96875 
Q 50 49.953125 52 44.1875 
z
" id="DejaVuSans-109"/>
     </defs>
     <g transform="translate(151.017188 241.148281)rotate(-90)scale(0.1 -0.1)">
      <use xlink:href="#DejaVuSans-72"/>
      <use x="75.195312" xlink:href="#DejaVuSans-101"/>
      <use x="136.71875" xlink:href="#DejaVuSans-105"/>
      <use x="164.501953" xlink:href="#DejaVuSans-103"/>
      <use x="227.978516" xlink:href="#DejaVuSans-104"/>
      <use x="291.357422" xlink:href="#DejaVuSans-116"/>
      <use x="330.566406" xlink:href="#DejaVuSans-32"/>
      <use x="362.353516" xlink:href="#DejaVuSans-109"/>
     </g>
    </g>
   </g>
   <g id="line2d_15">
    <path clip-path="url(#p5e11572426)" d="M 230.727273 230.391697 
L 233.411255 226.468485 
L 236.095238 223.50031 
L 238.779221 222.56932 
L 241.463203 231.570037 
L 244.147186 235.537909 
L 246.831169 247.537718 
L 249.515152 246.981184 
L 252.199134 253.645836 
L 254.883117 264.560063 
L 257.5671 274.344046 
L 260.251082 288.363862 
L 262.935065 275.089522 
L 265.619048 285.972833 
L 268.30303 268.847425 
L 270.987013 264.00353 
L 273.670996 257.259864 
L 276.354978 261.674336 
L 279.038961 275.409016 
L 281.722944 280.438424 
L 284.406926 290.593431 
L 287.090909 290.119346 
L 289.774892 282.808838 
L 292.458874 288.793283 
L 295.142857 283.313841 
L 297.82684 285.172384 
L 300.510823 270.283415 
L 303.194805 270.393349 
L 305.878788 274.488331 
L 311.246753 290.28768 
L 313.930736 287.371033 
L 316.614719 283.313839 
L 319.298701 291.991629 
L 321.982684 294.52351 
L 324.666667 293.71276 
L 327.350649 305.53393 
L 330.034632 304.039536 
L 332.718615 307.258496 
L 335.402597 305.375903 
L 338.08658 313.864747 
L 340.770563 319.632763 
L 343.454545 310.178577 
L 346.138528 304.991142 
L 348.822511 306.633258 
L 351.506494 298.560099 
L 354.190476 300.384288 
L 356.874459 295.251818 
L 359.558442 302.256573 
L 362.242424 298.484518 
L 364.926407 318.296399 
L 367.61039 320.948518 
L 370.294372 320.687428 
L 372.978355 349.829821 
L 375.662338 347.586513 
L 378.34632 353.835483 
L 381.030303 365.354339 
L 383.714286 360.142854 
L 386.398268 369.36 
L 389.082251 353.948852 
L 391.766234 331.598219 
L 394.450216 339.461821 
L 397.134199 342.196388 
L 402.502165 349.379782 
L 405.186147 353.74616 
L 407.87013 350.492849 
L 410.554113 345.126774 
L 413.238095 341.430296 
L 415.922078 320.148069 
L 418.606061 319.941945 
L 421.290043 319.86293 
L 423.974026 321.010351 
L 426.658009 326.568808 
L 429.341991 328.891128 
L 432.025974 313.102085 
L 434.709957 305.107938 
L 437.393939 307.282537 
L 440.077922 300.576661 
L 442.761905 301.253432 
L 445.445887 304.304057 
L 448.12987 317.726116 
L 450.813853 315.080867 
L 453.497835 318.210505 
L 456.181818 333.731586 
L 458.865801 335.167577 
L 461.549784 331.433309 
L 464.233766 322.621538 
L 466.917749 332.364297 
L 469.601732 326.637506 
L 472.285714 311.727924 
L 474.969697 309.680434 
L 477.65368 308.642949 
L 480.337662 321.01378 
L 483.021645 322.642152 
L 485.705628 327.510097 
L 488.38961 323.652157 
L 491.073593 323.428858 
L 493.757576 320.072485 
L 496.441558 333.140702 
L 499.125541 337.01582 
L 501.809524 339.022085 
L 504.493506 347.449092 
L 507.177489 344.237003 
L 509.861472 346.937218 
L 512.545455 342.117371 
L 515.229437 345.855073 
L 517.91342 349.077467 
L 520.597403 354.570653 
L 523.281385 353.728982 
L 525.965368 361.204386 
L 528.649351 366.106684 
L 531.333333 355.573784 
L 534.017316 347.706748 
L 536.701299 349.26985 
L 539.385281 349.609953 
L 542.069264 350.822643 
L 544.753247 349.939749 
L 547.437229 355.285213 
L 550.121212 348.318246 
L 552.805195 347.964402 
L 555.489177 353.426669 
L 558.17316 347.208616 
L 560.857143 345.394732 
L 563.541126 353.141532 
L 566.225108 353.522861 
L 568.909091 348.703013 
L 571.593074 348.589647 
L 574.277056 350.564997 
L 576.961039 356.113149 
L 579.645022 360.500139 
L 582.329004 361.472352 
L 587.69697 331.20315 
L 590.380952 325.648129 
L 593.064935 316.922243 
L 595.748918 315.455334 
L 598.4329 316.863841 
L 601.116883 297.708117 
L 603.800866 300.305273 
L 606.484848 299.501392 
L 609.168831 298.072272 
L 611.852814 283.039014 
L 614.536797 255.531866 
L 617.220779 251.883486 
L 619.904762 261.01131 
L 622.588745 255.768907 
L 625.272727 244.710392 
L 627.95671 226.901341 
L 630.640693 207.367723 
L 633.324675 199.146842 
L 636.008658 201.922638 
L 638.692641 214.953064 
L 641.376623 189.768238 
L 644.060606 174.092561 
L 646.744589 201.427942 
L 649.428571 216.430281 
L 652.112554 212.160097 
L 654.796537 196.89323 
L 657.480519 196.271426 
L 660.164502 203.475433 
L 662.848485 197.99599 
L 665.532468 201.424507 
L 668.21645 210.023283 
L 670.900433 223.301059 
L 673.584416 220.697035 
L 676.268398 224.458784 
L 681.636364 178.400541 
L 684.320346 180.712559 
L 687.004329 175.896148 
L 689.688312 172.776815 
L 692.372294 185.693873 
L 695.056277 185.175128 
L 697.74026 190.166748 
L 700.424242 202.376114 
L 703.108225 200.78553 
L 705.792208 210.689752 
L 708.47619 200.167162 
L 711.160173 193.327306 
L 713.844156 197.755521 
L 716.528139 193.890708 
L 719.212121 200.17403 
L 721.896104 204.883948 
L 724.580087 192.842915 
L 727.264069 209.631654 
L 729.948052 213.809085 
L 732.632035 228.30642 
L 735.316017 225.503145 
L 738 269.781857 
L 740.683983 266.597251 
L 743.367965 274.254731 
L 746.051948 278.511176 
L 748.735931 256.390715 
L 751.419913 266.971708 
L 754.103896 269.881484 
L 756.787879 258.170248 
L 759.471861 256.459427 
L 762.155844 275.326577 
L 764.839827 278.569582 
L 767.52381 270.183799 
L 770.207792 271.932412 
L 772.891775 284.773889 
L 775.575758 287.350431 
L 778.25974 270.791861 
L 780.943723 266.253716 
L 783.627706 268.751241 
L 786.311688 273.097008 
L 788.995671 273.639797 
L 791.679654 278.682945 
L 794.363636 283.049322 
L 797.047619 284.797932 
L 799.731602 296.863015 
L 802.415584 291.613742 
L 805.099567 272.372137 
L 807.78355 276.992733 
L 810.467532 274.95555 
L 813.151515 283.842898 
L 815.835498 287.831383 
L 818.519481 283.227965 
L 821.203463 278.335976 
L 823.887446 268.710018 
L 826.571429 259.846717 
L 829.255411 263.055368 
L 831.939394 268.551988 
L 834.623377 266.463272 
L 837.307359 259.355457 
L 839.991342 264.072245 
L 842.675325 244.610775 
L 845.359307 243.803458 
L 848.04329 252.786998 
L 850.727273 256.778916 
L 853.411255 251.625835 
L 856.095238 265.738408 
L 858.779221 261.914819 
L 861.463203 264.439828 
L 866.831169 261.818627 
L 869.515152 251.718587 
L 872.199134 252.47437 
L 874.883117 250.773853 
L 877.5671 259.616541 
L 880.251082 253.604614 
L 882.935065 262.540057 
L 888.30303 249.571468 
L 890.987013 245.325328 
L 893.670996 246.775063 
L 896.354978 245.174174 
L 899.038961 240.498614 
L 901.722944 243.844683 
L 904.406926 242.64917 
L 907.090909 248.533988 
L 909.774892 257.249568 
L 912.458874 265.308987 
L 915.142857 267.940492 
L 917.82684 260.135292 
L 920.510823 265.377692 
L 923.194805 254.315746 
L 925.878788 259.657773 
L 928.562771 255.432245 
L 931.246753 248.867217 
L 933.930736 244.669174 
L 936.614719 225.826073 
L 939.298701 229.690882 
L 941.982684 230.295511 
L 944.666667 229.048467 
L 947.350649 228.327038 
L 950.034632 233.39767 
L 952.718615 224.012192 
L 955.402597 225.01876 
L 958.08658 226.506284 
L 960.770563 229.927931 
L 963.454545 215.708859 
L 966.138528 212.912453 
L 968.822511 209.827474 
L 971.506494 203.080374 
L 974.190476 201.984484 
L 976.874459 187.902828 
L 979.558442 190.623654 
L 982.242424 198.102492 
L 984.926407 195.687415 
L 987.61039 194.381965 
L 990.294372 206.879907 
L 992.978355 206.426437 
L 995.662338 197.394801 
L 998.34632 197.583746 
L 1001.030303 204.705306 
L 1003.714286 201.173725 
L 1006.398268 208.7144 
L 1009.082251 225.499707 
L 1011.766234 217.344094 
L 1014.450216 224.207998 
L 1017.134199 227.976621 
L 1019.818182 225.970354 
L 1022.502165 210.665702 
L 1025.186147 210.713804 
L 1027.87013 206.402392 
L 1030.554113 212.754425 
L 1033.238095 214.307223 
L 1035.922078 213.657933 
L 1038.606061 216.96621 
L 1041.290043 218.381593 
L 1043.974026 210.700068 
L 1046.658009 216.39594 
L 1049.341991 215.166072 
L 1052.025974 207.790294 
L 1054.709957 197.800183 
L 1057.393939 203.928914 
L 1060.077922 204.787761 
L 1062.761905 209.17475 
L 1065.445887 203.784628 
L 1070.813853 194.752993 
L 1073.497835 198.281136 
L 1076.181818 193.966287 
L 1078.865801 195.464114 
L 1081.549784 208.549506 
L 1084.233766 209.130088 
L 1089.601732 201.867674 
L 1092.285714 207.982664 
L 1094.969697 205.33398 
L 1097.65368 189.328509 
L 1100.337662 192.56121 
L 1103.021645 194.783907 
L 1105.705628 206.258103 
L 1108.38961 212.452107 
L 1111.073593 206.505449 
L 1113.757576 208.116645 
L 1116.441558 208.319333 
L 1119.125541 211.376827 
L 1121.809524 209.782805 
L 1124.493506 207.773101 
L 1127.177489 208.326198 
L 1129.861472 195.941622 
L 1132.545455 190.111772 
L 1135.229437 192.08025 
L 1137.91342 187.631423 
L 1140.597403 193.045594 
L 1143.281385 192.107735 
L 1145.965368 180.28313 
L 1148.649351 171.722145 
L 1151.333333 164.408203 
L 1154.017316 167.568763 
L 1156.701299 168.248972 
L 1159.385281 174.683452 
L 1162.069264 186.738228 
L 1164.753247 175.315563 
L 1167.437229 170.323946 
L 1170.121212 167.149648 
L 1172.805195 176.102268 
L 1175.489177 168.317677 
L 1178.17316 165.610593 
L 1180.857143 153.717283 
L 1183.541126 152.593913 
L 1186.225108 144.379903 
L 1188.909091 132.943496 
L 1191.593074 143.424862 
L 1194.277056 126.096766 
L 1196.961039 129.168 
L 1199.645022 118.562959 
L 1202.329004 122.860629 
L 1205.012987 122.283486 
L 1207.69697 120.318443 
L 1210.380952 119.442422 
L 1213.064935 102.37885 
L 1215.748918 107.583465 
L 1218.4329 98.35258 
L 1221.116883 121.081104 
L 1223.800866 166.417915 
L 1226.484848 136.557525 
L 1229.168831 116.999861 
L 1231.852814 92.048642 
L 1234.536797 90.82908 
L 1237.220779 81.766525 
L 1239.904762 86.486744 
L 1242.588745 66.96 
L 1245.272727 74.064382 
L 1245.272727 74.064382 
" style="fill:none;stroke:#ff0000;stroke-linecap:square;stroke-width:5;"/>
   </g>
   <g id="line2d_16">
    <path clip-path="url(#p5e11572426)" d="M 230.727273 230.391697 
L 233.411255 230.391697 
L 236.095238 227.444433 
L 238.779221 226.520002 
L 241.463203 235.457307 
L 244.147186 235.457307 
L 246.831169 247.458881 
L 249.515152 247.458881 
L 252.199134 254.117598 
L 254.883117 265.022103 
L 260.251082 265.022103 
L 262.935065 251.121774 
L 265.619048 251.121774 
L 268.30303 232.796357 
L 270.987013 227.613041 
L 273.670996 220.396834 
L 279.038961 220.396834 
L 281.722944 225.970965 
L 284.406926 237.225835 
L 292.458874 237.225835 
L 295.142857 231.175033 
L 300.510823 231.175033 
L 303.194805 231.293347 
L 305.878788 235.700478 
L 308.562771 235.700478 
L 311.246753 244.234721 
L 319.298701 244.234721 
L 321.982684 247.012693 
L 327.350649 247.012693 
L 330.034632 245.335266 
L 332.718615 248.948485 
L 338.08658 248.948485 
L 340.770563 255.514078 
L 343.454545 244.752609 
L 348.822511 244.752609 
L 351.506494 235.631471 
L 354.190476 237.692459 
L 356.874459 231.893742 
L 367.61039 231.893742 
L 370.294372 231.582366 
L 372.978355 231.582366 
L 375.662338 228.727148 
L 378.34632 236.680656 
L 381.030303 251.341519 
L 383.714286 244.708494 
L 386.398268 256.439808 
L 389.082251 236.824948 
L 391.766234 208.377713 
L 394.450216 218.386277 
L 397.134199 218.386277 
L 402.502165 227.585767 
L 407.87013 227.585767 
L 410.554113 220.695974 
L 415.922078 220.695974 
L 418.606061 220.445593 
L 423.974026 220.445593 
L 426.658009 227.213125 
L 429.341991 227.213125 
L 432.025974 207.891413 
L 434.709957 207.891413 
L 437.393939 210.508076 
L 440.077922 210.508076 
L 442.761905 211.311112 
L 450.813853 211.311112 
L 453.497835 215.13431 
L 456.181818 234.09502 
L 458.865801 235.849241 
L 461.549784 235.849241 
L 464.233766 225.173645 
L 466.917749 236.977148 
L 469.601732 230.039052 
L 472.285714 211.975864 
L 474.969697 209.495298 
L 477.65368 209.495298 
L 480.337662 224.449994 
L 483.021645 224.449994 
L 485.705628 230.355494 
L 488.38961 230.355494 
L 491.073593 230.086875 
L 493.757576 230.086875 
L 496.441558 245.693507 
L 504.493506 245.693507 
L 507.177489 241.73157 
L 509.861472 245.062139 
L 512.545455 239.117119 
L 517.91342 239.117119 
L 520.597403 246.001261 
L 523.281385 244.946466 
L 525.965368 244.946466 
L 528.649351 251.198894 
L 536.701299 251.198894 
L 539.385281 251.615839 
L 560.857143 251.615839 
L 563.541126 261.021511 
L 566.225108 261.484498 
L 568.909091 255.632543 
L 571.593074 255.632543 
L 574.277056 258.030263 
L 576.961039 258.030263 
L 579.645022 263.424432 
L 582.329004 263.424432 
L 585.012987 245.096184 
L 587.69697 245.096184 
L 590.380952 238.483227 
L 593.064935 238.483227 
L 595.748918 236.76962 
L 603.800866 236.76962 
L 606.484848 235.860001 
L 611.852814 235.860001 
L 614.536797 205.758866 
L 617.220779 201.766435 
L 622.588745 201.766435 
L 625.272727 189.575952 
L 633.324675 189.575952 
L 636.008658 192.397224 
L 638.692641 192.397224 
L 641.376623 166.212955 
L 649.428571 166.212955 
L 652.112554 161.56451 
L 654.796537 144.945279 
L 657.480519 144.268394 
L 665.532468 144.268394 
L 668.21645 153.711756 
L 670.900433 168.293695 
L 673.584416 165.433901 
L 676.268398 169.565134 
L 678.952381 169.565134 
L 681.636364 145.160051 
L 684.320346 147.599113 
L 687.004329 147.599113 
L 689.688312 144.334469 
L 692.372294 144.334469 
L 695.056277 143.779824 
L 697.74026 143.779824 
L 700.424242 156.943988 
L 705.792208 156.943988 
L 708.47619 145.433797 
L 711.160173 137.951985 
L 713.844156 142.795811 
L 716.528139 138.568264 
L 719.212121 145.44131 
L 721.896104 145.44131 
L 724.580087 132.162918 
L 727.264069 150.676899 
L 729.948052 155.28361 
L 732.632035 171.270718 
L 740.683983 171.270718 
L 743.367965 180.340832 
L 746.051948 180.340832 
L 748.735931 153.918721 
L 751.419913 166.557345 
L 754.103896 166.557345 
L 756.787879 152.489412 
L 759.471861 150.434315 
L 762.155844 173.098175 
L 764.839827 176.993782 
L 770.207792 176.993782 
L 772.891775 192.2192 
L 775.575758 195.274061 
L 780.943723 195.274061 
L 783.627706 198.114421 
L 786.311688 203.056731 
L 788.995671 203.674029 
L 794.363636 203.674029 
L 797.047619 205.700074 
L 799.731602 205.700074 
L 802.415584 199.467107 
L 805.099567 199.467107 
L 807.78355 204.746979 
L 810.467532 202.419126 
L 813.151515 212.574537 
L 815.835498 217.132106 
L 818.519481 211.871865 
L 821.203463 206.281877 
L 823.887446 206.281877 
L 826.571429 196.343386 
L 829.255411 196.343386 
L 831.939394 202.544801 
L 842.675325 202.544801 
L 845.359307 201.674446 
L 848.04329 211.359461 
L 858.779221 211.359461 
L 861.463203 214.129287 
L 866.831169 211.253943 
L 869.515152 200.174631 
L 874.883117 200.174631 
L 877.5671 209.857474 
L 880.251082 203.274347 
L 882.935065 213.058756 
L 885.619048 205.926405 
L 890.987013 205.926405 
L 893.670996 207.482305 
L 896.354978 205.764181 
L 904.406926 205.764181 
L 907.090909 212.050456 
L 909.774892 221.360602 
L 917.82684 221.360602 
L 920.510823 226.991521 
L 923.194805 226.991521 
L 925.878788 232.609468 
L 928.562771 228.165688 
L 936.614719 228.165688 
L 939.298701 232.014278 
L 941.982684 232.014278 
L 944.666667 230.771111 
L 947.350649 230.771111 
L 950.034632 235.819413 
L 955.402597 235.819413 
L 958.08658 237.27816 
L 960.770563 237.27816 
L 963.454545 223.247943 
L 971.506494 223.247943 
L 974.190476 222.190142 
L 984.926407 222.190142 
L 987.61039 220.943569 
L 990.294372 220.943569 
L 992.978355 220.501162 
L 1001.030303 220.501162 
L 1003.714286 217.065988 
L 1009.082251 217.065988 
L 1011.766234 208.787074 
L 1025.186147 208.835334 
L 1027.87013 204.509779 
L 1030.554113 210.882649 
L 1033.238095 212.440541 
L 1035.922078 212.440541 
L 1038.606061 215.755887 
L 1049.341991 215.755887 
L 1052.025974 208.387766 
L 1057.393939 208.387766 
L 1060.077922 209.240003 
L 1062.761905 213.593232 
L 1065.445887 208.244589 
L 1092.285714 208.244589 
L 1094.969697 205.597111 
L 1097.65368 189.598927 
L 1103.021645 189.598927 
L 1105.705628 201.174207 
L 1108.38961 207.422779 
L 1111.073593 201.423733 
L 1113.757576 201.423733 
L 1116.441558 201.628779 
L 1124.493506 201.628779 
L 1127.177489 202.187781 
L 1129.861472 202.187781 
L 1132.545455 196.419923 
L 1135.229437 198.367469 
L 1137.91342 193.96595 
L 1140.597403 193.96595 
L 1143.281385 193.029553 
L 1148.649351 193.029553 
L 1151.333333 185.970415 
L 1162.069264 185.970415 
L 1164.753247 174.533049 
L 1170.121212 174.533049 
L 1172.805195 183.378395 
L 1175.489177 183.378395 
L 1178.17316 180.737603 
L 1180.857143 180.737603 
L 1183.541126 179.662443 
L 1186.225108 171.800941 
L 1194.277056 171.800941 
L 1196.961039 174.658602 
L 1199.645022 174.658602 
L 1202.329004 178.59362 
L 1205.012987 178.065179 
L 1207.69697 176.265952 
L 1218.4329 176.265952 
L 1221.116883 196.409217 
L 1223.800866 236.589186 
L 1226.484848 210.125271 
L 1229.168831 192.792196 
L 1231.852814 192.792196 
L 1234.536797 191.750365 
L 1237.220779 184.008529 
L 1239.904762 188.040853 
L 1245.272727 188.040853 
L 1245.272727 188.040853 
" style="fill:none;stroke:#0000ff;stroke-linecap:square;stroke-width:2;"/>
   </g>
   <g id="line2d_17">
    <path clip-path="url(#p5e11572426)" d="M 230.727273 230.391697 
L 233.411255 230.391697 
L 236.095238 227.444433 
L 238.779221 227.444433 
L 241.463203 236.366901 
L 244.147186 236.366901 
L 246.831169 248.348549 
L 249.515152 248.348549 
L 252.199134 254.996211 
L 260.251082 254.996211 
L 262.935065 240.827003 
L 265.619048 240.827003 
L 268.30303 222.147111 
L 270.987013 216.863533 
L 273.670996 209.507739 
L 281.722944 209.507739 
L 284.406926 221.095053 
L 292.458874 221.095053 
L 295.142857 214.865524 
L 300.510823 214.865524 
L 303.194805 214.987333 
L 305.878788 219.52464 
L 308.562771 219.52464 
L 311.246753 228.310965 
L 319.298701 228.310965 
L 321.982684 231.170991 
L 330.034632 231.170991 
L 332.718615 234.879339 
L 367.61039 234.879339 
L 370.294372 234.569648 
L 372.978355 234.569648 
L 375.662338 231.72989 
L 378.34632 239.640335 
L 381.030303 239.640335 
L 383.714286 232.861416 
L 386.398268 244.850761 
L 389.082251 244.850761 
L 391.766234 216.821291 
L 394.450216 226.682873 
L 397.134199 226.682873 
L 399.818182 231.234576 
L 407.87013 231.234576 
L 410.554113 224.390019 
L 415.922078 224.390019 
L 418.606061 224.141282 
L 423.974026 224.141282 
L 426.658009 230.864381 
L 434.709957 230.864381 
L 437.393939 233.376582 
L 440.077922 233.376582 
L 442.761905 234.147559 
L 450.813853 234.147559 
L 453.497835 237.818126 
L 461.549784 237.818126 
L 464.233766 227.180921 
L 466.917749 238.941976 
L 469.601732 232.028831 
L 472.285714 232.028831 
L 474.969697 229.635326 
L 483.021645 229.635326 
L 485.705628 235.486035 
L 488.38961 235.486035 
L 491.073593 235.219908 
L 493.757576 235.219908 
L 496.441558 250.681742 
L 507.177489 250.681742 
L 509.861472 253.957272 
L 512.545455 248.110495 
L 517.91342 248.110495 
L 520.597403 254.880875 
L 566.225108 254.880875 
L 568.909091 248.954868 
L 576.961039 248.954868 
L 579.645022 254.44223 
L 582.329004 254.44223 
L 585.012987 235.797335 
L 611.852814 235.797335 
L 614.536797 205.692754 
L 617.220779 201.699866 
L 633.324675 201.699866 
L 636.008658 204.463531 
L 638.692641 204.463531 
L 641.376623 178.813916 
L 649.428571 178.813916 
L 652.112554 174.260388 
L 654.796537 174.260388 
L 657.480519 173.614586 
L 665.532468 173.614586 
L 668.21645 182.624304 
L 670.900433 196.536635 
L 673.584416 193.808163 
L 676.268398 197.749688 
L 678.952381 197.749688 
L 681.636364 174.465298 
L 684.320346 176.792357 
L 692.372294 176.792357 
L 695.056277 176.265885 
L 697.74026 176.265885 
L 700.424242 188.761378 
L 705.792208 188.761378 
L 708.47619 177.835844 
L 711.160173 170.734069 
L 713.844156 175.331854 
L 716.528139 171.319045 
L 719.212121 177.842976 
L 729.948052 177.842976 
L 732.632035 193.255832 
L 740.683983 193.255832 
L 743.367965 202.000152 
L 746.051948 202.000152 
L 748.735931 176.527114 
L 751.419913 188.711762 
L 754.103896 188.711762 
L 756.787879 175.149144 
L 759.471861 173.167866 
L 762.155844 173.167866 
L 764.839827 177.063028 
L 780.943723 177.063028 
L 783.627706 179.991348 
L 786.311688 185.086712 
L 788.995671 185.723126 
L 794.363636 185.723126 
L 797.047619 187.811913 
L 799.731602 187.811913 
L 802.415584 181.385924 
L 805.099567 181.385924 
L 807.78355 186.829303 
L 810.467532 184.429361 
L 813.151515 184.429361 
L 815.835498 189.211672 
L 818.519481 189.211672 
L 821.203463 183.400025 
L 823.887446 183.400025 
L 826.571429 173.067443 
L 842.675325 173.067443 
L 845.359307 172.152914 
L 858.779221 172.152914 
L 861.463203 175.112601 
L 866.831169 172.040163 
L 874.883117 172.040163 
L 877.5671 182.190153 
L 880.251082 175.289424 
L 890.987013 175.289424 
L 893.670996 176.92788 
L 896.354978 175.118593 
L 907.090909 175.118593 
L 909.774892 185.030614 
L 917.82684 185.030614 
L 920.510823 191.025556 
L 925.878788 191.025556 
L 928.562771 186.246237 
L 936.614719 186.246237 
L 939.298701 190.385425 
L 941.982684 190.385425 
L 944.666667 189.048389 
L 955.402597 189.048389 
L 958.08658 190.631748 
L 1025.186147 190.631748 
L 1027.87013 186.169133 
L 1030.554113 186.169133 
L 1033.238095 187.794281 
L 1049.341991 187.794281 
L 1052.025974 180.063171 
L 1132.545455 180.063171 
L 1135.229437 182.064992 
L 1148.649351 182.064992 
L 1151.333333 174.874735 
L 1199.645022 174.874735 
L 1202.329004 178.808355 
L 1218.4329 178.808355 
L 1221.116883 198.86726 
L 1223.800866 238.878955 
L 1226.484848 212.525871 
L 1231.852814 212.525871 
L 1234.536797 211.518854 
L 1237.220779 211.518854 
L 1239.904762 215.366087 
L 1245.272727 215.366087 
L 1245.272727 215.366087 
" style="fill:none;stroke:#008000;stroke-linecap:square;stroke-width:2;"/>
   </g>
   <g id="patch_3">
    <path d="M 180 384.48 
L 180 51.84 
" style="fill:none;stroke:#000000;stroke-linecap:square;stroke-linejoin:miter;stroke-width:0.8;"/>
   </g>
   <g id="patch_4">
    <path d="M 1296 384.48 
L 1296 51.84 
" style="fill:none;stroke:#000000;stroke-linecap:square;stroke-linejoin:miter;stroke-width:0.8;"/>
   </g>
   <g id="patch_5">
    <path d="M 180 384.48 
L 1296 384.48 
" style="fill:none;stroke:#000000;stroke-linecap:square;stroke-linejoin:miter;stroke-width:0.8;"/>
   </g>
   <g id="patch_6">
    <path d="M 180 51.84 
L 1296 51.84 
" style="fill:none;stroke:#000000;stroke-linecap:square;stroke-linejoin:miter;stroke-width:0.8;"/>
   </g>
   <g id="text_16">
    <!-- LSTM Gait Prediction -->
    <defs>
     <path d="M 9.8125 72.90625 
L 19.671875 72.90625 
L 19.671875 8.296875 
L 55.171875 8.296875 
L 55.171875 0 
L 9.8125 0 
z
" id="DejaVuSans-76"/>
     <path d="M 53.515625 70.515625 
L 53.515625 60.890625 
Q 47.90625 63.578125 42.921875 64.890625 
Q 37.9375 66.21875 33.296875 66.21875 
Q 25.25 66.21875 20.875 63.09375 
Q 16.5 59.96875 16.5 54.203125 
Q 16.5 49.359375 19.40625 46.890625 
Q 22.3125 44.4375 30.421875 42.921875 
L 36.375 41.703125 
Q 47.40625 39.59375 52.65625 34.296875 
Q 57.90625 29 57.90625 20.125 
Q 57.90625 9.515625 50.796875 4.046875 
Q 43.703125 -1.421875 29.984375 -1.421875 
Q 24.8125 -1.421875 18.96875 -0.25 
Q 13.140625 0.921875 6.890625 3.21875 
L 6.890625 13.375 
Q 12.890625 10.015625 18.65625 8.296875 
Q 24.421875 6.59375 29.984375 6.59375 
Q 38.421875 6.59375 43.015625 9.90625 
Q 47.609375 13.234375 47.609375 19.390625 
Q 47.609375 24.75 44.3125 27.78125 
Q 41.015625 30.8125 33.5 32.328125 
L 27.484375 33.5 
Q 16.453125 35.6875 11.515625 40.375 
Q 6.59375 45.0625 6.59375 53.421875 
Q 6.59375 63.09375 13.40625 68.65625 
Q 20.21875 74.21875 32.171875 74.21875 
Q 37.3125 74.21875 42.625 73.28125 
Q 47.953125 72.359375 53.515625 70.515625 
z
" id="DejaVuSans-83"/>
     <path d="M -0.296875 72.90625 
L 61.375 72.90625 
L 61.375 64.59375 
L 35.5 64.59375 
L 35.5 0 
L 25.59375 0 
L 25.59375 64.59375 
L -0.296875 64.59375 
z
" id="DejaVuSans-84"/>
     <path d="M 9.8125 72.90625 
L 24.515625 72.90625 
L 43.109375 23.296875 
L 61.8125 72.90625 
L 76.515625 72.90625 
L 76.515625 0 
L 66.890625 0 
L 66.890625 64.015625 
L 48.09375 14.015625 
L 38.1875 14.015625 
L 19.390625 64.015625 
L 19.390625 0 
L 9.8125 0 
z
" id="DejaVuSans-77"/>
     <path d="M 59.515625 10.40625 
L 59.515625 29.984375 
L 43.40625 29.984375 
L 43.40625 38.09375 
L 69.28125 38.09375 
L 69.28125 6.78125 
Q 63.578125 2.734375 56.6875 0.65625 
Q 49.8125 -1.421875 42 -1.421875 
Q 24.90625 -1.421875 15.25 8.5625 
Q 5.609375 18.5625 5.609375 36.375 
Q 5.609375 54.25 15.25 64.234375 
Q 24.90625 74.21875 42 74.21875 
Q 49.125 74.21875 55.546875 72.453125 
Q 61.96875 70.703125 67.390625 67.28125 
L 67.390625 56.78125 
Q 61.921875 61.421875 55.765625 63.765625 
Q 49.609375 66.109375 42.828125 66.109375 
Q 29.4375 66.109375 22.71875 58.640625 
Q 16.015625 51.171875 16.015625 36.375 
Q 16.015625 21.625 22.71875 14.15625 
Q 29.4375 6.6875 42.828125 6.6875 
Q 48.046875 6.6875 52.140625 7.59375 
Q 56.25 8.5 59.515625 10.40625 
z
" id="DejaVuSans-71"/>
     <path d="M 34.28125 27.484375 
Q 23.390625 27.484375 19.1875 25 
Q 14.984375 22.515625 14.984375 16.5 
Q 14.984375 11.71875 18.140625 8.90625 
Q 21.296875 6.109375 26.703125 6.109375 
Q 34.1875 6.109375 38.703125 11.40625 
Q 43.21875 16.703125 43.21875 25.484375 
L 43.21875 27.484375 
z
M 52.203125 31.203125 
L 52.203125 0 
L 43.21875 0 
L 43.21875 8.296875 
Q 40.140625 3.328125 35.546875 0.953125 
Q 30.953125 -1.421875 24.3125 -1.421875 
Q 15.921875 -1.421875 10.953125 3.296875 
Q 6 8.015625 6 15.921875 
Q 6 25.140625 12.171875 29.828125 
Q 18.359375 34.515625 30.609375 34.515625 
L 43.21875 34.515625 
L 43.21875 35.40625 
Q 43.21875 41.609375 39.140625 45 
Q 35.0625 48.390625 27.6875 48.390625 
Q 23 48.390625 18.546875 47.265625 
Q 14.109375 46.140625 10.015625 43.890625 
L 10.015625 52.203125 
Q 14.9375 54.109375 19.578125 55.046875 
Q 24.21875 56 28.609375 56 
Q 40.484375 56 46.34375 49.84375 
Q 52.203125 43.703125 52.203125 31.203125 
z
" id="DejaVuSans-97"/>
     <path d="M 19.671875 64.796875 
L 19.671875 37.40625 
L 32.078125 37.40625 
Q 38.96875 37.40625 42.71875 40.96875 
Q 46.484375 44.53125 46.484375 51.125 
Q 46.484375 57.671875 42.71875 61.234375 
Q 38.96875 64.796875 32.078125 64.796875 
z
M 9.8125 72.90625 
L 32.078125 72.90625 
Q 44.34375 72.90625 50.609375 67.359375 
Q 56.890625 61.8125 56.890625 51.125 
Q 56.890625 40.328125 50.609375 34.8125 
Q 44.34375 29.296875 32.078125 29.296875 
L 19.671875 29.296875 
L 19.671875 0 
L 9.8125 0 
z
" id="DejaVuSans-80"/>
     <path d="M 41.109375 46.296875 
Q 39.59375 47.171875 37.8125 47.578125 
Q 36.03125 48 33.890625 48 
Q 26.265625 48 22.1875 43.046875 
Q 18.109375 38.09375 18.109375 28.8125 
L 18.109375 0 
L 9.078125 0 
L 9.078125 54.6875 
L 18.109375 54.6875 
L 18.109375 46.1875 
Q 20.953125 51.171875 25.484375 53.578125 
Q 30.03125 56 36.53125 56 
Q 37.453125 56 38.578125 55.875 
Q 39.703125 55.765625 41.0625 55.515625 
z
" id="DejaVuSans-114"/>
     <path d="M 45.40625 46.390625 
L 45.40625 75.984375 
L 54.390625 75.984375 
L 54.390625 0 
L 45.40625 0 
L 45.40625 8.203125 
Q 42.578125 3.328125 38.25 0.953125 
Q 33.9375 -1.421875 27.875 -1.421875 
Q 17.96875 -1.421875 11.734375 6.484375 
Q 5.515625 14.40625 5.515625 27.296875 
Q 5.515625 40.1875 11.734375 48.09375 
Q 17.96875 56 27.875 56 
Q 33.9375 56 38.25 53.625 
Q 42.578125 51.265625 45.40625 46.390625 
z
M 14.796875 27.296875 
Q 14.796875 17.390625 18.875 11.75 
Q 22.953125 6.109375 30.078125 6.109375 
Q 37.203125 6.109375 41.296875 11.75 
Q 45.40625 17.390625 45.40625 27.296875 
Q 45.40625 37.203125 41.296875 42.84375 
Q 37.203125 48.484375 30.078125 48.484375 
Q 22.953125 48.484375 18.875 42.84375 
Q 14.796875 37.203125 14.796875 27.296875 
z
" id="DejaVuSans-100"/>
     <path d="M 48.78125 52.59375 
L 48.78125 44.1875 
Q 44.96875 46.296875 41.140625 47.34375 
Q 37.3125 48.390625 33.40625 48.390625 
Q 24.65625 48.390625 19.8125 42.84375 
Q 14.984375 37.3125 14.984375 27.296875 
Q 14.984375 17.28125 19.8125 11.734375 
Q 24.65625 6.203125 33.40625 6.203125 
Q 37.3125 6.203125 41.140625 7.25 
Q 44.96875 8.296875 48.78125 10.40625 
L 48.78125 2.09375 
Q 45.015625 0.34375 40.984375 -0.53125 
Q 36.96875 -1.421875 32.421875 -1.421875 
Q 20.0625 -1.421875 12.78125 6.34375 
Q 5.515625 14.109375 5.515625 27.296875 
Q 5.515625 40.671875 12.859375 48.328125 
Q 20.21875 56 33.015625 56 
Q 37.15625 56 41.109375 55.140625 
Q 45.0625 54.296875 48.78125 52.59375 
z
" id="DejaVuSans-99"/>
     <path d="M 30.609375 48.390625 
Q 23.390625 48.390625 19.1875 42.75 
Q 14.984375 37.109375 14.984375 27.296875 
Q 14.984375 17.484375 19.15625 11.84375 
Q 23.34375 6.203125 30.609375 6.203125 
Q 37.796875 6.203125 41.984375 11.859375 
Q 46.1875 17.53125 46.1875 27.296875 
Q 46.1875 37.015625 41.984375 42.703125 
Q 37.796875 48.390625 30.609375 48.390625 
z
M 30.609375 56 
Q 42.328125 56 49.015625 48.375 
Q 55.71875 40.765625 55.71875 27.296875 
Q 55.71875 13.875 49.015625 6.21875 
Q 42.328125 -1.421875 30.609375 -1.421875 
Q 18.84375 -1.421875 12.171875 6.21875 
Q 5.515625 13.875 5.515625 27.296875 
Q 5.515625 40.765625 12.171875 48.375 
Q 18.84375 56 30.609375 56 
z
" id="DejaVuSans-111"/>
     <path d="M 54.890625 33.015625 
L 54.890625 0 
L 45.90625 0 
L 45.90625 32.71875 
Q 45.90625 40.484375 42.875 44.328125 
Q 39.84375 48.1875 33.796875 48.1875 
Q 26.515625 48.1875 22.3125 43.546875 
Q 18.109375 38.921875 18.109375 30.90625 
L 18.109375 0 
L 9.078125 0 
L 9.078125 54.6875 
L 18.109375 54.6875 
L 18.109375 46.1875 
Q 21.34375 51.125 25.703125 53.5625 
Q 30.078125 56 35.796875 56 
Q 45.21875 56 50.046875 50.171875 
Q 54.890625 44.34375 54.890625 33.015625 
z
" id="DejaVuSans-110"/>
    </defs>
    <g transform="translate(675.80625 45.84)scale(0.12 -0.12)">
     <use xlink:href="#DejaVuSans-76"/>
     <use x="55.712891" xlink:href="#DejaVuSans-83"/>
     <use x="119.189453" xlink:href="#DejaVuSans-84"/>
     <use x="180.273438" xlink:href="#DejaVuSans-77"/>
     <use x="266.552734" xlink:href="#DejaVuSans-32"/>
     <use x="298.339844" xlink:href="#DejaVuSans-71"/>
     <use x="375.830078" xlink:href="#DejaVuSans-97"/>
     <use x="437.109375" xlink:href="#DejaVuSans-105"/>
     <use x="464.892578" xlink:href="#DejaVuSans-116"/>
     <use x="504.101562" xlink:href="#DejaVuSans-32"/>
     <use x="535.888672" xlink:href="#DejaVuSans-80"/>
     <use x="596.175781" xlink:href="#DejaVuSans-114"/>
     <use x="637.257812" xlink:href="#DejaVuSans-101"/>
     <use x="698.78125" xlink:href="#DejaVuSans-100"/>
     <use x="762.257812" xlink:href="#DejaVuSans-105"/>
     <use x="790.041016" xlink:href="#DejaVuSans-99"/>
     <use x="845.021484" xlink:href="#DejaVuSans-116"/>
     <use x="884.230469" xlink:href="#DejaVuSans-105"/>
     <use x="912.013672" xlink:href="#DejaVuSans-111"/>
     <use x="973.195312" xlink:href="#DejaVuSans-110"/>
    </g>
   </g>
   <g id="legend_1">
    <g id="patch_7">
     <path d="M 187 103.874375 
L 236.017188 103.874375 
Q 238.017188 103.874375 238.017188 101.874375 
L 238.017188 58.84 
Q 238.017188 56.84 236.017188 56.84 
L 187 56.84 
Q 185 56.84 185 58.84 
L 185 101.874375 
Q 185 103.874375 187 103.874375 
z
" style="fill:#ffffff;opacity:0.8;stroke:#cccccc;stroke-linejoin:miter;"/>
    </g>
    <g id="line2d_18">
     <path d="M 189 64.938437 
L 209 64.938437 
" style="fill:none;stroke:#ff0000;stroke-linecap:square;stroke-width:5;"/>
    </g>
    <g id="line2d_19"/>
    <g id="text_17">
     <!-- GEI -->
     <defs>
      <path d="M 9.8125 72.90625 
L 55.90625 72.90625 
L 55.90625 64.59375 
L 19.671875 64.59375 
L 19.671875 43.015625 
L 54.390625 43.015625 
L 54.390625 34.71875 
L 19.671875 34.71875 
L 19.671875 8.296875 
L 56.78125 8.296875 
L 56.78125 0 
L 9.8125 0 
z
" id="DejaVuSans-69"/>
      <path d="M 9.8125 72.90625 
L 19.671875 72.90625 
L 19.671875 0 
L 9.8125 0 
z
" id="DejaVuSans-73"/>
     </defs>
     <g transform="translate(217 68.438437)scale(0.1 -0.1)">
      <use xlink:href="#DejaVuSans-71"/>
      <use x="77.490234" xlink:href="#DejaVuSans-69"/>
      <use x="140.673828" xlink:href="#DejaVuSans-73"/>
     </g>
    </g>
    <g id="line2d_20">
     <path d="M 189 79.616562 
L 209 79.616562 
" style="fill:none;stroke:#0000ff;stroke-linecap:square;stroke-width:2;"/>
    </g>
    <g id="line2d_21"/>
    <g id="text_18">
     <!-- S0 -->
     <g transform="translate(217 83.116562)scale(0.1 -0.1)">
      <use xlink:href="#DejaVuSans-83"/>
      <use x="63.476562" xlink:href="#DejaVuSans-48"/>
     </g>
    </g>
    <g id="line2d_22">
     <path d="M 189 94.294687 
L 209 94.294687 
" style="fill:none;stroke:#008000;stroke-linecap:square;stroke-width:2;"/>
    </g>
    <g id="line2d_23"/>
    <g id="text_19">
     <!-- S1 -->
     <g transform="translate(217 97.794687)scale(0.1 -0.1)">
      <use xlink:href="#DejaVuSans-83"/>
      <use x="63.476562" xlink:href="#DejaVuSans-49"/>
     </g>
    </g>
   </g>
  </g>
 </g>
 <defs>
  <clipPath id="p5e11572426">
   <rect height="332.64" width="1116" x="180" y="51.84"/>
  </clipPath>
 </defs>
</svg>
